ISO-10303-21;
HEADER;
FILE_DESCRIPTION (( 'STEP AP214' ),
    '1' );
FILE_NAME ('C1608JB0G156M080AA.STEP',
    '2022-02-03T09:09:55',
    ( '' ),
    ( '' ),
    'SwSTEP 2.0',
    'SolidWorks 2020',
    '' );
FILE_SCHEMA (( 'AUTOMOTIVE_DESIGN' ));
ENDSEC;

DATA;
#1 = CARTESIAN_POINT ( 'NONE',  ( 0.3750000000000000000, 1.000000000000000000, -0.3999999999999998002 ) ) ;
#2 = DIRECTION ( 'NONE',  ( 0.000000000000000000, 0.000000000000000000, 1.000000000000000000 ) ) ;
#3 = EDGE_CURVE ( 'NONE', #620, #1003, #436, .T. ) ;
#4 = APPLICATION_CONTEXT ( 'automotive_design' ) ;
#5 = AXIS2_PLACEMENT_3D ( 'NONE', #1007, #1180, #292 ) ;
#6 = AXIS2_PLACEMENT_3D ( 'NONE', #1244, #962, #1138 ) ;
#7 = AXIS2_PLACEMENT_3D ( 'NONE', #775, #947, #273 ) ;
#8 = ORIENTED_EDGE ( 'NONE', *, *, #1278, .F. ) ;
#9 = EDGE_CURVE ( 'NONE', #647, #291, #650, .T. ) ;
#10 = EDGE_LOOP ( 'NONE', ( #800, #604, #83, #447 ) ) ;
#11 = LINE ( 'NONE', #703, #901 ) ;
#12 =( LENGTH_UNIT ( ) NAMED_UNIT ( * ) SI_UNIT ( .MILLI., .METRE. ) );
#13 = CYLINDRICAL_SURFACE ( 'NONE', #1127, 0.02666666666666664756 ) ;
#14 = SURFACE_SIDE_STYLE ('',( #729 ) ) ;
#15 = ORIENTED_EDGE ( 'NONE', *, *, #633, .F. ) ;
#16 = ADVANCED_FACE ( 'NONE', ( #860 ), #1037, .T. ) ;
#17 = DIRECTION ( 'NONE',  ( -0.000000000000000000, 1.000000000000000000, 0.000000000000000000 ) ) ;
#18 = DIRECTION ( 'NONE',  ( -1.000000000000000000, 0.000000000000000000, 0.000000000000000000 ) ) ;
#19 = SURFACE_SIDE_STYLE ('',( #928 ) ) ;
#20 = ORIENTED_EDGE ( 'NONE', *, *, #675, .T. ) ;
#21 = FACE_OUTER_BOUND ( 'NONE', #586, .T. ) ;
#22 = DIRECTION ( 'NONE',  ( 2.032879073410321307E-16, -0.000000000000000000, -1.000000000000000000 ) ) ;
#23 = ADVANCED_FACE ( 'NONE', ( #838 ), #51, .F. ) ;
#24 = ORIENTED_EDGE ( 'NONE', *, *, #1232, .F. ) ;
#25 = DIRECTION ( 'NONE',  ( -1.000000000000000000, -0.000000000000000000, 8.673617379884037937E-17 ) ) ;
#26 = DIRECTION ( 'NONE',  ( 1.000000000000000000, -0.000000000000000000, -0.000000000000000000 ) ) ;
#27 = EDGE_CURVE ( 'NONE', #707, #323, #145, .T. ) ;
#28 = AXIS2_PLACEMENT_3D ( 'NONE', #1110, #548, #705 ) ;
#29 = AXIS2_PLACEMENT_3D ( 'NONE', #642, #635, #127 ) ;
#30 = ORIENTED_EDGE ( 'NONE', *, *, #228, .T. ) ;
#31 = ORIENTED_EDGE ( 'NONE', *, *, #624, .T. ) ;
#32 = DIRECTION ( 'NONE',  ( 0.000000000000000000, -0.000000000000000000, 1.000000000000000000 ) ) ;
#33 = LINE ( 'NONE', #815, #294 ) ;
#34 = VERTEX_POINT ( 'NONE', #1056 ) ;
#35 =( NAMED_UNIT ( * ) PLANE_ANGLE_UNIT ( ) SI_UNIT ( $, .RADIAN. ) );
#36 = DIRECTION ( 'NONE',  ( 0.000000000000000000, 0.000000000000000000, -1.000000000000000000 ) ) ;
#37 = EDGE_CURVE ( 'NONE', #69, #516, #95, .T. ) ;
#38 = ORIENTED_EDGE ( 'NONE', *, *, #160, .T. ) ;
#39 = AXIS2_PLACEMENT_3D ( 'NONE', #1061, #677, #91 ) ;
#40 = FACE_OUTER_BOUND ( 'NONE', #680, .T. ) ;
#41 = CARTESIAN_POINT ( 'NONE',  ( -0.3750000000000000000, 1.000000000000000000, -0.3599999999999998201 ) ) ;
#42 = ORIENTED_EDGE ( 'NONE', *, *, #1278, .T. ) ;
#43 = ORIENTED_EDGE ( 'NONE', *, *, #605, .T. ) ;
#44 = LINE ( 'NONE', #1195, #1250 ) ;
#45 = CARTESIAN_POINT ( 'NONE',  ( -0.7599999999999997868, 1.000000000000000000, 0.3600000000000000422 ) ) ;
#46 = VERTEX_POINT ( 'NONE', #458 ) ;
#47 = CARTESIAN_POINT ( 'NONE',  ( 0.3750000000195541361, 0.03999999999999999389, -0.3599999999999999867 ) ) ;
#48 = EDGE_LOOP ( 'NONE', ( #481, #347, #1224, #299 ) ) ;
#49 = DIRECTION ( 'NONE',  ( 1.000000000000000000, 0.000000000000000000, 2.032879073410321307E-16 ) ) ;
#50 = CIRCLE ( 'NONE', #1184, 0.03999999999999999389 ) ;
#51 = PLANE ( 'NONE',  #992 ) ;
#52 = AXIS2_PLACEMENT_3D ( 'NONE', #1048, #1159, #661 ) ;
#53 = DIRECTION ( 'NONE',  ( 1.000000000000000000, 0.000000000000000000, 0.000000000000000000 ) ) ;
#54 = ADVANCED_FACE ( 'NONE', ( #1142 ), #952, .T. ) ;
#55 = FACE_OUTER_BOUND ( 'NONE', #303, .T. ) ;
#56 = ORIENTED_EDGE ( 'NONE', *, *, #398, .F. ) ;
#57 = CARTESIAN_POINT ( 'NONE',  ( 0.8000000000000000444, 0.03999999999999999389, -0.3599999999999998201 ) ) ;
#58 = DIRECTION ( 'NONE',  ( -1.000000000000000000, 0.000000000000000000, 0.000000000000000000 ) ) ;
#59 = DIRECTION ( 'NONE',  ( -1.000000000000000000, 0.000000000000000000, -2.710505431213761578E-16 ) ) ;
#60 = SPHERICAL_SURFACE ( 'NONE', #543, 0.04000000000000000083 ) ;
#61 = ORIENTED_EDGE ( 'NONE', *, *, #348, .F. ) ;
#62 = ORIENTED_EDGE ( 'NONE', *, *, #287, .F. ) ;
#63 = DIRECTION ( 'NONE',  ( 1.000000000000000000, 0.000000000000000000, 0.000000000000000000 ) ) ;
#64 = ADVANCED_FACE ( 'NONE', ( #1147 ), #357, .T. ) ;
#65 = AXIS2_PLACEMENT_3D ( 'NONE', #699, #109, #791 ) ;
#66 = CARTESIAN_POINT ( 'NONE',  ( -0.8000000000000000444, 0.03999999999999999389, -0.3999999999999998002 ) ) ;
#67 = PLANE ( 'NONE',  #1104 ) ;
#68 = DIRECTION ( 'NONE',  ( 0.000000000000000000, 0.000000000000000000, 1.000000000000000000 ) ) ;
#69 = VERTEX_POINT ( 'NONE', #1050 ) ;
#70 = ORIENTED_EDGE ( 'NONE', *, *, #428, .F. ) ;
#71 = DIRECTION ( 'NONE',  ( 1.000000000000000000, -0.000000000000000000, 0.000000000000000000 ) ) ;
#72 = CARTESIAN_POINT ( 'NONE',  ( 0.7999999999999998224, 0.03999999999999999389, 0.3600000000000000422 ) ) ;
#73 = EDGE_CURVE ( 'NONE', #508, #232, #853, .T. ) ;
#74 = DIRECTION ( 'NONE',  ( 1.000000000000000000, -0.000000000000000000, -2.032879073410321307E-16 ) ) ;
#75 = CIRCLE ( 'NONE', #401, 0.02666666666666664756 ) ;
#76 = CARTESIAN_POINT ( 'NONE',  ( 0.000000000000000000, 0.9600000000000000755, -0.3599999999999998201 ) ) ;
#77 = AXIS2_PLACEMENT_3D ( 'NONE', #202, #603, #999 ) ;
#78 = AXIS2_PLACEMENT_3D ( 'NONE', #216, #1114, #210 ) ;
#79 = DIRECTION ( 'NONE',  ( 1.000000000000000000, 0.000000000000000000, 0.000000000000000000 ) ) ;
#80 = DIRECTION ( 'NONE',  ( 0.000000000000000000, 0.000000000000000000, -1.000000000000000000 ) ) ;
#81 = CIRCLE ( 'NONE', #974, 0.02666666666666669960 ) ;
#82 = EDGE_CURVE ( 'NONE', #248, #767, #563, .T. ) ;
#83 = ORIENTED_EDGE ( 'NONE', *, *, #987, .T. ) ;
#84 = CARTESIAN_POINT ( 'NONE',  ( -0.8000000000000000444, 1.000000000000000000, -0.3599999999999998201 ) ) ;
#85 = VERTEX_POINT ( 'NONE', #1242 ) ;
#86 = DIRECTION ( 'NONE',  ( 0.000000000000000000, -0.000000000000000000, -1.000000000000000000 ) ) ;
#87 = MECHANICAL_DESIGN_GEOMETRIC_PRESENTATION_REPRESENTATION (  '', ( #304 ), #1174 ) ;
#88 = FILL_AREA_STYLE ('',( #1079 ) ) ;
#89 = VERTEX_POINT ( 'NONE', #167 ) ;
#90 = CARTESIAN_POINT ( 'NONE',  ( 500000.0000000000582, 0.9600000000000000755, 0.3599999999566318443 ) ) ;
#91 = DIRECTION ( 'NONE',  ( 0.000000000000000000, 0.000000000000000000, 1.000000000000000000 ) ) ;
#92 = ORIENTED_EDGE ( 'NONE', *, *, #1246, .F. ) ;
#93 = ADVANCED_FACE ( 'NONE', ( #960 ), #365, .T. ) ;
#94 = AXIS2_PLACEMENT_3D ( 'NONE', #1219, #143, #333 ) ;
#95 = CIRCLE ( 'NONE', #799, 0.03999999999999999389 ) ;
#96 = VECTOR ( 'NONE', #1131, 1000.000000000000000 ) ;
#97 = DIRECTION ( 'NONE',  ( 1.000000000000000000, 0.000000000000000000, 2.032879073410321307E-16 ) ) ;
#98 = ORIENTED_EDGE ( 'NONE', *, *, #667, .T. ) ;
#99 = EDGE_CURVE ( 'NONE', #188, #89, #344, .T. ) ;
#100 = ORIENTED_EDGE ( 'NONE', *, *, #795, .T. ) ;
#101 = LINE ( 'NONE', #812, #1152 ) ;
#102 = AXIS2_PLACEMENT_3D ( 'NONE', #1015, #919, #497 ) ;
#103 = PRODUCT_CONTEXT ( 'NONE', #4, 'mechanical' ) ;
#104 = ORIENTED_EDGE ( 'NONE', *, *, #496, .F. ) ;
#105 = VERTEX_POINT ( 'NONE', #544 ) ;
#106 = ADVANCED_FACE ( 'NONE', ( #1230 ), #1137, .F. ) ;
#107 = ORIENTED_EDGE ( 'NONE', *, *, #180, .T. ) ;
#108 = ORIENTED_EDGE ( 'NONE', *, *, #99, .T. ) ;
#109 = DIRECTION ( 'NONE',  ( -1.000000000000000000, -0.000000000000000000, -0.000000000000000000 ) ) ;
#110 = ORIENTED_EDGE ( 'NONE', *, *, #930, .F. ) ;
#111 = VECTOR ( 'NONE', #25, 1000.000000000000000 ) ;
#112 = CARTESIAN_POINT ( 'NONE',  ( 0.3750000000000000000, 0.03999999999999999389, -0.3999999999999998002 ) ) ;
#113 = CARTESIAN_POINT ( 'NONE',  ( 500000.0000000000582, 0.9866666666666666918, -0.3600000000433680181 ) ) ;
#114 = AXIS2_PLACEMENT_3D ( 'NONE', #430, #537, #933 ) ;
#115 = ADVANCED_FACE ( 'NONE', ( #945 ), #1097, .F. ) ;
#116 = ORIENTED_EDGE ( 'NONE', *, *, #776, .T. ) ;
#117 = PRODUCT ( 'C1608JB0G156M080AA', 'C1608JB0G156M080AA', '', ( #103 ) ) ;
#118 = CARTESIAN_POINT ( 'NONE',  ( -0.8000000000000000444, 0.9600000000000000755, -0.3599999999999998201 ) ) ;
#119 = CARTESIAN_POINT ( 'NONE',  ( 0.7999999999999998224, 0.03999999999999999389, 0.3600000000000000422 ) ) ;
#120 = DIRECTION ( 'NONE',  ( 0.000000000000000000, 0.000000000000000000, 1.000000000000000000 ) ) ;
#121 = LINE ( 'NONE', #518, #235 ) ;
#122 = VERTEX_POINT ( 'NONE', #882 ) ;
#123 = ADVANCED_FACE ( 'NONE', ( #1182 ), #13, .T. ) ;
#124 = CARTESIAN_POINT ( 'NONE',  ( 0.7599999999999997868, 0.9600000000000000755, 0.3600000000000000422 ) ) ;
#125 = ORIENTED_EDGE ( 'NONE', *, *, #180, .F. ) ;
#126 =( NAMED_UNIT ( * ) SI_UNIT ( $, .STERADIAN. ) SOLID_ANGLE_UNIT ( ) );
#127 = DIRECTION ( 'NONE',  ( 1.000000000000000000, 0.000000000000000000, -8.673617379884037937E-17 ) ) ;
#128 = LINE ( 'NONE', #975, #530 ) ;
#129 = CARTESIAN_POINT ( 'NONE',  ( 0.000000000000000000, 0.000000000000000000, 0.000000000000000000 ) ) ;
#130 = DIRECTION ( 'NONE',  ( 0.000000000000000000, 0.000000000000000000, -1.000000000000000000 ) ) ;
#131 = VERTEX_POINT ( 'NONE', #997 ) ;
#132 = EDGE_CURVE ( 'NONE', #527, #131, #101, .T. ) ;
#133 = LINE ( 'NONE', #910, #138 ) ;
#134 = VECTOR ( 'NONE', #325, 1000.000000000000000 ) ;
#135 = COLOUR_RGB ( '',0.7921568627450980005, 0.8196078431372548767, 0.9333333333333333481 ) ;
#136 = AXIS2_PLACEMENT_3D ( 'NONE', #523, #723, #130 ) ;
#137 = CARTESIAN_POINT ( 'NONE',  ( -0.8000000000000000444, 0.03999999999999999389, -0.3599999999999998201 ) ) ;
#138 = VECTOR ( 'NONE', #1123, 1000.000000000000000 ) ;
#139 = ORIENTED_EDGE ( 'NONE', *, *, #27, .F. ) ;
#140 =( NAMED_UNIT ( * ) SI_UNIT ( $, .STERADIAN. ) SOLID_ANGLE_UNIT ( ) );
#141 = CARTESIAN_POINT ( 'NONE',  ( 0.7599999999999997868, 0.9600000000000000755, 0.3600000000000000422 ) ) ;
#142 = VERTEX_POINT ( 'NONE', #495 ) ;
#143 = DIRECTION ( 'NONE',  ( 0.000000000000000000, 1.000000000000000000, 0.000000000000000000 ) ) ;
#144 = FACE_OUTER_BOUND ( 'NONE', #10, .T. ) ;
#145 = LINE ( 'NONE', #940, #213 ) ;
#146 = ORIENTED_EDGE ( 'NONE', *, *, #9, .F. ) ;
#147 = CYLINDRICAL_SURFACE ( 'NONE', #611, 0.03999999999999999389 ) ;
#148 = FACE_OUTER_BOUND ( 'NONE', #504, .T. ) ;
#149 = ORIENTED_EDGE ( 'NONE', *, *, #649, .F. ) ;
#150 = ORIENTED_EDGE ( 'NONE', *, *, #849, .T. ) ;
#151 = CARTESIAN_POINT ( 'NONE',  ( 0.3749999999999998335, 0.9600000000000000755, 0.3600000000000000422 ) ) ;
#152 = EDGE_CURVE ( 'NONE', #277, #767, #280, .T. ) ;
#153 = ORIENTED_EDGE ( 'NONE', *, *, #1241, .F. ) ;
#154 = DIRECTION ( 'NONE',  ( 0.000000000000000000, 0.000000000000000000, -1.000000000000000000 ) ) ;
#155 = VERTEX_POINT ( 'NONE', #742 ) ;
#156 = CARTESIAN_POINT ( 'NONE',  ( -0.3750000000000000000, 0.03999999999999999389, -0.3599999999999998757 ) ) ;
#157 = AXIS2_PLACEMENT_3D ( 'NONE', #612, #1200, #836 ) ;
#158 = DIRECTION ( 'NONE',  ( 1.000000000000000000, -0.000000000000000000, -0.000000000000000000 ) ) ;
#159 = AXIS2_PLACEMENT_3D ( 'NONE', #943, #1135, #120 ) ;
#160 = EDGE_CURVE ( 'NONE', #807, #69, #541, .T. ) ;
#161 = CARTESIAN_POINT ( 'NONE',  ( -0.7999999999999998224, 0.03999999999999999389, 0.3600000000000000422 ) ) ;
#162 = EDGE_LOOP ( 'NONE', ( #720, #139, #554, #1094 ) ) ;
#163 = DIRECTION ( 'NONE',  ( 0.000000000000000000, 0.000000000000000000, -1.000000000000000000 ) ) ;
#164 = EDGE_LOOP ( 'NONE', ( #615, #874, #591, #979 ) ) ;
#165 = VERTEX_POINT ( 'NONE', #613 ) ;
#166 = DIRECTION ( 'NONE',  ( 0.000000000000000000, 0.000000000000000000, 1.000000000000000000 ) ) ;
#167 = CARTESIAN_POINT ( 'NONE',  ( -0.3750000000000000000, 0.03999999999999999389, -0.3866666666666664920 ) ) ;
#168 = ORIENTED_EDGE ( 'NONE', *, *, #897, .T. ) ;
#169 = PRODUCT_DEFINITION ( 'UNKNOWN', '', #873, #770 ) ;
#170 = CARTESIAN_POINT ( 'NONE',  ( -0.7599999999999997868, 0.9600000000000000755, 0.3600000000000000422 ) ) ;
#171 = APPLICATION_CONTEXT ( 'automotive_design' ) ;
#172 = CIRCLE ( 'NONE', #852, 0.03999999999999999389 ) ;
#173 = EDGE_CURVE ( 'NONE', #412, #308, #592, .T. ) ;
#174 = FACE_OUTER_BOUND ( 'NONE', #1235, .T. ) ;
#175 = CARTESIAN_POINT ( 'NONE',  ( 0.3749999999999998335, 0.03999999999999999389, 0.3600000000000000422 ) ) ;
#176 = DIRECTION ( 'NONE',  ( 1.000000000000000000, -0.000000000000000000, -0.000000000000000000 ) ) ;
#177 = CARTESIAN_POINT ( 'NONE',  ( 0.8000000000000000444, 0.9600000000000000755, -0.3599999999999998201 ) ) ;
#178 = CARTESIAN_POINT ( 'NONE',  ( -0.8000000000000000444, 1.000000000000000000, -0.3599999999999998201 ) ) ;
#179 = DIRECTION ( 'NONE',  ( 0.000000000000000000, 1.000000000000000000, 0.000000000000000000 ) ) ;
#180 = EDGE_CURVE ( 'NONE', #85, #209, #710, .T. ) ;
#181 = CIRCLE ( 'NONE', #471, 0.03999999999999999389 ) ;
#182 = ORIENTED_EDGE ( 'NONE', *, *, #1222, .F. ) ;
#183 = VERTEX_POINT ( 'NONE', #1013 ) ;
#184 = DIRECTION ( 'NONE',  ( 1.000000000000000000, 0.000000000000000000, 0.000000000000000000 ) ) ;
#185 = AXIS2_PLACEMENT_3D ( 'NONE', #170, #352, #839 ) ;
#186 = FACE_OUTER_BOUND ( 'NONE', #461, .T. ) ;
#187 = CIRCLE ( 'NONE', #902, 0.02666666666666664756 ) ;
#188 = VERTEX_POINT ( 'NONE', #1220 ) ;
#189 = ORIENTED_EDGE ( 'NONE', *, *, #965, .F. ) ;
#190 = SPHERICAL_SURFACE ( 'NONE', #77, 0.04000000000000000083 ) ;
#191 = VECTOR ( 'NONE', #925, 1000.000000000000000 ) ;
#192 = DIRECTION ( 'NONE',  ( 0.000000000000000000, -0.000000000000000000, -1.000000000000000000 ) ) ;
#193 = ADVANCED_FACE ( 'NONE', ( #244 ), #735, .F. ) ;
#194 = CARTESIAN_POINT ( 'NONE',  ( -0.3750000000000000000, 1.000000000000000000, -0.3999999999999998002 ) ) ;
#195 = EDGE_LOOP ( 'NONE', ( #242, #339, #922, #146 ) ) ;
#196 = EDGE_CURVE ( 'NONE', #854, #647, #418, .T. ) ;
#197 = VECTOR ( 'NONE', #158, 1000.000000000000000 ) ;
#198 = STYLED_ITEM ( 'NONE', ( #715 ), #746 ) ;
#199 = VECTOR ( 'NONE', #403, 1000.000000000000000 ) ;
#200 = EDGE_LOOP ( 'NONE', ( #1090, #829, #1000, #38 ) ) ;
#201 = CYLINDRICAL_SURFACE ( 'NONE', #5, 0.02666666666666664756 ) ;
#202 = CARTESIAN_POINT ( 'NONE',  ( -0.7599999999999997868, 0.04000000000000000083, 0.3600000000000000422 ) ) ;
#203 = ORIENTED_EDGE ( 'NONE', *, *, #717, .F. ) ;
#204 = EDGE_CURVE ( 'NONE', #232, #277, #929, .T. ) ;
#205 = ORIENTED_EDGE ( 'NONE', *, *, #1257, .F. ) ;
#206 = EDGE_LOOP ( 'NONE', ( #986, #748, #805 ) ) ;
#207 = EDGE_CURVE ( 'NONE', #766, #508, #864, .T. ) ;
#208 = ORIENTED_EDGE ( 'NONE', *, *, #293, .F. ) ;
#209 = VERTEX_POINT ( 'NONE', #317 ) ;
#210 = DIRECTION ( 'NONE',  ( -1.000000000000000000, 0.000000000000000000, 8.673617379884037937E-17 ) ) ;
#211 = AXIS2_PLACEMENT_3D ( 'NONE', #249, #1145, #1049 ) ;
#212 = DIRECTION ( 'NONE',  ( 0.000000000000000000, -1.000000000000000000, 0.000000000000000000 ) ) ;
#213 = VECTOR ( 'NONE', #559, 1000.000000000000000 ) ;
#214 = EDGE_LOOP ( 'NONE', ( #1122, #658, #1205, #1034 ) ) ;
#215 = ORIENTED_EDGE ( 'NONE', *, *, #444, .F. ) ;
#216 = CARTESIAN_POINT ( 'NONE',  ( 500000.0000000000582, 0.9600000000000000755, 0.3866666666232984606 ) ) ;
#217 = FACE_OUTER_BOUND ( 'NONE', #1098, .T. ) ;
#218 = DIRECTION ( 'NONE',  ( -0.000000000000000000, -0.000000000000000000, 1.000000000000000000 ) ) ;
#219 = ORIENTED_EDGE ( 'NONE', *, *, #1241, .T. ) ;
#220 = EDGE_CURVE ( 'NONE', #155, #780, #1183, .T. ) ;
#221 = ORIENTED_EDGE ( 'NONE', *, *, #1036, .F. ) ;
#222 = CARTESIAN_POINT ( 'NONE',  ( 0.7599999999999997868, 0.000000000000000000, 0.3600000000000000422 ) ) ;
#223 = FACE_OUTER_BOUND ( 'NONE', #306, .T. ) ;
#224 = ORIENTED_EDGE ( 'NONE', *, *, #1146, .T. ) ;
#225 = SURFACE_STYLE_USAGE ( .BOTH. , #19 ) ;
#226 = CYLINDRICAL_SURFACE ( 'NONE', #1231, 0.03999999999999999389 ) ;
#227 = ORIENTED_EDGE ( 'NONE', *, *, #890, .F. ) ;
#228 = EDGE_CURVE ( 'NONE', #527, #1208, #712, .T. ) ;
#229 =( NAMED_UNIT ( * ) PLANE_ANGLE_UNIT ( ) SI_UNIT ( $, .RADIAN. ) );
#230 = DIRECTION ( 'NONE',  ( 0.000000000000000000, 1.000000000000000000, 0.000000000000000000 ) ) ;
#231 = ORIENTED_EDGE ( 'NONE', *, *, #789, .T. ) ;
#232 = VERTEX_POINT ( 'NONE', #1201 ) ;
#233 = DIRECTION ( 'NONE',  ( -0.000000000000000000, 1.000000000000000000, -0.000000000000000000 ) ) ;
#234 = CARTESIAN_POINT ( 'NONE',  ( 0.3750000000195541361, 0.9600000000000000755, 0.3866666666666664920 ) ) ;
#235 = VECTOR ( 'NONE', #911, 1000.000000000000000 ) ;
#236 = AXIS2_PLACEMENT_3D ( 'NONE', #1035, #49, #824 ) ;
#237 = AXIS2_PLACEMENT_3D ( 'NONE', #57, #79, #850 ) ;
#238 = DIRECTION ( 'NONE',  ( -1.000000000000000000, -0.000000000000000000, 8.673617379884037937E-17 ) ) ;
#239 = AXIS2_PLACEMENT_3D ( 'NONE', #76, #63, #474 ) ;
#240 = LINE ( 'NONE', #908, #692 ) ;
#241 = PLANE ( 'NONE',  #1251 ) ;
#242 = ORIENTED_EDGE ( 'NONE', *, *, #196, .F. ) ;
#243 = DIRECTION ( 'NONE',  ( -0.000000000000000000, -0.000000000000000000, -1.000000000000000000 ) ) ;
#244 = FACE_OUTER_BOUND ( 'NONE', #526, .T. ) ;
#245 = ADVANCED_FACE ( 'NONE', ( #144 ), #449, .T. ) ;
#246 = DIRECTION ( 'NONE',  ( 0.000000000000000000, 0.000000000000000000, 1.000000000000000000 ) ) ;
#247 = CARTESIAN_POINT ( 'NONE',  ( 0.3750000000195541361, 0.9600000000000000755, -0.3599999999999999867 ) ) ;
#248 = VERTEX_POINT ( 'NONE', #837 ) ;
#249 = CARTESIAN_POINT ( 'NONE',  ( -0.3750000000000000000, 1.000000000000000000, -0.3999999999999998002 ) ) ;
#250 = EDGE_CURVE ( 'NONE', #607, #527, #343, .T. ) ;
#251 = DIRECTION ( 'NONE',  ( -1.000000000000000000, -0.000000000000000000, 8.673617379884037937E-17 ) ) ;
#252 = LINE ( 'NONE', #645, #494 ) ;
#253 = DIRECTION ( 'NONE',  ( -1.000000000000000000, -0.000000000000000000, -0.000000000000000000 ) ) ;
#254 = VERTEX_POINT ( 'NONE', #525 ) ;
#255 = DIRECTION ( 'NONE',  ( -1.000000000000000000, -0.000000000000000000, -0.000000000000000000 ) ) ;
#256 = CIRCLE ( 'NONE', #1030, 0.03999999999999999389 ) ;
#257 = DIRECTION ( 'NONE',  ( 0.000000000000000000, 0.000000000000000000, -1.000000000000000000 ) ) ;
#258 = ADVANCED_FACE ( 'NONE', ( #727 ), #226, .T. ) ;
#259 = ORIENTED_EDGE ( 'NONE', *, *, #435, .F. ) ;
#260 = AXIS2_PLACEMENT_3D ( 'NONE', #1260, #855, #53 ) ;
#261 = CARTESIAN_POINT ( 'NONE',  ( 500000.0000000000582, 0.01333333333333333419, -0.3600000000433680181 ) ) ;
#262 = CARTESIAN_POINT ( 'NONE',  ( -0.3750000000000000000, 0.9600000000000000755, -0.3599999999999998757 ) ) ;
#263 = DIRECTION ( 'NONE',  ( 0.000000000000000000, 0.000000000000000000, 1.000000000000000000 ) ) ;
#264 = EDGE_LOOP ( 'NONE', ( #149, #907, #1227, #272 ) ) ;
#265 = LINE ( 'NONE', #261, #803 ) ;
#266 = ADVANCED_BREP_SHAPE_REPRESENTATION ( 'C1608JB0G156M080AA', ( #307, #746, #1168, #102 ), #1060 ) ;
#267 = ADVANCED_FACE ( 'NONE', ( #1140 ), #371, .T. ) ;
#268 = LINE ( 'NONE', #178, #923 ) ;
#269 = DIRECTION ( 'NONE',  ( -1.000000000000000000, -0.000000000000000000, -0.000000000000000000 ) ) ;
#270 = UNCERTAINTY_MEASURE_WITH_UNIT (LENGTH_MEASURE( 1.000000000000000082E-05 ), #1268, 'distance_accuracy_value', 'NONE');
#271 = DIRECTION ( 'NONE',  ( 1.000000000000000000, 0.000000000000000000, 0.000000000000000000 ) ) ;
#272 = ORIENTED_EDGE ( 'NONE', *, *, #605, .F. ) ;
#273 = DIRECTION ( 'NONE',  ( -2.032879073410321307E-16, 0.000000000000000000, 1.000000000000000000 ) ) ;
#274 = CYLINDRICAL_SURFACE ( 'NONE', #237, 0.03999999999999999389 ) ;
#275 = DIRECTION ( 'NONE',  ( -1.000000000000000000, 0.000000000000000000, 0.000000000000000000 ) ) ;
#276 = CIRCLE ( 'NONE', #556, 0.03999999999999999389 ) ;
#277 = VERTEX_POINT ( 'NONE', #963 ) ;
#278 = ORIENTED_EDGE ( 'NONE', *, *, #1085, .T. ) ;
#279 = LINE ( 'NONE', #1069, #535 ) ;
#280 = CIRCLE ( 'NONE', #557, 0.03999999999999999389 ) ;
#281 = CIRCLE ( 'NONE', #114, 0.03999999999999999389 ) ;
#282 = CARTESIAN_POINT ( 'NONE',  ( 0.8000000000000000444, 1.000000000000000000, -0.3999999999999998002 ) ) ;
#283 = ADVANCED_FACE ( 'NONE', ( #668 ), #274, .T. ) ;
#284 = CARTESIAN_POINT ( 'NONE',  ( 0.000000000000000000, 0.9600000000000000755, 0.3600000000000000422 ) ) ;
#285 = ORIENTED_EDGE ( 'NONE', *, *, #1017, .F. ) ;
#286 =( NAMED_UNIT ( * ) SI_UNIT ( $, .STERADIAN. ) SOLID_ANGLE_UNIT ( ) );
#287 = EDGE_CURVE ( 'NONE', #516, #308, #268, .T. ) ;
#288 = CARTESIAN_POINT ( 'NONE',  ( 0.3749999999999998335, 1.000000000000000000, 0.3600000000000000422 ) ) ;
#289 = CARTESIAN_POINT ( 'NONE',  ( 0.3750000001332409738, 0.9599999999999998535, -0.3866666666666666030 ) ) ;
#290 = DIRECTION ( 'NONE',  ( -1.000000000000000000, 0.000000000000000000, 0.000000000000000000 ) ) ;
#291 = VERTEX_POINT ( 'NONE', #777 ) ;
#292 = DIRECTION ( 'NONE',  ( 0.000000000000000000, 0.000000000000000000, 1.000000000000000000 ) ) ;
#293 = EDGE_CURVE ( 'NONE', #131, #766, #673, .T. ) ;
#294 = VECTOR ( 'NONE', #22, 1000.000000000000000 ) ;
#295 = VERTEX_POINT ( 'NONE', #598 ) ;
#296 = AXIS2_PLACEMENT_3D ( 'NONE', #370, #1158, #955 ) ;
#297 = LINE ( 'NONE', #501, #191 ) ;
#298 = VERTEX_POINT ( 'NONE', #1271 ) ;
#299 = ORIENTED_EDGE ( 'NONE', *, *, #1080, .F. ) ;
#300 = ADVANCED_FACE ( 'NONE', ( #498 ), #387, .F. ) ;
#301 = SURFACE_STYLE_FILL_AREA ( #1086 ) ;
#302 = FACE_OUTER_BOUND ( 'NONE', #745, .T. ) ;
#303 = EDGE_LOOP ( 'NONE', ( #221, #515, #835 ) ) ;
#304 = STYLED_ITEM ( 'NONE', ( #606 ), #266 ) ;
#305 =( NAMED_UNIT ( * ) PLANE_ANGLE_UNIT ( ) SI_UNIT ( $, .RADIAN. ) );
#306 = EDGE_LOOP ( 'NONE', ( #968, #1009, #42, #379 ) ) ;
#307 = MANIFOLD_SOLID_BREP ( 'Fillet1', #632 ) ;
#308 = VERTEX_POINT ( 'NONE', #1192 ) ;
#309 = CARTESIAN_POINT ( 'NONE',  ( -0.3749999999999998335, 0.9600000000000000755, 0.3600000000000000422 ) ) ;
#310 = DIRECTION ( 'NONE',  ( 1.000000000000000000, 0.000000000000000000, 0.000000000000000000 ) ) ;
#311 = APPLICATION_PROTOCOL_DEFINITION ( 'draft international standard', 'automotive_design', 1998, #171 ) ;
#312 = VERTEX_POINT ( 'NONE', #1113 ) ;
#313 = ORIENTED_EDGE ( 'NONE', *, *, #363, .F. ) ;
#314 = DIRECTION ( 'NONE',  ( 0.000000000000000000, 0.000000000000000000, -1.000000000000000000 ) ) ;
#315 = CIRCLE ( 'NONE', #948, 0.03999999999999999389 ) ;
#316 = CARTESIAN_POINT ( 'NONE',  ( 500000.0000000000582, 0.9600000000000000755, 0.3866666666232985161 ) ) ;
#317 = CARTESIAN_POINT ( 'NONE',  ( -0.7599999999999997868, 0.9600000000000000755, 0.4000000000000000222 ) ) ;
#318 = VECTOR ( 'NONE', #1130, 1000.000000000000000 ) ;
#319 = EDGE_CURVE ( 'NONE', #390, #607, #888, .T. ) ;
#320 = ORIENTED_EDGE ( 'NONE', *, *, #965, .T. ) ;
#321 = CARTESIAN_POINT ( 'NONE',  ( 0.7600000000000000089, 1.000000000000000000, -0.3999999999999998002 ) ) ;
#322 = DIRECTION ( 'NONE',  ( 0.000000000000000000, -0.000000000000000000, 1.000000000000000000 ) ) ;
#323 = VERTEX_POINT ( 'NONE', #222 ) ;
#324 = FACE_OUTER_BOUND ( 'NONE', #373, .T. ) ;
#325 = DIRECTION ( 'NONE',  ( 0.000000000000000000, -1.000000000000000000, 0.000000000000000000 ) ) ;
#326 = EDGE_CURVE ( 'NONE', #670, #1208, #622, .T. ) ;
#327 = VECTOR ( 'NONE', #684, 1000.000000000000000 ) ;
#328 = ORIENTED_EDGE ( 'NONE', *, *, #1222, .T. ) ;
#329 = DIRECTION ( 'NONE',  ( 0.000000000000000000, 1.000000000000000000, 0.000000000000000000 ) ) ;
#330 = CARTESIAN_POINT ( 'NONE',  ( -0.7599999999999997868, 0.9600000000000000755, 0.3600000000000000422 ) ) ;
#331 = ORIENTED_EDGE ( 'NONE', *, *, #561, .F. ) ;
#332 = ORIENTED_EDGE ( 'NONE', *, *, #840, .T. ) ;
#333 = DIRECTION ( 'NONE',  ( 1.000000000000000000, 0.000000000000000000, 0.000000000000000000 ) ) ;
#334 = DIRECTION ( 'NONE',  ( 0.000000000000000000, 0.000000000000000000, 1.000000000000000000 ) ) ;
#335 = DIRECTION ( 'NONE',  ( -1.000000000000000000, -0.000000000000000000, 8.673617379884037937E-17 ) ) ;
#336 = DIRECTION ( 'NONE',  ( 0.000000000000000000, -1.000000000000000000, 0.000000000000000000 ) ) ;
#337 = FACE_OUTER_BOUND ( 'NONE', #195, .T. ) ;
#338 = ADVANCED_FACE ( 'NONE', ( #40 ), #513, .F. ) ;
#339 = ORIENTED_EDGE ( 'NONE', *, *, #719, .T. ) ;
#340 = CARTESIAN_POINT ( 'NONE',  ( -0.7599999999999997868, 0.03999999999999999389, 0.3600000000000000422 ) ) ;
#341 = VECTOR ( 'NONE', #1054, 1000.000000000000000 ) ;
#342 = UNCERTAINTY_MEASURE_WITH_UNIT (LENGTH_MEASURE( 1.000000000000000082E-05 ), #12, 'distance_accuracy_value', 'NONE');
#343 = CIRCLE ( 'NONE', #1055, 0.03999999999999999389 ) ;
#344 = LINE ( 'NONE', #1126, #1072 ) ;
#345 = ORIENTED_EDGE ( 'NONE', *, *, #82, .F. ) ;
#346 = DIRECTION ( 'NONE',  ( 1.000000000000000000, 0.000000000000000000, 2.032879073410321307E-16 ) ) ;
#347 = ORIENTED_EDGE ( 'NONE', *, *, #73, .F. ) ;
#348 = EDGE_CURVE ( 'NONE', #565, #248, #281, .T. ) ;
#349 = DIRECTION ( 'NONE',  ( -1.000000000000000000, 0.000000000000000000, 0.000000000000000000 ) ) ;
#350 = CARTESIAN_POINT ( 'NONE',  ( 0.8000000000000000444, 0.03999999999999999389, -0.3999999999999998002 ) ) ;
#351 = AXIS2_PLACEMENT_3D ( 'NONE', #432, #1217, #1064 ) ;
#352 = DIRECTION ( 'NONE',  ( -0.000000000000000000, 0.000000000000000000, -1.000000000000000000 ) ) ;
#353 = VERTEX_POINT ( 'NONE', #437 ) ;
#354 = LINE ( 'NONE', #1, #1151 ) ;
#355 = PRODUCT_RELATED_PRODUCT_CATEGORY ( 'part', '', ( #117 ) ) ;
#356 = EDGE_CURVE ( 'NONE', #740, #1218, #487, .T. ) ;
#357 = CYLINDRICAL_SURFACE ( 'NONE', #427, 0.03999999999999999389 ) ;
#358 = CARTESIAN_POINT ( 'NONE',  ( -0.7999999999999998224, 1.000000000000000000, 0.4000000000000000222 ) ) ;
#359 = DIRECTION ( 'NONE',  ( -1.000000000000000000, 0.000000000000000000, 0.000000000000000000 ) ) ;
#360 = CARTESIAN_POINT ( 'NONE',  ( -0.3750000000000000000, 1.000000000000000000, -0.3999999999999998002 ) ) ;
#361 = DIRECTION ( 'NONE',  ( -1.000000000000000000, 0.000000000000000000, 2.710505431213758127E-16 ) ) ;
#362 = AXIS2_PLACEMENT_3D ( 'NONE', #1044, #246, #644 ) ;
#363 = EDGE_CURVE ( 'NONE', #188, #1107, #240, .T. ) ;
#364 = AXIS2_PLACEMENT_3D ( 'NONE', #448, #521, #421 ) ;
#365 = CYLINDRICAL_SURFACE ( 'NONE', #821, 0.02666666666666664756 ) ;
#366 = AXIS2_PLACEMENT_3D ( 'NONE', #505, #391, #988 ) ;
#367 = DIRECTION ( 'NONE',  ( -1.000000000000000000, 0.000000000000000000, 0.000000000000000000 ) ) ;
#368 = ORIENTED_EDGE ( 'NONE', *, *, #416, .F. ) ;
#369 = AXIS2_PLACEMENT_3D ( 'NONE', #652, #875, #781 ) ;
#370 = CARTESIAN_POINT ( 'NONE',  ( 0.7600000000000000089, 0.03999999999999999389, -0.3599999999999998201 ) ) ;
#371 = CYLINDRICAL_SURFACE ( 'NONE', #52, 0.03999999999999999389 ) ;
#372 = DIRECTION ( 'NONE',  ( 1.505836350674312234E-16, 0.000000000000000000, 1.000000000000000000 ) ) ;
#373 = EDGE_LOOP ( 'NONE', ( #56, #208, #709, #1128 ) ) ;
#374 = ORIENTED_EDGE ( 'NONE', *, *, #152, .T. ) ;
#375 = FACE_OUTER_BOUND ( 'NONE', #665, .T. ) ;
#376 = CIRCLE ( 'NONE', #981, 0.02666666666666669960 ) ;
#377 = CARTESIAN_POINT ( 'NONE',  ( 0.3750000000000000000, 0.9600000000000000755, -0.3599999999999998201 ) ) ;
#378 = UNCERTAINTY_MEASURE_WITH_UNIT (LENGTH_MEASURE( 1.000000000000000082E-05 ), #1167, 'distance_accuracy_value', 'NONE');
#379 = ORIENTED_EDGE ( 'NONE', *, *, #577, .F. ) ;
#380 = DIRECTION ( 'NONE',  ( -2.710505431213761578E-16, -0.000000000000000000, -1.000000000000000000 ) ) ;
#381 = ADVANCED_FACE ( 'NONE', ( #1038 ), #147, .T. ) ;
#382 = FACE_OUTER_BOUND ( 'NONE', #214, .T. ) ;
#383 = CARTESIAN_POINT ( 'NONE',  ( 0.3750000000195541361, 0.01333333333333333419, 0.3599999998549879288 ) ) ;
#384 = CIRCLE ( 'NONE', #1070, 0.03999999999999999389 ) ;
#385 = VERTEX_POINT ( 'NONE', #924 ) ;
#386 = AXIS2_PLACEMENT_3D ( 'NONE', #1025, #1215, #314 ) ;
#387 = PLANE ( 'NONE',  #366 ) ;
#388 = DIRECTION ( 'NONE',  ( -2.032879073410321307E-16, -0.000000000000000000, -1.000000000000000000 ) ) ;
#389 = ADVANCED_FACE ( 'NONE', ( #223 ), #241, .F. ) ;
#390 = VERTEX_POINT ( 'NONE', #640 ) ;
#391 = DIRECTION ( 'NONE',  ( 1.000000000000000000, 0.000000000000000000, -2.710505431213761578E-16 ) ) ;
#392 = CARTESIAN_POINT ( 'NONE',  ( -0.7599999999999997868, 0.000000000000000000, 0.3600000000000000422 ) ) ;
#393 = ADVANCED_FACE ( 'NONE', ( #833 ), #414, .T. ) ;
#394 = EDGE_CURVE ( 'NONE', #977, #385, #528, .T. ) ;
#395 = DIRECTION ( 'NONE',  ( -1.505836350674312234E-16, 0.000000000000000000, -1.000000000000000000 ) ) ;
#396 = VERTEX_POINT ( 'NONE', #1018 ) ;
#397 = FILL_AREA_STYLE_COLOUR ( '', #1216 ) ;
#398 = EDGE_CURVE ( 'NONE', #766, #295, #33, .T. ) ;
#399 = EDGE_LOOP ( 'NONE', ( #721, #433, #125, #900 ) ) ;
#400 = CARTESIAN_POINT ( 'NONE',  ( -0.7600000000000000089, 0.9600000000000000755, -0.3999999999999998002 ) ) ;
#401 = AXIS2_PLACEMENT_3D ( 'NONE', #540, #811, #440 ) ;
#402 = VECTOR ( 'NONE', #251, 1000.000000000000000 ) ;
#403 = DIRECTION ( 'NONE',  ( -1.000000000000000000, 0.000000000000000000, 0.000000000000000000 ) ) ;
#404 = VECTOR ( 'NONE', #1057, 1000.000000000000000 ) ;
#405 = ORIENTED_EDGE ( 'NONE', *, *, #956, .F. ) ;
#406 = AXIS2_PLACEMENT_3D ( 'NONE', #358, #163, #753 ) ;
#407 = FACE_OUTER_BOUND ( 'NONE', #415, .T. ) ;
#408 = ORIENTED_EDGE ( 'NONE', *, *, #1103, .F. ) ;
#409 = ORIENTED_EDGE ( 'NONE', *, *, #575, .F. ) ;
#410 = CARTESIAN_POINT ( 'NONE',  ( -0.7600000000000000089, 0.9600000000000000755, -0.3599999999999998201 ) ) ;
#411 = AXIS2_PLACEMENT_3D ( 'NONE', #990, #896, #2 ) ;
#412 = VERTEX_POINT ( 'NONE', #118 ) ;
#413 = DIRECTION ( 'NONE',  ( 2.710505431213761578E-16, 0.000000000000000000, -1.000000000000000000 ) ) ;
#414 = CYLINDRICAL_SURFACE ( 'NONE', #136, 0.03999999999999999389 ) ;
#415 = EDGE_LOOP ( 'NONE', ( #1173, #1133, #224, #774, #473, #332, #1045, #810 ) ) ;
#416 = EDGE_CURVE ( 'NONE', #671, #609, #1031, .T. ) ;
#417 = LINE ( 'NONE', #434, #867 ) ;
#418 = LINE ( 'NONE', #234, #690 ) ;
#419 = ORIENTED_EDGE ( 'NONE', *, *, #173, .T. ) ;
#420 = ORIENTED_EDGE ( 'NONE', *, *, #1002, .T. ) ;
#421 = DIRECTION ( 'NONE',  ( 0.000000000000000000, 0.000000000000000000, 1.000000000000000000 ) ) ;
#422 = DIRECTION ( 'NONE',  ( 0.000000000000000000, 0.000000000000000000, 1.000000000000000000 ) ) ;
#423 = ORIENTED_EDGE ( 'NONE', *, *, #464, .T. ) ;
#424 = VECTOR ( 'NONE', #816, 1000.000000000000000 ) ;
#425 = DIRECTION ( 'NONE',  ( 0.000000000000000000, -1.000000000000000000, 0.000000000000000000 ) ) ;
#426 = DIRECTION ( 'NONE',  ( 0.000000000000000000, 0.000000000000000000, -1.000000000000000000 ) ) ;
#427 = AXIS2_PLACEMENT_3D ( 'NONE', #137, #736, #68 ) ;
#428 = EDGE_CURVE ( 'NONE', #1208, #935, #431, .T. ) ;
#429 =( LENGTH_UNIT ( ) NAMED_UNIT ( * ) SI_UNIT ( .MILLI., .METRE. ) );
#430 = CARTESIAN_POINT ( 'NONE',  ( 0.7600000000000000089, 0.04000000000000000083, -0.3599999999999998201 ) ) ;
#431 = LINE ( 'NONE', #438, #866 ) ;
#432 = CARTESIAN_POINT ( 'NONE',  ( 0.3750000000000000000, 1.000000000000000000, -0.3999999999999998002 ) ) ;
#433 = ORIENTED_EDGE ( 'NONE', *, *, #701, .F. ) ;
#434 = CARTESIAN_POINT ( 'NONE',  ( -0.7599999999999997868, 1.000000000000000000, 0.4000000000000000222 ) ) ;
#435 = EDGE_CURVE ( 'NONE', #390, #131, #472, .T. ) ;
#436 = LINE ( 'NONE', #443, #402 ) ;
#437 = CARTESIAN_POINT ( 'NONE',  ( -0.7599999999999997868, 1.000000000000000000, 0.3600000000000000422 ) ) ;
#438 = CARTESIAN_POINT ( 'NONE',  ( 0.3750000000000000000, 0.9600000000000000755, -0.3999999999999998002 ) ) ;
#439 = ORIENTED_EDGE ( 'NONE', *, *, #356, .T. ) ;
#440 = DIRECTION ( 'NONE',  ( 0.000000000000000000, 0.000000000000000000, -1.000000000000000000 ) ) ;
#441 = DIRECTION ( 'NONE',  ( 0.000000000000000000, 0.000000000000000000, -1.000000000000000000 ) ) ;
#442 = PLANE ( 'NONE',  #28 ) ;
#443 = CARTESIAN_POINT ( 'NONE',  ( 500000.0000000000582, 0.9866666666666666918, 0.3599999999566318443 ) ) ;
#444 = EDGE_CURVE ( 'NONE', #89, #1100, #1226, .T. ) ;
#445 = ORIENTED_EDGE ( 'NONE', *, *, #99, .F. ) ;
#446 = CARTESIAN_POINT ( 'NONE',  ( 500000.0000000000582, 0.9866666666666666918, -0.3600000000433680181 ) ) ;
#447 = ORIENTED_EDGE ( 'NONE', *, *, #683, .F. ) ;
#448 = CARTESIAN_POINT ( 'NONE',  ( 0.000000000000000000, 1.000000000000000000, 0.000000000000000000 ) ) ;
#449 = CYLINDRICAL_SURFACE ( 'NONE', #579, 0.03999999999999999389 ) ;
#450 = CIRCLE ( 'NONE', #1087, 0.02666666666666664756 ) ;
#451 = AXIS2_PLACEMENT_3D ( 'NONE', #45, #1221, #257 ) ;
#452 = CIRCLE ( 'NONE', #386, 0.02666666666666669960 ) ;
#453 = DIRECTION ( 'NONE',  ( 1.000000000000000000, -0.000000000000000000, -2.032879073410321307E-16 ) ) ;
#454 = EDGE_CURVE ( 'NONE', #1003, #183, #452, .T. ) ;
#455 = LINE ( 'NONE', #462, #404 ) ;
#456 = EDGE_LOOP ( 'NONE', ( #696, #219, #285, #691, #695, #1259, #834, #1243 ) ) ;
#457 = LINE ( 'NONE', #1253, #883 ) ;
#458 = CARTESIAN_POINT ( 'NONE',  ( 0.3749999999999998335, 0.03999999999999999389, 0.4000000000000000222 ) ) ;
#459 = DIRECTION ( 'NONE',  ( 0.000000000000000000, 0.000000000000000000, 1.000000000000000000 ) ) ;
#460 = VECTOR ( 'NONE', #395, 1000.000000000000000 ) ;
#461 = EDGE_LOOP ( 'NONE', ( #697, #654, #478 ) ) ;
#462 = CARTESIAN_POINT ( 'NONE',  ( -0.7599999999999998979, 0.000000000000000000, 2.059984127722458671E-16 ) ) ;
#463 = CARTESIAN_POINT ( 'NONE',  ( -0.7600000000000000089, 0.04000000000000000083, -0.3599999999999998201 ) ) ;
#464 = EDGE_CURVE ( 'NONE', #209, #353, #636, .T. ) ;
#465 = CARTESIAN_POINT ( 'NONE',  ( 0.3750000001332409738, 0.9600000000000000755, 0.3866666666666665475 ) ) ;
#466 = DIRECTION ( 'NONE',  ( -1.000000000000000000, -0.000000000000000000, 8.673617379884037937E-17 ) ) ;
#467 = FACE_OUTER_BOUND ( 'NONE', #915, .T. ) ;
#468 = DIRECTION ( 'NONE',  ( -1.000000000000000000, 0.000000000000000000, 0.000000000000000000 ) ) ;
#469 = LINE ( 'NONE', #383, #797 ) ;
#470 = AXIS2_PLACEMENT_3D ( 'NONE', #151, #918, #843 ) ;
#471 = AXIS2_PLACEMENT_3D ( 'NONE', #674, #179, #863 ) ;
#472 = CIRCLE ( 'NONE', #1185, 0.03999999999999999389 ) ;
#473 = ORIENTED_EDGE ( 'NONE', *, *, #1246, .T. ) ;
#474 = DIRECTION ( 'NONE',  ( 0.000000000000000000, 0.000000000000000000, -1.000000000000000000 ) ) ;
#475 = CARTESIAN_POINT ( 'NONE',  ( 0.000000000000000000, 0.000000000000000000, -0.3599999999999998201 ) ) ;
#476 = FACE_OUTER_BOUND ( 'NONE', #502, .T. ) ;
#477 = EDGE_CURVE ( 'NONE', #390, #232, #1106, .T. ) ;
#478 = ORIENTED_EDGE ( 'NONE', *, *, #228, .F. ) ;
#479 = CARTESIAN_POINT ( 'NONE',  ( -0.3749999999999998335, 1.000000000000000000, 0.3600000000000000422 ) ) ;
#480 = DIRECTION ( 'NONE',  ( 1.000000000000000000, 0.000000000000000000, 2.032879073410321307E-16 ) ) ;
#481 = ORIENTED_EDGE ( 'NONE', *, *, #204, .F. ) ;
#482 = EDGE_CURVE ( 'NONE', #707, #155, #11, .T. ) ;
#483 = DIRECTION ( 'NONE',  ( 0.000000000000000000, 0.000000000000000000, 1.000000000000000000 ) ) ;
#484 = AXIS2_PLACEMENT_3D ( 'NONE', #876, #804, #1272 ) ;
#485 = EDGE_LOOP ( 'NONE', ( #231, #1191, #512, #529 ) ) ;
#486 = AXIS2_PLACEMENT_3D ( 'NONE', #532, #36, #831 ) ;
#487 = CIRCLE ( 'NONE', #1154, 0.03999999999999999389 ) ;
#488 = CARTESIAN_POINT ( 'NONE',  ( 0.000000000000000000, 0.9600000000000000755, 0.3600000000000000422 ) ) ;
#489 = ADVANCED_FACE ( 'NONE', ( #337 ), #914, .F. ) ;
#490 = CARTESIAN_POINT ( 'NONE',  ( 500000.0000000000582, 0.9600000000000000755, -0.3600000000433680181 ) ) ;
#491 = LINE ( 'NONE', #1256, #460 ) ;
#492 = ORIENTED_EDGE ( 'NONE', *, *, #717, .T. ) ;
#493 = ORIENTED_EDGE ( 'NONE', *, *, #3, .F. ) ;
#494 = VECTOR ( 'NONE', #551, 1000.000000000000000 ) ;
#495 = CARTESIAN_POINT ( 'NONE',  ( -0.8000000000000000444, 0.03999999999999999389, -0.3599999999999998201 ) ) ;
#496 = EDGE_CURVE ( 'NONE', #1118, #740, #801, .T. ) ;
#497 = DIRECTION ( 'NONE',  ( 1.000000000000000000, 0.000000000000000000, 0.000000000000000000 ) ) ;
#498 = FACE_OUTER_BOUND ( 'NONE', #700, .T. ) ;
#499 = CARTESIAN_POINT ( 'NONE',  ( -0.3750000000000000000, 0.9599999999999998535, -0.3866666666666664920 ) ) ;
#500 = DIRECTION ( 'NONE',  ( 0.000000000000000000, 0.000000000000000000, 1.000000000000000000 ) ) ;
#501 = CARTESIAN_POINT ( 'NONE',  ( -0.7599999999999997868, 1.000000000000000000, 0.4000000000000000222 ) ) ;
#502 = EDGE_LOOP ( 'NONE', ( #107, #423, #1163 ) ) ;
#503 = VECTOR ( 'NONE', #269, 1000.000000000000000 ) ;
#504 = EDGE_LOOP ( 'NONE', ( #550, #595, #685, #62 ) ) ;
#505 = CARTESIAN_POINT ( 'NONE',  ( -0.8000000000000000444, 1.000000000000000000, -0.3999999999999998002 ) ) ;
#506 = DIRECTION ( 'NONE',  ( -2.032879073410321307E-16, -0.000000000000000000, -1.000000000000000000 ) ) ;
#507 = AXIS2_PLACEMENT_3D ( 'NONE', #141, #732, #711 ) ;
#508 = VERTEX_POINT ( 'NONE', #538 ) ;
#509 =( NAMED_UNIT ( * ) SI_UNIT ( $, .STERADIAN. ) SOLID_ANGLE_UNIT ( ) );
#510 = ORIENTED_EDGE ( 'NONE', *, *, #207, .T. ) ;
#511 = EDGE_CURVE ( 'NONE', #308, #807, #1275, .T. ) ;
#512 = ORIENTED_EDGE ( 'NONE', *, *, #1043, .F. ) ;
#513 = PLANE ( 'NONE',  #678 ) ;
#514 = FACE_OUTER_BOUND ( 'NONE', #48, .T. ) ;
#515 = ORIENTED_EDGE ( 'NONE', *, *, #1058, .T. ) ;
#516 = VERTEX_POINT ( 'NONE', #41 ) ;
#517 = DIRECTION ( 'NONE',  ( 0.000000000000000000, -1.000000000000000000, 0.000000000000000000 ) ) ;
#518 = CARTESIAN_POINT ( 'NONE',  ( -0.7999999999999998224, 1.000000000000000000, 0.3600000000000000422 ) ) ;
#519 = PRESENTATION_LAYER_ASSIGNMENT (  '', '', ( #304 ) ) ;
#520 = VERTEX_POINT ( 'NONE', #822 ) ;
#521 = DIRECTION ( 'NONE',  ( 0.000000000000000000, 1.000000000000000000, 0.000000000000000000 ) ) ;
#522 = EDGE_CURVE ( 'NONE', #520, #620, #610, .T. ) ;
#523 = CARTESIAN_POINT ( 'NONE',  ( 0.7600000000000000089, 1.000000000000000000, -0.3599999999999998201 ) ) ;
#524 = LINE ( 'NONE', #316, #111 ) ;
#525 = CARTESIAN_POINT ( 'NONE',  ( 0.3750000001332409738, 0.01333333333333333419, -0.3599999999999999867 ) ) ;
#526 = EDGE_LOOP ( 'NONE', ( #313, #108, #1029, #205 ) ) ;
#527 = VERTEX_POINT ( 'NONE', #1010 ) ;
#528 = LINE ( 'NONE', #1207, #844 ) ;
#529 = ORIENTED_EDGE ( 'NONE', *, *, #542, .F. ) ;
#530 = VECTOR ( 'NONE', #993, 1000.000000000000000 ) ;
#531 = FILL_AREA_STYLE_COLOUR ( '', #135 ) ;
#532 = CARTESIAN_POINT ( 'NONE',  ( -0.7600000000000000089, 0.9600000000000000755, -0.3599999999999998201 ) ) ;
#533 = VECTOR ( 'NONE', #722, 1000.000000000000000 ) ;
#534 = ADVANCED_FACE ( 'NONE', ( #514 ), #909, .F. ) ;
#535 = VECTOR ( 'NONE', #184, 1000.000000000000000 ) ;
#536 = DIRECTION ( 'NONE',  ( 0.000000000000000000, 0.000000000000000000, 1.000000000000000000 ) ) ;
#537 = DIRECTION ( 'NONE',  ( 0.000000000000000000, -0.000000000000000000, 1.000000000000000000 ) ) ;
#538 = CARTESIAN_POINT ( 'NONE',  ( 0.3749999999999998335, 0.9600000000000000755, 0.4000000000000000222 ) ) ;
#539 = EDGE_LOOP ( 'NONE', ( #827, #100, #1053, #639 ) ) ;
#540 = CARTESIAN_POINT ( 'NONE',  ( -0.3749999999999998890, 0.03999999999999999389, 0.3599999999999999867 ) ) ;
#541 = LINE ( 'NONE', #1124, #1273 ) ;
#542 = EDGE_CURVE ( 'NONE', #1118, #34, #455, .T. ) ;
#543 = AXIS2_PLACEMENT_3D ( 'NONE', #846, #1148, #367 ) ;
#544 = CARTESIAN_POINT ( 'NONE',  ( -0.3749999999999998335, 0.03999999999999999389, 0.4000000000000000222 ) ) ;
#545 = ORIENTED_EDGE ( 'NONE', *, *, #1212, .T. ) ;
#546 = CARTESIAN_POINT ( 'NONE',  ( 0.7999999999999998224, 1.000000000000000000, 0.3600000000000000422 ) ) ;
#547 = ORIENTED_EDGE ( 'NONE', *, *, #868, .F. ) ;
#548 = DIRECTION ( 'NONE',  ( 0.000000000000000000, 1.000000000000000000, 0.000000000000000000 ) ) ;
#549 = EDGE_CURVE ( 'NONE', #609, #209, #847, .T. ) ;
#550 = ORIENTED_EDGE ( 'NONE', *, *, #37, .F. ) ;
#551 = DIRECTION ( 'NONE',  ( 2.710505431213761578E-16, -0.000000000000000000, 1.000000000000000000 ) ) ;
#552 = ORIENTED_EDGE ( 'NONE', *, *, #398, .T. ) ;
#553 = FACE_OUTER_BOUND ( 'NONE', #485, .T. ) ;
#554 = ORIENTED_EDGE ( 'NONE', *, *, #482, .T. ) ;
#555 = DIRECTION ( 'NONE',  ( 0.000000000000000000, 0.000000000000000000, -1.000000000000000000 ) ) ;
#556 = AXIS2_PLACEMENT_3D ( 'NONE', #340, #243, #310 ) ;
#557 = AXIS2_PLACEMENT_3D ( 'NONE', #1001, #895, #426 ) ;
#558 = AXIS2_PLACEMENT_3D ( 'NONE', #1120, #1032, #616 ) ;
#559 = DIRECTION ( 'NONE',  ( 1.000000000000000000, -0.000000000000000000, -0.000000000000000000 ) ) ;
#560 = CARTESIAN_POINT ( 'NONE',  ( -0.3749999999999998335, 1.000000000000000000, 0.3600000000000000422 ) ) ;
#561 = EDGE_CURVE ( 'NONE', #670, #565, #1129, .T. ) ;
#562 = LINE ( 'NONE', #360, #708 ) ;
#563 = LINE ( 'NONE', #350, #1249 ) ;
#564 =( GEOMETRIC_REPRESENTATION_CONTEXT ( 3 ) GLOBAL_UNCERTAINTY_ASSIGNED_CONTEXT ( ( #378 ) ) GLOBAL_UNIT_ASSIGNED_CONTEXT ( ( #1167, #884, #286 ) ) REPRESENTATION_CONTEXT ( 'NONE', 'WORKASPACE' ) );
#565 = VERTEX_POINT ( 'NONE', #870 ) ;
#566 = ORIENTED_EDGE ( 'NONE', *, *, #789, .F. ) ;
#567 = PLANE ( 'NONE',  #406 ) ;
#568 = EDGE_CURVE ( 'NONE', #85, #353, #743, .T. ) ;
#569 = CARTESIAN_POINT ( 'NONE',  ( -0.7600000000000000089, 0.03999999999999999389, -0.3599999999999998201 ) ) ;
#570 = DIRECTION ( 'NONE',  ( 0.000000000000000000, 1.000000000000000000, 0.000000000000000000 ) ) ;
#571 = CARTESIAN_POINT ( 'NONE',  ( -0.7600000000000000089, 0.9600000000000000755, -0.3599999999999998201 ) ) ;
#572 = CARTESIAN_POINT ( 'NONE',  ( -0.3749999999999998335, 0.9600000000000000755, 0.4000000000000000222 ) ) ;
#573 = DIRECTION ( 'NONE',  ( -1.000000000000000000, 0.000000000000000000, 0.000000000000000000 ) ) ;
#574 = CARTESIAN_POINT ( 'NONE',  ( 0.3750000000000000000, 0.9600000000000000755, -0.3999999999999998002 ) ) ;
#575 = EDGE_CURVE ( 'NONE', #353, #671, #1150, .T. ) ;
#576 = DIRECTION ( 'NONE',  ( 0.000000000000000000, 0.000000000000000000, 1.000000000000000000 ) ) ;
#577 = EDGE_CURVE ( 'NONE', #254, #165, #265, .T. ) ;
#578 = PRESENTATION_LAYER_ASSIGNMENT (  '', '', ( #198 ) ) ;
#579 = AXIS2_PLACEMENT_3D ( 'NONE', #716, #938, #441 ) ;
#580 = VECTOR ( 'NONE', #666, 1000.000000000000000 ) ;
#581 = ORIENTED_EDGE ( 'NONE', *, *, #675, .F. ) ;
#582 = CARTESIAN_POINT ( 'NONE',  ( -0.8000000000000000444, 0.9600000000000000755, -0.3999999999999998002 ) ) ;
#583 = CARTESIAN_POINT ( 'NONE',  ( 0.7599999999999997868, 0.04000000000000000083, 0.3600000000000000422 ) ) ;
#584 = ADVANCED_FACE ( 'NONE', ( #1051 ), #567, .F. ) ;
#585 = CARTESIAN_POINT ( 'NONE',  ( 500000.0000000000582, 0.9599999999999998535, -0.3866666667100346344 ) ) ;
#586 = EDGE_LOOP ( 'NONE', ( #92, #1105, #1076, #893 ) ) ;
#587 = CIRCLE ( 'NONE', #959, 0.02666666666666664756 ) ;
#588 = ADVANCED_FACE ( 'NONE', ( #467 ), #758, .T. ) ;
#589 = FACE_OUTER_BOUND ( 'NONE', #879, .T. ) ;
#590 = PLANE ( 'NONE',  #39 ) ;
#591 = ORIENTED_EDGE ( 'NONE', *, *, #1179, .T. ) ;
#592 = CIRCLE ( 'NONE', #486, 0.03999999999999999389 ) ;
#593 = PRESENTATION_LAYER_ASSIGNMENT (  '', '', ( #886 ) ) ;
#594 = EDGE_CURVE ( 'NONE', #670, #248, #693, .T. ) ;
#595 = ORIENTED_EDGE ( 'NONE', *, *, #160, .F. ) ;
#596 = CARTESIAN_POINT ( 'NONE',  ( 0.3750000000195541361, 0.03999999999999999389, 0.3599999999999998757 ) ) ;
#597 = ORIENTED_EDGE ( 'NONE', *, *, #428, .T. ) ;
#598 = CARTESIAN_POINT ( 'NONE',  ( 0.3750000000000000000, 1.000000000000000000, -0.3599999999999998201 ) ) ;
#599 = ORIENTED_EDGE ( 'NONE', *, *, #1175, .F. ) ;
#600 = ORIENTED_EDGE ( 'NONE', *, *, #319, .F. ) ;
#601 = ORIENTED_EDGE ( 'NONE', *, *, #511, .T. ) ;
#602 = PRESENTATION_STYLE_ASSIGNMENT (( #1095 ) ) ;
#603 = DIRECTION ( 'NONE',  ( 0.000000000000000000, 1.000000000000000000, 0.000000000000000000 ) ) ;
#604 = ORIENTED_EDGE ( 'NONE', *, *, #757, .F. ) ;
#605 = EDGE_CURVE ( 'NONE', #520, #1169, #1063, .T. ) ;
#606 = PRESENTATION_STYLE_ASSIGNMENT (( #1211 ) ) ;
#607 = VERTEX_POINT ( 'NONE', #177 ) ;
#608 = AXIS2_PLACEMENT_3D ( 'NONE', #1166, #755, #275 ) ;
#609 = VERTEX_POINT ( 'NONE', #572 ) ;
#610 = LINE ( 'NONE', #738, #96 ) ;
#611 = AXIS2_PLACEMENT_3D ( 'NONE', #903, #413, #814 ) ;
#612 = CARTESIAN_POINT ( 'NONE',  ( -0.3750000000000000000, 0.9600000000000000755, -0.3599999999999998757 ) ) ;
#613 = CARTESIAN_POINT ( 'NONE',  ( -0.3750000000000000000, 0.01333333333333333419, -0.3599999999999998757 ) ) ;
#614 = ADVANCED_FACE ( 'NONE', ( #148 ), #969, .T. ) ;
#615 = ORIENTED_EDGE ( 'NONE', *, *, #1134, .T. ) ;
#616 = DIRECTION ( 'NONE',  ( 0.000000000000000000, 0.000000000000000000, 1.000000000000000000 ) ) ;
#617 = DIRECTION ( 'NONE',  ( 0.000000000000000000, -1.000000000000000000, 0.000000000000000000 ) ) ;
#618 = CARTESIAN_POINT ( 'NONE',  ( 0.7600000000000000089, 0.9600000000000000755, -0.3599999999999998201 ) ) ;
#619 = AXIS2_PLACEMENT_3D ( 'NONE', #1177, #570, #271 ) ;
#620 = VERTEX_POINT ( 'NONE', #1164 ) ;
#621 = ADVANCED_FACE ( 'NONE', ( #375 ), #1234, .F. ) ;
#622 = LINE ( 'NONE', #321, #533 ) ;
#623 = CARTESIAN_POINT ( 'NONE',  ( 500000.0000000000582, 0.01333333333333333419, 0.3599999999566318443 ) ) ;
#624 = EDGE_CURVE ( 'NONE', #767, #390, #672, .T. ) ;
#625 = EDGE_LOOP ( 'NONE', ( #641, #1026, #786, #1198 ) ) ;
#626 = CARTESIAN_POINT ( 'NONE',  ( -0.3749999999999998335, 1.000000000000000000, 0.4000000000000000222 ) ) ;
#627 = CARTESIAN_POINT ( 'NONE',  ( 0.7600000000000000089, 0.03999999999999999389, -0.3999999999999998002 ) ) ;
#628 = ORIENTED_EDGE ( 'NONE', *, *, #250, .T. ) ;
#629 = DIRECTION ( 'NONE',  ( 0.000000000000000000, 1.000000000000000000, 0.000000000000000000 ) ) ;
#630 = VECTOR ( 'NONE', #1020, 1000.000000000000000 ) ;
#631 = EDGE_LOOP ( 'NONE', ( #368, #409, #1157, #1019 ) ) ;
#632 = CLOSED_SHELL ( 'NONE', ( #300, #584, #1074, #857, #880, #338, #1172, #54, #267, #859, #1096, #614, #825, #659, #64, #750, #1156, #245 ) ) ;
#633 = EDGE_CURVE ( 'NONE', #254, #188, #187, .T. ) ;
#634 = VECTOR ( 'NONE', #58, 1000.000000000000000 ) ;
#635 = DIRECTION ( 'NONE',  ( 8.673617379884037937E-17, -0.000000000000000000, 1.000000000000000000 ) ) ;
#636 = CIRCLE ( 'NONE', #973, 0.03999999999999999389 ) ;
#637 = CIRCLE ( 'NONE', #157, 0.02666666666666669960 ) ;
#638 = DIRECTION ( 'NONE',  ( 0.000000000000000000, 0.000000000000000000, 1.000000000000000000 ) ) ;
#639 = ORIENTED_EDGE ( 'NONE', *, *, #82, .T. ) ;
#640 = CARTESIAN_POINT ( 'NONE',  ( 0.7999999999999998224, 0.9600000000000000755, 0.3600000000000000422 ) ) ;
#641 = ORIENTED_EDGE ( 'NONE', *, *, #701, .T. ) ;
#642 = CARTESIAN_POINT ( 'NONE',  ( 500000.0000000000582, 0.03999999999999999389, -0.3866666667100346344 ) ) ;
#643 = STYLED_ITEM ( 'NONE', ( #1178 ), #1168 ) ;
#644 = DIRECTION ( 'NONE',  ( -1.000000000000000000, 0.000000000000000000, 0.000000000000000000 ) ) ;
#645 = CARTESIAN_POINT ( 'NONE',  ( -0.8000000000000000444, 0.03999999999999999389, -0.3999999999999998002 ) ) ;
#646 = DIRECTION ( 'NONE',  ( 0.000000000000000000, 0.000000000000000000, -1.000000000000000000 ) ) ;
#647 = VERTEX_POINT ( 'NONE', #747 ) ;
#648 = LINE ( 'NONE', #66, #341 ) ;
#649 = EDGE_CURVE ( 'NONE', #1107, #520, #81, .T. ) ;
#650 = LINE ( 'NONE', #832, #1204 ) ;
#651 = ORIENTED_EDGE ( 'NONE', *, *, #916, .F. ) ;
#652 = CARTESIAN_POINT ( 'NONE',  ( -0.7600000000000000089, 0.03999999999999999389, -0.3999999999999998002 ) ) ;
#653 = ORIENTED_EDGE ( 'NONE', *, *, #220, .F. ) ;
#654 = ORIENTED_EDGE ( 'NONE', *, *, #1175, .T. ) ;
#655 = LINE ( 'NONE', #669, #865 ) ;
#656 = AXIS2_PLACEMENT_3D ( 'NONE', #377, #480, #1153 ) ;
#657 = AXIS2_PLACEMENT_3D ( 'NONE', #410, #934, #422 ) ;
#658 = ORIENTED_EDGE ( 'NONE', *, *, #3, .T. ) ;
#659 = ADVANCED_FACE ( 'NONE', ( #553 ), #1238, .T. ) ;
#660 = DIRECTION ( 'NONE',  ( -1.000000000000000000, 0.000000000000000000, 0.000000000000000000 ) ) ;
#661 = DIRECTION ( 'NONE',  ( 0.000000000000000000, 0.000000000000000000, -1.000000000000000000 ) ) ;
#662 = DIRECTION ( 'NONE',  ( -8.673617379884036705E-17, 0.000000000000000000, -1.000000000000000000 ) ) ;
#663 = FACE_OUTER_BOUND ( 'NONE', #813, .T. ) ;
#664 = LINE ( 'NONE', #1062, #1115 ) ;
#665 = EDGE_LOOP ( 'NONE', ( #820, #1258, #408, #1083, #552, #405, #278, #653 ) ) ;
#666 = DIRECTION ( 'NONE',  ( -1.000000000000000000, -0.000000000000000000, 8.673617379884037937E-17 ) ) ;
#667 = EDGE_CURVE ( 'NONE', #85, #412, #1266, .T. ) ;
#668 = FACE_OUTER_BOUND ( 'NONE', #994, .T. ) ;
#669 = CARTESIAN_POINT ( 'NONE',  ( 500000.0000000000582, 0.01333333333333334286, 0.3599999999566318443 ) ) ;
#670 = VERTEX_POINT ( 'NONE', #1170 ) ;
#671 = VERTEX_POINT ( 'NONE', #479 ) ;
#672 = LINE ( 'NONE', #546, #744 ) ;
#673 = LINE ( 'NONE', #288, #199 ) ;
#674 = CARTESIAN_POINT ( 'NONE',  ( -0.7600000000000000089, 0.03999999999999999389, -0.3599999999999998201 ) ) ;
#675 = EDGE_CURVE ( 'NONE', #780, #670, #279, .T. ) ;
#676 = CIRCLE ( 'NONE', #739, 0.03999999999999999389 ) ;
#677 = DIRECTION ( 'NONE',  ( 0.000000000000000000, 1.000000000000000000, 0.000000000000000000 ) ) ;
#678 = AXIS2_PLACEMENT_3D ( 'NONE', #129, #329, #32 ) ;
#679 = ORIENTED_EDGE ( 'NONE', *, *, #204, .T. ) ;
#680 = EDGE_LOOP ( 'NONE', ( #861, #328, #1040, #116 ) ) ;
#681 = DIRECTION ( 'NONE',  ( 0.000000000000000000, 0.000000000000000000, 1.000000000000000000 ) ) ;
#682 = CARTESIAN_POINT ( 'NONE',  ( -0.3750000000000000000, 0.9600000000000000755, -0.3599999999999998201 ) ) ;
#683 = EDGE_CURVE ( 'NONE', #412, #142, #978, .T. ) ;
#684 = DIRECTION ( 'NONE',  ( -1.000000000000000000, -0.000000000000000000, 8.673617379884037937E-17 ) ) ;
#685 = ORIENTED_EDGE ( 'NONE', *, *, #511, .F. ) ;
#686 = DIRECTION ( 'NONE',  ( 1.000000000000000000, 0.000000000000000000, 2.032879073410321307E-16 ) ) ;
#687 = CARTESIAN_POINT ( 'NONE',  ( -0.3750000000000000000, 0.9866666666666666918, -0.3599999999999998757 ) ) ;
#688 = EDGE_CURVE ( 'NONE', #183, #291, #133, .T. ) ;
#689 = FACE_OUTER_BOUND ( 'NONE', #1188, .T. ) ;
#690 = VECTOR ( 'NONE', #517, 1000.000000000000000 ) ;
#691 = ORIENTED_EDGE ( 'NONE', *, *, #37, .T. ) ;
#692 = VECTOR ( 'NONE', #17, 1000.000000000000000 ) ;
#693 = CIRCLE ( 'NONE', #296, 0.03999999999999999389 ) ;
#694 = DIRECTION ( 'NONE',  ( 0.000000000000000000, -1.000000000000000000, -0.000000000000000000 ) ) ;
#695 = ORIENTED_EDGE ( 'NONE', *, *, #1134, .F. ) ;
#696 = ORIENTED_EDGE ( 'NONE', *, *, #394, .T. ) ;
#697 = ORIENTED_EDGE ( 'NONE', *, *, #250, .F. ) ;
#698 = SURFACE_SIDE_STYLE ('',( #301 ) ) ;
#699 = CARTESIAN_POINT ( 'NONE',  ( 0.7599999999999997868, 0.9600000000000000755, 0.3600000000000000422 ) ) ;
#700 = EDGE_LOOP ( 'NONE', ( #98, #1233, #545, #168 ) ) ;
#701 = EDGE_CURVE ( 'NONE', #209, #740, #417, .T. ) ;
#702 = ORIENTED_EDGE ( 'NONE', *, *, #477, .T. ) ;
#703 = CARTESIAN_POINT ( 'NONE',  ( 0.3750000000000000000, 0.000000000000000000, -0.3999999999999998002 ) ) ;
#704 = LINE ( 'NONE', #1101, #424 ) ;
#705 = DIRECTION ( 'NONE',  ( 0.000000000000000000, -0.000000000000000000, 1.000000000000000000 ) ) ;
#706 = EDGE_CURVE ( 'NONE', #1100, #1169, #637, .T. ) ;
#707 = VERTEX_POINT ( 'NONE', #741 ) ;
#708 = VECTOR ( 'NONE', #1160, 1000.000000000000000 ) ;
#709 = ORIENTED_EDGE ( 'NONE', *, *, #132, .F. ) ;
#710 = CIRCLE ( 'NONE', #159, 0.03999999999999999389 ) ;
#711 = DIRECTION ( 'NONE',  ( 0.000000000000000000, 0.000000000000000000, 1.000000000000000000 ) ) ;
#712 = CIRCLE ( 'NONE', #951, 0.03999999999999999389 ) ;
#713 = ORIENTED_EDGE ( 'NONE', *, *, #454, .F. ) ;
#714 = ORIENTED_EDGE ( 'NONE', *, *, #776, .F. ) ;
#715 = PRESENTATION_STYLE_ASSIGNMENT (( #225 ) ) ;
#716 = CARTESIAN_POINT ( 'NONE',  ( -0.7600000000000000089, 1.000000000000000000, -0.3599999999999998201 ) ) ;
#717 = EDGE_CURVE ( 'NONE', #607, #248, #44, .T. ) ;
#718 =( NAMED_UNIT ( * ) PLANE_ANGLE_UNIT ( ) SI_UNIT ( $, .RADIAN. ) );
#719 = EDGE_CURVE ( 'NONE', #854, #183, #524, .T. ) ;
#720 = ORIENTED_EDGE ( 'NONE', *, *, #795, .F. ) ;
#721 = ORIENTED_EDGE ( 'NONE', *, *, #356, .F. ) ;
#722 = DIRECTION ( 'NONE',  ( -0.000000000000000000, 1.000000000000000000, -0.000000000000000000 ) ) ;
#723 = DIRECTION ( 'NONE',  ( 0.000000000000000000, -1.000000000000000000, 0.000000000000000000 ) ) ;
#724 = DIRECTION ( 'NONE',  ( 0.000000000000000000, 0.000000000000000000, 1.000000000000000000 ) ) ;
#725 = EDGE_LOOP ( 'NONE', ( #599, #492, #920, #1068 ) ) ;
#726 = ORIENTED_EDGE ( 'NONE', *, *, #624, .F. ) ;
#727 = FACE_OUTER_BOUND ( 'NONE', #539, .T. ) ;
#728 = AXIS2_PLACEMENT_3D ( 'NONE', #571, #953, #459 ) ;
#729 = SURFACE_STYLE_FILL_AREA ( #1189 ) ;
#730 = EDGE_LOOP ( 'NONE', ( #547, #227, #104, #714 ) ) ;
#731 = EDGE_CURVE ( 'NONE', #609, #105, #1117, .T. ) ;
#732 = DIRECTION ( 'NONE',  ( -0.000000000000000000, -1.000000000000000000, -0.000000000000000000 ) ) ;
#733 = ORIENTED_EDGE ( 'NONE', *, *, #220, .T. ) ;
#734 = CARTESIAN_POINT ( 'NONE',  ( -0.7600000000000000089, 1.000000000000000000, -0.3999999999999998002 ) ) ;
#735 = PLANE ( 'NONE',  #29 ) ;
#736 = DIRECTION ( 'NONE',  ( -1.000000000000000000, 0.000000000000000000, 0.000000000000000000 ) ) ;
#737 = DIRECTION ( 'NONE',  ( 0.000000000000000000, 0.000000000000000000, -1.000000000000000000 ) ) ;
#738 = CARTESIAN_POINT ( 'NONE',  ( 0.3750000000195541361, 0.9866666666666666918, -0.3600000001450118781 ) ) ;
#739 = AXIS2_PLACEMENT_3D ( 'NONE', #1066, #793, #334 ) ;
#740 = VERTEX_POINT ( 'NONE', #1012 ) ;
#741 = CARTESIAN_POINT ( 'NONE',  ( 0.3749999999999998335, 0.000000000000000000, 0.3600000000000000422 ) ) ;
#742 = CARTESIAN_POINT ( 'NONE',  ( 0.3750000000000000000, 0.000000000000000000, -0.3599999999999998201 ) ) ;
#743 = CIRCLE ( 'NONE', #185, 0.03999999999999999389 ) ;
#744 = VECTOR ( 'NONE', #941, 1000.000000000000000 ) ;
#745 = EDGE_LOOP ( 'NONE', ( #510, #1149, #1265, #927 ) ) ;
#746 = MANIFOLD_SOLID_BREP ( 'Mirror2', #760 ) ;
#747 = CARTESIAN_POINT ( 'NONE',  ( 0.3750000001332409738, 0.04000000000000021594, 0.3866666666666664920 ) ) ;
#748 = ORIENTED_EDGE ( 'NONE', *, *, #435, .T. ) ;
#749 = DIRECTION ( 'NONE',  ( 0.000000000000000000, 0.000000000000000000, 1.000000000000000000 ) ) ;
#750 = ADVANCED_FACE ( 'NONE', ( #217 ), #1027, .T. ) ;
#751 = DIRECTION ( 'NONE',  ( 2.710505431213761578E-16, 0.000000000000000000, -1.000000000000000000 ) ) ;
#752 = ORIENTED_EDGE ( 'NONE', *, *, #594, .T. ) ;
#753 = DIRECTION ( 'NONE',  ( -1.000000000000000000, 0.000000000000000000, -0.000000000000000000 ) ) ;
#754 = ORIENTED_EDGE ( 'NONE', *, *, #561, .T. ) ;
#755 = DIRECTION ( 'NONE',  ( 0.000000000000000000, -1.000000000000000000, 0.000000000000000000 ) ) ;
#756 = DIRECTION ( 'NONE',  ( 2.032879073410321307E-16, 0.000000000000000000, -1.000000000000000000 ) ) ;
#757 = EDGE_CURVE ( 'NONE', #312, #807, #917, .T. ) ;
#758 = CYLINDRICAL_SURFACE ( 'NONE', #1132, 0.03999999999999999389 ) ;
#759 = DIRECTION ( 'NONE',  ( -1.000000000000000000, 0.000000000000000000, 0.000000000000000000 ) ) ;
#760 = CLOSED_SHELL ( 'NONE', ( #23, #534, #621, #106, #798, #1165, #1111, #16, #983, #1267, #1202, #588, #381, #258, #283, #1024, #1091, #393 ) ) ;
#761 = VECTOR ( 'NONE', #1022, 1000.000000000000000 ) ;
#762 = VECTOR ( 'NONE', #253, 1000.000000000000000 ) ;
#763 = DIRECTION ( 'NONE',  ( 0.000000000000000000, 0.000000000000000000, -1.000000000000000000 ) ) ;
#764 = CARTESIAN_POINT ( 'NONE',  ( 0.7600000000000000089, 0.9600000000000000755, -0.3999999999999998002 ) ) ;
#765 = EDGE_CURVE ( 'NONE', #291, #396, #75, .T. ) ;
#766 = VERTEX_POINT ( 'NONE', #905 ) ;
#767 = VERTEX_POINT ( 'NONE', #119 ) ;
#768 = DIRECTION ( 'NONE',  ( -1.000000000000000000, -0.000000000000000000, 8.673617379884037937E-17 ) ) ;
#769 = CARTESIAN_POINT ( 'NONE',  ( -0.3749999999999998890, 0.9866666666666666918, 0.3599999999999999867 ) ) ;
#770 = PRODUCT_DEFINITION_CONTEXT ( 'detailed design', #171, 'design' ) ;
#771 = DIRECTION ( 'NONE',  ( 1.000000000000000000, 0.000000000000000000, 2.032879073410321307E-16 ) ) ;
#772 = VECTOR ( 'NONE', #388, 1000.000000000000000 ) ;
#773 = AXIS2_PLACEMENT_3D ( 'NONE', #90, #985, #483 ) ;
#774 = ORIENTED_EDGE ( 'NONE', *, *, #196, .T. ) ;
#775 = CARTESIAN_POINT ( 'NONE',  ( 0.3750000000000000000, 1.000000000000000000, -0.3999999999999998002 ) ) ;
#776 = EDGE_CURVE ( 'NONE', #977, #1118, #936, .T. ) ;
#777 = CARTESIAN_POINT ( 'NONE',  ( -0.3749999999999998890, 0.04000000000000021594, 0.3866666666666666030 ) ) ;
#778 = SPHERICAL_SURFACE ( 'NONE', #608, 0.04000000000000000083 ) ;
#779 = CARTESIAN_POINT ( 'NONE',  ( -0.7599999999999997868, 0.9600000000000000755, 0.3600000000000000422 ) ) ;
#780 = VERTEX_POINT ( 'NONE', #112 ) ;
#781 = DIRECTION ( 'NONE',  ( 1.000000000000000000, 0.000000000000000000, 0.000000000000000000 ) ) ;
#782 = FACE_OUTER_BOUND ( 'NONE', #200, .T. ) ;
#783 = AXIS2_PLACEMENT_3D ( 'NONE', #1236, #749, #759 ) ;
#784 = AXIS2_PLACEMENT_3D ( 'NONE', #845, #1237, #763 ) ;
#785 = MECHANICAL_DESIGN_GEOMETRIC_PRESENTATION_REPRESENTATION (  '', ( #886 ), #1088 ) ;
#786 = ORIENTED_EDGE ( 'NONE', *, *, #731, .F. ) ;
#787 = CARTESIAN_POINT ( 'NONE',  ( 0.3750000000195541361, 0.9600000000000000755, 0.3599999999999998757 ) ) ;
#788 = VECTOR ( 'NONE', #995, 1000.000000000000000 ) ;
#789 = EDGE_CURVE ( 'NONE', #1118, #1218, #276, .T. ) ;
#790 = PRESENTATION_LAYER_ASSIGNMENT (  '', '', ( #643 ) ) ;
#791 = DIRECTION ( 'NONE',  ( 0.000000000000000000, 0.000000000000000000, 1.000000000000000000 ) ) ;
#792 = DIRECTION ( 'NONE',  ( -2.710505431213761578E-16, 0.000000000000000000, 1.000000000000000000 ) ) ;
#793 = DIRECTION ( 'NONE',  ( 1.000000000000000000, -0.000000000000000000, -2.032879073410321307E-16 ) ) ;
#794 = SURFACE_SIDE_STYLE ('',( #966 ) ) ;
#795 = EDGE_CURVE ( 'NONE', #323, #565, #704, .T. ) ;
#796 = SPHERICAL_SURFACE ( 'NONE', #484, 0.04000000000000000083 ) ;
#797 = VECTOR ( 'NONE', #756, 1000.000000000000000 ) ;
#798 = ADVANCED_FACE ( 'NONE', ( #324 ), #1252, .T. ) ;
#799 = AXIS2_PLACEMENT_3D ( 'NONE', #682, #453, #638 ) ;
#800 = ORIENTED_EDGE ( 'NONE', *, *, #1232, .T. ) ;
#801 = CIRCLE ( 'NONE', #558, 0.03999999999999999389 ) ;
#802 = ADVANCED_FACE ( 'NONE', ( #21 ), #201, .T. ) ;
#803 = VECTOR ( 'NONE', #768, 1000.000000000000000 ) ;
#804 = DIRECTION ( 'NONE',  ( 0.000000000000000000, -1.000000000000000000, 0.000000000000000000 ) ) ;
#805 = ORIENTED_EDGE ( 'NONE', *, *, #1119, .F. ) ;
#806 = PLANE ( 'NONE',  #351 ) ;
#807 = VERTEX_POINT ( 'NONE', #400 ) ;
#808 = EDGE_CURVE ( 'NONE', #295, #527, #128, .T. ) ;
#809 = DIRECTION ( 'NONE',  ( 0.000000000000000000, 0.000000000000000000, 1.000000000000000000 ) ) ;
#810 = ORIENTED_EDGE ( 'NONE', *, *, #363, .T. ) ;
#811 = DIRECTION ( 'NONE',  ( 1.000000000000000000, 0.000000000000000000, -8.673617379884036705E-17 ) ) ;
#812 = CARTESIAN_POINT ( 'NONE',  ( 0.7599999999999997868, 1.000000000000000000, 0.4000000000000000222 ) ) ;
#813 = EDGE_LOOP ( 'NONE', ( #887, #1116, #1213, #1239 ) ) ;
#814 = DIRECTION ( 'NONE',  ( 1.000000000000000000, 0.000000000000000000, 2.710505431213758127E-16 ) ) ;
#815 = CARTESIAN_POINT ( 'NONE',  ( 0.3750000000000000000, 1.000000000000000000, -0.3999999999999998002 ) ) ;
#816 = DIRECTION ( 'NONE',  ( 2.710505431213761578E-16, -0.000000000000000000, -1.000000000000000000 ) ) ;
#817 = DIRECTION ( 'NONE',  ( 0.000000000000000000, 0.000000000000000000, 1.000000000000000000 ) ) ;
#818 =( NAMED_UNIT ( * ) SI_UNIT ( $, .STERADIAN. ) SOLID_ANGLE_UNIT ( ) );
#819 = AXIS2_PLACEMENT_3D ( 'NONE', #872, #958, #361 ) ;
#820 = ORIENTED_EDGE ( 'NONE', *, *, #482, .F. ) ;
#821 = AXIS2_PLACEMENT_3D ( 'NONE', #1155, #335, #536 ) ;
#822 = CARTESIAN_POINT ( 'NONE',  ( 0.3750000001332409738, 0.9866666666666666918, -0.3599999999999999867 ) ) ;
#823 = ORIENTED_EDGE ( 'NONE', *, *, #765, .F. ) ;
#824 = DIRECTION ( 'NONE',  ( 0.000000000000000000, 0.000000000000000000, 1.000000000000000000 ) ) ;
#825 = ADVANCED_FACE ( 'NONE', ( #663 ), #877, .T. ) ;
#826 = SHAPE_DEFINITION_REPRESENTATION ( #1197, #266 ) ;
#827 = ORIENTED_EDGE ( 'NONE', *, *, #1058, .F. ) ;
#828 = DIRECTION ( 'NONE',  ( 0.000000000000000000, 0.000000000000000000, 1.000000000000000000 ) ) ;
#829 = ORIENTED_EDGE ( 'NONE', *, *, #916, .T. ) ;
#830 = FILL_AREA_STYLE ('',( #531 ) ) ;
#831 = DIRECTION ( 'NONE',  ( -1.000000000000000000, 0.000000000000000000, 0.000000000000000000 ) ) ;
#832 = CARTESIAN_POINT ( 'NONE',  ( 500000.0000000000582, 0.04000000000000021594, 0.3866666666232984606 ) ) ;
#833 = FACE_OUTER_BOUND ( 'NONE', #725, .T. ) ;
#834 = ORIENTED_EDGE ( 'NONE', *, *, #731, .T. ) ;
#835 = ORIENTED_EDGE ( 'NONE', *, *, #152, .F. ) ;
#836 = DIRECTION ( 'NONE',  ( 0.000000000000000000, 0.000000000000000000, -1.000000000000000000 ) ) ;
#837 = CARTESIAN_POINT ( 'NONE',  ( 0.8000000000000000444, 0.03999999999999999389, -0.3599999999999998201 ) ) ;
#838 = FACE_OUTER_BOUND ( 'NONE', #984, .T. ) ;
#839 = DIRECTION ( 'NONE',  ( 1.000000000000000000, 0.000000000000000000, 0.000000000000000000 ) ) ;
#840 = EDGE_CURVE ( 'NONE', #298, #254, #469, .T. ) ;
#841 = VECTOR ( 'NONE', #233, 1000.000000000000000 ) ;
#842 = ORIENTED_EDGE ( 'NONE', *, *, #319, .T. ) ;
#843 = DIRECTION ( 'NONE',  ( 0.000000000000000000, 0.000000000000000000, 1.000000000000000000 ) ) ;
#844 = VECTOR ( 'NONE', #506, 1000.000000000000000 ) ;
#845 = CARTESIAN_POINT ( 'NONE',  ( 0.7599999999999997868, 1.000000000000000000, 0.3600000000000000422 ) ) ;
#846 = CARTESIAN_POINT ( 'NONE',  ( 0.7599999999999997868, 0.04000000000000000083, 0.3600000000000000422 ) ) ;
#847 = LINE ( 'NONE', #862, #762 ) ;
#848 = ORIENTED_EDGE ( 'NONE', *, *, #522, .F. ) ;
#849 = EDGE_CURVE ( 'NONE', #46, #707, #384, .T. ) ;
#850 = DIRECTION ( 'NONE',  ( 0.000000000000000000, 0.000000000000000000, 1.000000000000000000 ) ) ;
#851 = DIRECTION ( 'NONE',  ( 1.000000000000000000, 0.000000000000000000, -8.673617379884036705E-17 ) ) ;
#852 = AXIS2_PLACEMENT_3D ( 'NONE', #967, #74, #1223 ) ;
#853 = LINE ( 'NONE', #1247, #197 ) ;
#854 = VERTEX_POINT ( 'NONE', #465 ) ;
#855 = DIRECTION ( 'NONE',  ( 0.000000000000000000, 0.000000000000000000, -1.000000000000000000 ) ) ;
#856 = FACE_OUTER_BOUND ( 'NONE', #456, .T. ) ;
#857 = ADVANCED_FACE ( 'NONE', ( #782 ), #67, .F. ) ;
#858 = CARTESIAN_POINT ( 'NONE',  ( -0.8000000000000000444, 1.000000000000000000, -0.3999999999999998002 ) ) ;
#859 = ADVANCED_FACE ( 'NONE', ( #476 ), #972, .T. ) ;
#860 = FACE_OUTER_BOUND ( 'NONE', #1112, .T. ) ;
#861 = ORIENTED_EDGE ( 'NONE', *, *, #542, .T. ) ;
#862 = CARTESIAN_POINT ( 'NONE',  ( -0.7999999999999998224, 0.9600000000000000755, 0.4000000000000000222 ) ) ;
#863 = DIRECTION ( 'NONE',  ( 0.000000000000000000, 0.000000000000000000, -1.000000000000000000 ) ) ;
#864 = CIRCLE ( 'NONE', #470, 0.03999999999999999389 ) ;
#865 = VECTOR ( 'NONE', #1059, 1000.000000000000000 ) ;
#866 = VECTOR ( 'NONE', #1193, 1000.000000000000000 ) ;
#867 = VECTOR ( 'NONE', #425, 1000.000000000000000 ) ;
#868 = EDGE_CURVE ( 'NONE', #105, #977, #676, .T. ) ;
#869 = DIRECTION ( 'NONE',  ( -1.000000000000000000, 0.000000000000000000, 0.000000000000000000 ) ) ;
#870 = CARTESIAN_POINT ( 'NONE',  ( 0.7600000000000000089, 0.000000000000000000, -0.3599999999999998201 ) ) ;
#871 = DIRECTION ( 'NONE',  ( 0.000000000000000000, 0.000000000000000000, 1.000000000000000000 ) ) ;
#872 = CARTESIAN_POINT ( 'NONE',  ( -0.7599999999999998979, 0.9600000000000000755, 2.059984127722458671E-16 ) ) ;
#873 = PRODUCT_DEFINITION_FORMATION_WITH_SPECIFIED_SOURCE ( 'ANY', '', #117, .NOT_KNOWN. ) ;
#874 = ORIENTED_EDGE ( 'NONE', *, *, #287, .T. ) ;
#875 = DIRECTION ( 'NONE',  ( 2.710505431213761578E-16, -0.000000000000000000, 1.000000000000000000 ) ) ;
#876 = CARTESIAN_POINT ( 'NONE',  ( 0.7600000000000000089, 0.04000000000000000083, -0.3599999999999998201 ) ) ;
#877 = CYLINDRICAL_SURFACE ( 'NONE', #819, 0.03999999999999999389 ) ;
#878 = ORIENTED_EDGE ( 'NONE', *, *, #956, .T. ) ;
#879 = EDGE_LOOP ( 'NONE', ( #320, #932, #976 ) ) ;
#880 = ADVANCED_FACE ( 'NONE', ( #1125 ), #442, .T. ) ;
#881 = LINE ( 'NONE', #194, #772 ) ;
#882 = CARTESIAN_POINT ( 'NONE',  ( -0.3750000000000000000, 0.03999999999999999389, -0.3999999999999998002 ) ) ;
#883 = VECTOR ( 'NONE', #372, 1000.000000000000000 ) ;
#884 =( NAMED_UNIT ( * ) PLANE_ANGLE_UNIT ( ) SI_UNIT ( $, .RADIAN. ) );
#885 = AXIS2_PLACEMENT_3D ( 'NONE', #113, #906, #192 ) ;
#886 = STYLED_ITEM ( 'NONE', ( #602 ), #307 ) ;
#887 = ORIENTED_EDGE ( 'NONE', *, *, #568, .T. ) ;
#888 = LINE ( 'NONE', #913, #318 ) ;
#889 = SPHERICAL_SURFACE ( 'NONE', #619, 0.04000000000000000083 ) ;
#890 = EDGE_CURVE ( 'NONE', #740, #105, #1102, .T. ) ;
#891 = DIRECTION ( 'NONE',  ( -1.000000000000000000, -0.000000000000000000, 8.673617379884037937E-17 ) ) ;
#892 = DIRECTION ( 'NONE',  ( 0.000000000000000000, -1.000000000000000000, 0.000000000000000000 ) ) ;
#893 = ORIENTED_EDGE ( 'NONE', *, *, #939, .F. ) ;
#894 = AXIS2_PLACEMENT_3D ( 'NONE', #488, #1004, #681 ) ;
#895 = DIRECTION ( 'NONE',  ( -0.000000000000000000, 1.000000000000000000, -0.000000000000000000 ) ) ;
#896 = DIRECTION ( 'NONE',  ( 0.000000000000000000, 1.000000000000000000, 0.000000000000000000 ) ) ;
#897 = EDGE_CURVE ( 'NONE', #1218, #85, #121, .T. ) ;
#898 = LINE ( 'NONE', #1187, #788 ) ;
#899 = ADVANCED_FACE ( 'NONE', ( #1071 ), #1245, .F. ) ;
#900 = ORIENTED_EDGE ( 'NONE', *, *, #897, .F. ) ;
#901 = VECTOR ( 'NONE', #1099, 1000.000000000000000 ) ;
#902 = AXIS2_PLACEMENT_3D ( 'NONE', #47, #346, #154 ) ;
#903 = CARTESIAN_POINT ( 'NONE',  ( 0.7599999999999998979, 0.9600000000000000755, 2.059984127722458671E-16 ) ) ;
#904 = DIRECTION ( 'NONE',  ( 0.000000000000000000, 0.000000000000000000, 1.000000000000000000 ) ) ;
#905 = CARTESIAN_POINT ( 'NONE',  ( 0.3749999999999998335, 1.000000000000000000, 0.3600000000000000422 ) ) ;
#906 = DIRECTION ( 'NONE',  ( 0.000000000000000000, -1.000000000000000000, 0.000000000000000000 ) ) ;
#907 = ORIENTED_EDGE ( 'NONE', *, *, #1257, .T. ) ;
#908 = CARTESIAN_POINT ( 'NONE',  ( 0.3750000000195541361, 0.03999999999999999389, -0.3866666666666666030 ) ) ;
#909 = PLANE ( 'NONE',  #260 ) ;
#910 = CARTESIAN_POINT ( 'NONE',  ( -0.3749999999999998890, 0.9600000000000000755, 0.3866666666666666030 ) ) ;
#911 = DIRECTION ( 'NONE',  ( -0.000000000000000000, 1.000000000000000000, -0.000000000000000000 ) ) ;
#912 = ORIENTED_EDGE ( 'NONE', *, *, #1080, .T. ) ;
#913 = CARTESIAN_POINT ( 'NONE',  ( 0.8000000000000000444, 0.9600000000000000755, -0.3999999999999998002 ) ) ;
#914 = PLANE ( 'NONE',  #78 ) ;
#915 = EDGE_LOOP ( 'NONE', ( #878, #942, #30, #597 ) ) ;
#916 = EDGE_CURVE ( 'NONE', #122, #312, #648, .T. ) ;
#917 = LINE ( 'NONE', #734, #841 ) ;
#918 = DIRECTION ( 'NONE',  ( 1.000000000000000000, 0.000000000000000000, 2.032879073410321307E-16 ) ) ;
#919 = DIRECTION ( 'NONE',  ( 0.000000000000000000, 0.000000000000000000, 1.000000000000000000 ) ) ;
#920 = ORIENTED_EDGE ( 'NONE', *, *, #594, .F. ) ;
#921 = MECHANICAL_DESIGN_GEOMETRIC_PRESENTATION_REPRESENTATION (  '', ( #198 ), #1270 ) ;
#922 = ORIENTED_EDGE ( 'NONE', *, *, #688, .T. ) ;
#923 = VECTOR ( 'NONE', #573, 1000.000000000000000 ) ;
#924 = CARTESIAN_POINT ( 'NONE',  ( -0.3750000000000000000, 0.000000000000000000, -0.3599999999999998201 ) ) ;
#925 = DIRECTION ( 'NONE',  ( 2.710505431213761578E-16, -0.000000000000000000, 1.000000000000000000 ) ) ;
#926 = COLOUR_RGB ( '',0.7921568627450980005, 0.8196078431372548767, 0.9333333333333333481 ) ;
#927 = ORIENTED_EDGE ( 'NONE', *, *, #293, .T. ) ;
#928 = SURFACE_STYLE_FILL_AREA ( #830 ) ;
#929 = LINE ( 'NONE', #1042, #134 ) ;
#930 = EDGE_CURVE ( 'NONE', #165, #89, #450, .T. ) ;
#931 = DIRECTION ( 'NONE',  ( -2.710505431213761578E-16, 0.000000000000000000, 1.000000000000000000 ) ) ;
#932 = ORIENTED_EDGE ( 'NONE', *, *, #1043, .T. ) ;
#933 = DIRECTION ( 'NONE',  ( 1.000000000000000000, 0.000000000000000000, 0.000000000000000000 ) ) ;
#934 = DIRECTION ( 'NONE',  ( -1.000000000000000000, 0.000000000000000000, 0.000000000000000000 ) ) ;
#935 = VERTEX_POINT ( 'NONE', #574 ) ;
#936 = LINE ( 'NONE', #1228, #1203 ) ;
#937 = AXIS2_PLACEMENT_3D ( 'NONE', #284, #290, #724 ) ;
#938 = DIRECTION ( 'NONE',  ( 0.000000000000000000, -1.000000000000000000, 0.000000000000000000 ) ) ;
#939 = EDGE_CURVE ( 'NONE', #298, #396, #655, .T. ) ;
#940 = CARTESIAN_POINT ( 'NONE',  ( 0.000000000000000000, 0.000000000000000000, 0.3600000000000000422 ) ) ;
#941 = DIRECTION ( 'NONE',  ( -0.000000000000000000, 1.000000000000000000, -0.000000000000000000 ) ) ;
#942 = ORIENTED_EDGE ( 'NONE', *, *, #808, .T. ) ;
#943 = CARTESIAN_POINT ( 'NONE',  ( -0.7599999999999997868, 0.9600000000000000755, 0.3600000000000000422 ) ) ;
#944 = UNCERTAINTY_MEASURE_WITH_UNIT (LENGTH_MEASURE( 1.000000000000000082E-05 ), #429, 'distance_accuracy_value', 'NONE');
#945 = FACE_OUTER_BOUND ( 'NONE', #1214, .T. ) ;
#946 = EDGE_CURVE ( 'NONE', #565, #155, #1065, .T. ) ;
#947 = DIRECTION ( 'NONE',  ( 1.000000000000000000, 0.000000000000000000, 2.032879073410321307E-16 ) ) ;
#948 = AXIS2_PLACEMENT_3D ( 'NONE', #583, #980, #166 ) ;
#949 = ORIENTED_EDGE ( 'NONE', *, *, #27, .T. ) ;
#950 = LINE ( 'NONE', #957, #634 ) ;
#951 = AXIS2_PLACEMENT_3D ( 'NONE', #618, #1210, #817 ) ;
#952 = CYLINDRICAL_SURFACE ( 'NONE', #451, 0.03999999999999999389 ) ;
#953 = DIRECTION ( 'NONE',  ( -0.000000000000000000, -1.000000000000000000, -0.000000000000000000 ) ) ;
#954 = EDGE_LOOP ( 'NONE', ( #259, #842, #628, #1277 ) ) ;
#955 = DIRECTION ( 'NONE',  ( 0.000000000000000000, 0.000000000000000000, -1.000000000000000000 ) ) ;
#956 = EDGE_CURVE ( 'NONE', #935, #295, #1229, .T. ) ;
#957 = CARTESIAN_POINT ( 'NONE',  ( 0.7999999999999998224, 0.03999999999999999389, 0.4000000000000000222 ) ) ;
#958 = DIRECTION ( 'NONE',  ( -2.710505431213761578E-16, 0.000000000000000000, -1.000000000000000000 ) ) ;
#959 = AXIS2_PLACEMENT_3D ( 'NONE', #596, #97, #1075 ) ;
#960 = FACE_OUTER_BOUND ( 'NONE', #1264, .T. ) ;
#961 = ORIENTED_EDGE ( 'NONE', *, *, #326, .F. ) ;
#962 = DIRECTION ( 'NONE',  ( -1.000000000000000000, 0.000000000000000000, 0.000000000000000000 ) ) ;
#963 = CARTESIAN_POINT ( 'NONE',  ( 0.7599999999999997868, 0.03999999999999999389, 0.4000000000000000222 ) ) ;
#964 = CYLINDRICAL_SURFACE ( 'NONE', #970, 0.03999999999999999389 ) ;
#965 = EDGE_CURVE ( 'NONE', #312, #34, #256, .T. ) ;
#966 = SURFACE_STYLE_FILL_AREA ( #88 ) ;
#967 = CARTESIAN_POINT ( 'NONE',  ( -0.3750000000000000000, 0.03999999999999999389, -0.3599999999999998201 ) ) ;
#968 = ORIENTED_EDGE ( 'NONE', *, *, #840, .F. ) ;
#969 = CYLINDRICAL_SURFACE ( 'NONE', #239, 0.03999999999999999389 ) ;
#970 = AXIS2_PLACEMENT_3D ( 'NONE', #72, #468, #555 ) ;
#971 = CLOSED_SHELL ( 'NONE', ( #1194, #899, #193, #93, #389, #802, #489, #1121, #115, #123 ) ) ;
#972 = SPHERICAL_SURFACE ( 'NONE', #1052, 0.04000000000000000083 ) ;
#973 = AXIS2_PLACEMENT_3D ( 'NONE', #330, #1039, #828 ) ;
#974 = AXIS2_PLACEMENT_3D ( 'NONE', #247, #1143, #646 ) ;
#975 = CARTESIAN_POINT ( 'NONE',  ( 0.8000000000000000444, 1.000000000000000000, -0.3599999999999998201 ) ) ;
#976 = ORIENTED_EDGE ( 'NONE', *, *, #987, .F. ) ;
#977 = VERTEX_POINT ( 'NONE', #1261 ) ;
#978 = LINE ( 'NONE', #84, #1254 ) ;
#979 = ORIENTED_EDGE ( 'NONE', *, *, #575, .T. ) ;
#980 = DIRECTION ( 'NONE',  ( -1.000000000000000000, -0.000000000000000000, -0.000000000000000000 ) ) ;
#981 = AXIS2_PLACEMENT_3D ( 'NONE', #787, #686, #1084 ) ;
#982 = CARTESIAN_POINT ( 'NONE',  ( 0.7599999999999997868, 0.9600000000000000755, 0.3600000000000000422 ) ) ;
#983 = ADVANCED_FACE ( 'NONE', ( #174 ), #964, .T. ) ;
#984 = EDGE_LOOP ( 'NONE', ( #600, #726, #345, #203 ) ) ;
#985 = DIRECTION ( 'NONE',  ( -1.000000000000000000, -0.000000000000000000, 8.673617379884037937E-17 ) ) ;
#986 = ORIENTED_EDGE ( 'NONE', *, *, #477, .F. ) ;
#987 = EDGE_CURVE ( 'NONE', #312, #142, #181, .T. ) ;
#988 = DIRECTION ( 'NONE',  ( -2.710505431213761578E-16, 0.000000000000000000, -1.000000000000000000 ) ) ;
#989 = CIRCLE ( 'NONE', #783, 0.03999999999999999389 ) ;
#990 = CARTESIAN_POINT ( 'NONE',  ( 0.7600000000000000089, 0.9600000000000000755, -0.3599999999999998201 ) ) ;
#991 = SURFACE_STYLE_USAGE ( .BOTH. , #794 ) ;
#992 = AXIS2_PLACEMENT_3D ( 'NONE', #282, #59, #751 ) ;
#993 = DIRECTION ( 'NONE',  ( 1.000000000000000000, 0.000000000000000000, 0.000000000000000000 ) ) ;
#994 = EDGE_LOOP ( 'NONE', ( #733, #20, #754, #1139 ) ) ;
#995 = DIRECTION ( 'NONE',  ( 0.000000000000000000, -1.000000000000000000, -0.000000000000000000 ) ) ;
#996 = ORIENTED_EDGE ( 'NONE', *, *, #688, .F. ) ;
#997 = CARTESIAN_POINT ( 'NONE',  ( 0.7599999999999997868, 1.000000000000000000, 0.3600000000000000422 ) ) ;
#998 = ORIENTED_EDGE ( 'NONE', *, *, #577, .T. ) ;
#999 = DIRECTION ( 'NONE',  ( 1.000000000000000000, 0.000000000000000000, 0.000000000000000000 ) ) ;
#1000 = ORIENTED_EDGE ( 'NONE', *, *, #757, .T. ) ;
#1001 = CARTESIAN_POINT ( 'NONE',  ( 0.7599999999999997868, 0.03999999999999999389, 0.3600000000000000422 ) ) ;
#1002 = EDGE_CURVE ( 'NONE', #1169, #1003, #457, .T. ) ;
#1003 = VERTEX_POINT ( 'NONE', #769 ) ;
#1004 = DIRECTION ( 'NONE',  ( 1.000000000000000000, 0.000000000000000000, 0.000000000000000000 ) ) ;
#1005 = AXIS2_PLACEMENT_3D ( 'NONE', #262, #851, #662 ) ;
#1006 = ORIENTED_EDGE ( 'NONE', *, *, #1036, .T. ) ;
#1007 = CARTESIAN_POINT ( 'NONE',  ( 500000.0000000000582, 0.03999999999999999389, 0.3599999999566318443 ) ) ;
#1008 = AXIS2_PLACEMENT_3D ( 'NONE', #309, #1108, #904 ) ;
#1009 = ORIENTED_EDGE ( 'NONE', *, *, #939, .T. ) ;
#1010 = CARTESIAN_POINT ( 'NONE',  ( 0.7600000000000000089, 1.000000000000000000, -0.3599999999999998201 ) ) ;
#1011 = ORIENTED_EDGE ( 'NONE', *, *, #1085, .F. ) ;
#1012 = CARTESIAN_POINT ( 'NONE',  ( -0.7599999999999997868, 0.03999999999999999389, 0.4000000000000000222 ) ) ;
#1013 = CARTESIAN_POINT ( 'NONE',  ( -0.3749999999999998890, 0.9600000000000000755, 0.3866666666666666585 ) ) ;
#1014 = CARTESIAN_POINT ( 'NONE',  ( -0.7999999999999998224, 0.03999999999999999389, 0.4000000000000000222 ) ) ;
#1015 = CARTESIAN_POINT ( 'NONE',  ( 0.000000000000000000, 0.000000000000000000, 0.000000000000000000 ) ) ;
#1016 = EDGE_LOOP ( 'NONE', ( #1093, #215, #110, #8, #823, #996, #713, #1144 ) ) ;
#1017 = EDGE_CURVE ( 'NONE', #69, #122, #562, .T. ) ;
#1018 = CARTESIAN_POINT ( 'NONE',  ( -0.3749999999999998890, 0.01333333333333334286, 0.3599999999999999867 ) ) ;
#1019 = ORIENTED_EDGE ( 'NONE', *, *, #549, .F. ) ;
#1020 = DIRECTION ( 'NONE',  ( -0.000000000000000000, -1.000000000000000000, -0.000000000000000000 ) ) ;
#1021 = DIRECTION ( 'NONE',  ( 1.000000000000000000, 0.000000000000000000, 0.000000000000000000 ) ) ;
#1022 = DIRECTION ( 'NONE',  ( 1.000000000000000000, -0.000000000000000000, 0.000000000000000000 ) ) ;
#1023 = ORIENTED_EDGE ( 'NONE', *, *, #496, .T. ) ;
#1024 = ADVANCED_FACE ( 'NONE', ( #186 ), #778, .T. ) ;
#1025 = CARTESIAN_POINT ( 'NONE',  ( -0.3749999999999998890, 0.9600000000000000755, 0.3599999999999999867 ) ) ;
#1026 = ORIENTED_EDGE ( 'NONE', *, *, #890, .T. ) ;
#1027 = SPHERICAL_SURFACE ( 'NONE', #94, 0.04000000000000000083 ) ;
#1028 = DIRECTION ( 'NONE',  ( -2.710505431213761578E-16, 0.000000000000000000, 1.000000000000000000 ) ) ;
#1029 = ORIENTED_EDGE ( 'NONE', *, *, #444, .T. ) ;
#1030 = AXIS2_PLACEMENT_3D ( 'NONE', #569, #255, #871 ) ;
#1031 = CIRCLE ( 'NONE', #1008, 0.03999999999999999389 ) ;
#1032 = DIRECTION ( 'NONE',  ( -1.000000000000000000, 0.000000000000000000, 0.000000000000000000 ) ) ;
#1033 = VECTOR ( 'NONE', #71, 1000.000000000000000 ) ;
#1034 = ORIENTED_EDGE ( 'NONE', *, *, #719, .F. ) ;
#1035 = CARTESIAN_POINT ( 'NONE',  ( 0.3750000000000000000, 0.03999999999999999389, -0.3599999999999998201 ) ) ;
#1036 = EDGE_CURVE ( 'NONE', #323, #277, #315, .T. ) ;
#1037 = CYLINDRICAL_SURFACE ( 'NONE', #784, 0.03999999999999999389 ) ;
#1038 = FACE_OUTER_BOUND ( 'NONE', #954, .T. ) ;
#1039 = DIRECTION ( 'NONE',  ( -1.000000000000000000, 0.000000000000000000, 0.000000000000000000 ) ) ;
#1040 = ORIENTED_EDGE ( 'NONE', *, *, #394, .F. ) ;
#1041 = COLOUR_RGB ( '',0.4862745098039215619, 0.2352941176470588203, 0.01568627450980392135 ) ;
#1042 = CARTESIAN_POINT ( 'NONE',  ( 0.7599999999999997868, 1.000000000000000000, 0.4000000000000000222 ) ) ;
#1043 = EDGE_CURVE ( 'NONE', #34, #142, #50, .T. ) ;
#1044 = CARTESIAN_POINT ( 'NONE',  ( 0.8000000000000000444, 1.000000000000000000, -0.3999999999999998002 ) ) ;
#1045 = ORIENTED_EDGE ( 'NONE', *, *, #633, .T. ) ;
#1046 = CARTESIAN_POINT ( 'NONE',  ( 0.000000000000000000, 0.9600000000000000755, -0.3599999999999998201 ) ) ;
#1047 = ORIENTED_EDGE ( 'NONE', *, *, #930, .T. ) ;
#1048 = CARTESIAN_POINT ( 'NONE',  ( -0.7999999999999998224, 0.03999999999999999389, 0.3600000000000000422 ) ) ;
#1049 = DIRECTION ( 'NONE',  ( 2.032879073410321307E-16, 0.000000000000000000, 1.000000000000000000 ) ) ;
#1050 = CARTESIAN_POINT ( 'NONE',  ( -0.3750000000000000000, 0.9600000000000000755, -0.3999999999999998002 ) ) ;
#1051 = FACE_OUTER_BOUND ( 'NONE', #625, .T. ) ;
#1052 = AXIS2_PLACEMENT_3D ( 'NONE', #779, #1078, #1274 ) ;
#1053 = ORIENTED_EDGE ( 'NONE', *, *, #348, .T. ) ;
#1054 = DIRECTION ( 'NONE',  ( -1.000000000000000000, 0.000000000000000000, 0.000000000000000000 ) ) ;
#1055 = AXIS2_PLACEMENT_3D ( 'NONE', #1109, #218, #1021 ) ;
#1056 = CARTESIAN_POINT ( 'NONE',  ( -0.7600000000000000089, 0.000000000000000000, -0.3599999999999998201 ) ) ;
#1057 = DIRECTION ( 'NONE',  ( -2.710505431213761578E-16, 0.000000000000000000, -1.000000000000000000 ) ) ;
#1058 = EDGE_CURVE ( 'NONE', #323, #767, #989, .T. ) ;
#1059 = DIRECTION ( 'NONE',  ( -1.000000000000000000, -0.000000000000000000, 8.673617379884037937E-17 ) ) ;
#1060 =( GEOMETRIC_REPRESENTATION_CONTEXT ( 3 ) GLOBAL_UNCERTAINTY_ASSIGNED_CONTEXT ( ( #1136 ) ) GLOBAL_UNIT_ASSIGNED_CONTEXT ( ( #1082, #718, #509 ) ) REPRESENTATION_CONTEXT ( 'NONE', 'WORKASPACE' ) );
#1061 = CARTESIAN_POINT ( 'NONE',  ( 0.000000000000000000, 0.000000000000000000, 0.000000000000000000 ) ) ;
#1062 = CARTESIAN_POINT ( 'NONE',  ( 0.000000000000000000, 0.000000000000000000, -0.3599999999999998201 ) ) ;
#1063 = LINE ( 'NONE', #446, #580 ) ;
#1064 = DIRECTION ( 'NONE',  ( -2.032879073410321307E-16, 0.000000000000000000, 1.000000000000000000 ) ) ;
#1065 = LINE ( 'NONE', #475, #503 ) ;
#1066 = CARTESIAN_POINT ( 'NONE',  ( -0.3749999999999998335, 0.03999999999999999389, 0.3600000000000000422 ) ) ;
#1067 = FACE_OUTER_BOUND ( 'NONE', #162, .T. ) ;
#1068 = ORIENTED_EDGE ( 'NONE', *, *, #326, .T. ) ;
#1069 = CARTESIAN_POINT ( 'NONE',  ( 0.8000000000000000444, 0.03999999999999999389, -0.3999999999999998002 ) ) ;
#1070 = AXIS2_PLACEMENT_3D ( 'NONE', #175, #771, #576 ) ;
#1071 = FACE_OUTER_BOUND ( 'NONE', #1016, .T. ) ;
#1072 = VECTOR ( 'NONE', #238, 1000.000000000000000 ) ;
#1073 = VECTOR ( 'NONE', #230, 1000.000000000000000 ) ;
#1074 = ADVANCED_FACE ( 'NONE', ( #856 ), #1141, .F. ) ;
#1075 = DIRECTION ( 'NONE',  ( 0.000000000000000000, 0.000000000000000000, -1.000000000000000000 ) ) ;
#1076 = ORIENTED_EDGE ( 'NONE', *, *, #765, .T. ) ;
#1077 = CYLINDRICAL_SURFACE ( 'NONE', #773, 0.02666666666666664756 ) ;
#1078 = DIRECTION ( 'NONE',  ( 0.000000000000000000, 1.000000000000000000, 0.000000000000000000 ) ) ;
#1079 = FILL_AREA_STYLE_COLOUR ( '', #1041 ) ;
#1080 = EDGE_CURVE ( 'NONE', #277, #46, #950, .T. ) ;
#1081 = MECHANICAL_DESIGN_GEOMETRIC_PRESENTATION_REPRESENTATION (  '', ( #643 ), #564 ) ;
#1082 =( LENGTH_UNIT ( ) NAMED_UNIT ( * ) SI_UNIT ( .MILLI., .METRE. ) );
#1083 = ORIENTED_EDGE ( 'NONE', *, *, #207, .F. ) ;
#1084 = DIRECTION ( 'NONE',  ( 0.000000000000000000, 0.000000000000000000, -1.000000000000000000 ) ) ;
#1085 = EDGE_CURVE ( 'NONE', #935, #780, #354, .T. ) ;
#1086 = FILL_AREA_STYLE ('',( #1186 ) ) ;
#1087 = AXIS2_PLACEMENT_3D ( 'NONE', #156, #1240, #80 ) ;
#1088 =( GEOMETRIC_REPRESENTATION_CONTEXT ( 3 ) GLOBAL_UNCERTAINTY_ASSIGNED_CONTEXT ( ( #270 ) ) GLOBAL_UNIT_ASSIGNED_CONTEXT ( ( #1268, #229, #140 ) ) REPRESENTATION_CONTEXT ( 'NONE', 'WORKASPACE' ) );
#1089 = VECTOR ( 'NONE', #380, 1000.000000000000000 ) ;
#1090 = ORIENTED_EDGE ( 'NONE', *, *, #1017, .T. ) ;
#1091 = ADVANCED_FACE ( 'NONE', ( #1181 ), #796, .T. ) ;
#1092 = CIRCLE ( 'NONE', #411, 0.03999999999999999389 ) ;
#1093 = ORIENTED_EDGE ( 'NONE', *, *, #706, .F. ) ;
#1094 = ORIENTED_EDGE ( 'NONE', *, *, #946, .F. ) ;
#1095 = SURFACE_STYLE_USAGE ( .BOTH. , #698 ) ;
#1096 = ADVANCED_FACE ( 'NONE', ( #689 ), #190, .T. ) ;
#1097 = PLANE ( 'NONE',  #885 ) ;
#1098 = EDGE_LOOP ( 'NONE', ( #419, #601, #24 ) ) ;
#1099 = DIRECTION ( 'NONE',  ( 2.032879073410321307E-16, -0.000000000000000000, -1.000000000000000000 ) ) ;
#1100 = VERTEX_POINT ( 'NONE', #499 ) ;
#1101 = CARTESIAN_POINT ( 'NONE',  ( 0.7599999999999998979, 0.000000000000000000, 2.059984127722458671E-16 ) ) ;
#1102 = LINE ( 'NONE', #1014, #761 ) ;
#1103 = EDGE_CURVE ( 'NONE', #508, #46, #898, .T. ) ;
#1104 = AXIS2_PLACEMENT_3D ( 'NONE', #858, #263, #1161 ) ;
#1105 = ORIENTED_EDGE ( 'NONE', *, *, #9, .T. ) ;
#1106 = CIRCLE ( 'NONE', #507, 0.03999999999999999389 ) ;
#1107 = VERTEX_POINT ( 'NONE', #289 ) ;
#1108 = DIRECTION ( 'NONE',  ( 1.000000000000000000, -0.000000000000000000, -2.032879073410321307E-16 ) ) ;
#1109 = CARTESIAN_POINT ( 'NONE',  ( 0.7600000000000000089, 0.9600000000000000755, -0.3599999999999998201 ) ) ;
#1110 = CARTESIAN_POINT ( 'NONE',  ( 0.000000000000000000, 1.000000000000000000, 0.000000000000000000 ) ) ;
#1111 = ADVANCED_FACE ( 'NONE', ( #302 ), #1171, .T. ) ;
#1112 = EDGE_LOOP ( 'NONE', ( #374, #31, #702, #679 ) ) ;
#1113 = CARTESIAN_POINT ( 'NONE',  ( -0.7600000000000000089, 0.03999999999999999389, -0.3999999999999998002 ) ) ;
#1114 = DIRECTION ( 'NONE',  ( -8.673617379884037937E-17, 0.000000000000000000, -1.000000000000000000 ) ) ;
#1115 = VECTOR ( 'NONE', #176, 1000.000000000000000 ) ;
#1116 = ORIENTED_EDGE ( 'NONE', *, *, #1179, .F. ) ;
#1117 = LINE ( 'NONE', #626, #630 ) ;
#1118 = VERTEX_POINT ( 'NONE', #392 ) ;
#1119 = EDGE_CURVE ( 'NONE', #232, #131, #1190, .T. ) ;
#1120 = CARTESIAN_POINT ( 'NONE',  ( -0.7599999999999997868, 0.04000000000000000083, 0.3600000000000000422 ) ) ;
#1121 = ADVANCED_FACE ( 'NONE', ( #382 ), #1077, .T. ) ;
#1122 = ORIENTED_EDGE ( 'NONE', *, *, #1146, .F. ) ;
#1123 = DIRECTION ( 'NONE',  ( 0.000000000000000000, -1.000000000000000000, 0.000000000000000000 ) ) ;
#1124 = CARTESIAN_POINT ( 'NONE',  ( -0.3750000000000000000, 0.9600000000000000755, -0.3999999999999998002 ) ) ;
#1125 = FACE_OUTER_BOUND ( 'NONE', #164, .T. ) ;
#1126 = CARTESIAN_POINT ( 'NONE',  ( 500000.0000000000582, 0.03999999999999999389, -0.3866666667100346344 ) ) ;
#1127 = AXIS2_PLACEMENT_3D ( 'NONE', #490, #891, #500 ) ;
#1128 = ORIENTED_EDGE ( 'NONE', *, *, #808, .F. ) ;
#1129 = CIRCLE ( 'NONE', #6, 0.03999999999999999389 ) ;
#1130 = DIRECTION ( 'NONE',  ( 2.710505431213761578E-16, -0.000000000000000000, -1.000000000000000000 ) ) ;
#1131 = DIRECTION ( 'NONE',  ( -2.032879073410321307E-16, 0.000000000000000000, 1.000000000000000000 ) ) ;
#1132 = AXIS2_PLACEMENT_3D ( 'NONE', #1046, #660, #1248 ) ;
#1133 = ORIENTED_EDGE ( 'NONE', *, *, #522, .T. ) ;
#1134 = EDGE_CURVE ( 'NONE', #671, #516, #881, .T. ) ;
#1135 = DIRECTION ( 'NONE',  ( 0.000000000000000000, 1.000000000000000000, -0.000000000000000000 ) ) ;
#1136 = UNCERTAINTY_MEASURE_WITH_UNIT (LENGTH_MEASURE( 1.000000000000000082E-05 ), #1082, 'distance_accuracy_value', 'NONE');
#1137 = PLANE ( 'NONE',  #362 ) ;
#1138 = DIRECTION ( 'NONE',  ( 0.000000000000000000, 0.000000000000000000, 1.000000000000000000 ) ) ;
#1139 = ORIENTED_EDGE ( 'NONE', *, *, #946, .T. ) ;
#1140 = FACE_OUTER_BOUND ( 'NONE', #730, .T. ) ;
#1141 = PLANE ( 'NONE',  #211 ) ;
#1142 = FACE_OUTER_BOUND ( 'NONE', #399, .T. ) ;
#1143 = DIRECTION ( 'NONE',  ( 1.000000000000000000, 0.000000000000000000, 2.032879073410321307E-16 ) ) ;
#1144 = ORIENTED_EDGE ( 'NONE', *, *, #1002, .F. ) ;
#1145 = DIRECTION ( 'NONE',  ( -1.000000000000000000, 0.000000000000000000, 2.032879073410321307E-16 ) ) ;
#1146 = EDGE_CURVE ( 'NONE', #620, #854, #376, .T. ) ;
#1147 = FACE_OUTER_BOUND ( 'NONE', #1269, .T. ) ;
#1148 = DIRECTION ( 'NONE',  ( 0.000000000000000000, -1.000000000000000000, 0.000000000000000000 ) ) ;
#1149 = ORIENTED_EDGE ( 'NONE', *, *, #73, .T. ) ;
#1150 = LINE ( 'NONE', #560, #1033 ) ;
#1151 = VECTOR ( 'NONE', #694, 1000.000000000000000 ) ;
#1152 = VECTOR ( 'NONE', #792, 1000.000000000000000 ) ;
#1153 = DIRECTION ( 'NONE',  ( 0.000000000000000000, 0.000000000000000000, 1.000000000000000000 ) ) ;
#1154 = AXIS2_PLACEMENT_3D ( 'NONE', #1225, #336, #737 ) ;
#1155 = CARTESIAN_POINT ( 'NONE',  ( 500000.0000000000582, 0.03999999999999999389, -0.3600000000433680181 ) ) ;
#1156 = ADVANCED_FACE ( 'NONE', ( #589 ), #889, .T. ) ;
#1157 = ORIENTED_EDGE ( 'NONE', *, *, #464, .F. ) ;
#1158 = DIRECTION ( 'NONE',  ( 0.000000000000000000, -1.000000000000000000, -0.000000000000000000 ) ) ;
#1159 = DIRECTION ( 'NONE',  ( 1.000000000000000000, -0.000000000000000000, 0.000000000000000000 ) ) ;
#1160 = DIRECTION ( 'NONE',  ( -0.000000000000000000, -1.000000000000000000, -0.000000000000000000 ) ) ;
#1161 = DIRECTION ( 'NONE',  ( 1.000000000000000000, 0.000000000000000000, -0.000000000000000000 ) ) ;
#1162 = AXIS2_PLACEMENT_3D ( 'NONE', #982, #892, #869 ) ;
#1163 = ORIENTED_EDGE ( 'NONE', *, *, #568, .F. ) ;
#1164 = CARTESIAN_POINT ( 'NONE',  ( 0.3750000001332409738, 0.9866666666666666918, 0.3599999999999998757 ) ) ;
#1165 = ADVANCED_FACE ( 'NONE', ( #1067 ), #590, .F. ) ;
#1166 = CARTESIAN_POINT ( 'NONE',  ( 0.7600000000000000089, 0.9600000000000000755, -0.3599999999999998201 ) ) ;
#1167 =( LENGTH_UNIT ( ) NAMED_UNIT ( * ) SI_UNIT ( .MILLI., .METRE. ) );
#1168 = MANIFOLD_SOLID_BREP ( 'Boss-Extrude2', #971 ) ;
#1169 = VERTEX_POINT ( 'NONE', #687 ) ;
#1170 = CARTESIAN_POINT ( 'NONE',  ( 0.7600000000000000089, 0.03999999999999999389, -0.3999999999999998002 ) ) ;
#1171 = CYLINDRICAL_SURFACE ( 'NONE', #894, 0.03999999999999999389 ) ;
#1172 = ADVANCED_FACE ( 'NONE', ( #1263 ), #1255, .T. ) ;
#1173 = ORIENTED_EDGE ( 'NONE', *, *, #649, .T. ) ;
#1174 =( GEOMETRIC_REPRESENTATION_CONTEXT ( 3 ) GLOBAL_UNCERTAINTY_ASSIGNED_CONTEXT ( ( #944 ) ) GLOBAL_UNIT_ASSIGNED_CONTEXT ( ( #429, #305, #818 ) ) REPRESENTATION_CONTEXT ( 'NONE', 'WORKASPACE' ) );
#1175 = EDGE_CURVE ( 'NONE', #607, #1208, #1092, .T. ) ;
#1176 = FACE_OUTER_BOUND ( 'NONE', #206, .T. ) ;
#1177 = CARTESIAN_POINT ( 'NONE',  ( -0.7600000000000000089, 0.04000000000000000083, -0.3599999999999998201 ) ) ;
#1178 = PRESENTATION_STYLE_ASSIGNMENT (( #991 ) ) ;
#1179 = EDGE_CURVE ( 'NONE', #308, #353, #297, .T. ) ;
#1180 = DIRECTION ( 'NONE',  ( -1.000000000000000000, -0.000000000000000000, 8.673617379884037937E-17 ) ) ;
#1181 = FACE_OUTER_BOUND ( 'NONE', #1206, .T. ) ;
#1182 = FACE_OUTER_BOUND ( 'NONE', #264, .T. ) ;
#1183 = CIRCLE ( 'NONE', #236, 0.03999999999999999389 ) ;
#1184 = AXIS2_PLACEMENT_3D ( 'NONE', #463, #86, #349 ) ;
#1185 = AXIS2_PLACEMENT_3D ( 'NONE', #124, #809, #18 ) ;
#1186 = FILL_AREA_STYLE_COLOUR ( '', #926 ) ;
#1187 = CARTESIAN_POINT ( 'NONE',  ( 0.3749999999999998335, 1.000000000000000000, 0.4000000000000000222 ) ) ;
#1188 = EDGE_LOOP ( 'NONE', ( #1023, #439, #566 ) ) ;
#1189 = FILL_AREA_STYLE ('',( #397 ) ) ;
#1190 = CIRCLE ( 'NONE', #65, 0.03999999999999999389 ) ;
#1191 = ORIENTED_EDGE ( 'NONE', *, *, #1212, .F. ) ;
#1192 = CARTESIAN_POINT ( 'NONE',  ( -0.7600000000000000089, 1.000000000000000000, -0.3599999999999998201 ) ) ;
#1193 = DIRECTION ( 'NONE',  ( -1.000000000000000000, -0.000000000000000000, -0.000000000000000000 ) ) ;
#1194 = ADVANCED_FACE ( 'NONE', ( #407 ), #806, .T. ) ;
#1195 = CARTESIAN_POINT ( 'NONE',  ( 0.8000000000000000444, 1.000000000000000000, -0.3599999999999998201 ) ) ;
#1196 = APPLICATION_PROTOCOL_DEFINITION ( 'draft international standard', 'automotive_design', 1998, #4 ) ;
#1197 = PRODUCT_DEFINITION_SHAPE ( 'NONE', 'NONE',  #169 ) ;
#1198 = ORIENTED_EDGE ( 'NONE', *, *, #549, .T. ) ;
#1199 = CARTESIAN_POINT ( 'NONE',  ( -0.3750000000000000000, 0.03999999999999999389, -0.3866666666666664920 ) ) ;
#1200 = DIRECTION ( 'NONE',  ( 1.000000000000000000, 0.000000000000000000, -8.673617379884036705E-17 ) ) ;
#1201 = CARTESIAN_POINT ( 'NONE',  ( 0.7599999999999997868, 0.9600000000000000755, 0.4000000000000000222 ) ) ;
#1202 = ADVANCED_FACE ( 'NONE', ( #55 ), #60, .T. ) ;
#1203 = VECTOR ( 'NONE', #1209, 1000.000000000000000 ) ;
#1204 = VECTOR ( 'NONE', #466, 1000.000000000000000 ) ;
#1205 = ORIENTED_EDGE ( 'NONE', *, *, #454, .T. ) ;
#1206 = EDGE_LOOP ( 'NONE', ( #331, #752, #61 ) ) ;
#1207 = CARTESIAN_POINT ( 'NONE',  ( -0.3750000000000000000, 0.000000000000000000, -0.3999999999999998002 ) ) ;
#1208 = VERTEX_POINT ( 'NONE', #764 ) ;
#1209 = DIRECTION ( 'NONE',  ( -1.000000000000000000, 0.000000000000000000, -0.000000000000000000 ) ) ;
#1210 = DIRECTION ( 'NONE',  ( -1.000000000000000000, -0.000000000000000000, -0.000000000000000000 ) ) ;
#1211 = SURFACE_STYLE_USAGE ( .BOTH. , #14 ) ;
#1212 = EDGE_CURVE ( 'NONE', #142, #1218, #252, .T. ) ;
#1213 = ORIENTED_EDGE ( 'NONE', *, *, #173, .F. ) ;
#1214 = EDGE_LOOP ( 'NONE', ( #848, #43, #420, #493 ) ) ;
#1215 = DIRECTION ( 'NONE',  ( 1.000000000000000000, 0.000000000000000000, -8.673617379884036705E-17 ) ) ;
#1216 = COLOUR_RGB ( '',0.7921568627450980005, 0.8196078431372548767, 0.9333333333333333481 ) ;
#1217 = DIRECTION ( 'NONE',  ( 1.000000000000000000, 0.000000000000000000, 2.032879073410321307E-16 ) ) ;
#1218 = VERTEX_POINT ( 'NONE', #161 ) ;
#1219 = CARTESIAN_POINT ( 'NONE',  ( -0.7600000000000000089, 0.9600000000000000755, -0.3599999999999998201 ) ) ;
#1220 = CARTESIAN_POINT ( 'NONE',  ( 0.3750000001332409738, 0.03999999999999999389, -0.3866666666666666030 ) ) ;
#1221 = DIRECTION ( 'NONE',  ( 0.000000000000000000, -1.000000000000000000, 0.000000000000000000 ) ) ;
#1222 = EDGE_CURVE ( 'NONE', #34, #385, #664, .T. ) ;
#1223 = DIRECTION ( 'NONE',  ( 0.000000000000000000, 0.000000000000000000, 1.000000000000000000 ) ) ;
#1224 = ORIENTED_EDGE ( 'NONE', *, *, #1103, .T. ) ;
#1225 = CARTESIAN_POINT ( 'NONE',  ( -0.7599999999999997868, 0.03999999999999999389, 0.3600000000000000422 ) ) ;
#1226 = LINE ( 'NONE', #1199, #1073 ) ;
#1227 = ORIENTED_EDGE ( 'NONE', *, *, #706, .T. ) ;
#1228 = CARTESIAN_POINT ( 'NONE',  ( 0.000000000000000000, 0.000000000000000000, 0.3600000000000000422 ) ) ;
#1229 = CIRCLE ( 'NONE', #656, 0.03999999999999999389 ) ;
#1230 = FACE_OUTER_BOUND ( 'NONE', #1280, .T. ) ;
#1231 = AXIS2_PLACEMENT_3D ( 'NONE', #627, #1028, #359 ) ;
#1232 = EDGE_CURVE ( 'NONE', #412, #807, #1262, .T. ) ;
#1233 = ORIENTED_EDGE ( 'NONE', *, *, #683, .T. ) ;
#1234 = PLANE ( 'NONE',  #7 ) ;
#1235 = EDGE_LOOP ( 'NONE', ( #150, #949, #1006, #912 ) ) ;
#1236 = CARTESIAN_POINT ( 'NONE',  ( 0.7599999999999997868, 0.03999999999999999389, 0.3600000000000000422 ) ) ;
#1237 = DIRECTION ( 'NONE',  ( 0.000000000000000000, -1.000000000000000000, 0.000000000000000000 ) ) ;
#1238 = CYLINDRICAL_SURFACE ( 'NONE', #369, 0.03999999999999999389 ) ;
#1239 = ORIENTED_EDGE ( 'NONE', *, *, #667, .F. ) ;
#1240 = DIRECTION ( 'NONE',  ( 1.000000000000000000, 0.000000000000000000, -8.673617379884036705E-17 ) ) ;
#1241 = EDGE_CURVE ( 'NONE', #385, #122, #172, .T. ) ;
#1242 = CARTESIAN_POINT ( 'NONE',  ( -0.7999999999999998224, 0.9600000000000000755, 0.3600000000000000422 ) ) ;
#1243 = ORIENTED_EDGE ( 'NONE', *, *, #868, .T. ) ;
#1244 = CARTESIAN_POINT ( 'NONE',  ( 0.7600000000000000089, 0.03999999999999999389, -0.3599999999999998201 ) ) ;
#1245 = PLANE ( 'NONE',  #1005 ) ;
#1246 = EDGE_CURVE ( 'NONE', #647, #298, #587, .T. ) ;
#1247 = CARTESIAN_POINT ( 'NONE',  ( 0.7999999999999998224, 0.9600000000000000755, 0.4000000000000000222 ) ) ;
#1248 = DIRECTION ( 'NONE',  ( 0.000000000000000000, 0.000000000000000000, -1.000000000000000000 ) ) ;
#1249 = VECTOR ( 'NONE', #931, 1000.000000000000000 ) ;
#1250 = VECTOR ( 'NONE', #212, 1000.000000000000000 ) ;
#1251 = AXIS2_PLACEMENT_3D ( 'NONE', #623, #629, #322 ) ;
#1252 = PLANE ( 'NONE',  #364 ) ;
#1253 = CARTESIAN_POINT ( 'NONE',  ( -0.3750000000000000000, 0.9866666666666666918, -0.3599999999999998757 ) ) ;
#1254 = VECTOR ( 'NONE', #617, 1000.000000000000000 ) ;
#1255 = CYLINDRICAL_SURFACE ( 'NONE', #937, 0.03999999999999999389 ) ;
#1256 = CARTESIAN_POINT ( 'NONE',  ( -0.3749999999999998890, 0.01333333333333333419, 0.3599999999999999867 ) ) ;
#1257 = EDGE_CURVE ( 'NONE', #1107, #1100, #1276, .T. ) ;
#1258 = ORIENTED_EDGE ( 'NONE', *, *, #849, .F. ) ;
#1259 = ORIENTED_EDGE ( 'NONE', *, *, #416, .T. ) ;
#1260 = CARTESIAN_POINT ( 'NONE',  ( 0.7999999999999998224, 1.000000000000000000, 0.4000000000000000222 ) ) ;
#1261 = CARTESIAN_POINT ( 'NONE',  ( -0.3749999999999998335, 0.000000000000000000, 0.3600000000000000422 ) ) ;
#1262 = CIRCLE ( 'NONE', #728, 0.03999999999999999389 ) ;
#1263 = FACE_OUTER_BOUND ( 'NONE', #631, .T. ) ;
#1264 = EDGE_LOOP ( 'NONE', ( #15, #998, #1047, #445 ) ) ;
#1265 = ORIENTED_EDGE ( 'NONE', *, *, #1119, .T. ) ;
#1266 = LINE ( 'NONE', #582, #1089 ) ;
#1267 = ADVANCED_FACE ( 'NONE', ( #1176 ), #1279, .T. ) ;
#1268 =( LENGTH_UNIT ( ) NAMED_UNIT ( * ) SI_UNIT ( .MILLI., .METRE. ) );
#1269 = EDGE_LOOP ( 'NONE', ( #153, #182, #189, #651 ) ) ;
#1270 =( GEOMETRIC_REPRESENTATION_CONTEXT ( 3 ) GLOBAL_UNCERTAINTY_ASSIGNED_CONTEXT ( ( #342 ) ) GLOBAL_UNIT_ASSIGNED_CONTEXT ( ( #12, #35, #126 ) ) REPRESENTATION_CONTEXT ( 'NONE', 'WORKASPACE' ) );
#1271 = CARTESIAN_POINT ( 'NONE',  ( 0.3750000001332409738, 0.01333333333333334286, 0.3599999999999998757 ) ) ;
#1272 = DIRECTION ( 'NONE',  ( -1.000000000000000000, 0.000000000000000000, 0.000000000000000000 ) ) ;
#1273 = VECTOR ( 'NONE', #26, 1000.000000000000000 ) ;
#1274 = DIRECTION ( 'NONE',  ( 1.000000000000000000, 0.000000000000000000, 0.000000000000000000 ) ) ;
#1275 = CIRCLE ( 'NONE', #657, 0.03999999999999999389 ) ;
#1276 = LINE ( 'NONE', #585, #327 ) ;
#1277 = ORIENTED_EDGE ( 'NONE', *, *, #132, .T. ) ;
#1278 = EDGE_CURVE ( 'NONE', #396, #165, #491, .T. ) ;
#1279 = SPHERICAL_SURFACE ( 'NONE', #1162, 0.04000000000000000083 ) ;
#1280 = EDGE_LOOP ( 'NONE', ( #1011, #70, #961, #581 ) ) ;
ENDSEC;
END-ISO-10303-21;
