ISO-10303-21;
HEADER;
FILE_DESCRIPTION (( 'STEP AP214' ),
    '1' );
FILE_NAME ('MBKK2012T2R2M.STEP',
    '2019-12-27T08:07:38',
    ( '' ),
    ( '' ),
    'SwSTEP 2.0',
    'SolidWorks 2018',
    '' );
FILE_SCHEMA (( 'AUTOMOTIVE_DESIGN' ));
ENDSEC;

DATA;
#1 = CYLINDRICAL_SURFACE ( 'NONE', #810, 0.9442026227640296643 ) ;
#2 = ORIENTED_EDGE ( 'NONE', *, *, #199, .T. ) ;
#3 = CARTESIAN_POINT ( 'NONE',  ( 0.5106363955388993903, 0.06383544024566495390, -0.5894535627937174116 ) ) ;
#4 = B_SPLINE_CURVE_WITH_KNOTS ( 'NONE', 3,
 ( #388, #782, #262, #777, #523, #775 ),
 .UNSPECIFIED., .F., .F.,
 ( 4, 2, 4 ),
 ( 0.0000000000000000000, 7.062188273461283679E-05, 0.0001412437654692256736 ),
 .UNSPECIFIED. ) ;
#5 = DIRECTION ( 'NONE',  ( 0.0000000000000000000, 0.0000000000000000000, 1.000000000000000000 ) ) ;
#6 = ORIENTED_EDGE ( 'NONE', *, *, #592, .F. ) ;
#7 = CARTESIAN_POINT ( 'NONE',  ( 0.9760866672528480947, 0.07118003893322322195, 0.6070157123094532814 ) ) ;
#8 = EDGE_CURVE ( 'NONE', #645, #687, #713, .T. ) ;
#9 = VECTOR ( 'NONE', #673, 1000.000000000000000 ) ;
#10 = DIRECTION ( 'NONE',  ( 0.0000000000000000000, 0.0000000000000000000, 1.000000000000000000 ) ) ;
#11 = FACE_OUTER_BOUND ( 'NONE', #532, .T. ) ;
#12 = CARTESIAN_POINT ( 'NONE',  ( 0.9995797355933698780, 0.1344672911011071670, 0.6249999999999998890 ) ) ;
#13 = ORIENTED_EDGE ( 'NONE', *, *, #761, .F. ) ;
#14 = ORIENTED_EDGE ( 'NONE', *, *, #167, .T. ) ;
#15 = EDGE_CURVE ( 'NONE', #435, #357, #821, .T. ) ;
#16 = DIRECTION ( 'NONE',  ( 0.0000000000000000000, 0.0000000000000000000, 1.000000000000000000 ) ) ;
#17 = COLOUR_RGB ( '',0.7921568627450980005, 0.8196078431372548767, 0.9333333333333333481 ) ;
#18 = EDGE_CURVE ( 'NONE', #435, #152, #701, .T. ) ;
#19 = CIRCLE ( 'NONE', #105, 0.9442026227640296643 ) ;
#20 = CARTESIAN_POINT ( 'NONE',  ( -0.9134615384615387690, 0.02577310839783496232, 0.5624999999999998890 ) ) ;
#21 = VECTOR ( 'NONE', #407, 1000.000000000000000 ) ;
#22 = PLANE ( 'NONE',  #272 ) ;
#23 = ORIENTED_EDGE ( 'NONE', *, *, #761, .T. ) ;
#24 = CARTESIAN_POINT ( 'NONE',  ( -0.5962791026475707801, 0.07896736885067104361, -0.6250000000000003331 ) ) ;
#25 = DIRECTION ( 'NONE',  ( -0.0000000000000000000, -0.0000000000000000000, -1.000000000000000000 ) ) ;
#26 = DIRECTION ( 'NONE',  ( 1.000000000000000000, 0.0000000000000000000, 0.0000000000000000000 ) ) ;
#27 = CARTESIAN_POINT ( 'NONE',  ( -0.3876953125000000000, 1.000000000000000000, -0.6250000000000003331 ) ) ;
#28 = CARTESIAN_POINT ( 'NONE',  ( -0.9351402406584664595, 0.03460614735318839202, -0.5769323337818601516 ) ) ;
#29 = AXIS2_PLACEMENT_3D ( 'NONE', #803, #605, #359 ) ;
#30 = LINE ( 'NONE', #590, #597 ) ;
#31 = DIRECTION ( 'NONE',  ( 1.982541115402062152E-15, -1.000000000000000000, 0.0000000000000000000 ) ) ;
#32 = ORIENTED_EDGE ( 'NONE', *, *, #592, .T. ) ;
#33 = PLANE ( 'NONE',  #263 ) ;
#34 = AXIS2_PLACEMENT_3D ( 'NONE', #765, #110, #498 ) ;
#35 =( NAMED_UNIT ( * ) PLANE_ANGLE_UNIT ( ) SI_UNIT ( $, .RADIAN. ) );
#36 = SURFACE_SIDE_STYLE ('',( #644 ) ) ;
#37 = ORIENTED_EDGE ( 'NONE', *, *, #314, .F. ) ;
#38 = CARTESIAN_POINT ( 'NONE',  ( 1.000000000000000000, 1.000000000000000000, 0.6249999999999998890 ) ) ;
#39 = TOROIDAL_SURFACE ( 'NONE', #287, 0.4687499999999995004, 0.06250000000000000000 ) ;
#40 = EDGE_CURVE ( 'NONE', #542, #715, #150, .T. ) ;
#41 = FILL_AREA_STYLE_COLOUR ( '', #630 ) ;
#42 = ORIENTED_EDGE ( 'NONE', *, *, #349, .F. ) ;
#43 = DIRECTION ( 'NONE',  ( -1.000000000000000000, 0.0000000000000000000, 0.0000000000000000000 ) ) ;
#44 = DIRECTION ( 'NONE',  ( -0.0000000000000000000, -0.0000000000000000000, -1.000000000000000000 ) ) ;
#45 = AXIS2_PLACEMENT_3D ( 'NONE', #38, #101, #739 ) ;
#46 = CARTESIAN_POINT ( 'NONE',  ( -0.7500000000000000000, 0.5312499999999994449, 0.5624999999999998890 ) ) ;
#47 = ORIENTED_EDGE ( 'NONE', *, *, #362, .F. ) ;
#48 = CARTESIAN_POINT ( 'NONE',  ( 0.5000000000000002220, 0.06249999999999994449, 0.5624999999999998890 ) ) ;
#49 = LINE ( 'NONE', #732, #21 ) ;
#50 = APPLICATION_PROTOCOL_DEFINITION ( 'draft international standard', 'automotive_design', 1998, #694 ) ;
#51 = EDGE_CURVE ( 'NONE', #808, #824, #561, .T. ) ;
#52 = PLANE ( 'NONE',  #305 ) ;
#53 = ORIENTED_EDGE ( 'NONE', *, *, #79, .T. ) ;
#54 = ORIENTED_EDGE ( 'NONE', *, *, #51, .T. ) ;
#55 = EDGE_CURVE ( 'NONE', #453, #182, #370, .T. ) ;
#56 = DIRECTION ( 'NONE',  ( 1.000000000000000000, 0.0000000000000000000, -0.0000000000000000000 ) ) ;
#57 = VECTOR ( 'NONE', #400, 1000.000000000000000 ) ;
#58 = CARTESIAN_POINT ( 'NONE',  ( 0.5794554197326829970, 0.07532795312062971760, -0.6232152973228641812 ) ) ;
#59 = ORIENTED_EDGE ( 'NONE', *, *, #747, .F. ) ;
#60 = AXIS2_PLACEMENT_3D ( 'NONE', #449, #834, #63 ) ;
#61 = VERTEX_POINT ( 'NONE', #220 ) ;
#62 = CARTESIAN_POINT ( 'NONE',  ( -0.5000000000000000000, 0.06250000000000005551, 0.6249999999999998890 ) ) ;
#63 = DIRECTION ( 'NONE',  ( 1.000000000000000000, 0.0000000000000000000, 0.0000000000000000000 ) ) ;
#64 = ORIENTED_EDGE ( 'NONE', *, *, #343, .T. ) ;
#65 = CARTESIAN_POINT ( 'NONE',  ( -1.000000000000000444, 0.2812500000000004441, -0.6250000000000003331 ) ) ;
#66 = FACE_OUTER_BOUND ( 'NONE', #251, .T. ) ;
#67 = CARTESIAN_POINT ( 'NONE',  ( -0.7500000000000000000, 0.5312499999999994449, 0.5624999999999998890 ) ) ;
#68 = ORIENTED_EDGE ( 'NONE', *, *, #147, .T. ) ;
#69 = AXIS2_PLACEMENT_3D ( 'NONE', #286, #44, #491 ) ;
#70 = DIRECTION ( 'NONE',  ( 0.0000000000000000000, -1.000000000000000000, 0.0000000000000000000 ) ) ;
#71 = CARTESIAN_POINT ( 'NONE',  ( 0.3876953125000000000, 1.000000000000000000, 0.6249999999999998890 ) ) ;
#72 = PRESENTATION_LAYER_ASSIGNMENT (  '', '', ( #706 ) ) ;
#73 = DIRECTION ( 'NONE',  ( 0.0000000000000000000, -0.0000000000000000000, -1.000000000000000000 ) ) ;
#74 = FACE_OUTER_BOUND ( 'NONE', #470, .T. ) ;
#75 = PRESENTATION_STYLE_ASSIGNMENT (( #377 ) ) ;
#76 = DIRECTION ( 'NONE',  ( 1.000000000000000000, 0.0000000000000000000, -0.0000000000000000000 ) ) ;
#77 =( NAMED_UNIT ( * ) SI_UNIT ( $, .STERADIAN. ) SOLID_ANGLE_UNIT ( ) );
#78 = ORIENTED_EDGE ( 'NONE', *, *, #15, .T. ) ;
#79 = EDGE_CURVE ( 'NONE', #572, #637, #552, .T. ) ;
#80 = CARTESIAN_POINT ( 'NONE',  ( -0.5048258623208958795, 0.06308881101228580590, -0.5815012161415126224 ) ) ;
#81 = VERTEX_POINT ( 'NONE', #389 ) ;
#82 = CARTESIAN_POINT ( 'NONE',  ( -0.9561021041274899712, 0.04849946941656834570, 0.5917501938829695662 ) ) ;
#83 = DIRECTION ( 'NONE',  ( -1.982541115402062152E-15, -1.000000000000000000, 0.0000000000000000000 ) ) ;
#84 = CARTESIAN_POINT ( 'NONE',  ( -0.5000000000000000000, 0.06250000000000005551, 0.6249999999999998890 ) ) ;
#85 = VERTEX_POINT ( 'NONE', #728 ) ;
#86 = DIRECTION ( 'NONE',  ( 0.0000000000000000000, 0.0000000000000000000, 1.000000000000000000 ) ) ;
#87 = FACE_OUTER_BOUND ( 'NONE', #197, .T. ) ;
#88 = PRESENTATION_LAYER_ASSIGNMENT (  '', '', ( #115 ) ) ;
#89 = DIRECTION ( 'NONE',  ( -0.0000000000000000000, -0.0000000000000000000, -1.000000000000000000 ) ) ;
#90 = ORIENTED_EDGE ( 'NONE', *, *, #764, .T. ) ;
#91 = ORIENTED_EDGE ( 'NONE', *, *, #167, .F. ) ;
#92 = ORIENTED_EDGE ( 'NONE', *, *, #443, .F. ) ;
#93 = CARTESIAN_POINT ( 'NONE',  ( -0.9155250584804807135, 0.02646029735287788037, 0.5638447959059323944 ) ) ;
#94 = DIRECTION ( 'NONE',  ( 0.0000000000000000000, 0.0000000000000000000, 1.000000000000000000 ) ) ;
#95 = CARTESIAN_POINT ( 'NONE',  ( -0.3876953125000000000, 1.000000000000000000, -0.6250000000000003331 ) ) ;
#96 = DIRECTION ( 'NONE',  ( 0.0000000000000000000, 0.0000000000000000000, 1.000000000000000000 ) ) ;
#97 = CIRCLE ( 'NONE', #380, 0.9442026227640297753 ) ;
#98 = CARTESIAN_POINT ( 'NONE',  ( -0.9987109557129287829, 0.1238993302815403069, -0.6250000000000003331 ) ) ;
#99 = AXIS2_PLACEMENT_3D ( 'NONE', #106, #437, #304 ) ;
#100 = LINE ( 'NONE', #578, #296 ) ;
#101 = DIRECTION ( 'NONE',  ( -1.000000000000000000, 0.0000000000000000000, 0.0000000000000000000 ) ) ;
#102 = ADVANCED_FACE ( 'NONE', ( #241 ), #218, .T. ) ;
#103 = DIRECTION ( 'NONE',  ( 1.000000000000000000, 0.0000000000000000000, 0.0000000000000000000 ) ) ;
#104 = ORIENTED_EDGE ( 'NONE', *, *, #428, .T. ) ;
#105 = AXIS2_PLACEMENT_3D ( 'NONE', #581, #202, #206 ) ;
#106 = CARTESIAN_POINT ( 'NONE',  ( 0.0000000000000000000, 0.0000000000000000000, 0.0000000000000000000 ) ) ;
#107 =( NAMED_UNIT ( * ) PLANE_ANGLE_UNIT ( ) SI_UNIT ( $, .RADIAN. ) );
#108 = VECTOR ( 'NONE', #371, 1000.000000000000000 ) ;
#109 = EDGE_CURVE ( 'NONE', #808, #85, #30, .T. ) ;
#110 = DIRECTION ( 'NONE',  ( 0.0000000000000000000, 0.0000000000000000000, 1.000000000000000000 ) ) ;
#111 = LINE ( 'NONE', #537, #685 ) ;
#112 = ORIENTED_EDGE ( 'NONE', *, *, #509, .T. ) ;
#113 = VERTEX_POINT ( 'NONE', #788 ) ;
#114 = CARTESIAN_POINT ( 'NONE',  ( 0.9141513380060795058, 0.02599617634941498584, -0.5629482775743622769 ) ) ;
#115 = STYLED_ITEM ( 'NONE', ( #391 ), #423 ) ;
#116 = CARTESIAN_POINT ( 'NONE',  ( 0.9351402406584664595, 0.03460614735318839202, -0.5769323337818601516 ) ) ;
#117 = VECTOR ( 'NONE', #225, 1000.000000000000000 ) ;
#118 = CARTESIAN_POINT ( 'NONE',  ( 0.9830466180639420015, 0.08074850936692115622, -0.6124536588091821221 ) ) ;
#119 = ADVANCED_FACE ( 'NONE', ( #66 ), #22, .T. ) ;
#120 = LINE ( 'NONE', #626, #488 ) ;
#121 = AXIS2_PLACEMENT_3D ( 'NONE', #324, #320, #204 ) ;
#122 = CARTESIAN_POINT ( 'NONE',  ( 0.5510143476823585740, 0.06994582437592260227, -0.6157712471533861587 ) ) ;
#123 = ORIENTED_EDGE ( 'NONE', *, *, #756, .F. ) ;
#124 = ADVANCED_FACE ( 'NONE', ( #530 ), #792, .T. ) ;
#125 = ORIENTED_EDGE ( 'NONE', *, *, #796, .T. ) ;
#126 = EDGE_CURVE ( 'NONE', #637, #203, #49, .T. ) ;
#127 = DIRECTION ( 'NONE',  ( -1.982541115402062152E-15, 1.000000000000000000, 0.0000000000000000000 ) ) ;
#128 = FACE_OUTER_BOUND ( 'NONE', #378, .T. ) ;
#129 = FILL_AREA_STYLE ('',( #575 ) ) ;
#130 = VECTOR ( 'NONE', #327, 1000.000000000000000 ) ;
#131 = CYLINDRICAL_SURFACE ( 'NONE', #248, 0.5312499999999994449 ) ;
#132 =( GEOMETRIC_REPRESENTATION_CONTEXT ( 3 ) GLOBAL_UNCERTAINTY_ASSIGNED_CONTEXT ( ( #798 ) ) GLOBAL_UNIT_ASSIGNED_CONTEXT ( ( #755, #107, #179 ) ) REPRESENTATION_CONTEXT ( 'NONE', 'WORKASPACE' ) );
#133 = CARTESIAN_POINT ( 'NONE',  ( 0.5155364333950059885, 0.06447893390784699419, -0.5953244819456630088 ) ) ;
#134 = VERTEX_POINT ( 'NONE', #534 ) ;
#135 = CARTESIAN_POINT ( 'NONE',  ( 1.000000000000000000, 1.000000000000000000, 0.6249999999999998890 ) ) ;
#136 = CARTESIAN_POINT ( 'NONE',  ( 0.9351402406584664595, 0.03460614735318839202, 0.5769323337818597075 ) ) ;
#137 = EDGE_CURVE ( 'NONE', #187, #432, #622, .T. ) ;
#138 = TOROIDAL_SURFACE ( 'NONE', #787, 0.4687499999999995004, 0.06250000000000000000 ) ;
#139 = FACE_OUTER_BOUND ( 'NONE', #475, .T. ) ;
#140 = CARTESIAN_POINT ( 'NONE',  ( -0.5000000000000000000, 0.06250000000000005551, -0.6250000000000003331 ) ) ;
#141 = VERTEX_POINT ( 'NONE', #524 ) ;
#142 = CARTESIAN_POINT ( 'NONE',  ( 0.8750000000000001110, 0.1447088475983444866, -0.6250000000000003331 ) ) ;
#143 = CARTESIAN_POINT ( 'NONE',  ( -0.5155364333950059885, 0.06447893390784699419, -0.5953244819456630088 ) ) ;
#144 = ADVANCED_FACE ( 'NONE', ( #508 ), #131, .T. ) ;
#145 = CARTESIAN_POINT ( 'NONE',  ( 1.000000000000000222, 0.1447088475983442646, -1.198673742208932858 ) ) ;
#146 = CARTESIAN_POINT ( 'NONE',  ( -0.5510143476823585740, 0.06994582437592260227, -0.6157712471533861587 ) ) ;
#147 = EDGE_CURVE ( 'NONE', #760, #624, #195, .T. ) ;
#148 = CARTESIAN_POINT ( 'NONE',  ( -0.9760866672528480947, 0.07118003893322322195, 0.6070157123094532814 ) ) ;
#149 = VECTOR ( 'NONE', #43, 1000.000000000000000 ) ;
#150 = LINE ( 'NONE', #382, #396 ) ;
#151 = UNCERTAINTY_MEASURE_WITH_UNIT (LENGTH_MEASURE( 1.000000000000000082E-05 ), #831, 'distance_accuracy_value', 'NONE');
#152 = VERTEX_POINT ( 'NONE', #472 ) ;
#153 = DIRECTION ( 'NONE',  ( -1.000000000000000000, -1.982541115402062152E-15, 0.0000000000000000000 ) ) ;
#154 = ORIENTED_EDGE ( 'NONE', *, *, #580, .T. ) ;
#155 = EDGE_CURVE ( 'NONE', #572, #819, #111, .T. ) ;
#156 = ORIENTED_EDGE ( 'NONE', *, *, #309, .T. ) ;
#157 = CARTESIAN_POINT ( 'NONE',  ( -0.9148392107393650274, 0.02622524990612508031, 0.5633965760044017390 ) ) ;
#158 = CARTESIAN_POINT ( 'NONE',  ( -0.5794554197326829970, 0.07532795312062971760, -0.6232152973228641812 ) ) ;
#159 = CARTESIAN_POINT ( 'NONE',  ( -0.9964327612252501520, 0.1133354267436781637, 0.6232602860176942317 ) ) ;
#160 = ORIENTED_EDGE ( 'NONE', *, *, #452, .T. ) ;
#161 = DIRECTION ( 'NONE',  ( 1.000000000000000000, 0.0000000000000000000, 0.0000000000000000000 ) ) ;
#162 = PRODUCT_DEFINITION ( 'UNKNOWN', '', #720, #337 ) ;
#163 = CIRCLE ( 'NONE', #121, 0.4687499999999995004 ) ;
#164 = CARTESIAN_POINT ( 'NONE',  ( 0.5000000000000000000, 0.06249999999999994449, -0.6250000000000003331 ) ) ;
#165 = ORIENTED_EDGE ( 'NONE', *, *, #292, .T. ) ;
#166 = DIRECTION ( 'NONE',  ( 0.0000000000000000000, 0.0000000000000000000, 1.000000000000000000 ) ) ;
#167 = EDGE_CURVE ( 'NONE', #113, #234, #815, .T. ) ;
#168 = DIRECTION ( 'NONE',  ( 0.0000000000000000000, 0.0000000000000000000, 1.000000000000000000 ) ) ;
#169 = ORIENTED_EDGE ( 'NONE', *, *, #18, .T. ) ;
#170 = PLANE ( 'NONE',  #45 ) ;
#171 = MANIFOLD_SOLID_BREP ( 'Fillet2', #495 ) ;
#172 = FILL_AREA_STYLE_COLOUR ( '', #298 ) ;
#173 = CARTESIAN_POINT ( 'NONE',  ( 1.000000000000000000, 1.000000000000000000, 0.6249999999999998890 ) ) ;
#174 = DIRECTION ( 'NONE',  ( -1.000000000000000000, 0.0000000000000000000, 0.0000000000000000000 ) ) ;
#175 = FACE_OUTER_BOUND ( 'NONE', #501, .T. ) ;
#176 = DIRECTION ( 'NONE',  ( 0.0000000000000000000, 0.0000000000000000000, 1.000000000000000000 ) ) ;
#177 = CARTESIAN_POINT ( 'NONE',  ( -1.000000000000000444, 0.2812500000000004441, -0.6250000000000003331 ) ) ;
#178 = ORIENTED_EDGE ( 'NONE', *, *, #155, .T. ) ;
#179 =( NAMED_UNIT ( * ) SI_UNIT ( $, .STERADIAN. ) SOLID_ANGLE_UNIT ( ) );
#180 = ADVANCED_FACE ( 'NONE', ( #466 ), #723, .T. ) ;
#181 = CARTESIAN_POINT ( 'NONE',  ( 0.9561021041274899712, 0.04849946941656834570, -0.5917501938829698993 ) ) ;
#182 = VERTEX_POINT ( 'NONE', #410 ) ;
#183 = SURFACE_STYLE_USAGE ( .BOTH. , #439 ) ;
#184 = CIRCLE ( 'NONE', #456, 0.1250000000000000000 ) ;
#185 = AXIS2_PLACEMENT_3D ( 'NONE', #278, #328, #26 ) ;
#186 = CARTESIAN_POINT ( 'NONE',  ( 0.5000000000000002220, 0.06249999999999979877, 0.5866605997810585560 ) ) ;
#187 = VERTEX_POINT ( 'NONE', #293 ) ;
#188 = FILL_AREA_STYLE ('',( #41 ) ) ;
#189 = ADVANCED_FACE ( 'NONE', ( #330 ), #418, .F. ) ;
#190 = CARTESIAN_POINT ( 'NONE',  ( 0.5029560942276157798, 0.06285884466105573498, -0.5769867803177304300 ) ) ;
#191 = ORIENTED_EDGE ( 'NONE', *, *, #747, .T. ) ;
#192 = LINE ( 'NONE', #145, #766 ) ;
#193 = FACE_OUTER_BOUND ( 'NONE', #366, .T. ) ;
#194 = AXIS2_PLACEMENT_3D ( 'NONE', #198, #56, #375 ) ;
#195 = CIRCLE ( 'NONE', #781, 0.1250000000000000000 ) ;
#196 =( NAMED_UNIT ( * ) SI_UNIT ( $, .STERADIAN. ) SOLID_ANGLE_UNIT ( ) );
#197 = EDGE_LOOP ( 'NONE', ( #64, #294, #59, #123 ) ) ;
#198 = CARTESIAN_POINT ( 'NONE',  ( -1.000000000000000000, 1.000000000000000000, 0.6249999999999998890 ) ) ;
#199 = EDGE_CURVE ( 'NONE', #187, #134, #358, .T. ) ;
#200 = CARTESIAN_POINT ( 'NONE',  ( 0.9141513380060795058, 0.02599617634941498584, 0.5629482775743619438 ) ) ;
#201 = SHAPE_DEFINITION_REPRESENTATION ( #533, #423 ) ;
#202 = DIRECTION ( 'NONE',  ( -0.0000000000000000000, -0.0000000000000000000, -1.000000000000000000 ) ) ;
#203 = VERTEX_POINT ( 'NONE', #801 ) ;
#204 = DIRECTION ( 'NONE',  ( -1.000000000000000000, 0.0000000000000000000, 0.0000000000000000000 ) ) ;
#205 = CARTESIAN_POINT ( 'NONE',  ( 0.9561021041274899712, 0.04849946941656834570, 0.5917501938829695662 ) ) ;
#206 = DIRECTION ( 'NONE',  ( -1.000000000000000000, 0.0000000000000000000, 0.0000000000000000000 ) ) ;
#207 = AXIS2_PLACEMENT_3D ( 'NONE', #434, #364, #361 ) ;
#208 = CARTESIAN_POINT ( 'NONE',  ( -0.3876953125000000000, 1.000000000000000000, -0.6250000000000003331 ) ) ;
#209 = CARTESIAN_POINT ( 'NONE',  ( -0.5000000000000002220, 0.06249999999999994449, -0.5674298869329778006 ) ) ;
#210 = LINE ( 'NONE', #65, #315 ) ;
#211 = DIRECTION ( 'NONE',  ( 0.0000000000000000000, 0.0000000000000000000, 1.000000000000000000 ) ) ;
#212 = VECTOR ( 'NONE', #89, 1000.000000000000000 ) ;
#213 = EDGE_CURVE ( 'NONE', #624, #61, #586, .T. ) ;
#214 = ORIENTED_EDGE ( 'NONE', *, *, #213, .F. ) ;
#215 = ORIENTED_EDGE ( 'NONE', *, *, #698, .F. ) ;
#216 = ORIENTED_EDGE ( 'NONE', *, *, #362, .T. ) ;
#217 = CARTESIAN_POINT ( 'NONE',  ( -0.9440576673285349107, 0.04051653222364217516, 0.5832360281578032879 ) ) ;
#218 = PLANE ( 'NONE',  #588 ) ;
#219 = CARTESIAN_POINT ( 'NONE',  ( -1.000000000000000000, 1.000000000000000000, -0.6250000000000003331 ) ) ;
#220 = CARTESIAN_POINT ( 'NONE',  ( -0.6128092057446985486, 0.08302544860684006600, 0.6249999999999998890 ) ) ;
#221 =( GEOMETRIC_REPRESENTATION_CONTEXT ( 3 ) GLOBAL_UNCERTAINTY_ASSIGNED_CONTEXT ( ( #754 ) ) GLOBAL_UNIT_ASSIGNED_CONTEXT ( ( #522, #526, #77 ) ) REPRESENTATION_CONTEXT ( 'NONE', 'WORKASPACE' ) );
#222 = EDGE_LOOP ( 'NONE', ( #53, #303, #793, #374 ) ) ;
#223 = CARTESIAN_POINT ( 'NONE',  ( -0.9995797355933698780, 0.1344672911011071670, 0.6249999999999998890 ) ) ;
#224 = DIRECTION ( 'NONE',  ( -0.0000000000000000000, 0.0000000000000000000, 1.000000000000000000 ) ) ;
#225 = DIRECTION ( 'NONE',  ( -1.000000000000000000, 0.0000000000000000000, 0.0000000000000000000 ) ) ;
#226 = ORIENTED_EDGE ( 'NONE', *, *, #618, .F. ) ;
#227 = AXIS2_PLACEMENT_3D ( 'NONE', #478, #291, #547 ) ;
#228 =( LENGTH_UNIT ( ) NAMED_UNIT ( * ) SI_UNIT ( .MILLI., .METRE. ) );
#229 = ORIENTED_EDGE ( 'NONE', *, *, #580, .F. ) ;
#230 = CARTESIAN_POINT ( 'NONE',  ( -1.000000000000000444, 0.2812500000000004441, 0.6249999999999998890 ) ) ;
#231 = DIRECTION ( 'NONE',  ( -0.0000000000000000000, -0.0000000000000000000, -1.000000000000000000 ) ) ;
#232 = SURFACE_STYLE_USAGE ( .BOTH. , #36 ) ;
#233 = VECTOR ( 'NONE', #519, 1000.000000000000000 ) ;
#234 = VERTEX_POINT ( 'NONE', #164 ) ;
#235 = CARTESIAN_POINT ( 'NONE',  ( -0.6128092057446985486, 0.08302544860684006600, -0.6250000000000003331 ) ) ;
#236 = EDGE_CURVE ( 'NONE', #752, #357, #745, .T. ) ;
#237 = DIRECTION ( 'NONE',  ( -1.000000000000000000, 0.0000000000000000000, 0.0000000000000000000 ) ) ;
#238 = DIRECTION ( 'NONE',  ( -0.0000000000000000000, -0.0000000000000000000, -1.000000000000000000 ) ) ;
#239 = DIRECTION ( 'NONE',  ( 0.0000000000000000000, 0.0000000000000000000, 1.000000000000000000 ) ) ;
#240 = VECTOR ( 'NONE', #546, 1000.000000000000000 ) ;
#241 = FACE_OUTER_BOUND ( 'NONE', #422, .T. ) ;
#242 = DIRECTION ( 'NONE',  ( -0.0000000000000000000, -0.0000000000000000000, -1.000000000000000000 ) ) ;
#243 = ORIENTED_EDGE ( 'NONE', *, *, #569, .T. ) ;
#244 =( NAMED_UNIT ( * ) SI_UNIT ( $, .STERADIAN. ) SOLID_ANGLE_UNIT ( ) );
#245 = CARTESIAN_POINT ( 'NONE',  ( 0.5000000000000002220, 0.06249999999999994449, 0.5624999999999998890 ) ) ;
#246 = DIRECTION ( 'NONE',  ( 0.0000000000000000000, 1.000000000000000000, 0.0000000000000000000 ) ) ;
#247 = ADVANCED_FACE ( 'NONE', ( #568 ), #33, .T. ) ;
#248 = AXIS2_PLACEMENT_3D ( 'NONE', #662, #724, #271 ) ;
#249 = CARTESIAN_POINT ( 'NONE',  ( 0.5216177753834801978, 0.06532047965812484702, -0.6002442275288379925 ) ) ;
#250 = CIRCLE ( 'NONE', #740, 0.5312499999999994449 ) ;
#251 = EDGE_LOOP ( 'NONE', ( #68, #334, #636, #689 ) ) ;
#252 = ORIENTED_EDGE ( 'NONE', *, *, #331, .T. ) ;
#253 =( LENGTH_UNIT ( ) NAMED_UNIT ( * ) SI_UNIT ( .MILLI., .METRE. ) );
#254 = ORIENTED_EDGE ( 'NONE', *, *, #15, .F. ) ;
#255 = CARTESIAN_POINT ( 'NONE',  ( 0.5632583419868271157, 0.07226285214405693547, -0.6189759402717043280 ) ) ;
#256 = CARTESIAN_POINT ( 'NONE',  ( 0.6128092057446985486, 0.08302544860684006600, 0.6249999999999998890 ) ) ;
#257 = CYLINDRICAL_SURFACE ( 'NONE', #433, 0.9442026227640296643 ) ;
#258 = AXIS2_PLACEMENT_3D ( 'NONE', #677, #682, #816 ) ;
#259 = PLANE ( 'NONE',  #194 ) ;
#260 = CARTESIAN_POINT ( 'NONE',  ( 0.9148392107393650274, 0.02622524990612508031, 0.5633965760044017390 ) ) ;
#261 = ORIENTED_EDGE ( 'NONE', *, *, #698, .T. ) ;
#262 = CARTESIAN_POINT ( 'NONE',  ( -0.5665128913693978641, 0.07262140828830913886, 0.6218044738089683054 ) ) ;
#263 = AXIS2_PLACEMENT_3D ( 'NONE', #674, #684, #421 ) ;
#264 = DIRECTION ( 'NONE',  ( 1.000000000000000000, 0.0000000000000000000, 0.0000000000000000000 ) ) ;
#265 = CIRCLE ( 'NONE', #300, 0.9442026227640297753 ) ;
#266 = FILL_AREA_STYLE ('',( #381 ) ) ;
#267 = CYLINDRICAL_SURFACE ( 'NONE', #34, 0.5312499999999994449 ) ;
#268 = AXIS2_PLACEMENT_3D ( 'NONE', #736, #25, #464 ) ;
#269 = DIRECTION ( 'NONE',  ( -1.000000000000000000, 0.0000000000000000000, 0.0000000000000000000 ) ) ;
#270 = CLOSED_SHELL ( 'NONE', ( #419, #360, #124, #102, #827, #348, #767, #180 ) ) ;
#271 = DIRECTION ( 'NONE',  ( 1.000000000000000000, 0.0000000000000000000, 0.0000000000000000000 ) ) ;
#272 = AXIS2_PLACEMENT_3D ( 'NONE', #461, #16, #76 ) ;
#273 = CARTESIAN_POINT ( 'NONE',  ( 1.000000000000000444, 0.2812500000000004441, -0.6250000000000003331 ) ) ;
#274 = FACE_OUTER_BOUND ( 'NONE', #681, .T. ) ;
#275 = VECTOR ( 'NONE', #242, 1000.000000000000000 ) ;
#276 = CARTESIAN_POINT ( 'NONE',  ( 1.000000000000000222, 0.1447088475983442646, -0.6250000000000003331 ) ) ;
#277 = PRESENTATION_STYLE_ASSIGNMENT (( #232 ) ) ;
#278 = CARTESIAN_POINT ( 'NONE',  ( -0.8750000000000001110, 0.1447088475983444866, -0.6250000000000003331 ) ) ;
#279 = ORIENTED_EDGE ( 'NONE', *, *, #618, .T. ) ;
#280 = DIRECTION ( 'NONE',  ( -1.000000000000000000, 0.0000000000000000000, 0.0000000000000000000 ) ) ;
#281 = CARTESIAN_POINT ( 'NONE',  ( -0.3876953125000000000, 1.000000000000000000, -1.198673742208932858 ) ) ;
#282 = DIRECTION ( 'NONE',  ( 0.0000000000000000000, 0.0000000000000000000, 1.000000000000000000 ) ) ;
#283 = SURFACE_STYLE_FILL_AREA ( #266 ) ;
#284 = CARTESIAN_POINT ( 'NONE',  ( 0.9995797355933698780, 0.1344672911011071670, -0.6250000000000003331 ) ) ;
#285 = CIRCLE ( 'NONE', #403, 0.5312499999999994449 ) ;
#286 = CARTESIAN_POINT ( 'NONE',  ( 0.7500000000000000000, 0.5312499999999994449, 0.6249999999999998890 ) ) ;
#287 = AXIS2_PLACEMENT_3D ( 'NONE', #67, #383, #390 ) ;
#288 = DIRECTION ( 'NONE',  ( -0.0000000000000000000, -0.0000000000000000000, -1.000000000000000000 ) ) ;
#289 = ORIENTED_EDGE ( 'NONE', *, *, #499, .F. ) ;
#290 = DIRECTION ( 'NONE',  ( -1.000000000000000000, 0.0000000000000000000, 0.0000000000000000000 ) ) ;
#291 = DIRECTION ( 'NONE',  ( 0.0000000000000000000, 0.0000000000000000000, 1.000000000000000000 ) ) ;
#292 = EDGE_CURVE ( 'NONE', #819, #203, #804, .T. ) ;
#293 = CARTESIAN_POINT ( 'NONE',  ( -0.9995797355933698780, 0.1344672911011071670, -0.6250000000000003331 ) ) ;
#294 = ORIENTED_EDGE ( 'NONE', *, *, #731, .T. ) ;
#295 = CARTESIAN_POINT ( 'NONE',  ( -1.000000000000000222, 0.1447088475983442646, -1.198673742208932858 ) ) ;
#296 = VECTOR ( 'NONE', #574, 1000.000000000000000 ) ;
#297 = DIRECTION ( 'NONE',  ( 0.0000000000000000000, 0.0000000000000000000, 1.000000000000000000 ) ) ;
#298 = COLOUR_RGB ( '',0.7921568627450980005, 0.8196078431372548767, 0.9333333333333333481 ) ;
#299 = ORIENTED_EDGE ( 'NONE', *, *, #833, .F. ) ;
#300 = AXIS2_PLACEMENT_3D ( 'NONE', #27, #282, #473 ) ;
#301 = CARTESIAN_POINT ( 'NONE',  ( 0.9134615384615387690, 0.02577310839783496232, -0.5625000000000003331 ) ) ;
#302 = CARTESIAN_POINT ( 'NONE',  ( 1.000000000000000000, 1.000000000000000000, -0.6250000000000003331 ) ) ;
#303 = ORIENTED_EDGE ( 'NONE', *, *, #126, .T. ) ;
#304 = DIRECTION ( 'NONE',  ( 1.000000000000000000, 0.0000000000000000000, 0.0000000000000000000 ) ) ;
#305 = AXIS2_PLACEMENT_3D ( 'NONE', #563, #246, #696 ) ;
#306 = LINE ( 'NONE', #427, #671 ) ;
#307 = CARTESIAN_POINT ( 'NONE',  ( 0.9671225171638633267, 0.05885621547272389120, -0.6000118454830196679 ) ) ;
#308 = ORIENTED_EDGE ( 'NONE', *, *, #126, .F. ) ;
#309 = EDGE_CURVE ( 'NONE', #615, #152, #513, .T. ) ;
#310 = CARTESIAN_POINT ( 'NONE',  ( 0.5962791026475707801, 0.07896736885067104361, -0.6250000000000003331 ) ) ;
#311 = CARTESIAN_POINT ( 'NONE',  ( 0.5388610844445750336, 0.06791266281848357123, -0.6111013726761380660 ) ) ;
#312 = VERTEX_POINT ( 'NONE', #177 ) ;
#313 = FACE_OUTER_BOUND ( 'NONE', #222, .T. ) ;
#314 = EDGE_CURVE ( 'NONE', #335, #435, #459, .T. ) ;
#315 = VECTOR ( 'NONE', #127, 1000.000000000000000 ) ;
#316 = ORIENTED_EDGE ( 'NONE', *, *, #764, .F. ) ;
#317 = EDGE_CURVE ( 'NONE', #453, #335, #621, .T. ) ;
#318 = CARTESIAN_POINT ( 'NONE',  ( -0.9134615384615387690, 0.02577310839783496232, -1.198673742208932858 ) ) ;
#319 = CARTESIAN_POINT ( 'NONE',  ( 0.9830466180639420015, 0.08074850936692115622, 0.6124536588091816780 ) ) ;
#320 = DIRECTION ( 'NONE',  ( 0.0000000000000000000, 0.0000000000000000000, 1.000000000000000000 ) ) ;
#321 = CARTESIAN_POINT ( 'NONE',  ( 0.9889256855593541173, 0.09175034532152923084, 0.6172695350585366558 ) ) ;
#322 = CARTESIAN_POINT ( 'NONE',  ( -1.000000000000000444, 0.2812500000000004441, 0.6249999999999998890 ) ) ;
#323 = ORIENTED_EDGE ( 'NONE', *, *, #656, .F. ) ;
#324 = CARTESIAN_POINT ( 'NONE',  ( 0.7500000000000000000, 0.5312499999999994449, -0.6250000000000003331 ) ) ;
#325 = CARTESIAN_POINT ( 'NONE',  ( 0.9671225171638633267, 0.05885621547272389120, 0.6000118454830192238 ) ) ;
#326 = PRESENTATION_LAYER_ASSIGNMENT (  '', '', ( #725 ) ) ;
#327 = DIRECTION ( 'NONE',  ( -0.0000000000000000000, -0.0000000000000000000, -1.000000000000000000 ) ) ;
#328 = DIRECTION ( 'NONE',  ( -0.0000000000000000000, -0.0000000000000000000, -1.000000000000000000 ) ) ;
#329 = ORIENTED_EDGE ( 'NONE', *, *, #499, .T. ) ;
#330 = FACE_OUTER_BOUND ( 'NONE', #705, .T. ) ;
#331 = EDGE_CURVE ( 'NONE', #85, #141, #285, .T. ) ;
#332 = CARTESIAN_POINT ( 'NONE',  ( -0.5000000000000002220, 0.06249999999999994449, -0.5625000000000003331 ) ) ;
#333 = CARTESIAN_POINT ( 'NONE',  ( -0.9987109557129287829, 0.1238993302815403069, 0.6249999999999998890 ) ) ;
#334 = ORIENTED_EDGE ( 'NONE', *, *, #213, .T. ) ;
#335 = VERTEX_POINT ( 'NONE', #245 ) ;
#336 = ORIENTED_EDGE ( 'NONE', *, *, #109, .T. ) ;
#337 = PRODUCT_DEFINITION_CONTEXT ( 'detailed design', #496, 'design' ) ;
#338 = CARTESIAN_POINT ( 'NONE',  ( 1.000000000000000000, 0.2812500000000000555, 0.6249999999999998890 ) ) ;
#339 = MECHANICAL_DESIGN_GEOMETRIC_PRESENTATION_REPRESENTATION (  '', ( #725 ), #221 ) ;
#340 = VERTEX_POINT ( 'NONE', #429 ) ;
#341 = CARTESIAN_POINT ( 'NONE',  ( -0.6128092057446985486, 0.08302544860684006600, -0.6250000000000003331 ) ) ;
#342 = FACE_OUTER_BOUND ( 'NONE', #521, .T. ) ;
#343 = EDGE_CURVE ( 'NONE', #510, #312, #826, .T. ) ;
#344 = CARTESIAN_POINT ( 'NONE',  ( 0.5000000000000000000, 0.06249999999999994449, 0.6249999999999998890 ) ) ;
#345 = ORIENTED_EDGE ( 'NONE', *, *, #40, .F. ) ;
#346 = CARTESIAN_POINT ( 'NONE',  ( 0.7500000000000000000, 0.5312499999999994449, 0.5624999999999998890 ) ) ;
#347 =( NAMED_UNIT ( * ) SI_UNIT ( $, .STERADIAN. ) SOLID_ANGLE_UNIT ( ) );
#348 = ADVANCED_FACE ( 'NONE', ( #175 ), #442, .T. ) ;
#349 = EDGE_CURVE ( 'NONE', #687, #182, #120, .T. ) ;
#350 = CARTESIAN_POINT ( 'NONE',  ( -0.9830466180639420015, 0.08074850936692115622, -0.6124536588091821221 ) ) ;
#351 = VECTOR ( 'NONE', #512, 1000.000000000000000 ) ;
#352 = VECTOR ( 'NONE', #583, 1000.000000000000000 ) ;
#353 = DIRECTION ( 'NONE',  ( -1.000000000000000000, 0.0000000000000000000, 0.0000000000000000000 ) ) ;
#354 = AXIS2_PLACEMENT_3D ( 'NONE', #465, #666, #83 ) ;
#355 = CARTESIAN_POINT ( 'NONE',  ( -0.8750000000000001110, 0.1447088475983444866, 0.6249999999999998890 ) ) ;
#356 = ORIENTED_EDGE ( 'NONE', *, *, #828, .F. ) ;
#357 = VERTEX_POINT ( 'NONE', #367 ) ;
#358 = B_SPLINE_CURVE_WITH_KNOTS ( 'NONE', 3,
 ( #485, #98, #749, #744, #425, #350, #602, #550, #545, #807, #28, #672, #555, #415, #474, #738 ),
 .UNSPECIFIED., .F., .F.,
 ( 4, 3, 3, 3, 3, 4 ),
 ( 0.0000000000000000000, 3.181083414940635612E-05, 7.088250273713911278E-05, 0.0001213310752175190835, 0.0001584282086580727079, 0.0001609853202233196942 ),
 .UNSPECIFIED. ) ;
#359 = DIRECTION ( 'NONE',  ( 1.000000000000000000, 0.0000000000000000000, -0.0000000000000000000 ) ) ;
#360 = ADVANCED_FACE ( 'NONE', ( #193 ), #267, .T. ) ;
#361 = DIRECTION ( 'NONE',  ( -1.000000000000000000, 0.0000000000000000000, 0.0000000000000000000 ) ) ;
#362 = EDGE_CURVE ( 'NONE', #203, #776, #660, .T. ) ;
#363 = CARTESIAN_POINT ( 'NONE',  ( 0.9155250584804807135, 0.02646029735287788037, -0.5638447959059328385 ) ) ;
#364 = DIRECTION ( 'NONE',  ( 0.0000000000000000000, 0.0000000000000000000, 1.000000000000000000 ) ) ;
#365 = EDGE_LOOP ( 'NONE', ( #600, #664, #229, #726 ) ) ;
#366 = EDGE_LOOP ( 'NONE', ( #401, #784, #426, #37 ) ) ;
#367 = CARTESIAN_POINT ( 'NONE',  ( 0.9995797355933698780, 0.1344672911011071670, 0.6249999999999998890 ) ) ;
#368 = AXIS2_PLACEMENT_3D ( 'NONE', #135, #70, #73 ) ;
#369 = CARTESIAN_POINT ( 'NONE',  ( -1.000000000000000222, 0.1447088475983442646, -0.6250000000000003331 ) ) ;
#370 = CIRCLE ( 'NONE', #653, 0.9442026227640296643 ) ;
#371 = DIRECTION ( 'NONE',  ( -1.982541115402061757E-15, -1.000000000000000000, 0.0000000000000000000 ) ) ;
#372 = EDGE_LOOP ( 'NONE', ( #215, #748, #6, #214 ) ) ;
#373 = EDGE_CURVE ( 'NONE', #61, #715, #606, .T. ) ;
#374 = ORIENTED_EDGE ( 'NONE', *, *, #155, .F. ) ;
#375 = DIRECTION ( 'NONE',  ( -0.0000000000000000000, 0.0000000000000000000, -1.000000000000000000 ) ) ;
#376 = ADVANCED_FACE ( 'NONE', ( #683 ), #52, .F. ) ;
#377 = SURFACE_STYLE_USAGE ( .BOTH. , #571 ) ;
#378 = EDGE_LOOP ( 'NONE', ( #78, #90, #829, #678 ) ) ;
#379 = LINE ( 'NONE', #544, #117 ) ;
#380 = AXIS2_PLACEMENT_3D ( 'NONE', #751, #239, #353 ) ;
#381 = FILL_AREA_STYLE_COLOUR ( '', #17 ) ;
#382 = CARTESIAN_POINT ( 'NONE',  ( -1.000000000000000444, 0.2812500000000004441, -1.198673742208932858 ) ) ;
#383 = DIRECTION ( 'NONE',  ( 0.0000000000000000000, 0.0000000000000000000, 1.000000000000000000 ) ) ;
#384 = ORIENTED_EDGE ( 'NONE', *, *, #8, .T. ) ;
#385 = CARTESIAN_POINT ( 'NONE',  ( 0.9964327612252501520, 0.1133354267436781637, 0.6232602860176942317 ) ) ;
#386 = ORIENTED_EDGE ( 'NONE', *, *, #480, .T. ) ;
#387 = EDGE_CURVE ( 'NONE', #152, #81, #250, .T. ) ;
#388 = CARTESIAN_POINT ( 'NONE',  ( -0.6128092057446985486, 0.08302544860684006600, 0.6249999999999998890 ) ) ;
#389 = CARTESIAN_POINT ( 'NONE',  ( 0.5000000000000002220, 0.06249999999999994449, -0.5625000000000003331 ) ) ;
#390 = DIRECTION ( 'NONE',  ( 1.000000000000000000, 0.0000000000000000000, 0.0000000000000000000 ) ) ;
#391 = PRESENTATION_STYLE_ASSIGNMENT (( #183 ) ) ;
#392 = DIRECTION ( 'NONE',  ( 0.0000000000000000000, 0.0000000000000000000, 1.000000000000000000 ) ) ;
#393 = CIRCLE ( 'NONE', #268, 0.4687499999999995004 ) ;
#394 = COLOUR_RGB ( '',0.2509803921568627416, 0.2509803921568627416, 0.2509803921568627416 ) ;
#395 = DIRECTION ( 'NONE',  ( 1.000000000000000000, 0.0000000000000000000, 0.0000000000000000000 ) ) ;
#396 = VECTOR ( 'NONE', #392, 1000.000000000000000 ) ;
#397 = CARTESIAN_POINT ( 'NONE',  ( -0.5010717424034980549, 0.06262708462889803041, -0.5724371330058630747 ) ) ;
#398 = ORIENTED_EDGE ( 'NONE', *, *, #509, .F. ) ;
#399 = ORIENTED_EDGE ( 'NONE', *, *, #443, .T. ) ;
#400 = DIRECTION ( 'NONE',  ( 0.0000000000000000000, -1.000000000000000000, 0.0000000000000000000 ) ) ;
#401 = ORIENTED_EDGE ( 'NONE', *, *, #817, .F. ) ;
#402 = CARTESIAN_POINT ( 'NONE',  ( -0.5280599094754293565, 0.06628892437199944421, -0.6043004782546613773 ) ) ;
#403 = AXIS2_PLACEMENT_3D ( 'NONE', #46, #438, #759 ) ;
#404 = CARTESIAN_POINT ( 'NONE',  ( -0.9930634211827017443, 0.1036475692617414707, 0.6205715057269448609 ) ) ;
#405 = CARTESIAN_POINT ( 'NONE',  ( -0.5632583419868271157, 0.07226285214405693547, -0.6189759402717043280 ) ) ;
#406 = EDGE_LOOP ( 'NONE', ( #191, #243, #91, #494 ) ) ;
#407 = DIRECTION ( 'NONE',  ( -0.0000000000000000000, 1.000000000000000000, -0.0000000000000000000 ) ) ;
#408 = ORIENTED_EDGE ( 'NONE', *, *, #236, .T. ) ;
#409 = MANIFOLD_SOLID_BREP ( 'Boss-Extrude1', #507 ) ;
#410 = CARTESIAN_POINT ( 'NONE',  ( 1.000000000000000444, 0.2812500000000004441, 0.6249999999999998890 ) ) ;
#411 = ORIENTED_EDGE ( 'NONE', *, *, #79, .F. ) ;
#412 = ADVANCED_FACE ( 'NONE', ( #342 ), #259, .F. ) ;
#413 = CARTESIAN_POINT ( 'NONE',  ( -1.000000000000000000, 1.000000000000000000, 0.6249999999999998890 ) ) ;
#414 = EDGE_CURVE ( 'NONE', #81, #340, #627, .T. ) ;
#415 = CARTESIAN_POINT ( 'NONE',  ( -0.9148392107393650274, 0.02622524990612508031, -0.5633965760044021831 ) ) ;
#416 = CIRCLE ( 'NONE', #258, 0.9442026227640297753 ) ;
#417 = DIRECTION ( 'NONE',  ( -0.0000000000000000000, -0.0000000000000000000, -1.000000000000000000 ) ) ;
#418 = CYLINDRICAL_SURFACE ( 'NONE', #420, 0.9442026227640296643 ) ;
#419 = ADVANCED_FACE ( 'NONE', ( #700 ), #1, .F. ) ;
#420 = AXIS2_PLACEMENT_3D ( 'NONE', #281, #94, #161 ) ;
#421 = DIRECTION ( 'NONE',  ( 1.000000000000000000, 0.0000000000000000000, -0.0000000000000000000 ) ) ;
#422 = EDGE_LOOP ( 'NONE', ( #460, #92, #511, #316 ) ) ;
#423 = ADVANCED_BREP_SHAPE_REPRESENTATION ( 'MBKK2012T2R2M', ( #409, #171, #570, #99 ), #132 ) ;
#424 = ORIENTED_EDGE ( 'NONE', *, *, #387, .T. ) ;
#425 = CARTESIAN_POINT ( 'NONE',  ( -0.9889256855593541173, 0.09175034532152923084, -0.6172695350585370999 ) ) ;
#426 = ORIENTED_EDGE ( 'NONE', *, *, #18, .F. ) ;
#427 = CARTESIAN_POINT ( 'NONE',  ( -1.000000000000000000, 1.000000000000000000, 0.6249999999999998890 ) ) ;
#428 = EDGE_CURVE ( 'NONE', #432, #542, #210, .T. ) ;
#429 = CARTESIAN_POINT ( 'NONE',  ( 0.6128092057446985486, 0.08302544860684006600, -0.6250000000000003331 ) ) ;
#430 = ORIENTED_EDGE ( 'NONE', *, *, #109, .F. ) ;
#431 = CARTESIAN_POINT ( 'NONE',  ( 0.9930634211827017443, 0.1036475692617414707, -0.6205715057269453050 ) ) ;
#432 = VERTEX_POINT ( 'NONE', #369 ) ;
#433 = AXIS2_PLACEMENT_3D ( 'NONE', #609, #417, #742 ) ;
#434 = CARTESIAN_POINT ( 'NONE',  ( 0.7500000000000000000, 0.5312499999999994449, 0.5624999999999998890 ) ) ;
#435 = VERTEX_POINT ( 'NONE', #770 ) ;
#436 = ORIENTED_EDGE ( 'NONE', *, *, #796, .F. ) ;
#437 = DIRECTION ( 'NONE',  ( 0.0000000000000000000, 0.0000000000000000000, 1.000000000000000000 ) ) ;
#438 = DIRECTION ( 'NONE',  ( -0.0000000000000000000, -0.0000000000000000000, -1.000000000000000000 ) ) ;
#439 = SURFACE_SIDE_STYLE ('',( #659 ) ) ;
#440 = EDGE_CURVE ( 'NONE', #715, #760, #100, .T. ) ;
#441 = CARTESIAN_POINT ( 'NONE',  ( 0.6128092057446985486, 0.08302544860684006600, -0.6250000000000003331 ) ) ;
#442 = CYLINDRICAL_SURFACE ( 'NONE', #446, 0.1250000000000000000 ) ;
#443 = EDGE_CURVE ( 'NONE', #182, #752, #620, .T. ) ;
#444 = ORIENTED_EDGE ( 'NONE', *, *, #40, .T. ) ;
#445 = EDGE_LOOP ( 'NONE', ( #641, #608, #737, #345 ) ) ;
#446 = AXIS2_PLACEMENT_3D ( 'NONE', #822, #297, #489 ) ;
#447 = ORIENTED_EDGE ( 'NONE', *, *, #480, .F. ) ;
#448 = ADVANCED_FACE ( 'NONE', ( #139 ), #651, .T. ) ;
#449 = CARTESIAN_POINT ( 'NONE',  ( -0.7500000000000000000, 0.5312499999999994449, -0.5625000000000003331 ) ) ;
#450 = VECTOR ( 'NONE', #794, 1000.000000000000000 ) ;
#451 = DIRECTION ( 'NONE',  ( 0.0000000000000000000, 0.0000000000000000000, 1.000000000000000000 ) ) ;
#452 = EDGE_CURVE ( 'NONE', #469, #113, #528, .T. ) ;
#453 = VERTEX_POINT ( 'NONE', #256 ) ;
#454 = EDGE_CURVE ( 'NONE', #687, #340, #19, .T. ) ;
#455 = FACE_OUTER_BOUND ( 'NONE', #365, .T. ) ;
#456 = AXIS2_PLACEMENT_3D ( 'NONE', #142, #211, #269 ) ;
#457 = PLANE ( 'NONE',  #368 ) ;
#458 = FACE_OUTER_BOUND ( 'NONE', #675, .T. ) ;
#459 = CIRCLE ( 'NONE', #207, 0.5312499999999994449 ) ;
#460 = ORIENTED_EDGE ( 'NONE', *, *, #236, .F. ) ;
#461 = CARTESIAN_POINT ( 'NONE',  ( -0.3876953125000000000, 1.000000000000000000, 0.6249999999999998890 ) ) ;
#462 = ORIENTED_EDGE ( 'NONE', *, *, #731, .F. ) ;
#463 = STYLED_ITEM ( 'NONE', ( #75 ), #409 ) ;
#464 = DIRECTION ( 'NONE',  ( 1.000000000000000000, 0.0000000000000000000, 0.0000000000000000000 ) ) ;
#465 = CARTESIAN_POINT ( 'NONE',  ( 1.000000000000000444, 0.2812500000000004441, -1.198673742208932858 ) ) ;
#466 = FACE_OUTER_BOUND ( 'NONE', #654, .T. ) ;
#467 = CARTESIAN_POINT ( 'NONE',  ( -1.000000000000000444, 0.2812500000000004441, -1.198673742208932858 ) ) ;
#468 = CARTESIAN_POINT ( 'NONE',  ( -0.5075129534853501934, 0.06342525664613481162, -0.5857112497115192218 ) ) ;
#469 = VERTEX_POINT ( 'NONE', #709 ) ;
#470 = EDGE_LOOP ( 'NONE', ( #323, #47, #308, #13, #716, #462 ) ) ;
#471 = CARTESIAN_POINT ( 'NONE',  ( -0.9141513380060795058, 0.02599617634941498584, 0.5629482775743619438 ) ) ;
#472 = CARTESIAN_POINT ( 'NONE',  ( 0.9134615384615387690, 0.02577310839783496232, -0.5625000000000003331 ) ) ;
#473 = DIRECTION ( 'NONE',  ( 1.000000000000000000, 0.0000000000000000000, 0.0000000000000000000 ) ) ;
#474 = CARTESIAN_POINT ( 'NONE',  ( -0.9141513380060795058, 0.02599617634941498584, -0.5629482775743622769 ) ) ;
#475 = EDGE_LOOP ( 'NONE', ( #573, #289, #554, #226 ) ) ;
#476 = PLANE ( 'NONE',  #676 ) ;
#477 = MECHANICAL_DESIGN_GEOMETRIC_PRESENTATION_REPRESENTATION (  '', ( #706 ), #625 ) ;
#478 = CARTESIAN_POINT ( 'NONE',  ( -0.7500000000000000000, 0.5312499999999994449, 0.6249999999999998890 ) ) ;
#479 = ORIENTED_EDGE ( 'NONE', *, *, #756, .T. ) ;
#480 = EDGE_CURVE ( 'NONE', #141, #134, #643, .T. ) ;
#481 = DIRECTION ( 'NONE',  ( -0.0000000000000000000, -0.0000000000000000000, -1.000000000000000000 ) ) ;
#482 = AXIS2_PLACEMENT_3D ( 'NONE', #616, #166, #237 ) ;
#483 = ADVANCED_FACE ( 'NONE', ( #772 ), #39, .T. ) ;
#484 = CARTESIAN_POINT ( 'NONE',  ( -0.5000000000000002220, 0.06249999999999994449, -0.5625000000000003331 ) ) ;
#485 = CARTESIAN_POINT ( 'NONE',  ( -0.9995797355933698780, 0.1344672911011071670, -0.6250000000000003331 ) ) ;
#486 = ORIENTED_EDGE ( 'NONE', *, *, #610, .F. ) ;
#487 = DIRECTION ( 'NONE',  ( 0.0000000000000000000, -1.000000000000000000, 0.0000000000000000000 ) ) ;
#488 = VECTOR ( 'NONE', #825, 1000.000000000000000 ) ;
#489 = DIRECTION ( 'NONE',  ( -1.000000000000000000, 0.0000000000000000000, 0.0000000000000000000 ) ) ;
#490 = EDGE_LOOP ( 'NONE', ( #336, #252, #386, #329 ) ) ;
#491 = DIRECTION ( 'NONE',  ( -1.000000000000000000, 0.0000000000000000000, 0.0000000000000000000 ) ) ;
#492 = CARTESIAN_POINT ( 'NONE',  ( -1.000000000000000444, 0.2812500000000004441, 0.6249999999999998890 ) ) ;
#493 = APPLICATION_PROTOCOL_DEFINITION ( 'draft international standard', 'automotive_design', 1998, #496 ) ;
#494 = ORIENTED_EDGE ( 'NONE', *, *, #452, .F. ) ;
#495 = CLOSED_SHELL ( 'NONE', ( #189, #144, #708, #119, #773, #502, #483, #448 ) ) ;
#496 = APPLICATION_CONTEXT ( 'automotive_design' ) ;
#497 = VECTOR ( 'NONE', #556, 1000.000000000000000 ) ;
#498 = DIRECTION ( 'NONE',  ( -1.000000000000000000, 0.0000000000000000000, 0.0000000000000000000 ) ) ;
#499 = EDGE_CURVE ( 'NONE', #134, #808, #790, .T. ) ;
#500 = AXIS2_PLACEMENT_3D ( 'NONE', #467, #153, #31 ) ;
#501 = EDGE_LOOP ( 'NONE', ( #169, #611, #154, #811, #408, #254 ) ) ;
#502 = ADVANCED_FACE ( 'NONE', ( #814 ), #631, .T. ) ;
#503 = ORIENTED_EDGE ( 'NONE', *, *, #137, .F. ) ;
#504 =( NAMED_UNIT ( * ) PLANE_ANGLE_UNIT ( ) SI_UNIT ( $, .RADIAN. ) );
#505 = AXIS2_PLACEMENT_3D ( 'NONE', #541, #168, #680 ) ;
#506 = DIRECTION ( 'NONE',  ( -1.000000000000000000, 0.0000000000000000000, 0.0000000000000000000 ) ) ;
#507 = CLOSED_SHELL ( 'NONE', ( #412, #802, #376, #567, #795, #565, #247, #617 ) ) ;
#508 = FACE_OUTER_BOUND ( 'NONE', #490, .T. ) ;
#509 = EDGE_CURVE ( 'NONE', #542, #824, #596, .T. ) ;
#510 = VERTEX_POINT ( 'NONE', #322 ) ;
#511 = ORIENTED_EDGE ( 'NONE', *, *, #55, .F. ) ;
#512 = DIRECTION ( 'NONE',  ( 1.000000000000000000, 0.0000000000000000000, 0.0000000000000000000 ) ) ;
#513 = B_SPLINE_CURVE_WITH_KNOTS ( 'NONE', 3,
 ( #284, #607, #559, #431, #757, #118, #566, #307, #181, #692, #116, #763, #363, #818, #114, #301 ),
 .UNSPECIFIED., .F., .F.,
 ( 4, 3, 3, 3, 3, 4 ),
 ( 0.0000000000000000000, 3.181083414940635612E-05, 7.088250273713911278E-05, 0.0001213310752175190835, 0.0001584282086580727079, 0.0001609853202233196942 ),
 .UNSPECIFIED. ) ;
#514 = CARTESIAN_POINT ( 'NONE',  ( 0.5010717424034980549, 0.06262708462889803041, -0.5724371330058630747 ) ) ;
#515 = ORIENTED_EDGE ( 'NONE', *, *, #557, .T. ) ;
#516 = CARTESIAN_POINT ( 'NONE',  ( -0.8750000000000001110, 0.1447088475983444866, -1.198673742208932858 ) ) ;
#517 = CARTESIAN_POINT ( 'NONE',  ( 0.9155250584804807135, 0.02646029735287788037, 0.5638447959059323944 ) ) ;
#518 = CARTESIAN_POINT ( 'NONE',  ( -1.000000000000000444, 0.2812500000000004441, -0.6250000000000003331 ) ) ;
#519 = DIRECTION ( 'NONE',  ( -0.0000000000000000000, -0.0000000000000000000, -1.000000000000000000 ) ) ;
#520 = PRESENTATION_LAYER_ASSIGNMENT (  '', '', ( #463 ) ) ;
#521 = EDGE_LOOP ( 'NONE', ( #598, #714, #560, #436 ) ) ;
#522 =( LENGTH_UNIT ( ) NAMED_UNIT ( * ) SI_UNIT ( .MILLI., .METRE. ) );
#523 = CARTESIAN_POINT ( 'NONE',  ( -0.5000000000000002220, 0.06249999999999979877, 0.5866605997810585560 ) ) ;
#524 = CARTESIAN_POINT ( 'NONE',  ( -0.9134615384615387690, 0.02577310839783496232, 0.5624999999999998890 ) ) ;
#525 = ORIENTED_EDGE ( 'NONE', *, *, #686, .F. ) ;
#526 =( NAMED_UNIT ( * ) PLANE_ANGLE_UNIT ( ) SI_UNIT ( $, .RADIAN. ) );
#527 = CYLINDRICAL_SURFACE ( 'NONE', #769, 0.9442026227640297753 ) ;
#528 = LINE ( 'NONE', #62, #351 ) ;
#529 = CARTESIAN_POINT ( 'NONE',  ( 0.3876953125000000000, 1.000000000000000000, 0.6249999999999998890 ) ) ;
#530 = FACE_OUTER_BOUND ( 'NONE', #729, .T. ) ;
#531 = CARTESIAN_POINT ( 'NONE',  ( -0.9671225171638633267, 0.05885621547272389120, 0.6000118454830192238 ) ) ;
#532 = EDGE_LOOP ( 'NONE', ( #165, #216, #525, #703 ) ) ;
#533 = PRODUCT_DEFINITION_SHAPE ( 'NONE', 'NONE',  #162 ) ;
#534 = CARTESIAN_POINT ( 'NONE',  ( -0.9134615384615387690, 0.02577310839783496232, -0.5625000000000003331 ) ) ;
#535 = ORIENTED_EDGE ( 'NONE', *, *, #454, .T. ) ;
#536 = CARTESIAN_POINT ( 'NONE',  ( -0.9255164732355847246, 0.02988446336939826545, 0.5703744535386903181 ) ) ;
#537 = CARTESIAN_POINT ( 'NONE',  ( 1.000000000000000000, 1.000000000000000000, 0.6249999999999998890 ) ) ;
#538 = DIRECTION ( 'NONE',  ( 1.000000000000000000, 0.0000000000000000000, -0.0000000000000000000 ) ) ;
#539 = CARTESIAN_POINT ( 'NONE',  ( -0.5106363955388993903, 0.06383544024566495390, -0.5894535627937174116 ) ) ;
#540 = LINE ( 'NONE', #295, #240 ) ;
#541 = CARTESIAN_POINT ( 'NONE',  ( 0.7500000000000000000, 0.5312499999999994449, -0.5625000000000003331 ) ) ;
#542 = VERTEX_POINT ( 'NONE', #518 ) ;
#543 = ORIENTED_EDGE ( 'NONE', *, *, #817, .T. ) ;
#544 = CARTESIAN_POINT ( 'NONE',  ( 1.000000000000000000, 1.000000000000000000, 0.6249999999999998890 ) ) ;
#545 = CARTESIAN_POINT ( 'NONE',  ( -0.9561021041274899712, 0.04849946941656834570, -0.5917501938829698993 ) ) ;
#546 = DIRECTION ( 'NONE',  ( 0.0000000000000000000, 0.0000000000000000000, 1.000000000000000000 ) ) ;
#547 = DIRECTION ( 'NONE',  ( 1.000000000000000000, 0.0000000000000000000, 0.0000000000000000000 ) ) ;
#548 = CARTESIAN_POINT ( 'NONE',  ( -1.000000000000000000, 1.000000000000000000, -0.6250000000000003331 ) ) ;
#549 = AXIS2_PLACEMENT_3D ( 'NONE', #516, #727, #395 ) ;
#550 = CARTESIAN_POINT ( 'NONE',  ( -0.9671225171638633267, 0.05885621547272389120, -0.6000118454830196679 ) ) ;
#551 = SURFACE_STYLE_FILL_AREA ( #129 ) ;
#552 = LINE ( 'NONE', #338, #212 ) ;
#553 = DIRECTION ( 'NONE',  ( -1.000000000000000000, 0.0000000000000000000, 0.0000000000000000000 ) ) ;
#554 = ORIENTED_EDGE ( 'NONE', *, *, #199, .F. ) ;
#555 = CARTESIAN_POINT ( 'NONE',  ( -0.9155250584804807135, 0.02646029735287788037, -0.5638447959059328385 ) ) ;
#556 = DIRECTION ( 'NONE',  ( 0.0000000000000000000, 0.0000000000000000000, 1.000000000000000000 ) ) ;
#557 = EDGE_CURVE ( 'NONE', #340, #615, #163, .T. ) ;
#558 = CARTESIAN_POINT ( 'NONE',  ( 0.3876953125000000000, 1.000000000000000000, -0.6250000000000003331 ) ) ;
#559 = CARTESIAN_POINT ( 'NONE',  ( 0.9964327612252501520, 0.1133354267436781637, -0.6232602860176946757 ) ) ;
#560 = ORIENTED_EDGE ( 'NONE', *, *, #343, .F. ) ;
#561 = B_SPLINE_CURVE_WITH_KNOTS ( 'NONE', 3,
 ( #332, #209, #397, #593, #80, #468, #539, #143, #657, #402, #599, #146, #405, #158, #24, #341 ),
 .UNSPECIFIED., .F., .F.,
 ( 4, 3, 3, 3, 3, 4 ),
 ( 0.0000000000000000000, 1.478966079893256075E-05, 2.938085405922606768E-05, 5.236716074535903529E-05, 9.105018720050103568E-05, 0.0001421983182937940548 ),
 .UNSPECIFIED. ) ;
#562 = ORIENTED_EDGE ( 'NONE', *, *, #137, .T. ) ;
#563 = CARTESIAN_POINT ( 'NONE',  ( -0.5000000000000000000, 0.06250000000000005551, 0.6249999999999998890 ) ) ;
#564 = MECHANICAL_DESIGN_GEOMETRIC_PRESENTATION_REPRESENTATION (  '', ( #463 ), #791 ) ;
#565 = ADVANCED_FACE ( 'NONE', ( #11 ), #457, .F. ) ;
#566 = CARTESIAN_POINT ( 'NONE',  ( 0.9760866672528480947, 0.07118003893322322195, -0.6070157123094537255 ) ) ;
#567 = ADVANCED_FACE ( 'NONE', ( #458 ), #527, .T. ) ;
#568 = FACE_OUTER_BOUND ( 'NONE', #582, .T. ) ;
#569 = EDGE_CURVE ( 'NONE', #800, #234, #780, .T. ) ;
#570 = MANIFOLD_SOLID_BREP ( 'Mirror1', #270 ) ;
#571 = SURFACE_SIDE_STYLE ('',( #551 ) ) ;
#572 = VERTEX_POINT ( 'NONE', #712 ) ;
#573 = ORIENTED_EDGE ( 'NONE', *, *, #51, .F. ) ;
#574 = DIRECTION ( 'NONE',  ( 1.982541115402061757E-15, -1.000000000000000000, 0.0000000000000000000 ) ) ;
#575 = FILL_AREA_STYLE_COLOUR ( '', #394 ) ;
#576 = ORIENTED_EDGE ( 'NONE', *, *, #414, .T. ) ;
#577 = CIRCLE ( 'NONE', #482, 0.9442026227640297753 ) ;
#578 = CARTESIAN_POINT ( 'NONE',  ( -1.000000000000000444, 0.2812500000000004441, 0.6249999999999998890 ) ) ;
#579 = CARTESIAN_POINT ( 'NONE',  ( 0.9134615384615387690, 0.02577310839783496232, 0.5624999999999998890 ) ) ;
#580 = EDGE_CURVE ( 'NONE', #615, #645, #184, .T. ) ;
#581 = CARTESIAN_POINT ( 'NONE',  ( 0.3876953125000000000, 1.000000000000000000, -0.6250000000000003331 ) ) ;
#582 = EDGE_LOOP ( 'NONE', ( #125, #479, #160, #589, #178, #762 ) ) ;
#583 = DIRECTION ( 'NONE',  ( 1.982541115402062152E-15, 1.000000000000000000, 0.0000000000000000000 ) ) ;
#584 = AXIS2_PLACEMENT_3D ( 'NONE', #558, #176, #290 ) ;
#585 = DIRECTION ( 'NONE',  ( -0.0000000000000000000, -0.0000000000000000000, -1.000000000000000000 ) ) ;
#586 = CIRCLE ( 'NONE', #227, 0.4687499999999995004 ) ;
#587 = DIRECTION ( 'NONE',  ( 1.000000000000000000, 0.0000000000000000000, 0.0000000000000000000 ) ) ;
#588 = AXIS2_PLACEMENT_3D ( 'NONE', #529, #86, #280 ) ;
#589 = ORIENTED_EDGE ( 'NONE', *, *, #828, .T. ) ;
#590 = CARTESIAN_POINT ( 'NONE',  ( -0.5000000000000002220, 0.06249999999999994449, -1.198673742208932858 ) ) ;
#591 = CARTESIAN_POINT ( 'NONE',  ( -0.9995797355933698780, 0.1344672911011071670, 0.6249999999999998890 ) ) ;
#592 = EDGE_CURVE ( 'NONE', #61, #85, #4, .T. ) ;
#593 = CARTESIAN_POINT ( 'NONE',  ( -0.5029560942276157798, 0.06285884466105573498, -0.5769867803177304300 ) ) ;
#594 = CARTESIAN_POINT ( 'NONE',  ( -1.000000000000000222, 0.1447088475983442923, 0.6249999999999998890 ) ) ;
#595 = CIRCLE ( 'NONE', #69, 0.4687499999999995004 ) ;
#596 = CIRCLE ( 'NONE', #695, 0.9442026227640296643 ) ;
#597 = VECTOR ( 'NONE', #797, 1000.000000000000000 ) ;
#598 = ORIENTED_EDGE ( 'NONE', *, *, #686, .T. ) ;
#599 = CARTESIAN_POINT ( 'NONE',  ( -0.5388610844445750336, 0.06791266281848357123, -0.6111013726761380660 ) ) ;
#600 = ORIENTED_EDGE ( 'NONE', *, *, #454, .F. ) ;
#601 = CARTESIAN_POINT ( 'NONE',  ( 1.000000000000000222, 0.1447088475983442923, 0.6249999999999998890 ) ) ;
#602 = CARTESIAN_POINT ( 'NONE',  ( -0.9760866672528480947, 0.07118003893322322195, -0.6070157123094537255 ) ) ;
#603 = CARTESIAN_POINT ( 'NONE',  ( -1.000000000000000000, 1.000000000000000000, 0.6249999999999998890 ) ) ;
#604 = AXIS2_PLACEMENT_3D ( 'NONE', #650, #10, #587 ) ;
#605 = DIRECTION ( 'NONE',  ( 0.0000000000000000000, 0.0000000000000000000, 1.000000000000000000 ) ) ;
#606 = CIRCLE ( 'NONE', #638, 0.9442026227640296643 ) ;
#607 = CARTESIAN_POINT ( 'NONE',  ( 0.9987109557129287829, 0.1238993302815403069, -0.6250000000000003331 ) ) ;
#608 = ORIENTED_EDGE ( 'NONE', *, *, #833, .T. ) ;
#609 = CARTESIAN_POINT ( 'NONE',  ( -0.3876953125000000000, 1.000000000000000000, 0.6249999999999998890 ) ) ;
#610 = EDGE_CURVE ( 'NONE', #645, #752, #192, .T. ) ;
#611 = ORIENTED_EDGE ( 'NONE', *, *, #309, .F. ) ;
#612 = FILL_AREA_STYLE ('',( #172 ) ) ;
#613 = EDGE_LOOP ( 'NONE', ( #447, #261, #633, #299, #503, #2 ) ) ;
#614 = MECHANICAL_DESIGN_GEOMETRIC_PRESENTATION_REPRESENTATION (  '', ( #115 ), #647 ) ;
#615 = VERTEX_POINT ( 'NONE', #799 ) ;
#616 = CARTESIAN_POINT ( 'NONE',  ( 0.3876953125000000000, 1.000000000000000000, 0.6249999999999998890 ) ) ;
#617 = ADVANCED_FACE ( 'NONE', ( #74 ), #476, .F. ) ;
#618 = EDGE_CURVE ( 'NONE', #824, #187, #393, .T. ) ;
#619 = CARTESIAN_POINT ( 'NONE',  ( -0.3876953125000000000, 1.000000000000000000, 0.6249999999999998890 ) ) ;
#620 = LINE ( 'NONE', #646, #108 ) ;
#621 = B_SPLINE_CURVE_WITH_KNOTS ( 'NONE', 3,
 ( #629, #688, #623, #823, #186, #48 ),
 .UNSPECIFIED., .F., .F.,
 ( 4, 2, 4 ),
 ( 0.0000000000000000000, 7.062188273461283679E-05, 0.0001412437654692256736 ),
 .UNSPECIFIED. ) ;
#622 = CIRCLE ( 'NONE', #185, 0.1250000000000000000 ) ;
#623 = CARTESIAN_POINT ( 'NONE',  ( 0.5665128913693978641, 0.07262140828830913886, 0.6218044738089683054 ) ) ;
#624 = VERTEX_POINT ( 'NONE', #223 ) ;
#625 =( GEOMETRIC_REPRESENTATION_CONTEXT ( 3 ) GLOBAL_UNCERTAINTY_ASSIGNED_CONTEXT ( ( #634 ) ) GLOBAL_UNIT_ASSIGNED_CONTEXT ( ( #228, #35, #347 ) ) REPRESENTATION_CONTEXT ( 'NONE', 'WORKASPACE' ) );
#626 = CARTESIAN_POINT ( 'NONE',  ( 1.000000000000000444, 0.2812500000000004441, -1.198673742208932858 ) ) ;
#627 = B_SPLINE_CURVE_WITH_KNOTS ( 'NONE', 3,
 ( #639, #771, #514, #190, #635, #699, #3, #133, #249, #697, #311, #122, #255, #58, #310, #441 ),
 .UNSPECIFIED., .F., .F.,
 ( 4, 3, 3, 3, 3, 4 ),
 ( 0.0000000000000000000, 1.478966079893256075E-05, 2.938085405922606768E-05, 5.236716074535903529E-05, 9.105018720050103568E-05, 0.0001421983182937940548 ),
 .UNSPECIFIED. ) ;
#628 =( NAMED_UNIT ( * ) PLANE_ANGLE_UNIT ( ) SI_UNIT ( $, .RADIAN. ) );
#629 = CARTESIAN_POINT ( 'NONE',  ( 0.6128092057446985486, 0.08302544860684006600, 0.6249999999999998890 ) ) ;
#630 = COLOUR_RGB ( '',0.7921568627450980005, 0.8196078431372548767, 0.9333333333333333481 ) ;
#631 = CYLINDRICAL_SURFACE ( 'NONE', #549, 0.1250000000000000000 ) ;
#632 = DIRECTION ( 'NONE',  ( 1.000000000000000000, 0.0000000000000000000, 0.0000000000000000000 ) ) ;
#633 = ORIENTED_EDGE ( 'NONE', *, *, #147, .F. ) ;
#634 = UNCERTAINTY_MEASURE_WITH_UNIT (LENGTH_MEASURE( 1.000000000000000082E-05 ), #228, 'distance_accuracy_value', 'NONE');
#635 = CARTESIAN_POINT ( 'NONE',  ( 0.5048258623208958795, 0.06308881101228580590, -0.5815012161415126224 ) ) ;
#636 = ORIENTED_EDGE ( 'NONE', *, *, #373, .T. ) ;
#637 = VERTEX_POINT ( 'NONE', #661 ) ;
#638 = AXIS2_PLACEMENT_3D ( 'NONE', #619, #238, #632 ) ;
#639 = CARTESIAN_POINT ( 'NONE',  ( 0.5000000000000002220, 0.06249999999999994449, -0.5625000000000003331 ) ) ;
#640 = B_SPLINE_CURVE_WITH_KNOTS ( 'NONE', 3,
 ( #20, #471, #157, #93, #536, #733, #217, #82, #531, #148, #730, #665, #404, #159, #333, #591 ),
 .UNSPECIFIED., .F., .F.,
 ( 4, 3, 3, 3, 3, 4 ),
 ( -2.557111565246990114E-06, 0.0000000000000000000, 3.725194484405003120E-05, 8.791104610619132620E-05, 0.0001271457661022143307, 0.0001590893512063259107 ),
 .UNSPECIFIED. ) ;
#641 = ORIENTED_EDGE ( 'NONE', *, *, #428, .F. ) ;
#642 = CARTESIAN_POINT ( 'NONE',  ( 0.3876953125000000000, 1.000000000000000000, -1.198673742208932858 ) ) ;
#643 = LINE ( 'NONE', #318, #130 ) ;
#644 = SURFACE_STYLE_FILL_AREA ( #612 ) ;
#645 = VERTEX_POINT ( 'NONE', #276 ) ;
#646 = CARTESIAN_POINT ( 'NONE',  ( 1.000000000000000444, 0.2812500000000004441, 0.6249999999999998890 ) ) ;
#647 =( GEOMETRIC_REPRESENTATION_CONTEXT ( 3 ) GLOBAL_UNCERTAINTY_ASSIGNED_CONTEXT ( ( #151 ) ) GLOBAL_UNIT_ASSIGNED_CONTEXT ( ( #831, #628, #244 ) ) REPRESENTATION_CONTEXT ( 'NONE', 'WORKASPACE' ) );
#648 = DIRECTION ( 'NONE',  ( 1.000000000000000000, 0.0000000000000000000, 0.0000000000000000000 ) ) ;
#649 = ORIENTED_EDGE ( 'NONE', *, *, #414, .F. ) ;
#650 = CARTESIAN_POINT ( 'NONE',  ( -0.7500000000000000000, 0.5312499999999994449, -0.5625000000000003331 ) ) ;
#651 = TOROIDAL_SURFACE ( 'NONE', #60, 0.4687499999999995004, 0.06250000000000000000 ) ;
#652 = CARTESIAN_POINT ( 'NONE',  ( 1.000000000000000444, 0.2812500000000004441, -0.6250000000000003331 ) ) ;
#653 = AXIS2_PLACEMENT_3D ( 'NONE', #786, #224, #669 ) ;
#654 = EDGE_LOOP ( 'NONE', ( #576, #515, #156, #424 ) ) ;
#655 = DIRECTION ( 'NONE',  ( -1.000000000000000000, 0.0000000000000000000, 0.0000000000000000000 ) ) ;
#656 = EDGE_CURVE ( 'NONE', #776, #312, #743, .T. ) ;
#657 = CARTESIAN_POINT ( 'NONE',  ( -0.5216177753834801978, 0.06532047965812484702, -0.6002442275288379925 ) ) ;
#658 = DIRECTION ( 'NONE',  ( 0.0000000000000000000, 0.0000000000000000000, 1.000000000000000000 ) ) ;
#659 = SURFACE_STYLE_FILL_AREA ( #188 ) ;
#660 = LINE ( 'NONE', #302, #149 ) ;
#661 = CARTESIAN_POINT ( 'NONE',  ( 1.000000000000000000, 0.2812500000000000555, -0.6250000000000003331 ) ) ;
#662 = CARTESIAN_POINT ( 'NONE',  ( -0.7500000000000000000, 0.5312499999999994449, -1.198673742208932858 ) ) ;
#663 = ORIENTED_EDGE ( 'NONE', *, *, #317, .F. ) ;
#664 = ORIENTED_EDGE ( 'NONE', *, *, #8, .F. ) ;
#665 = CARTESIAN_POINT ( 'NONE',  ( -0.9889256855593541173, 0.09175034532152923084, 0.6172695350585366558 ) ) ;
#666 = DIRECTION ( 'NONE',  ( 1.000000000000000000, -1.982541115402062152E-15, 0.0000000000000000000 ) ) ;
#667 = PLANE ( 'NONE',  #500 ) ;
#668 = AXIS2_PLACEMENT_3D ( 'NONE', #753, #231, #174 ) ;
#669 = DIRECTION ( 'NONE',  ( -1.000000000000000000, 0.0000000000000000000, 0.0000000000000000000 ) ) ;
#670 = DIRECTION ( 'NONE',  ( 0.0000000000000000000, 0.0000000000000000000, 1.000000000000000000 ) ) ;
#671 = VECTOR ( 'NONE', #487, 1000.000000000000000 ) ;
#672 = CARTESIAN_POINT ( 'NONE',  ( -0.9255164732355847246, 0.02988446336939826545, -0.5703744535386907621 ) ) ;
#673 = DIRECTION ( 'NONE',  ( -0.0000000000000000000, -0.0000000000000000000, -1.000000000000000000 ) ) ;
#674 = CARTESIAN_POINT ( 'NONE',  ( -0.3876953125000000000, 1.000000000000000000, 0.6249999999999998890 ) ) ;
#675 = EDGE_LOOP ( 'NONE', ( #14, #23, #411, #356 ) ) ;
#676 = AXIS2_PLACEMENT_3D ( 'NONE', #95, #670, #538 ) ;
#677 = CARTESIAN_POINT ( 'NONE',  ( -0.3876953125000000000, 1.000000000000000000, 0.6249999999999998890 ) ) ;
#678 = ORIENTED_EDGE ( 'NONE', *, *, #314, .T. ) ;
#679 = PLANE ( 'NONE',  #584 ) ;
#680 = DIRECTION ( 'NONE',  ( -1.000000000000000000, 0.0000000000000000000, 0.0000000000000000000 ) ) ;
#681 = EDGE_LOOP ( 'NONE', ( #112, #279, #562, #104 ) ) ;
#682 = DIRECTION ( 'NONE',  ( 0.0000000000000000000, 0.0000000000000000000, 1.000000000000000000 ) ) ;
#683 = FACE_OUTER_BOUND ( 'NONE', #406, .T. ) ;
#684 = DIRECTION ( 'NONE',  ( 0.0000000000000000000, 0.0000000000000000000, 1.000000000000000000 ) ) ;
#685 = VECTOR ( 'NONE', #734, 1000.000000000000000 ) ;
#686 = EDGE_CURVE ( 'NONE', #750, #776, #779, .T. ) ;
#687 = VERTEX_POINT ( 'NONE', #273 ) ;
#688 = CARTESIAN_POINT ( 'NONE',  ( 0.5896688571996679951, 0.07734457780830282514, 0.6249999999999998890 ) ) ;
#689 = ORIENTED_EDGE ( 'NONE', *, *, #440, .T. ) ;
#690 = PRODUCT_CONTEXT ( 'NONE', #694, 'mechanical' ) ;
#691 = PRODUCT_RELATED_PRODUCT_CATEGORY ( 'part', '', ( #702 ) ) ;
#692 = CARTESIAN_POINT ( 'NONE',  ( 0.9440576673285349107, 0.04051653222364217516, -0.5832360281578036210 ) ) ;
#693 = ORIENTED_EDGE ( 'NONE', *, *, #55, .T. ) ;
#694 = APPLICATION_CONTEXT ( 'automotive_design' ) ;
#695 = AXIS2_PLACEMENT_3D ( 'NONE', #208, #5, #264 ) ;
#696 = DIRECTION ( 'NONE',  ( 0.0000000000000000000, -0.0000000000000000000, 1.000000000000000000 ) ) ;
#697 = CARTESIAN_POINT ( 'NONE',  ( 0.5280599094754293565, 0.06628892437199944421, -0.6043004782546613773 ) ) ;
#698 = EDGE_CURVE ( 'NONE', #141, #624, #640, .T. ) ;
#699 = CARTESIAN_POINT ( 'NONE',  ( 0.5075129534853501934, 0.06342525664613481162, -0.5857112497115192218 ) ) ;
#700 = FACE_OUTER_BOUND ( 'NONE', #707, .T. ) ;
#701 = LINE ( 'NONE', #783, #233 ) ;
#702 = PRODUCT ( 'MBKK2012T2R2M', 'MBKK2012T2R2M', '', ( #690 ) ) ;
#703 = ORIENTED_EDGE ( 'NONE', *, *, #718, .F. ) ;
#704 = DIRECTION ( 'NONE',  ( -1.000000000000000000, 0.0000000000000000000, 0.0000000000000000000 ) ) ;
#705 = EDGE_LOOP ( 'NONE', ( #820, #32, #430, #54, #398, #444 ) ) ;
#706 = STYLED_ITEM ( 'NONE', ( #277 ), #171 ) ;
#707 = EDGE_LOOP ( 'NONE', ( #693, #42, #535, #649, #543, #663 ) ) ;
#708 = ADVANCED_FACE ( 'NONE', ( #789 ), #667, .T. ) ;
#709 = CARTESIAN_POINT ( 'NONE',  ( -0.5000000000000000000, 0.06250000000000005551, 0.6249999999999998890 ) ) ;
#710 = CARTESIAN_POINT ( 'NONE',  ( 0.9440576673285349107, 0.04051653222364217516, 0.5832360281578032879 ) ) ;
#711 = VECTOR ( 'NONE', #288, 1000.000000000000000 ) ;
#712 = CARTESIAN_POINT ( 'NONE',  ( 1.000000000000000000, 0.2812500000000000555, 0.6249999999999998890 ) ) ;
#713 = LINE ( 'NONE', #652, #352 ) ;
#714 = ORIENTED_EDGE ( 'NONE', *, *, #656, .T. ) ;
#715 = VERTEX_POINT ( 'NONE', #230 ) ;
#716 = ORIENTED_EDGE ( 'NONE', *, *, #569, .F. ) ;
#717 = SURFACE_SIDE_STYLE ('',( #283 ) ) ;
#718 = EDGE_CURVE ( 'NONE', #819, #750, #379, .T. ) ;
#719 = CARTESIAN_POINT ( 'NONE',  ( 0.9987109557129287829, 0.1238993302815403069, 0.6249999999999998890 ) ) ;
#720 = PRODUCT_DEFINITION_FORMATION_WITH_SPECIFIED_SOURCE ( 'ANY', '', #702, .NOT_KNOWN. ) ;
#721 = CARTESIAN_POINT ( 'NONE',  ( 0.9255164732355847246, 0.02988446336939826545, 0.5703744535386903181 ) ) ;
#722 = VECTOR ( 'NONE', #648, 1000.000000000000000 ) ;
#723 = TOROIDAL_SURFACE ( 'NONE', #505, 0.4687499999999995004, 0.06250000000000000000 ) ;
#724 = DIRECTION ( 'NONE',  ( 0.0000000000000000000, 0.0000000000000000000, 1.000000000000000000 ) ) ;
#725 = STYLED_ITEM ( 'NONE', ( #735 ), #570 ) ;
#726 = ORIENTED_EDGE ( 'NONE', *, *, #557, .F. ) ;
#727 = DIRECTION ( 'NONE',  ( 0.0000000000000000000, 0.0000000000000000000, 1.000000000000000000 ) ) ;
#728 = CARTESIAN_POINT ( 'NONE',  ( -0.5000000000000002220, 0.06249999999999994449, 0.5624999999999998890 ) ) ;
#729 = EDGE_LOOP ( 'NONE', ( #384, #805, #399, #486 ) ) ;
#730 = CARTESIAN_POINT ( 'NONE',  ( -0.9830466180639420015, 0.08074850936692115622, 0.6124536588091816780 ) ) ;
#731 = EDGE_CURVE ( 'NONE', #312, #800, #265, .T. ) ;
#732 = CARTESIAN_POINT ( 'NONE',  ( 1.000000000000000000, 1.000000000000000000, -0.6250000000000003331 ) ) ;
#733 = CARTESIAN_POINT ( 'NONE',  ( -0.9351402406584664595, 0.03460614735318839202, 0.5769323337818597075 ) ) ;
#734 = DIRECTION ( 'NONE',  ( -0.0000000000000000000, 1.000000000000000000, -0.0000000000000000000 ) ) ;
#735 = PRESENTATION_STYLE_ASSIGNMENT (( #785 ) ) ;
#736 = CARTESIAN_POINT ( 'NONE',  ( -0.7500000000000000000, 0.5312499999999994449, -0.6250000000000003331 ) ) ;
#737 = ORIENTED_EDGE ( 'NONE', *, *, #440, .F. ) ;
#738 = CARTESIAN_POINT ( 'NONE',  ( -0.9134615384615387690, 0.02577310839783496232, -0.5625000000000003331 ) ) ;
#739 = DIRECTION ( 'NONE',  ( 0.0000000000000000000, 0.0000000000000000000, 1.000000000000000000 ) ) ;
#740 = AXIS2_PLACEMENT_3D ( 'NONE', #832, #830, #506 ) ;
#741 = CARTESIAN_POINT ( 'NONE',  ( 1.000000000000000000, 1.000000000000000000, 0.6249999999999998890 ) ) ;
#742 = DIRECTION ( 'NONE',  ( -1.000000000000000000, 0.0000000000000000000, 0.0000000000000000000 ) ) ;
#743 = LINE ( 'NONE', #219, #57 ) ;
#744 = CARTESIAN_POINT ( 'NONE',  ( -0.9930634211827017443, 0.1036475692617414707, -0.6205715057269453050 ) ) ;
#745 = CIRCLE ( 'NONE', #668, 0.1250000000000000000 ) ;
#746 = CARTESIAN_POINT ( 'NONE',  ( 0.5000000000000002220, 0.06249999999999994449, -1.198673742208932858 ) ) ;
#747 = EDGE_CURVE ( 'NONE', #469, #800, #813, .T. ) ;
#748 = ORIENTED_EDGE ( 'NONE', *, *, #331, .F. ) ;
#749 = CARTESIAN_POINT ( 'NONE',  ( -0.9964327612252501520, 0.1133354267436781637, -0.6232602860176946757 ) ) ;
#750 = VERTEX_POINT ( 'NONE', #603 ) ;
#751 = CARTESIAN_POINT ( 'NONE',  ( 0.3876953125000000000, 1.000000000000000000, -0.6250000000000003331 ) ) ;
#752 = VERTEX_POINT ( 'NONE', #601 ) ;
#753 = CARTESIAN_POINT ( 'NONE',  ( 0.8750000000000001110, 0.1447088475983444866, 0.6249999999999998890 ) ) ;
#754 = UNCERTAINTY_MEASURE_WITH_UNIT (LENGTH_MEASURE( 1.000000000000000082E-05 ), #522, 'distance_accuracy_value', 'NONE');
#755 =( LENGTH_UNIT ( ) NAMED_UNIT ( * ) SI_UNIT ( .MILLI., .METRE. ) );
#756 = EDGE_CURVE ( 'NONE', #510, #469, #416, .T. ) ;
#757 = CARTESIAN_POINT ( 'NONE',  ( 0.9889256855593541173, 0.09175034532152923084, -0.6172695350585370999 ) ) ;
#758 = LINE ( 'NONE', #746, #497 ) ;
#759 = DIRECTION ( 'NONE',  ( 1.000000000000000000, 0.0000000000000000000, 0.0000000000000000000 ) ) ;
#760 = VERTEX_POINT ( 'NONE', #594 ) ;
#761 = EDGE_CURVE ( 'NONE', #234, #637, #97, .T. ) ;
#762 = ORIENTED_EDGE ( 'NONE', *, *, #718, .T. ) ;
#763 = CARTESIAN_POINT ( 'NONE',  ( 0.9255164732355847246, 0.02988446336939826545, -0.5703744535386907621 ) ) ;
#764 = EDGE_CURVE ( 'NONE', #357, #453, #595, .T. ) ;
#765 = CARTESIAN_POINT ( 'NONE',  ( 0.7500000000000000000, 0.5312499999999994449, -1.198673742208932858 ) ) ;
#766 = VECTOR ( 'NONE', #658, 1000.000000000000000 ) ;
#767 = ADVANCED_FACE ( 'NONE', ( #128 ), #138, .T. ) ;
#768 = VECTOR ( 'NONE', #481, 1000.000000000000000 ) ;
#769 = AXIS2_PLACEMENT_3D ( 'NONE', #71, #585, #655 ) ;
#770 = CARTESIAN_POINT ( 'NONE',  ( 0.9134615384615387690, 0.02577310839783496232, 0.5624999999999998890 ) ) ;
#771 = CARTESIAN_POINT ( 'NONE',  ( 0.5000000000000002220, 0.06249999999999994449, -0.5674298869329778006 ) ) ;
#772 = FACE_OUTER_BOUND ( 'NONE', #372, .T. ) ;
#773 = ADVANCED_FACE ( 'NONE', ( #274 ), #806, .F. ) ;
#774 = UNCERTAINTY_MEASURE_WITH_UNIT (LENGTH_MEASURE( 1.000000000000000082E-05 ), #253, 'distance_accuracy_value', 'NONE');
#775 = CARTESIAN_POINT ( 'NONE',  ( -0.5000000000000002220, 0.06249999999999994449, 0.5624999999999998890 ) ) ;
#776 = VERTEX_POINT ( 'NONE', #548 ) ;
#777 = CARTESIAN_POINT ( 'NONE',  ( -0.5229384357536844830, 0.06527219122866519119, 0.6038232340188801617 ) ) ;
#778 = CARTESIAN_POINT ( 'NONE',  ( 0.9930634211827017443, 0.1036475692617414707, 0.6205715057269448609 ) ) ;
#779 = LINE ( 'NONE', #413, #9 ) ;
#780 = LINE ( 'NONE', #140, #722 ) ;
#781 = AXIS2_PLACEMENT_3D ( 'NONE', #355, #96, #103 ) ;
#782 = CARTESIAN_POINT ( 'NONE',  ( -0.5896688571996679951, 0.07734457780830282514, 0.6249999999999998890 ) ) ;
#783 = CARTESIAN_POINT ( 'NONE',  ( 0.9134615384615387690, 0.02577310839783496232, -1.198673742208932858 ) ) ;
#784 = ORIENTED_EDGE ( 'NONE', *, *, #387, .F. ) ;
#785 = SURFACE_STYLE_USAGE ( .BOTH. , #717 ) ;
#786 = CARTESIAN_POINT ( 'NONE',  ( 0.3876953125000000000, 1.000000000000000000, 0.6249999999999998890 ) ) ;
#787 = AXIS2_PLACEMENT_3D ( 'NONE', #346, #809, #553 ) ;
#788 = CARTESIAN_POINT ( 'NONE',  ( 0.5000000000000000000, 0.06249999999999994449, 0.6249999999999998890 ) ) ;
#789 = FACE_OUTER_BOUND ( 'NONE', #445, .T. ) ;
#790 = CIRCLE ( 'NONE', #604, 0.5312499999999994449 ) ;
#791 =( GEOMETRIC_REPRESENTATION_CONTEXT ( 3 ) GLOBAL_UNCERTAINTY_ASSIGNED_CONTEXT ( ( #774 ) ) GLOBAL_UNIT_ASSIGNED_CONTEXT ( ( #253, #504, #196 ) ) REPRESENTATION_CONTEXT ( 'NONE', 'WORKASPACE' ) );
#792 = PLANE ( 'NONE',  #354 ) ;
#793 = ORIENTED_EDGE ( 'NONE', *, *, #292, .F. ) ;
#794 = DIRECTION ( 'NONE',  ( -0.0000000000000000000, -0.0000000000000000000, -1.000000000000000000 ) ) ;
#795 = ADVANCED_FACE ( 'NONE', ( #313 ), #170, .F. ) ;
#796 = EDGE_CURVE ( 'NONE', #750, #510, #306, .T. ) ;
#797 = DIRECTION ( 'NONE',  ( 0.0000000000000000000, 0.0000000000000000000, 1.000000000000000000 ) ) ;
#798 = UNCERTAINTY_MEASURE_WITH_UNIT (LENGTH_MEASURE( 1.000000000000000082E-05 ), #755, 'distance_accuracy_value', 'NONE');
#799 = CARTESIAN_POINT ( 'NONE',  ( 0.9995797355933698780, 0.1344672911011071670, -0.6250000000000003331 ) ) ;
#800 = VERTEX_POINT ( 'NONE', #812 ) ;
#801 = CARTESIAN_POINT ( 'NONE',  ( 1.000000000000000000, 1.000000000000000000, -0.6250000000000003331 ) ) ;
#802 = ADVANCED_FACE ( 'NONE', ( #87 ), #257, .T. ) ;
#803 = CARTESIAN_POINT ( 'NONE',  ( -0.3876953125000000000, 1.000000000000000000, -0.6250000000000003331 ) ) ;
#804 = LINE ( 'NONE', #741, #768 ) ;
#805 = ORIENTED_EDGE ( 'NONE', *, *, #349, .T. ) ;
#806 = PLANE ( 'NONE',  #29 ) ;
#807 = CARTESIAN_POINT ( 'NONE',  ( -0.9440576673285349107, 0.04051653222364217516, -0.5832360281578036210 ) ) ;
#808 = VERTEX_POINT ( 'NONE', #484 ) ;
#809 = DIRECTION ( 'NONE',  ( 0.0000000000000000000, 0.0000000000000000000, 1.000000000000000000 ) ) ;
#810 = AXIS2_PLACEMENT_3D ( 'NONE', #642, #451, #704 ) ;
#811 = ORIENTED_EDGE ( 'NONE', *, *, #610, .T. ) ;
#812 = CARTESIAN_POINT ( 'NONE',  ( -0.5000000000000000000, 0.06250000000000005551, -0.6250000000000003331 ) ) ;
#813 = LINE ( 'NONE', #84, #450 ) ;
#814 = FACE_OUTER_BOUND ( 'NONE', #613, .T. ) ;
#815 = LINE ( 'NONE', #344, #711 ) ;
#816 = DIRECTION ( 'NONE',  ( 1.000000000000000000, 0.0000000000000000000, 0.0000000000000000000 ) ) ;
#817 = EDGE_CURVE ( 'NONE', #81, #335, #758, .T. ) ;
#818 = CARTESIAN_POINT ( 'NONE',  ( 0.9148392107393650274, 0.02622524990612508031, -0.5633965760044021831 ) ) ;
#819 = VERTEX_POINT ( 'NONE', #173 ) ;
#820 = ORIENTED_EDGE ( 'NONE', *, *, #373, .F. ) ;
#821 = B_SPLINE_CURVE_WITH_KNOTS ( 'NONE', 3,
 ( #579, #200, #260, #517, #721, #136, #710, #205, #325, #7, #319, #321, #778, #385, #719, #12 ),
 .UNSPECIFIED., .F., .F.,
 ( 4, 3, 3, 3, 3, 4 ),
 ( -2.557111565246990114E-06, 0.0000000000000000000, 3.725194484405003120E-05, 8.791104610619132620E-05, 0.0001271457661022143307, 0.0001590893512063259107 ),
 .UNSPECIFIED. ) ;
#822 = CARTESIAN_POINT ( 'NONE',  ( 0.8750000000000001110, 0.1447088475983444866, -1.198673742208932858 ) ) ;
#823 = CARTESIAN_POINT ( 'NONE',  ( 0.5229384357536844830, 0.06527219122866519119, 0.6038232340188801617 ) ) ;
#824 = VERTEX_POINT ( 'NONE', #235 ) ;
#825 = DIRECTION ( 'NONE',  ( 0.0000000000000000000, 0.0000000000000000000, 1.000000000000000000 ) ) ;
#826 = LINE ( 'NONE', #492, #275 ) ;
#827 = ADVANCED_FACE ( 'NONE', ( #455 ), #679, .F. ) ;
#828 = EDGE_CURVE ( 'NONE', #113, #572, #577, .T. ) ;
#829 = ORIENTED_EDGE ( 'NONE', *, *, #317, .T. ) ;
#830 = DIRECTION ( 'NONE',  ( -0.0000000000000000000, -0.0000000000000000000, -1.000000000000000000 ) ) ;
#831 =( LENGTH_UNIT ( ) NAMED_UNIT ( * ) SI_UNIT ( .MILLI., .METRE. ) );
#832 = CARTESIAN_POINT ( 'NONE',  ( 0.7500000000000000000, 0.5312499999999994449, -0.5625000000000003331 ) ) ;
#833 = EDGE_CURVE ( 'NONE', #432, #760, #540, .T. ) ;
#834 = DIRECTION ( 'NONE',  ( 0.0000000000000000000, 0.0000000000000000000, 1.000000000000000000 ) ) ;
ENDSEC;
END-ISO-10303-21;
