ISO-10303-21;
HEADER;
FILE_DESCRIPTION (( 'STEP AP214' ),
    '1' );
FILE_NAME ('UCR03EVPFSR050.STEP',
    '2019-12-28T15:07:31',
    ( '' ),
    ( '' ),
    'SwSTEP 2.0',
    'SolidWorks 2018',
    '' );
FILE_SCHEMA (( 'AUTOMOTIVE_DESIGN' ));
ENDSEC;

DATA;
#1 = ORIENTED_EDGE ( 'NONE', *, *, #336, .F. ) ;
#2 = SURFACE_STYLE_USAGE ( .BOTH. , #456 ) ;
#3 = PLANE ( 'NONE',  #929 ) ;
#4 = DIRECTION ( 'NONE',  ( 0.0000000000000000000, 1.000000000000000000, 0.0000000000000000000 ) ) ;
#5 = PLANE ( 'NONE',  #634 ) ;
#6 = ORIENTED_EDGE ( 'NONE', *, *, #81, .T. ) ;
#7 = PLANE ( 'NONE',  #953 ) ;
#8 = ORIENTED_EDGE ( 'NONE', *, *, #812, .T. ) ;
#9 = LINE ( 'NONE', #765, #163 ) ;
#10 = LINE ( 'NONE', #531, #176 ) ;
#11 = DIRECTION ( 'NONE',  ( 1.000000000000000000, 0.0000000000000000000, 0.0000000000000000000 ) ) ;
#12 = VERTEX_POINT ( 'NONE', #168 ) ;
#13 = LINE ( 'NONE', #20, #738 ) ;
#14 = FILL_AREA_STYLE ('',( #542 ) ) ;
#15 = AXIS2_PLACEMENT_3D ( 'NONE', #524, #370, #301 ) ;
#16 = ORIENTED_EDGE ( 'NONE', *, *, #326, .T. ) ;
#17 = DIRECTION ( 'NONE',  ( 0.0000000000000000000, -0.0000000000000000000, -1.000000000000000000 ) ) ;
#18 = ORIENTED_EDGE ( 'NONE', *, *, #955, .F. ) ;
#19 = ORIENTED_EDGE ( 'NONE', *, *, #514, .F. ) ;
#20 = CARTESIAN_POINT ( 'NONE',  ( 0.7699999999999996847, 0.02999999999999995726, 0.4349999999999999978 ) ) ;
#21 = EDGE_LOOP ( 'NONE', ( #245, #733, #813, #565 ) ) ;
#22 = CARTESIAN_POINT ( 'NONE',  ( -0.3499999999999997002, 0.02999999999999986011, -0.4349999999999999978 ) ) ;
#23 = PLANE ( 'NONE',  #205 ) ;
#24 = ORIENTED_EDGE ( 'NONE', *, *, #828, .T. ) ;
#25 =( NAMED_UNIT ( * ) SI_UNIT ( $, .STERADIAN. ) SOLID_ANGLE_UNIT ( ) );
#26 = PRODUCT ( 'UCR03EVPFSR050', 'UCR03EVPFSR050', '', ( #328 ) ) ;
#27 = VECTOR ( 'NONE', #237, 1000.000000000000000 ) ;
#28 = VECTOR ( 'NONE', #779, 1000.000000000000000 ) ;
#29 = ORIENTED_EDGE ( 'NONE', *, *, #724, .T. ) ;
#30 = VECTOR ( 'NONE', #763, 1000.000000000000000 ) ;
#31 = DIRECTION ( 'NONE',  ( 0.0000000000000000000, 0.0000000000000000000, -1.000000000000000000 ) ) ;
#32 = EDGE_CURVE ( 'NONE', #204, #704, #867, .T. ) ;
#33 = PRODUCT_DEFINITION ( 'UNKNOWN', '', #347, #229 ) ;
#34 = CARTESIAN_POINT ( 'NONE',  ( -0.7699999999999996847, 0.5699999999999999512, 0.4349999999999999978 ) ) ;
#35 = DIRECTION ( 'NONE',  ( 4.015563601798164315E-16, -1.000000000000000000, 0.0000000000000000000 ) ) ;
#36 = CARTESIAN_POINT ( 'NONE',  ( -0.7699999999999996847, 0.02999999999999996420, 0.4349999999999999978 ) ) ;
#37 = VERTEX_POINT ( 'NONE', #415 ) ;
#38 = ORIENTED_EDGE ( 'NONE', *, *, #674, .T. ) ;
#39 = EDGE_CURVE ( 'NONE', #350, #99, #780, .T. ) ;
#40 = ORIENTED_EDGE ( 'NONE', *, *, #584, .T. ) ;
#41 = CARTESIAN_POINT ( 'NONE',  ( 0.7699999999999996847, 0.5699999999999999512, 0.4349999999999999978 ) ) ;
#42 = CARTESIAN_POINT ( 'NONE',  ( 0.7699999999999996847, 0.02999999999999996420, -0.4349999999999999978 ) ) ;
#43 = VECTOR ( 'NONE', #687, 1000.000000000000000 ) ;
#44 = EDGE_LOOP ( 'NONE', ( #151, #149, #905, #769 ) ) ;
#45 = CARTESIAN_POINT ( 'NONE',  ( 0.7999999999999996003, -9.797174393178821220E-17, 0.4349999999999999978 ) ) ;
#46 = ADVANCED_FACE ( 'NONE', ( #583 ), #923, .F. ) ;
#47 = CARTESIAN_POINT ( 'NONE',  ( -0.7699999999999997957, 0.5699999999999999512, 0.4349999999999999978 ) ) ;
#48 = VERTEX_POINT ( 'NONE', #255 ) ;
#49 = ORIENTED_EDGE ( 'NONE', *, *, #665, .T. ) ;
#50 = LINE ( 'NONE', #726, #532 ) ;
#51 = FACE_OUTER_BOUND ( 'NONE', #778, .T. ) ;
#52 = UNCERTAINTY_MEASURE_WITH_UNIT (LENGTH_MEASURE( 1.000000000000000082E-05 ), #385, 'distance_accuracy_value', 'NONE');
#53 = VERTEX_POINT ( 'NONE', #649 ) ;
#54 = VECTOR ( 'NONE', #628, 1000.000000000000000 ) ;
#55 = ADVANCED_FACE ( 'NONE', ( #608 ), #544, .T. ) ;
#56 = STYLED_ITEM ( 'NONE', ( #71 ), #202 ) ;
#57 = VERTEX_POINT ( 'NONE', #273 ) ;
#58 = VERTEX_POINT ( 'NONE', #287 ) ;
#59 = VERTEX_POINT ( 'NONE', #436 ) ;
#60 = FACE_OUTER_BOUND ( 'NONE', #495, .T. ) ;
#61 = CARTESIAN_POINT ( 'NONE',  ( 0.3499999999999996447, 0.5699999999999999512, 0.4349999999999999978 ) ) ;
#62 = FACE_OUTER_BOUND ( 'NONE', #192, .T. ) ;
#63 = CARTESIAN_POINT ( 'NONE',  ( 0.3499999999999996447, 0.5999999999999998668, 0.4349999999999999978 ) ) ;
#64 = ORIENTED_EDGE ( 'NONE', *, *, #934, .F. ) ;
#65 = DIRECTION ( 'NONE',  ( 1.000000000000000000, 0.0000000000000000000, 0.0000000000000000000 ) ) ;
#66 = DIRECTION ( 'NONE',  ( 0.0000000000000000000, -1.000000000000000000, -0.0000000000000000000 ) ) ;
#67 = DIRECTION ( 'NONE',  ( -0.0000000000000000000, -0.0000000000000000000, -1.000000000000000000 ) ) ;
#68 = DIRECTION ( 'NONE',  ( 7.744301232039330240E-17, 1.379495813156344217E-32, 1.000000000000000000 ) ) ;
#69 =( NAMED_UNIT ( * ) PLANE_ANGLE_UNIT ( ) SI_UNIT ( $, .RADIAN. ) );
#70 = VERTEX_POINT ( 'NONE', #368 ) ;
#71 = PRESENTATION_STYLE_ASSIGNMENT (( #2 ) ) ;
#72 = DIRECTION ( 'NONE',  ( 0.0000000000000000000, 0.0000000000000000000, -1.000000000000000000 ) ) ;
#73 = LINE ( 'NONE', #22, #657 ) ;
#74 = CLOSED_SHELL ( 'NONE', ( #580, #201, #890, #310, #793, #871, #732, #224, #46, #680 ) ) ;
#75 = COLOUR_RGB ( '',1.000000000000000000, 1.000000000000000000, 1.000000000000000000 ) ;
#76 = EDGE_CURVE ( 'NONE', #736, #938, #183, .T. ) ;
#77 = DIRECTION ( 'NONE',  ( 1.000000000000000000, 0.0000000000000000000, -7.744301232039330240E-17 ) ) ;
#78 = DIRECTION ( 'NONE',  ( -0.0000000000000000000, 0.0000000000000000000, -1.000000000000000000 ) ) ;
#79 = PLANE ( 'NONE',  #578 ) ;
#80 = PLANE ( 'NONE',  #881 ) ;
#81 = EDGE_CURVE ( 'NONE', #211, #498, #803, .T. ) ;
#82 = CARTESIAN_POINT ( 'NONE',  ( 0.3499999999999995892, 0.0000000000000000000, 0.4349999999999999978 ) ) ;
#83 = CLOSED_SHELL ( 'NONE', ( #55, #571, #939, #116, #289, #276 ) ) ;
#84 = CARTESIAN_POINT ( 'NONE',  ( 0.7699999999999996847, 0.02999999999999995726, -0.4350000000000000533 ) ) ;
#85 = ORIENTED_EDGE ( 'NONE', *, *, #468, .F. ) ;
#86 = DIRECTION ( 'NONE',  ( 1.000000000000000000, -4.400171154567795880E-18, 0.0000000000000000000 ) ) ;
#87 = ORIENTED_EDGE ( 'NONE', *, *, #493, .T. ) ;
#88 = DIRECTION ( 'NONE',  ( 1.000000000000000000, 0.0000000000000000000, -0.0000000000000000000 ) ) ;
#89 =( NAMED_UNIT ( * ) SI_UNIT ( $, .STERADIAN. ) SOLID_ANGLE_UNIT ( ) );
#90 = AXIS2_PLACEMENT_3D ( 'NONE', #799, #512, #280 ) ;
#91 = ADVANCED_BREP_SHAPE_REPRESENTATION ( 'UCR03EVPFSR050', ( #811, #202, #297, #795, #856 ), #717 ) ;
#92 = ORIENTED_EDGE ( 'NONE', *, *, #459, .F. ) ;
#93 = AXIS2_PLACEMENT_3D ( 'NONE', #225, #741, #314 ) ;
#94 = DIRECTION ( 'NONE',  ( 0.0000000000000000000, 0.0000000000000000000, 1.000000000000000000 ) ) ;
#95 = LINE ( 'NONE', #684, #281 ) ;
#96 = AXIS2_PLACEMENT_3D ( 'NONE', #367, #676, #220 ) ;
#97 = VECTOR ( 'NONE', #917, 1000.000000000000000 ) ;
#98 = PLANE ( 'NONE',  #222 ) ;
#99 = VERTEX_POINT ( 'NONE', #128 ) ;
#100 = VECTOR ( 'NONE', #329, 1000.000000000000000 ) ;
#101 = DIRECTION ( 'NONE',  ( -1.000000000000000000, 0.0000000000000000000, -0.0000000000000000000 ) ) ;
#102 = AXIS2_PLACEMENT_3D ( 'NONE', #432, #130, #579 ) ;
#103 = APPLICATION_PROTOCOL_DEFINITION ( 'draft international standard', 'automotive_design', 1998, #924 ) ;
#104 = EDGE_LOOP ( 'NONE', ( #473, #667, #443, #950 ) ) ;
#105 = MECHANICAL_DESIGN_GEOMETRIC_PRESENTATION_REPRESENTATION (  '', ( #56 ), #523 ) ;
#106 = ORIENTED_EDGE ( 'NONE', *, *, #739, .F. ) ;
#107 = PLANE ( 'NONE',  #405 ) ;
#108 = DIRECTION ( 'NONE',  ( 0.0000000000000000000, 0.0000000000000000000, 1.000000000000000000 ) ) ;
#109 = VECTOR ( 'NONE', #540, 1000.000000000000000 ) ;
#110 = DIRECTION ( 'NONE',  ( 1.210047067506143201E-16, -1.000000000000000000, 0.0000000000000000000 ) ) ;
#111 = ORIENTED_EDGE ( 'NONE', *, *, #200, .F. ) ;
#112 = VECTOR ( 'NONE', #277, 1000.000000000000000 ) ;
#113 = CARTESIAN_POINT ( 'NONE',  ( 0.3499999999999995892, 0.02999999999999986011, -0.4349999999999999978 ) ) ;
#114 = CARTESIAN_POINT ( 'NONE',  ( -0.3499999999999995337, -6.234565522931969408E-17, -0.4349999999999999978 ) ) ;
#115 = PLANE ( 'NONE',  #348 ) ;
#116 = ADVANCED_FACE ( 'NONE', ( #915 ), #5, .T. ) ;
#117 = DIRECTION ( 'NONE',  ( -1.000000000000000000, 0.0000000000000000000, 0.0000000000000000000 ) ) ;
#118 = PRODUCT_RELATED_PRODUCT_CATEGORY ( 'part', '', ( #26 ) ) ;
#119 = AXIS2_PLACEMENT_3D ( 'NONE', #946, #513, #660 ) ;
#120 = LINE ( 'NONE', #137, #309 ) ;
#121 = CARTESIAN_POINT ( 'NONE',  ( 0.7999999999999996003, 0.5999999999999998668, -0.4349999999999999978 ) ) ;
#122 = FACE_OUTER_BOUND ( 'NONE', #517, .T. ) ;
#123 = ORIENTED_EDGE ( 'NONE', *, *, #800, .F. ) ;
#124 = VECTOR ( 'NONE', #397, 1000.000000000000000 ) ;
#125 = PLANE ( 'NONE',  #349 ) ;
#126 = EDGE_CURVE ( 'NONE', #804, #947, #842, .T. ) ;
#127 = DIRECTION ( 'NONE',  ( 0.0000000000000000000, -1.000000000000000000, -0.0000000000000000000 ) ) ;
#128 = CARTESIAN_POINT ( 'NONE',  ( -0.7699999999999996847, 0.5699999999999999512, -0.4349999999999999978 ) ) ;
#129 = ORIENTED_EDGE ( 'NONE', *, *, #366, .F. ) ;
#130 = DIRECTION ( 'NONE',  ( 0.0000000000000000000, 0.0000000000000000000, -1.000000000000000000 ) ) ;
#131 = ADVANCED_FACE ( 'NONE', ( #244 ), #156, .T. ) ;
#132 = SURFACE_STYLE_FILL_AREA ( #402 ) ;
#133 = CLOSED_SHELL ( 'NONE', ( #788, #808, #195, #576, #944, #131 ) ) ;
#134 = VECTOR ( 'NONE', #144, 1000.000000000000000 ) ;
#135 = FILL_AREA_STYLE ('',( #279 ) ) ;
#136 = LINE ( 'NONE', #265, #356 ) ;
#137 = CARTESIAN_POINT ( 'NONE',  ( 0.3499999999999993672, 1.146646765991823580, -0.4349999999999999978 ) ) ;
#138 = CARTESIAN_POINT ( 'NONE',  ( 0.7699999999999996847, 0.02999999999999995726, -2.066931371106027093 ) ) ;
#139 = DIRECTION ( 'NONE',  ( 1.000000000000000000, -4.400171154567795880E-18, 0.0000000000000000000 ) ) ;
#140 = EDGE_LOOP ( 'NONE', ( #374, #308, #585, #215 ) ) ;
#141 = CARTESIAN_POINT ( 'NONE',  ( -0.3499999999999997002, 1.146646765991823580, -0.4349999999999999978 ) ) ;
#142 = DIRECTION ( 'NONE',  ( -1.000000000000000000, -2.177149865150849050E-16, 0.0000000000000000000 ) ) ;
#143 = COLOUR_RGB ( '',0.7921568627450980005, 0.8196078431372548767, 0.9333333333333333481 ) ;
#144 = DIRECTION ( 'NONE',  ( 1.000000000000000000, 1.781304435123422824E-16, 0.0000000000000000000 ) ) ;
#145 = VERTEX_POINT ( 'NONE', #835 ) ;
#146 = VECTOR ( 'NONE', #893, 1000.000000000000000 ) ;
#147 = CARTESIAN_POINT ( 'NONE',  ( 0.7699999999999996847, 0.02999999999999995726, -0.4350000000000000533 ) ) ;
#148 = EDGE_CURVE ( 'NONE', #204, #947, #903, .T. ) ;
#149 = ORIENTED_EDGE ( 'NONE', *, *, #323, .F. ) ;
#150 = PLANE ( 'NONE',  #398 ) ;
#151 = ORIENTED_EDGE ( 'NONE', *, *, #422, .T. ) ;
#152 = VECTOR ( 'NONE', #776, 1000.000000000000000 ) ;
#153 = DIRECTION ( 'NONE',  ( 0.0000000000000000000, -1.000000000000000000, -0.0000000000000000000 ) ) ;
#154 = CARTESIAN_POINT ( 'NONE',  ( -0.3499999999999995892, 0.0000000000000000000, 0.4349999999999999978 ) ) ;
#155 = CARTESIAN_POINT ( 'NONE',  ( -0.3499999999999995892, 0.03000000000000001277, 0.4349999999999999978 ) ) ;
#156 = PLANE ( 'NONE',  #438 ) ;
#157 = DIRECTION ( 'NONE',  ( 0.0000000000000000000, 0.0000000000000000000, -1.000000000000000000 ) ) ;
#158 = CARTESIAN_POINT ( 'NONE',  ( 0.3499999999999995892, 0.0000000000000000000, 0.4349999999999999978 ) ) ;
#159 = UNCERTAINTY_MEASURE_WITH_UNIT (LENGTH_MEASURE( 1.000000000000000082E-05 ), #450, 'distance_accuracy_value', 'NONE');
#160 = DIRECTION ( 'NONE',  ( 1.000000000000000000, -1.210047067506143201E-16, 0.0000000000000000000 ) ) ;
#161 = DIRECTION ( 'NONE',  ( 0.0000000000000000000, 0.0000000000000000000, -1.000000000000000000 ) ) ;
#162 = EDGE_LOOP ( 'NONE', ( #633, #875, #199, #293, #353, #902, #757, #462 ) ) ;
#163 = VECTOR ( 'NONE', #160, 1000.000000000000000 ) ;
#164 = VERTEX_POINT ( 'NONE', #744 ) ;
#165 = LINE ( 'NONE', #270, #28 ) ;
#166 = CARTESIAN_POINT ( 'NONE',  ( -0.7699999999999996847, 0.02999999999999996420, 0.4349999999999999978 ) ) ;
#167 = EDGE_CURVE ( 'NONE', #257, #211, #445, .T. ) ;
#168 = CARTESIAN_POINT ( 'NONE',  ( -0.3499999999999995892, 0.0000000000000000000, 0.4349999999999999978 ) ) ;
#169 = DIRECTION ( 'NONE',  ( -1.781304435123422331E-16, 1.000000000000000000, 0.0000000000000000000 ) ) ;
#170 = EDGE_CURVE ( 'NONE', #403, #529, #95, .T. ) ;
#171 = CARTESIAN_POINT ( 'NONE',  ( -0.3499999999999995892, 0.0000000000000000000, -0.4349999999999999978 ) ) ;
#172 = APPLICATION_CONTEXT ( 'automotive_design' ) ;
#173 = SURFACE_STYLE_USAGE ( .BOTH. , #613 ) ;
#174 = ORIENTED_EDGE ( 'NONE', *, *, #81, .F. ) ;
#175 = LINE ( 'NONE', #440, #916 ) ;
#176 = VECTOR ( 'NONE', #819, 1000.000000000000000 ) ;
#177 = ORIENTED_EDGE ( 'NONE', *, *, #417, .T. ) ;
#178 = AXIS2_PLACEMENT_3D ( 'NONE', #302, #68, #77 ) ;
#179 = DIRECTION ( 'NONE',  ( 0.0000000000000000000, -0.0000000000000000000, 1.000000000000000000 ) ) ;
#180 = EDGE_CURVE ( 'NONE', #37, #57, #682, .T. ) ;
#181 = CARTESIAN_POINT ( 'NONE',  ( 0.7699999999999996847, 0.5699999999999999512, -0.4349999999999999978 ) ) ;
#182 = EDGE_LOOP ( 'NONE', ( #716, #452, #8, #520 ) ) ;
#183 = LINE ( 'NONE', #807, #341 ) ;
#184 = VERTEX_POINT ( 'NONE', #458 ) ;
#185 = LINE ( 'NONE', #787, #97 ) ;
#186 = VERTEX_POINT ( 'NONE', #469 ) ;
#187 = FACE_OUTER_BOUND ( 'NONE', #322, .T. ) ;
#188 = CARTESIAN_POINT ( 'NONE',  ( -0.7999999999999996003, -9.797174393178821220E-17, 0.4349999999999999978 ) ) ;
#189 = AXIS2_PLACEMENT_3D ( 'NONE', #913, #260, #94 ) ;
#190 = AXIS2_PLACEMENT_3D ( 'NONE', #756, #764, #169 ) ;
#191 = CARTESIAN_POINT ( 'NONE',  ( -0.3499999999999995892, 0.03000000000000001277, 0.4349999999999999978 ) ) ;
#192 = EDGE_LOOP ( 'NONE', ( #6, #24, #911, #594 ) ) ;
#193 = CLOSED_SHELL ( 'NONE', ( #603, #652, #431, #365, #863, #278, #506, #503, #434, #873 ) ) ;
#194 = ORIENTED_EDGE ( 'NONE', *, *, #441, .F. ) ;
#195 = ADVANCED_FACE ( 'NONE', ( #643 ), #3, .T. ) ;
#196 = EDGE_LOOP ( 'NONE', ( #663, #504, #664, #730 ) ) ;
#197 = FACE_OUTER_BOUND ( 'NONE', #791, .T. ) ;
#198 = VECTOR ( 'NONE', #217, 1000.000000000000000 ) ;
#199 = ORIENTED_EDGE ( 'NONE', *, *, #753, .F. ) ;
#200 = EDGE_CURVE ( 'NONE', #184, #563, #728, .T. ) ;
#201 = ADVANCED_FACE ( 'NONE', ( #545 ), #824, .F. ) ;
#202 = MANIFOLD_SOLID_BREP ( 'Mirror2', #74 ) ;
#203 = DIRECTION ( 'NONE',  ( 1.000000000000000000, -0.0000000000000000000, -0.0000000000000000000 ) ) ;
#204 = VERTEX_POINT ( 'NONE', #147 ) ;
#205 = AXIS2_PLACEMENT_3D ( 'NONE', #262, #858, #179 ) ;
#206 = LINE ( 'NONE', #386, #511 ) ;
#207 = LINE ( 'NONE', #155, #27 ) ;
#208 = CARTESIAN_POINT ( 'NONE',  ( 0.7699999999999996847, 0.5699999999999999512, 0.4349999999999999978 ) ) ;
#209 = AXIS2_PLACEMENT_3D ( 'NONE', #815, #66, #78 ) ;
#210 = FACE_OUTER_BOUND ( 'NONE', #104, .T. ) ;
#211 = VERTEX_POINT ( 'NONE', #382 ) ;
#212 = LINE ( 'NONE', #333, #906 ) ;
#213 = EDGE_CURVE ( 'NONE', #48, #497, #948, .T. ) ;
#214 = CARTESIAN_POINT ( 'NONE',  ( -0.3499999999999996447, 0.5999999999999998668, -0.4349999999999999978 ) ) ;
#215 = ORIENTED_EDGE ( 'NONE', *, *, #307, .F. ) ;
#216 = ORIENTED_EDGE ( 'NONE', *, *, #411, .F. ) ;
#217 = DIRECTION ( 'NONE',  ( 1.000000000000000000, -0.0000000000000000000, -0.0000000000000000000 ) ) ;
#218 = ORIENTED_EDGE ( 'NONE', *, *, #543, .T. ) ;
#219 = PLANE ( 'NONE',  #553 ) ;
#220 = DIRECTION ( 'NONE',  ( 0.0000000000000000000, 0.0000000000000000000, 1.000000000000000000 ) ) ;
#221 =( LENGTH_UNIT ( ) NAMED_UNIT ( * ) SI_UNIT ( .MILLI., .METRE. ) );
#222 = AXIS2_PLACEMENT_3D ( 'NONE', #925, #853, #108 ) ;
#223 =( NAMED_UNIT ( * ) SI_UNIT ( $, .STERADIAN. ) SOLID_ANGLE_UNIT ( ) );
#224 = ADVANCED_FACE ( 'NONE', ( #418 ), #537, .F. ) ;
#225 = CARTESIAN_POINT ( 'NONE',  ( 0.3499999999999995892, 0.0000000000000000000, 0.4349999999999999978 ) ) ;
#226 = DIRECTION ( 'NONE',  ( -0.0000000000000000000, -1.000000000000000000, -0.0000000000000000000 ) ) ;
#227 = DIRECTION ( 'NONE',  ( -6.231046968307496861E-17, 2.741767313270376323E-34, 1.000000000000000000 ) ) ;
#228 = UNCERTAINTY_MEASURE_WITH_UNIT (LENGTH_MEASURE( 1.000000000000000082E-05 ), #748, 'distance_accuracy_value', 'NONE');
#229 = PRODUCT_DEFINITION_CONTEXT ( 'detailed design', #924, 'design' ) ;
#230 = VECTOR ( 'NONE', #880, 1000.000000000000000 ) ;
#231 = DIRECTION ( 'NONE',  ( -1.000000000000000000, 0.0000000000000000000, -0.0000000000000000000 ) ) ;
#232 = EDGE_CURVE ( 'NONE', #529, #48, #9, .T. ) ;
#233 = VECTOR ( 'NONE', #315, 1000.000000000000000 ) ;
#234 = DIRECTION ( 'NONE',  ( -1.000000000000000000, 2.177149865150849050E-16, 0.0000000000000000000 ) ) ;
#235 = ORIENTED_EDGE ( 'NONE', *, *, #180, .F. ) ;
#236 = LINE ( 'NONE', #188, #152 ) ;
#237 = DIRECTION ( 'NONE',  ( -0.0000000000000000000, -0.0000000000000000000, -1.000000000000000000 ) ) ;
#238 = DIRECTION ( 'NONE',  ( 0.0000000000000000000, -0.0000000000000000000, 1.000000000000000000 ) ) ;
#239 = EDGE_CURVE ( 'NONE', #599, #465, #206, .T. ) ;
#240 = AXIS2_PLACEMENT_3D ( 'NONE', #320, #242, #17 ) ;
#241 = CARTESIAN_POINT ( 'NONE',  ( -0.3499999999999995892, 0.0000000000000000000, 0.4349999999999999978 ) ) ;
#242 = DIRECTION ( 'NONE',  ( 0.0000000000000000000, -1.000000000000000000, 0.0000000000000000000 ) ) ;
#243 = ORIENTED_EDGE ( 'NONE', *, *, #753, .T. ) ;
#244 = FACE_OUTER_BOUND ( 'NONE', #859, .T. ) ;
#245 = ORIENTED_EDGE ( 'NONE', *, *, #665, .F. ) ;
#246 =( NAMED_UNIT ( * ) PLANE_ANGLE_UNIT ( ) SI_UNIT ( $, .RADIAN. ) );
#247 = LINE ( 'NONE', #304, #134 ) ;
#248 = CARTESIAN_POINT ( 'NONE',  ( -0.3499999999999997558, 0.02999999999999986011, 0.4349999999999999978 ) ) ;
#249 = EDGE_CURVE ( 'NONE', #957, #58, #313, .T. ) ;
#250 = VERTEX_POINT ( 'NONE', #847 ) ;
#251 =( LENGTH_UNIT ( ) NAMED_UNIT ( * ) SI_UNIT ( .MILLI., .METRE. ) );
#252 = EDGE_CURVE ( 'NONE', #497, #688, #272, .T. ) ;
#253 = DIRECTION ( 'NONE',  ( 0.0000000000000000000, -0.0000000000000000000, -1.000000000000000000 ) ) ;
#254 = CARTESIAN_POINT ( 'NONE',  ( -0.7699999999999996847, 0.02999999999999996420, 0.4349999999999999978 ) ) ;
#255 = CARTESIAN_POINT ( 'NONE',  ( 0.7699999999999996847, 0.02999999999999996420, 0.4349999999999999978 ) ) ;
#256 = VECTOR ( 'NONE', #338, 1000.000000000000000 ) ;
#257 = VERTEX_POINT ( 'NONE', #248 ) ;
#258 = VECTOR ( 'NONE', #770, 1000.000000000000000 ) ;
#259 = CARTESIAN_POINT ( 'NONE',  ( 0.7699999999999996847, 0.5699999999999999512, -0.4350000000000000533 ) ) ;
#260 = DIRECTION ( 'NONE',  ( 0.0000000000000000000, 1.000000000000000000, 0.0000000000000000000 ) ) ;
#261 = AXIS2_PLACEMENT_3D ( 'NONE', #558, #31, #101 ) ;
#262 = CARTESIAN_POINT ( 'NONE',  ( -0.7699999999999996847, 0.5699999999999999512, 0.4349999999999999978 ) ) ;
#263 = EDGE_CURVE ( 'NONE', #403, #59, #522, .T. ) ;
#264 = DIRECTION ( 'NONE',  ( 0.0000000000000000000, 0.0000000000000000000, -1.000000000000000000 ) ) ;
#265 = CARTESIAN_POINT ( 'NONE',  ( -0.7699999999999996847, 0.02999999999999996420, 0.4349999999999999978 ) ) ;
#266 = VERTEX_POINT ( 'NONE', #166 ) ;
#267 = VECTOR ( 'NONE', #712, 1000.000000000000000 ) ;
#268 = EDGE_LOOP ( 'NONE', ( #85, #218, #708, #510 ) ) ;
#269 = VECTOR ( 'NONE', #153, 1000.000000000000000 ) ;
#270 = CARTESIAN_POINT ( 'NONE',  ( 0.7699999999999996847, 0.5699999999999999512, -2.066931371106027093 ) ) ;
#271 = DIRECTION ( 'NONE',  ( -1.000000000000000000, -1.210047067506143201E-16, 0.0000000000000000000 ) ) ;
#272 = LINE ( 'NONE', #702, #30 ) ;
#273 = CARTESIAN_POINT ( 'NONE',  ( -0.3499999999999996447, 0.5999999999999998668, -0.4349999999999999978 ) ) ;
#274 = ORIENTED_EDGE ( 'NONE', *, *, #411, .T. ) ;
#275 = EDGE_CURVE ( 'NONE', #250, #498, #451, .T. ) ;
#276 = ADVANCED_FACE ( 'NONE', ( #491 ), #79, .F. ) ;
#277 = DIRECTION ( 'NONE',  ( -1.000000000000000000, -1.781304435123422824E-16, 7.744301232039329007E-17 ) ) ;
#278 = ADVANCED_FACE ( 'NONE', ( #187 ), #907, .F. ) ;
#279 = FILL_AREA_STYLE_COLOUR ( '', #429 ) ;
#280 = DIRECTION ( 'NONE',  ( 1.781304435123422331E-16, -1.000000000000000000, 0.0000000000000000000 ) ) ;
#281 = VECTOR ( 'NONE', #376, 1000.000000000000000 ) ;
#282 = LINE ( 'NONE', #792, #331 ) ;
#283 = VECTOR ( 'NONE', #35, 1000.000000000000000 ) ;
#284 = VERTEX_POINT ( 'NONE', #410 ) ;
#285 = CARTESIAN_POINT ( 'NONE',  ( -0.3499999999999995892, -6.234565522931969408E-17, 0.4349999999999999978 ) ) ;
#286 = PRESENTATION_STYLE_ASSIGNMENT (( #173 ) ) ;
#287 = CARTESIAN_POINT ( 'NONE',  ( -0.3499999999999995892, 0.0000000000000000000, -0.4349999999999999978 ) ) ;
#288 = EDGE_CURVE ( 'NONE', #796, #164, #612, .T. ) ;
#289 = ADVANCED_FACE ( 'NONE', ( #62 ), #838, .T. ) ;
#290 = CARTESIAN_POINT ( 'NONE',  ( 0.7999999999999996003, 0.5999999999999998668, 0.4349999999999999978 ) ) ;
#291 = ORIENTED_EDGE ( 'NONE', *, *, #292, .T. ) ;
#292 = EDGE_CURVE ( 'NONE', #563, #562, #567, .T. ) ;
#293 = ORIENTED_EDGE ( 'NONE', *, *, #557, .F. ) ;
#294 = FILL_AREA_STYLE ('',( #954 ) ) ;
#295 = ORIENTED_EDGE ( 'NONE', *, *, #475, .T. ) ;
#296 = VECTOR ( 'NONE', #651, 1000.000000000000000 ) ;
#297 = MANIFOLD_SOLID_BREP ( 'Boss-Extrude2', #133 ) ;
#298 = PLANE ( 'NONE',  #209 ) ;
#299 = PRESENTATION_LAYER_ASSIGNMENT (  '', '', ( #56 ) ) ;
#300 = DIRECTION ( 'NONE',  ( 0.0000000000000000000, 0.0000000000000000000, -1.000000000000000000 ) ) ;
#301 = DIRECTION ( 'NONE',  ( -1.000000000000000000, 1.210047067506143201E-16, 0.0000000000000000000 ) ) ;
#302 = CARTESIAN_POINT ( 'NONE',  ( -0.3499999999999997558, 1.146646765991823580, 0.4349999999999999978 ) ) ;
#303 = VERTEX_POINT ( 'NONE', #471 ) ;
#304 = CARTESIAN_POINT ( 'NONE',  ( -0.3499999999999995337, -6.234565522931969408E-17, -0.4349999999999999978 ) ) ;
#305 = ORIENTED_EDGE ( 'NONE', *, *, #441, .T. ) ;
#306 = DIRECTION ( 'NONE',  ( -4.400171154567795880E-18, -1.000000000000000000, 0.0000000000000000000 ) ) ;
#307 = EDGE_CURVE ( 'NONE', #947, #70, #13, .T. ) ;
#308 = ORIENTED_EDGE ( 'NONE', *, *, #32, .T. ) ;
#309 = VECTOR ( 'NONE', #740, 1000.000000000000000 ) ;
#310 = ADVANCED_FACE ( 'NONE', ( #669 ), #400, .F. ) ;
#311 = VECTOR ( 'NONE', #414, 1000.000000000000000 ) ;
#312 = ORIENTED_EDGE ( 'NONE', *, *, #909, .F. ) ;
#313 = LINE ( 'NONE', #171, #689 ) ;
#314 = DIRECTION ( 'NONE',  ( 1.000000000000000000, -2.177149865150849050E-16, 0.0000000000000000000 ) ) ;
#315 = DIRECTION ( 'NONE',  ( 0.0000000000000000000, -0.0000000000000000000, -1.000000000000000000 ) ) ;
#316 = CARTESIAN_POINT ( 'NONE',  ( 0.3499999999999994782, 6.234565522931968176E-17, 0.4349999999999999423 ) ) ;
#317 = DIRECTION ( 'NONE',  ( 4.015563601798164315E-16, -1.000000000000000000, 0.0000000000000000000 ) ) ;
#318 = DIRECTION ( 'NONE',  ( -0.0000000000000000000, -0.0000000000000000000, -1.000000000000000000 ) ) ;
#319 = DIRECTION ( 'NONE',  ( 1.000000000000000000, 2.177149865150849050E-16, -0.0000000000000000000 ) ) ;
#320 = CARTESIAN_POINT ( 'NONE',  ( -0.7999999999999996003, 0.5999999999999998668, 0.4349999999999999978 ) ) ;
#321 = CARTESIAN_POINT ( 'NONE',  ( 0.7699999999999996847, 0.02999999999999995726, 0.4349999999999999978 ) ) ;
#322 = EDGE_LOOP ( 'NONE', ( #416, #413, #216, #596 ) ) ;
#323 = EDGE_CURVE ( 'NONE', #266, #350, #136, .T. ) ;
#324 = ORIENTED_EDGE ( 'NONE', *, *, #584, .F. ) ;
#325 = LINE ( 'NONE', #285, #112 ) ;
#326 = EDGE_CURVE ( 'NONE', #284, #497, #659, .T. ) ;
#327 = CARTESIAN_POINT ( 'NONE',  ( -0.7999999999999996003, 0.5999999999999998668, -0.4349999999999999978 ) ) ;
#328 = PRODUCT_CONTEXT ( 'NONE', #172, 'mechanical' ) ;
#329 = DIRECTION ( 'NONE',  ( 0.0000000000000000000, -0.0000000000000000000, -1.000000000000000000 ) ) ;
#330 = VECTOR ( 'NONE', #439, 1000.000000000000000 ) ;
#331 = VECTOR ( 'NONE', #942, 1000.000000000000000 ) ;
#332 = VECTOR ( 'NONE', #226, 1000.000000000000000 ) ;
#333 = CARTESIAN_POINT ( 'NONE',  ( -0.3499999999999997558, 0.02999999999999986011, 0.4349999999999999978 ) ) ;
#334 = ORIENTED_EDGE ( 'NONE', *, *, #371, .T. ) ;
#335 = VECTOR ( 'NONE', #721, 1000.000000000000000 ) ;
#336 = EDGE_CURVE ( 'NONE', #57, #465, #845, .T. ) ;
#337 = UNCERTAINTY_MEASURE_WITH_UNIT (LENGTH_MEASURE( 1.000000000000000082E-05 ), #560, 'distance_accuracy_value', 'NONE');
#338 = DIRECTION ( 'NONE',  ( -0.0000000000000000000, 1.000000000000000000, -0.0000000000000000000 ) ) ;
#339 = CARTESIAN_POINT ( 'NONE',  ( 0.7999999999999996003, -9.797174393178821220E-17, 0.4349999999999999978 ) ) ;
#340 = EDGE_LOOP ( 'NONE', ( #106, #622, #816, #782 ) ) ;
#341 = VECTOR ( 'NONE', #359, 1000.000000000000000 ) ;
#342 = ORIENTED_EDGE ( 'NONE', *, *, #239, .T. ) ;
#343 = VERTEX_POINT ( 'NONE', #412 ) ;
#344 = VECTOR ( 'NONE', #825, 1000.000000000000000 ) ;
#345 = EDGE_CURVE ( 'NONE', #99, #743, #932, .T. ) ;
#346 = FACE_OUTER_BOUND ( 'NONE', #196, .T. ) ;
#347 = PRODUCT_DEFINITION_FORMATION_WITH_SPECIFIED_SOURCE ( 'ANY', '', #26, .NOT_KNOWN. ) ;
#348 = AXIS2_PLACEMENT_3D ( 'NONE', #675, #541, #142 ) ;
#349 = AXIS2_PLACEMENT_3D ( 'NONE', #45, #117, #577 ) ;
#350 = VERTEX_POINT ( 'NONE', #922 ) ;
#351 = LINE ( 'NONE', #620, #564 ) ;
#352 = ORIENTED_EDGE ( 'NONE', *, *, #167, .F. ) ;
#353 = ORIENTED_EDGE ( 'NONE', *, *, #784, .F. ) ;
#354 = FACE_OUTER_BOUND ( 'NONE', #355, .T. ) ;
#355 = EDGE_LOOP ( 'NONE', ( #428, #312, #360, #647 ) ) ;
#356 = VECTOR ( 'NONE', #636, 1000.000000000000000 ) ;
#357 = EDGE_CURVE ( 'NONE', #343, #743, #834, .T. ) ;
#358 = EDGE_LOOP ( 'NONE', ( #490, #846, #854, #547 ) ) ;
#359 = DIRECTION ( 'NONE',  ( 1.781304435123422331E-16, -1.000000000000000000, 0.0000000000000000000 ) ) ;
#360 = ORIENTED_EDGE ( 'NONE', *, *, #674, .F. ) ;
#361 = VECTOR ( 'NONE', #227, 1000.000000000000000 ) ;
#362 = ORIENTED_EDGE ( 'NONE', *, *, #252, .F. ) ;
#363 = FACE_OUTER_BOUND ( 'NONE', #44, .T. ) ;
#364 = CARTESIAN_POINT ( 'NONE',  ( 0.0000000000000000000, 0.0000000000000000000, 0.4349999999999999978 ) ) ;
#365 = ADVANCED_FACE ( 'NONE', ( #346 ), #23, .F. ) ;
#366 = EDGE_CURVE ( 'NONE', #529, #284, #421, .T. ) ;
#367 = CARTESIAN_POINT ( 'NONE',  ( -0.3499999999999996447, 0.5999999999999998668, 0.4349999999999999978 ) ) ;
#368 = CARTESIAN_POINT ( 'NONE',  ( 0.7699999999999996847, 0.5699999999999999512, 0.4349999999999999978 ) ) ;
#369 = ORIENTED_EDGE ( 'NONE', *, *, #661, .T. ) ;
#370 = DIRECTION ( 'NONE',  ( -1.210047067506143201E-16, -1.000000000000000000, 0.0000000000000000000 ) ) ;
#371 = EDGE_CURVE ( 'NONE', #145, #957, #236, .T. ) ;
#372 = LINE ( 'NONE', #158, #696 ) ;
#373 =( NAMED_UNIT ( * ) SI_UNIT ( $, .STERADIAN. ) SOLID_ANGLE_UNIT ( ) );
#374 = ORIENTED_EDGE ( 'NONE', *, *, #148, .F. ) ;
#375 = LINE ( 'NONE', #672, #230 ) ;
#376 = DIRECTION ( 'NONE',  ( 0.0000000000000000000, 1.000000000000000000, 0.0000000000000000000 ) ) ;
#377 = FACE_OUTER_BOUND ( 'NONE', #379, .T. ) ;
#378 = PLANE ( 'NONE',  #178 ) ;
#379 = EDGE_LOOP ( 'NONE', ( #619, #638, #806, #342 ) ) ;
#380 = DIRECTION ( 'NONE',  ( -1.246209393661499619E-16, -1.383570362347152492E-32, 1.000000000000000000 ) ) ;
#381 = UNCERTAINTY_MEASURE_WITH_UNIT (LENGTH_MEASURE( 1.000000000000000082E-05 ), #251, 'distance_accuracy_value', 'NONE');
#382 = CARTESIAN_POINT ( 'NONE',  ( -0.3499999999999995892, -6.234565522931969408E-17, 0.4349999999999999978 ) ) ;
#383 =( GEOMETRIC_REPRESENTATION_CONTEXT ( 3 ) GLOBAL_UNCERTAINTY_ASSIGNED_CONTEXT ( ( #228 ) ) GLOBAL_UNIT_ASSIGNED_CONTEXT ( ( #748, #69, #602 ) ) REPRESENTATION_CONTEXT ( 'NONE', 'WORKASPACE' ) );
#384 = CARTESIAN_POINT ( 'NONE',  ( -0.3499999999999995892, 0.03000000000000001277, 0.4349999999999999978 ) ) ;
#385 =( LENGTH_UNIT ( ) NAMED_UNIT ( * ) SI_UNIT ( .MILLI., .METRE. ) );
#386 = CARTESIAN_POINT ( 'NONE',  ( -0.7999999999999996003, 0.5999999999999998668, 0.4349999999999999978 ) ) ;
#387 = CARTESIAN_POINT ( 'NONE',  ( 0.3499999999999996447, 0.5999999999999998668, -0.4349999999999999978 ) ) ;
#388 = DIRECTION ( 'NONE',  ( 0.0000000000000000000, 0.0000000000000000000, 1.000000000000000000 ) ) ;
#389 = DIRECTION ( 'NONE',  ( 1.781304435123422331E-16, -1.000000000000000000, 0.0000000000000000000 ) ) ;
#390 = VECTOR ( 'NONE', #754, 1000.000000000000000 ) ;
#391 = ORIENTED_EDGE ( 'NONE', *, *, #572, .T. ) ;
#392 = LINE ( 'NONE', #457, #43 ) ;
#393 = ORIENTED_EDGE ( 'NONE', *, *, #654, .T. ) ;
#394 = VECTOR ( 'NONE', #785, 1000.000000000000000 ) ;
#395 = CARTESIAN_POINT ( 'NONE',  ( -3.004222923369598693E-48, 1.686529749846742036E-32, -1.871945413878202048E-64 ) ) ;
#396 = CARTESIAN_POINT ( 'NONE',  ( 0.0000000000000000000, 0.0000000000000000000, 0.0000000000000000000 ) ) ;
#397 = DIRECTION ( 'NONE',  ( 1.781304435123422331E-16, -1.000000000000000000, 0.0000000000000000000 ) ) ;
#398 = AXIS2_PLACEMENT_3D ( 'NONE', #525, #598, #885 ) ;
#399 = DIRECTION ( 'NONE',  ( 0.0000000000000000000, 1.000000000000000000, 0.0000000000000000000 ) ) ;
#400 = PLANE ( 'NONE',  #189 ) ;
#401 = ORIENTED_EDGE ( 'NONE', *, *, #252, .T. ) ;
#402 = FILL_AREA_STYLE ('',( #826 ) ) ;
#403 = VERTEX_POINT ( 'NONE', #849 ) ;
#404 = SHAPE_DEFINITION_REPRESENTATION ( #827, #91 ) ;
#405 = AXIS2_PLACEMENT_3D ( 'NONE', #648, #264, #561 ) ;
#406 = EDGE_LOOP ( 'NONE', ( #592, #16, #401, #391, #291, #655, #575, #581 ) ) ;
#407 = LINE ( 'NONE', #865, #296 ) ;
#408 = LINE ( 'NONE', #191, #931 ) ;
#409 = ORIENTED_EDGE ( 'NONE', *, *, #422, .F. ) ;
#410 = CARTESIAN_POINT ( 'NONE',  ( 0.3499999999999995892, 0.03000000000000001277, -0.4349999999999999978 ) ) ;
#411 = EDGE_CURVE ( 'NONE', #37, #599, #536, .T. ) ;
#412 = CARTESIAN_POINT ( 'NONE',  ( -0.3499999999999996447, 0.5699999999999999512, 0.4349999999999999978 ) ) ;
#413 = ORIENTED_EDGE ( 'NONE', *, *, #239, .F. ) ;
#414 = DIRECTION ( 'NONE',  ( 4.015563601798164315E-16, -1.000000000000000000, -0.0000000000000000000 ) ) ;
#415 = CARTESIAN_POINT ( 'NONE',  ( -0.3499999999999996447, 0.5999999999999998668, 0.4349999999999999978 ) ) ;
#416 = ORIENTED_EDGE ( 'NONE', *, *, #336, .T. ) ;
#417 = EDGE_CURVE ( 'NONE', #257, #736, #212, .T. ) ;
#418 = FACE_OUTER_BOUND ( 'NONE', #624, .T. ) ;
#419 = LINE ( 'NONE', #241, #904 ) ;
#420 = ORIENTED_EDGE ( 'NONE', *, *, #213, .F. ) ;
#421 = LINE ( 'NONE', #705, #646 ) ;
#422 = EDGE_CURVE ( 'NONE', #303, #350, #709, .T. ) ;
#423 = DIRECTION ( 'NONE',  ( -1.000000000000000000, -0.0000000000000000000, -0.0000000000000000000 ) ) ;
#424 = ORIENTED_EDGE ( 'NONE', *, *, #543, .F. ) ;
#425 = DIRECTION ( 'NONE',  ( -0.0000000000000000000, -1.000000000000000000, -0.0000000000000000000 ) ) ;
#426 = ORIENTED_EDGE ( 'NONE', *, *, #722, .F. ) ;
#427 = FACE_OUTER_BOUND ( 'NONE', #727, .T. ) ;
#428 = ORIENTED_EDGE ( 'NONE', *, *, #514, .T. ) ;
#429 = COLOUR_RGB ( '',0.2509803921568627416, 0.2509803921568627416, 0.2509803921568627416 ) ;
#430 = ORIENTED_EDGE ( 'NONE', *, *, #275, .T. ) ;
#431 = ADVANCED_FACE ( 'NONE', ( #855 ), #98, .F. ) ;
#432 = CARTESIAN_POINT ( 'NONE',  ( 0.0000000000000000000, 0.0000000000000000000, -0.4349999999999999978 ) ) ;
#433 = VERTEX_POINT ( 'NONE', #492 ) ;
#434 = ADVANCED_FACE ( 'NONE', ( #762 ), #637, .F. ) ;
#435 = VECTOR ( 'NONE', #425, 1000.000000000000000 ) ;
#436 = CARTESIAN_POINT ( 'NONE',  ( 0.3499999999999995892, 0.0000000000000000000, -0.4349999999999999978 ) ) ;
#437 = ORIENTED_EDGE ( 'NONE', *, *, #894, .F. ) ;
#438 = AXIS2_PLACEMENT_3D ( 'NONE', #822, #453, #317 ) ;
#439 = DIRECTION ( 'NONE',  ( 6.231046968307496861E-17, 0.0000000000000000000, -1.000000000000000000 ) ) ;
#440 = CARTESIAN_POINT ( 'NONE',  ( 0.3499999999999994782, 6.234565522931968176E-17, 0.4349999999999999423 ) ) ;
#441 = EDGE_CURVE ( 'NONE', #186, #761, #589, .T. ) ;
#442 = AXIS2_PLACEMENT_3D ( 'NONE', #384, #460, #609 ) ;
#443 = ORIENTED_EDGE ( 'NONE', *, *, #775, .F. ) ;
#444 = VERTEX_POINT ( 'NONE', #339 ) ;
#445 = LINE ( 'NONE', #671, #530 ) ;
#446 = FACE_OUTER_BOUND ( 'NONE', #866, .T. ) ;
#447 = ORIENTED_EDGE ( 'NONE', *, *, #326, .F. ) ;
#448 = PLANE ( 'NONE',  #703 ) ;
#449 = PRESENTATION_STYLE_ASSIGNMENT (( #878 ) ) ;
#450 =( LENGTH_UNIT ( ) NAMED_UNIT ( * ) SI_UNIT ( .MILLI., .METRE. ) );
#451 = LINE ( 'NONE', #700, #124 ) ;
#452 = ORIENTED_EDGE ( 'NONE', *, *, #724, .F. ) ;
#453 = DIRECTION ( 'NONE',  ( -1.000000000000000000, -4.015563601798164315E-16, 0.0000000000000000000 ) ) ;
#454 = CARTESIAN_POINT ( 'NONE',  ( -0.7699999999999996847, 0.02999999999999996420, -0.4350000000000000533 ) ) ;
#455 =( NAMED_UNIT ( * ) PLANE_ANGLE_UNIT ( ) SI_UNIT ( $, .RADIAN. ) );
#456 = SURFACE_SIDE_STYLE ('',( #886 ) ) ;
#457 = CARTESIAN_POINT ( 'NONE',  ( -0.3499999999999996447, 0.5999999999999998668, 0.4349999999999999978 ) ) ;
#458 = CARTESIAN_POINT ( 'NONE',  ( 0.3499999999999996447, 0.5699999999999999512, 0.4349999999999999978 ) ) ;
#459 = EDGE_CURVE ( 'NONE', #755, #99, #783, .T. ) ;
#460 = DIRECTION ( 'NONE',  ( -1.000000000000000000, 0.0000000000000000000, 0.0000000000000000000 ) ) ;
#461 = ORIENTED_EDGE ( 'NONE', *, *, #722, .T. ) ;
#462 = ORIENTED_EDGE ( 'NONE', *, *, #232, .F. ) ;
#463 = LINE ( 'NONE', #935, #256 ) ;
#464 = CARTESIAN_POINT ( 'NONE',  ( 0.7699999999999996847, 0.5699999999999999512, -0.4349999999999999978 ) ) ;
#465 = VERTEX_POINT ( 'NONE', #641 ) ;
#466 = SURFACE_STYLE_FILL_AREA ( #14 ) ;
#467 = CARTESIAN_POINT ( 'NONE',  ( -0.7699999999999997957, 0.5699999999999999512, -2.066931371106027093 ) ) ;
#468 = EDGE_CURVE ( 'NONE', #478, #804, #760, .T. ) ;
#469 = CARTESIAN_POINT ( 'NONE',  ( -0.7699999999999997957, 0.5699999999999999512, -0.4350000000000000533 ) ) ;
#470 = CARTESIAN_POINT ( 'NONE',  ( -0.7699999999999996847, 0.02999999999999996420, -0.4349999999999999978 ) ) ;
#471 = CARTESIAN_POINT ( 'NONE',  ( -0.3499999999999995892, 0.03000000000000001277, -0.4349999999999999978 ) ) ;
#472 = PLANE ( 'NONE',  #591 ) ;
#473 = ORIENTED_EDGE ( 'NONE', *, *, #417, .F. ) ;
#474 = DIRECTION ( 'NONE',  ( -4.400171154567795880E-18, -1.000000000000000000, 0.0000000000000000000 ) ) ;
#475 = EDGE_CURVE ( 'NONE', #266, #755, #940, .T. ) ;
#476 = VECTOR ( 'NONE', #836, 1000.000000000000000 ) ;
#477 = EDGE_LOOP ( 'NONE', ( #426, #876, #759, #424 ) ) ;
#478 = VERTEX_POINT ( 'NONE', #723 ) ;
#479 = CARTESIAN_POINT ( 'NONE',  ( 0.0000000000000000000, 0.0000000000000000000, -0.4349999999999999978 ) ) ;
#480 = ORIENTED_EDGE ( 'NONE', *, *, #508, .T. ) ;
#481 = SURFACE_SIDE_STYLE ('',( #132 ) ) ;
#482 = DIRECTION ( 'NONE',  ( 1.000000000000000000, 1.781304435123422824E-16, 0.0000000000000000000 ) ) ;
#483 = AXIS2_PLACEMENT_3D ( 'NONE', #479, #72, #606 ) ;
#484 = DIRECTION ( 'NONE',  ( 1.781304435123422824E-16, -1.000000000000000000, 1.109939160010850192E-32 ) ) ;
#485 = ORIENTED_EDGE ( 'NONE', *, *, #249, .T. ) ;
#486 = DIRECTION ( 'NONE',  ( -1.000000000000000000, -1.210047067506143201E-16, 0.0000000000000000000 ) ) ;
#487 = VECTOR ( 'NONE', #607, 1000.000000000000000 ) ;
#488 = FACE_OUTER_BOUND ( 'NONE', #630, .T. ) ;
#489 = LINE ( 'NONE', #464, #344 ) ;
#490 = ORIENTED_EDGE ( 'NONE', *, *, #766, .F. ) ;
#491 = FACE_OUTER_BOUND ( 'NONE', #645, .T. ) ;
#492 = CARTESIAN_POINT ( 'NONE',  ( -0.3499999999999995892, 0.03000000000000001277, 0.4349999999999999978 ) ) ;
#493 = EDGE_CURVE ( 'NONE', #433, #266, #408, .T. ) ;
#494 = DIRECTION ( 'NONE',  ( -1.000000000000000000, 4.400171154567795880E-18, 0.0000000000000000000 ) ) ;
#495 = EDGE_LOOP ( 'NONE', ( #393, #768, #789, #369 ) ) ;
#496 = EDGE_CURVE ( 'NONE', #465, #957, #566, .T. ) ;
#497 = VERTEX_POINT ( 'NONE', #42 ) ;
#498 = VERTEX_POINT ( 'NONE', #114 ) ;
#499 = PRESENTATION_LAYER_ASSIGNMENT (  '', '', ( #614 ) ) ;
#500 = VECTOR ( 'NONE', #693, 1000.000000000000000 ) ;
#501 = CARTESIAN_POINT ( 'NONE',  ( 0.7699999999999996847, 0.02999999999999996420, 0.4349999999999999978 ) ) ;
#502 = DIRECTION ( 'NONE',  ( -0.0000000000000000000, -0.0000000000000000000, -1.000000000000000000 ) ) ;
#503 = ADVANCED_FACE ( 'NONE', ( #122 ), #115, .F. ) ;
#504 = ORIENTED_EDGE ( 'NONE', *, *, #357, .F. ) ;
#505 = ORIENTED_EDGE ( 'NONE', *, *, #879, .T. ) ;
#506 = ADVANCED_FACE ( 'NONE', ( #377 ), #219, .F. ) ;
#507 = VECTOR ( 'NONE', #681, 1000.000000000000000 ) ;
#508 = EDGE_CURVE ( 'NONE', #555, #562, #868, .T. ) ;
#509 = VECTOR ( 'NONE', #568, 1000.000000000000000 ) ;
#510 = ORIENTED_EDGE ( 'NONE', *, *, #126, .F. ) ;
#511 = VECTOR ( 'NONE', #751, 1000.000000000000000 ) ;
#512 = DIRECTION ( 'NONE',  ( -1.000000000000000000, -1.781304435123422331E-16, -6.231046968307496861E-17 ) ) ;
#513 = DIRECTION ( 'NONE',  ( 1.000000000000000000, 0.0000000000000000000, -0.0000000000000000000 ) ) ;
#514 = EDGE_CURVE ( 'NONE', #58, #303, #10, .T. ) ;
#515 = STYLED_ITEM ( 'NONE', ( #286 ), #297 ) ;
#516 =( GEOMETRIC_REPRESENTATION_CONTEXT ( 3 ) GLOBAL_UNCERTAINTY_ASSIGNED_CONTEXT ( ( #159 ) ) GLOBAL_UNIT_ASSIGNED_CONTEXT ( ( #450, #455, #373 ) ) REPRESENTATION_CONTEXT ( 'NONE', 'WORKASPACE' ) );
#517 = EDGE_LOOP ( 'NONE', ( #485, #746, #914, #334 ) ) ;
#518 = DIRECTION ( 'NONE',  ( -1.000000000000000000, 0.0000000000000000000, -0.0000000000000000000 ) ) ;
#519 = ORIENTED_EDGE ( 'NONE', *, *, #213, .T. ) ;
#520 = ORIENTED_EDGE ( 'NONE', *, *, #200, .T. ) ;
#521 = VECTOR ( 'NONE', #949, 1000.000000000000000 ) ;
#522 = LINE ( 'NONE', #82, #699 ) ;
#523 =( GEOMETRIC_REPRESENTATION_CONTEXT ( 3 ) GLOBAL_UNCERTAINTY_ASSIGNED_CONTEXT ( ( #615 ) ) GLOBAL_UNIT_ASSIGNED_CONTEXT ( ( #221, #528, #601 ) ) REPRESENTATION_CONTEXT ( 'NONE', 'WORKASPACE' ) );
#524 = CARTESIAN_POINT ( 'NONE',  ( 0.3499999999999995892, 0.03000000000000001277, 0.4349999999999999978 ) ) ;
#525 = CARTESIAN_POINT ( 'NONE',  ( 0.3499999999999995892, 0.03000000000000001277, 0.4349999999999999978 ) ) ;
#526 = SURFACE_SIDE_STYLE ('',( #656 ) ) ;
#527 = ORIENTED_EDGE ( 'NONE', *, *, #698, .T. ) ;
#528 =( NAMED_UNIT ( * ) PLANE_ANGLE_UNIT ( ) SI_UNIT ( $, .RADIAN. ) );
#529 = VERTEX_POINT ( 'NONE', #936 ) ;
#530 = VECTOR ( 'NONE', #389, 1000.000000000000000 ) ;
#531 = CARTESIAN_POINT ( 'NONE',  ( -0.3499999999999995892, 0.03000000000000001277, -0.4349999999999999978 ) ) ;
#532 = VECTOR ( 'NONE', #127, 1000.000000000000000 ) ;
#533 = DIRECTION ( 'NONE',  ( -0.0000000000000000000, 1.000000000000000000, -0.0000000000000000000 ) ) ;
#534 = VECTOR ( 'NONE', #318, 1000.000000000000000 ) ;
#535 = ORIENTED_EDGE ( 'NONE', *, *, #739, .T. ) ;
#536 = LINE ( 'NONE', #627, #891 ) ;
#537 = PLANE ( 'NONE',  #93 ) ;
#538 = CARTESIAN_POINT ( 'NONE',  ( 0.3499999999999996447, 0.5999999999999998668, 0.4349999999999999978 ) ) ;
#539 = CARTESIAN_POINT ( 'NONE',  ( 0.7999999999999996003, -9.797174393178821220E-17, 0.4349999999999999978 ) ) ;
#540 = DIRECTION ( 'NONE',  ( 0.0000000000000000000, -0.0000000000000000000, -1.000000000000000000 ) ) ;
#541 = DIRECTION ( 'NONE',  ( -2.177149865150849050E-16, 1.000000000000000000, 0.0000000000000000000 ) ) ;
#542 = FILL_AREA_STYLE_COLOUR ( '', #75 ) ;
#543 = EDGE_CURVE ( 'NONE', #478, #204, #586, .T. ) ;
#544 = PLANE ( 'NONE',  #90 ) ;
#545 = FACE_OUTER_BOUND ( 'NONE', #919, .T. ) ;
#546 = DIRECTION ( 'NONE',  ( 0.0000000000000000000, -0.0000000000000000000, -1.000000000000000000 ) ) ;
#547 = ORIENTED_EDGE ( 'NONE', *, *, #288, .T. ) ;
#548 = LINE ( 'NONE', #786, #283 ) ;
#549 = DIRECTION ( 'NONE',  ( -1.000000000000000000, 2.177149865150849050E-16, 0.0000000000000000000 ) ) ;
#550 =( NAMED_UNIT ( * ) PLANE_ANGLE_UNIT ( ) SI_UNIT ( $, .RADIAN. ) );
#551 = APPLICATION_PROTOCOL_DEFINITION ( 'draft international standard', 'automotive_design', 1998, #172 ) ;
#552 = ORIENTED_EDGE ( 'NONE', *, *, #692, .F. ) ;
#553 = AXIS2_PLACEMENT_3D ( 'NONE', #830, #593, #157 ) ;
#554 = LINE ( 'NONE', #539, #718 ) ;
#555 = VERTEX_POINT ( 'NONE', #63 ) ;
#556 = ORIENTED_EDGE ( 'NONE', *, *, #39, .F. ) ;
#557 = EDGE_CURVE ( 'NONE', #555, #796, #794, .T. ) ;
#558 = CARTESIAN_POINT ( 'NONE',  ( 0.0000000000000000000, 0.0000000000000000000, 0.4349999999999999978 ) ) ;
#559 = DIRECTION ( 'NONE',  ( 1.000000000000000000, 1.210047067506143201E-16, 0.0000000000000000000 ) ) ;
#560 =( LENGTH_UNIT ( ) NAMED_UNIT ( * ) SI_UNIT ( .MILLI., .METRE. ) );
#561 = DIRECTION ( 'NONE',  ( 1.000000000000000000, 0.0000000000000000000, 0.0000000000000000000 ) ) ;
#562 = VERTEX_POINT ( 'NONE', #387 ) ;
#563 = VERTEX_POINT ( 'NONE', #742 ) ;
#564 = VECTOR ( 'NONE', #4, 1000.000000000000000 ) ;
#565 = ORIENTED_EDGE ( 'NONE', *, *, #275, .F. ) ;
#566 = LINE ( 'NONE', #862, #435 ) ;
#567 = LINE ( 'NONE', #900, #500 ) ;
#568 = DIRECTION ( 'NONE',  ( 0.0000000000000000000, 1.000000000000000000, 0.0000000000000000000 ) ) ;
#569 = DIRECTION ( 'NONE',  ( 0.0000000000000000000, 0.0000000000000000000, 1.000000000000000000 ) ) ;
#570 = ORIENTED_EDGE ( 'NONE', *, *, #249, .F. ) ;
#571 = ADVANCED_FACE ( 'NONE', ( #210 ), #378, .T. ) ;
#572 = EDGE_CURVE ( 'NONE', #688, #563, #489, .T. ) ;
#573 = ORIENTED_EDGE ( 'NONE', *, *, #366, .T. ) ;
#574 = PRESENTATION_STYLE_ASSIGNMENT (( #600 ) ) ;
#575 = ORIENTED_EDGE ( 'NONE', *, *, #800, .T. ) ;
#576 = ADVANCED_FACE ( 'NONE', ( #597 ), #7, .T. ) ;
#577 = DIRECTION ( 'NONE',  ( 0.0000000000000000000, 0.0000000000000000000, -1.000000000000000000 ) ) ;
#578 = AXIS2_PLACEMENT_3D ( 'NONE', #758, #474, #86 ) ;
#579 = DIRECTION ( 'NONE',  ( -1.000000000000000000, 0.0000000000000000000, -0.0000000000000000000 ) ) ;
#580 = ADVANCED_FACE ( 'NONE', ( #781 ), #150, .F. ) ;
#581 = ORIENTED_EDGE ( 'NONE', *, *, #618, .T. ) ;
#582 = CARTESIAN_POINT ( 'NONE',  ( -0.3499999999999995892, -6.234565522931969408E-17, 0.4349999999999999978 ) ) ;
#583 = FACE_OUTER_BOUND ( 'NONE', #162, .T. ) ;
#584 = EDGE_CURVE ( 'NONE', #343, #37, #392, .T. ) ;
#585 = ORIENTED_EDGE ( 'NONE', *, *, #692, .T. ) ;
#586 = LINE ( 'NONE', #454, #749 ) ;
#587 = ORIENTED_EDGE ( 'NONE', *, *, #263, .T. ) ;
#588 = CARTESIAN_POINT ( 'NONE',  ( 0.3499999999999994782, 0.02999999999999986011, 0.4349999999999999423 ) ) ;
#589 = LINE ( 'NONE', #632, #394 ) ;
#590 = CARTESIAN_POINT ( 'NONE',  ( 0.7999999999999996003, -9.797174393178821220E-17, -0.4349999999999999978 ) ) ;
#591 = AXIS2_PLACEMENT_3D ( 'NONE', #467, #399, #238 ) ;
#592 = ORIENTED_EDGE ( 'NONE', *, *, #894, .T. ) ;
#593 = DIRECTION ( 'NONE',  ( 1.000000000000000000, 0.0000000000000000000, 0.0000000000000000000 ) ) ;
#594 = ORIENTED_EDGE ( 'NONE', *, *, #775, .T. ) ;
#595 = CARTESIAN_POINT ( 'NONE',  ( -0.7699999999999997957, 0.5699999999999999512, -0.4350000000000000533 ) ) ;
#596 = ORIENTED_EDGE ( 'NONE', *, *, #180, .T. ) ;
#597 = FACE_OUTER_BOUND ( 'NONE', #140, .T. ) ;
#598 = DIRECTION ( 'NONE',  ( 1.000000000000000000, 0.0000000000000000000, -0.0000000000000000000 ) ) ;
#599 = VERTEX_POINT ( 'NONE', #679 ) ;
#600 = SURFACE_STYLE_USAGE ( .BOTH. , #526 ) ;
#601 =( NAMED_UNIT ( * ) SI_UNIT ( $, .STERADIAN. ) SOLID_ANGLE_UNIT ( ) );
#602 =( NAMED_UNIT ( * ) SI_UNIT ( $, .STERADIAN. ) SOLID_ANGLE_UNIT ( ) );
#603 = ADVANCED_FACE ( 'NONE', ( #354 ), #691, .F. ) ;
#604 = CARTESIAN_POINT ( 'NONE',  ( -0.7699999999999996847, 0.02999999999999996420, -2.066931371106027093 ) ) ;
#605 = EDGE_CURVE ( 'NONE', #12, #58, #729, .T. ) ;
#606 = DIRECTION ( 'NONE',  ( -1.000000000000000000, 0.0000000000000000000, -0.0000000000000000000 ) ) ;
#607 = DIRECTION ( 'NONE',  ( 0.0000000000000000000, 0.0000000000000000000, 1.000000000000000000 ) ) ;
#608 = FACE_OUTER_BOUND ( 'NONE', #937, .T. ) ;
#609 = DIRECTION ( 'NONE',  ( 0.0000000000000000000, 0.0000000000000000000, 1.000000000000000000 ) ) ;
#610 = PLANE ( 'NONE',  #483 ) ;
#611 = ORIENTED_EDGE ( 'NONE', *, *, #955, .T. ) ;
#612 = LINE ( 'NONE', #617, #100 ) ;
#613 = SURFACE_SIDE_STYLE ('',( #466 ) ) ;
#614 = STYLED_ITEM ( 'NONE', ( #790 ), #91 ) ;
#615 = UNCERTAINTY_MEASURE_WITH_UNIT (LENGTH_MEASURE( 1.000000000000000082E-05 ), #221, 'distance_accuracy_value', 'NONE');
#616 = CARTESIAN_POINT ( 'NONE',  ( -0.3499999999999995892, 0.02999999999999986011, 0.4349999999999999978 ) ) ;
#617 = CARTESIAN_POINT ( 'NONE',  ( 0.7999999999999996003, 0.5999999999999998668, 0.4349999999999999978 ) ) ;
#618 = EDGE_CURVE ( 'NONE', #884, #59, #888, .T. ) ;
#619 = ORIENTED_EDGE ( 'NONE', *, *, #496, .T. ) ;
#620 = CARTESIAN_POINT ( 'NONE',  ( 0.3499999999999995892, 0.03000000000000001277, -0.4349999999999999978 ) ) ;
#621 = ORIENTED_EDGE ( 'NONE', *, *, #345, .F. ) ;
#622 = ORIENTED_EDGE ( 'NONE', *, *, #76, .T. ) ;
#623 = FACE_OUTER_BOUND ( 'NONE', #406, .T. ) ;
#624 = EDGE_LOOP ( 'NONE', ( #694, #64, #505, #587 ) ) ;
#625 = EDGE_CURVE ( 'NONE', #599, #145, #852, .T. ) ;
#626 = DIRECTION ( 'NONE',  ( 0.0000000000000000000, 1.000000000000000000, 0.0000000000000000000 ) ) ;
#627 = CARTESIAN_POINT ( 'NONE',  ( -0.7999999999999996003, 0.5999999999999998668, 0.4349999999999999978 ) ) ;
#628 = DIRECTION ( 'NONE',  ( 1.000000000000000000, 0.0000000000000000000, 0.0000000000000000000 ) ) ;
#629 = LINE ( 'NONE', #590, #269 ) ;
#630 = EDGE_LOOP ( 'NONE', ( #19, #570, #802, #1, #677, #621, #556, #409 ) ) ;
#631 = VECTOR ( 'NONE', #502, 1000.000000000000000 ) ;
#632 = CARTESIAN_POINT ( 'NONE',  ( -0.7699999999999997957, 0.5699999999999999512, -2.066931371106027093 ) ) ;
#633 = ORIENTED_EDGE ( 'NONE', *, *, #170, .F. ) ;
#634 = AXIS2_PLACEMENT_3D ( 'NONE', #141, #882, #231 ) ;
#635 = CARTESIAN_POINT ( 'NONE',  ( -0.7699999999999996847, 0.5699999999999999512, 0.4349999999999999978 ) ) ;
#636 = DIRECTION ( 'NONE',  ( -0.0000000000000000000, -0.0000000000000000000, -1.000000000000000000 ) ) ;
#637 = PLANE ( 'NONE',  #261 ) ;
#638 = ORIENTED_EDGE ( 'NONE', *, *, #371, .F. ) ;
#639 = MECHANICAL_DESIGN_GEOMETRIC_PRESENTATION_REPRESENTATION (  '', ( #614 ), #714 ) ;
#640 = DIRECTION ( 'NONE',  ( 0.0000000000000000000, 1.000000000000000000, 0.0000000000000000000 ) ) ;
#641 = CARTESIAN_POINT ( 'NONE',  ( -0.7999999999999996003, 0.5999999999999998668, -0.4349999999999999978 ) ) ;
#642 = ORIENTED_EDGE ( 'NONE', *, *, #934, .T. ) ;
#643 = FACE_OUTER_BOUND ( 'NONE', #268, .T. ) ;
#644 = FACE_OUTER_BOUND ( 'NONE', #340, .T. ) ;
#645 = EDGE_LOOP ( 'NONE', ( #611, #177, #535, #49 ) ) ;
#646 = VECTOR ( 'NONE', #253, 1000.000000000000000 ) ;
#647 = ORIENTED_EDGE ( 'NONE', *, *, #605, .T. ) ;
#648 = CARTESIAN_POINT ( 'NONE',  ( 0.0000000000000000000, 0.0000000000000000000, -0.4349999999999999978 ) ) ;
#649 = CARTESIAN_POINT ( 'NONE',  ( 0.3499999999999995892, 6.234565522931969408E-17, -0.4349999999999999978 ) ) ;
#650 = STYLED_ITEM ( 'NONE', ( #449 ), #795 ) ;
#651 = DIRECTION ( 'NONE',  ( 1.246209393661499619E-16, -5.483534626540753502E-34, -1.000000000000000000 ) ) ;
#652 = ADVANCED_FACE ( 'NONE', ( #363 ), #448, .F. ) ;
#653 = DIRECTION ( 'NONE',  ( 1.000000000000000000, 0.0000000000000000000, 0.0000000000000000000 ) ) ;
#654 = EDGE_CURVE ( 'NONE', #761, #804, #707, .T. ) ;
#655 = ORIENTED_EDGE ( 'NONE', *, *, #766, .T. ) ;
#656 = SURFACE_STYLE_FILL_AREA ( #294 ) ;
#657 = VECTOR ( 'NONE', #494, 1000.000000000000000 ) ;
#658 = ORIENTED_EDGE ( 'NONE', *, *, #861, .T. ) ;
#659 = LINE ( 'NONE', #933, #920 ) ;
#660 = DIRECTION ( 'NONE',  ( 0.0000000000000000000, 0.0000000000000000000, 1.000000000000000000 ) ) ;
#661 = EDGE_CURVE ( 'NONE', #70, #761, #185, .T. ) ;
#662 = MECHANICAL_DESIGN_GEOMETRIC_PRESENTATION_REPRESENTATION (  '', ( #515 ), #901 ) ;
#663 = ORIENTED_EDGE ( 'NONE', *, *, #345, .T. ) ;
#664 = ORIENTED_EDGE ( 'NONE', *, *, #710, .F. ) ;
#665 = EDGE_CURVE ( 'NONE', #695, #250, #73, .T. ) ;
#666 = ORIENTED_EDGE ( 'NONE', *, *, #357, .T. ) ;
#667 = ORIENTED_EDGE ( 'NONE', *, *, #167, .T. ) ;
#668 = SURFACE_SIDE_STYLE ('',( #831 ) ) ;
#669 = FACE_OUTER_BOUND ( 'NONE', #182, .T. ) ;
#670 = ORIENTED_EDGE ( 'NONE', *, *, #170, .T. ) ;
#671 = CARTESIAN_POINT ( 'NONE',  ( -0.3499999999999997558, 1.146646765991823580, 0.4349999999999999978 ) ) ;
#672 = CARTESIAN_POINT ( 'NONE',  ( 0.7699999999999996847, 0.5699999999999999512, 0.4349999999999999978 ) ) ;
#673 = DIRECTION ( 'NONE',  ( 1.000000000000000000, -4.400171154567795880E-18, 0.0000000000000000000 ) ) ;
#674 = EDGE_CURVE ( 'NONE', #12, #433, #463, .T. ) ;
#675 = CARTESIAN_POINT ( 'NONE',  ( -0.3499999999999995892, 0.0000000000000000000, 0.4349999999999999978 ) ) ;
#676 = DIRECTION ( 'NONE',  ( -1.000000000000000000, 0.0000000000000000000, 0.0000000000000000000 ) ) ;
#677 = ORIENTED_EDGE ( 'NONE', *, *, #851, .F. ) ;
#678 = FILL_AREA_STYLE_COLOUR ( '', #928 ) ;
#679 = CARTESIAN_POINT ( 'NONE',  ( -0.7999999999999996003, 0.5999999999999998668, 0.4349999999999999978 ) ) ;
#680 = ADVANCED_FACE ( 'NONE', ( #623 ), #107, .T. ) ;
#681 = DIRECTION ( 'NONE',  ( -1.000000000000000000, 0.0000000000000000000, 0.0000000000000000000 ) ) ;
#682 = LINE ( 'NONE', #897, #735 ) ;
#683 = FACE_OUTER_BOUND ( 'NONE', #959, .T. ) ;
#684 = CARTESIAN_POINT ( 'NONE',  ( 0.3499999999999995892, 0.03000000000000001277, 0.4349999999999999978 ) ) ;
#685 = VECTOR ( 'NONE', #569, 1000.000000000000000 ) ;
#686 = PRESENTATION_LAYER_ASSIGNMENT (  '', '', ( #848 ) ) ;
#687 = DIRECTION ( 'NONE',  ( -0.0000000000000000000, 1.000000000000000000, -0.0000000000000000000 ) ) ;
#688 = VERTEX_POINT ( 'NONE', #181 ) ;
#689 = VECTOR ( 'NONE', #841, 1000.000000000000000 ) ;
#690 = CARTESIAN_POINT ( 'NONE',  ( 0.7699999999999996847, 0.02999999999999996420, 0.4349999999999999978 ) ) ;
#691 = PLANE ( 'NONE',  #442 ) ;
#692 = EDGE_CURVE ( 'NONE', #704, #70, #165, .T. ) ;
#693 = DIRECTION ( 'NONE',  ( 0.0000000000000000000, 1.000000000000000000, 0.0000000000000000000 ) ) ;
#694 = ORIENTED_EDGE ( 'NONE', *, *, #618, .F. ) ;
#695 = VERTEX_POINT ( 'NONE', #113 ) ;
#696 = VECTOR ( 'NONE', #549, 1000.000000000000000 ) ;
#697 = VERTEX_POINT ( 'NONE', #41 ) ;
#698 = EDGE_CURVE ( 'NONE', #48, #697, #805, .T. ) ;
#699 = VECTOR ( 'NONE', #546, 1000.000000000000000 ) ;
#700 = CARTESIAN_POINT ( 'NONE',  ( -0.3499999999999997002, 1.146646765991823580, -0.4349999999999999978 ) ) ;
#701 = SURFACE_STYLE_USAGE ( .BOTH. , #481 ) ;
#702 = CARTESIAN_POINT ( 'NONE',  ( 0.7699999999999996847, 0.02999999999999996420, -0.4349999999999999978 ) ) ;
#703 = AXIS2_PLACEMENT_3D ( 'NONE', #895, #110, #559 ) ;
#704 = VERTEX_POINT ( 'NONE', #259 ) ;
#705 = CARTESIAN_POINT ( 'NONE',  ( 0.3499999999999995892, 0.03000000000000001277, 0.4349999999999999978 ) ) ;
#706 = LINE ( 'NONE', #595, #507 ) ;
#707 = LINE ( 'NONE', #254, #311 ) ;
#708 = ORIENTED_EDGE ( 'NONE', *, *, #148, .T. ) ;
#709 = LINE ( 'NONE', #857, #870 ) ;
#710 = EDGE_CURVE ( 'NONE', #755, #343, #737, .T. ) ;
#711 = DIRECTION ( 'NONE',  ( 1.000000000000000000, -1.210047067506143201E-16, 0.0000000000000000000 ) ) ;
#712 = DIRECTION ( 'NONE',  ( 0.0000000000000000000, 1.000000000000000000, 0.0000000000000000000 ) ) ;
#713 = CARTESIAN_POINT ( 'NONE',  ( -0.7699999999999996847, 0.02999999999999996420, -2.066931371106027093 ) ) ;
#714 =( GEOMETRIC_REPRESENTATION_CONTEXT ( 3 ) GLOBAL_UNCERTAINTY_ASSIGNED_CONTEXT ( ( #337 ) ) GLOBAL_UNIT_ASSIGNED_CONTEXT ( ( #560, #246, #25 ) ) REPRESENTATION_CONTEXT ( 'NONE', 'WORKASPACE' ) );
#715 = CARTESIAN_POINT ( 'NONE',  ( -0.7699999999999996847, 0.5699999999999999512, -0.4349999999999999978 ) ) ;
#716 = ORIENTED_EDGE ( 'NONE', *, *, #572, .F. ) ;
#717 =( GEOMETRIC_REPRESENTATION_CONTEXT ( 3 ) GLOBAL_UNCERTAINTY_ASSIGNED_CONTEXT ( ( #52 ) ) GLOBAL_UNIT_ASSIGNED_CONTEXT ( ( #385, #908, #223 ) ) REPRESENTATION_CONTEXT ( 'NONE', 'WORKASPACE' ) );
#718 = VECTOR ( 'NONE', #752, 1000.000000000000000 ) ;
#719 = ORIENTED_EDGE ( 'NONE', *, *, #912, .T. ) ;
#720 = VECTOR ( 'NONE', #533, 1000.000000000000000 ) ;
#721 = DIRECTION ( 'NONE',  ( -0.0000000000000000000, -0.0000000000000000000, -1.000000000000000000 ) ) ;
#722 = EDGE_CURVE ( 'NONE', #186, #478, #548, .T. ) ;
#723 = CARTESIAN_POINT ( 'NONE',  ( -0.7699999999999996847, 0.02999999999999996420, -0.4350000000000000533 ) ) ;
#724 = EDGE_CURVE ( 'NONE', #697, #688, #832, .T. ) ;
#725 = ORIENTED_EDGE ( 'NONE', *, *, #323, .T. ) ;
#726 = CARTESIAN_POINT ( 'NONE',  ( 0.7999999999999996003, -9.797174393178821220E-17, 0.4349999999999999978 ) ) ;
#727 = EDGE_LOOP ( 'NONE', ( #362, #420, #527, #29 ) ) ;
#728 = LINE ( 'NONE', #61, #146 ) ;
#729 = LINE ( 'NONE', #154, #534 ) ;
#730 = ORIENTED_EDGE ( 'NONE', *, *, #459, .T. ) ;
#731 = PLANE ( 'NONE',  #119 ) ;
#732 = ADVANCED_FACE ( 'NONE', ( #51 ), #125, .F. ) ;
#733 = ORIENTED_EDGE ( 'NONE', *, *, #864, .T. ) ;
#734 = EDGE_LOOP ( 'NONE', ( #952, #92, #889, #725 ) ) ;
#735 = VECTOR ( 'NONE', #67, 1000.000000000000000 ) ;
#736 = VERTEX_POINT ( 'NONE', #588 ) ;
#737 = LINE ( 'NONE', #635, #818 ) ;
#738 = VECTOR ( 'NONE', #626, 1000.000000000000000 ) ;
#739 = EDGE_CURVE ( 'NONE', #736, #695, #407, .T. ) ;
#740 = DIRECTION ( 'NONE',  ( 1.781304435123422331E-16, -1.000000000000000000, 0.0000000000000000000 ) ) ;
#741 = DIRECTION ( 'NONE',  ( 2.177149865150849050E-16, 1.000000000000000000, 0.0000000000000000000 ) ) ;
#742 = CARTESIAN_POINT ( 'NONE',  ( 0.3499999999999996447, 0.5699999999999999512, -0.4349999999999999978 ) ) ;
#743 = VERTEX_POINT ( 'NONE', #943 ) ;
#744 = CARTESIAN_POINT ( 'NONE',  ( 0.7999999999999996003, 0.5999999999999998668, -0.4349999999999999978 ) ) ;
#745 = PRESENTATION_LAYER_ASSIGNMENT (  '', '', ( #650 ) ) ;
#746 = ORIENTED_EDGE ( 'NONE', *, *, #605, .F. ) ;
#747 = CARTESIAN_POINT ( 'NONE',  ( 0.7999999999999996003, 0.5999999999999998668, 0.4349999999999999978 ) ) ;
#748 =( LENGTH_UNIT ( ) NAMED_UNIT ( * ) SI_UNIT ( .MILLI., .METRE. ) );
#749 = VECTOR ( 'NONE', #139, 1000.000000000000000 ) ;
#750 = ORIENTED_EDGE ( 'NONE', *, *, #661, .F. ) ;
#751 = DIRECTION ( 'NONE',  ( -0.0000000000000000000, -0.0000000000000000000, -1.000000000000000000 ) ) ;
#752 = DIRECTION ( 'NONE',  ( 0.0000000000000000000, -0.0000000000000000000, -1.000000000000000000 ) ) ;
#753 = EDGE_CURVE ( 'NONE', #796, #444, #50, .T. ) ;
#754 = DIRECTION ( 'NONE',  ( 1.000000000000000000, -4.400171154567795880E-18, 0.0000000000000000000 ) ) ;
#755 = VERTEX_POINT ( 'NONE', #798 ) ;
#756 = CARTESIAN_POINT ( 'NONE',  ( 0.3499999999999992562, 1.146646765991823580, 0.4349999999999999423 ) ) ;
#757 = ORIENTED_EDGE ( 'NONE', *, *, #698, .F. ) ;
#758 = CARTESIAN_POINT ( 'NONE',  ( -0.7699999999999996847, 0.02999999999999996420, -2.066931371106027093 ) ) ;
#759 = ORIENTED_EDGE ( 'NONE', *, *, #32, .F. ) ;
#760 = LINE ( 'NONE', #713, #685 ) ;
#761 = VERTEX_POINT ( 'NONE', #47 ) ;
#762 = FACE_OUTER_BOUND ( 'NONE', #833, .T. ) ;
#763 = DIRECTION ( 'NONE',  ( 0.0000000000000000000, 1.000000000000000000, 0.0000000000000000000 ) ) ;
#764 = DIRECTION ( 'NONE',  ( 1.000000000000000000, 1.781304435123422331E-16, 1.246209393661499619E-16 ) ) ;
#765 = CARTESIAN_POINT ( 'NONE',  ( 0.3499999999999995892, 0.03000000000000001277, 0.4349999999999999978 ) ) ;
#766 = EDGE_CURVE ( 'NONE', #562, #164, #877, .T. ) ;
#767 = ORIENTED_EDGE ( 'NONE', *, *, #625, .T. ) ;
#768 = ORIENTED_EDGE ( 'NONE', *, *, #126, .T. ) ;
#769 = ORIENTED_EDGE ( 'NONE', *, *, #909, .T. ) ;
#770 = DIRECTION ( 'NONE',  ( -1.000000000000000000, -0.0000000000000000000, -0.0000000000000000000 ) ) ;
#771 = ORIENTED_EDGE ( 'NONE', *, *, #263, .F. ) ;
#772 = DIRECTION ( 'NONE',  ( 1.000000000000000000, 0.0000000000000000000, 0.0000000000000000000 ) ) ;
#773 = MECHANICAL_DESIGN_GEOMETRIC_PRESENTATION_REPRESENTATION (  '', ( #848 ), #516 ) ;
#774 = CARTESIAN_POINT ( 'NONE',  ( -0.3499999999999996447, 0.5699999999999999512, 0.4349999999999999978 ) ) ;
#775 = EDGE_CURVE ( 'NONE', #938, #211, #325, .T. ) ;
#776 = DIRECTION ( 'NONE',  ( -0.0000000000000000000, -0.0000000000000000000, -1.000000000000000000 ) ) ;
#777 = AXIS2_PLACEMENT_3D ( 'NONE', #395, #484, #482 ) ;
#778 = EDGE_LOOP ( 'NONE', ( #123, #820, #243, #642 ) ) ;
#779 = DIRECTION ( 'NONE',  ( 0.0000000000000000000, 0.0000000000000000000, 1.000000000000000000 ) ) ;
#780 = LINE ( 'NONE', #470, #267 ) ;
#781 = FACE_OUTER_BOUND ( 'NONE', #941, .T. ) ;
#782 = ORIENTED_EDGE ( 'NONE', *, *, #864, .F. ) ;
#783 = LINE ( 'NONE', #34, #631 ) ;
#784 = EDGE_CURVE ( 'NONE', #184, #555, #282, .T. ) ;
#785 = DIRECTION ( 'NONE',  ( 0.0000000000000000000, 0.0000000000000000000, 1.000000000000000000 ) ) ;
#786 = CARTESIAN_POINT ( 'NONE',  ( -0.7699999999999996847, 0.02999999999999996420, -0.4350000000000000533 ) ) ;
#787 = CARTESIAN_POINT ( 'NONE',  ( -0.7699999999999997957, 0.5699999999999999512, 0.4349999999999999978 ) ) ;
#788 = ADVANCED_FACE ( 'NONE', ( #844 ), #801, .T. ) ;
#789 = ORIENTED_EDGE ( 'NONE', *, *, #307, .T. ) ;
#790 = PRESENTATION_STYLE_ASSIGNMENT (( #701 ) ) ;
#791 = EDGE_LOOP ( 'NONE', ( #843, #111, #930, #480 ) ) ;
#792 = CARTESIAN_POINT ( 'NONE',  ( 0.3499999999999996447, 0.5999999999999998668, 0.4349999999999999978 ) ) ;
#793 = ADVANCED_FACE ( 'NONE', ( #197 ), #731, .F. ) ;
#794 = LINE ( 'NONE', #747, #198 ) ;
#795 = MANIFOLD_SOLID_BREP ( 'Boss-Extrude4', #83 ) ;
#796 = VERTEX_POINT ( 'NONE', #290 ) ;
#797 = MECHANICAL_DESIGN_GEOMETRIC_PRESENTATION_REPRESENTATION (  '', ( #650 ), #383 ) ;
#798 = CARTESIAN_POINT ( 'NONE',  ( -0.7699999999999996847, 0.5699999999999999512, 0.4349999999999999978 ) ) ;
#799 = CARTESIAN_POINT ( 'NONE',  ( -0.3499999999999997558, 1.146646765991823580, 0.4349999999999999978 ) ) ;
#800 = EDGE_CURVE ( 'NONE', #164, #884, #629, .T. ) ;
#801 = PLANE ( 'NONE',  #102 ) ;
#802 = ORIENTED_EDGE ( 'NONE', *, *, #496, .F. ) ;
#803 = LINE ( 'NONE', #582, #330 ) ;
#804 = VERTEX_POINT ( 'NONE', #821 ) ;
#805 = LINE ( 'NONE', #501, #951 ) ;
#806 = ORIENTED_EDGE ( 'NONE', *, *, #625, .F. ) ;
#807 = CARTESIAN_POINT ( 'NONE',  ( 0.3499999999999992562, 1.146646765991823580, 0.4349999999999999423 ) ) ;
#808 = ADVANCED_FACE ( 'NONE', ( #60 ), #810, .F. ) ;
#809 = PRESENTATION_LAYER_ASSIGNMENT (  '', '', ( #515 ) ) ;
#810 = PLANE ( 'NONE',  #872 ) ;
#811 = MANIFOLD_SOLID_BREP ( 'Boss-Extrude1', #193 ) ;
#812 = EDGE_CURVE ( 'NONE', #697, #184, #375, .T. ) ;
#813 = ORIENTED_EDGE ( 'NONE', *, *, #828, .F. ) ;
#814 = LINE ( 'NONE', #616, #361 ) ;
#815 = CARTESIAN_POINT ( 'NONE',  ( 0.7999999999999996003, 0.5999999999999998668, 0.4349999999999999978 ) ) ;
#816 = ORIENTED_EDGE ( 'NONE', *, *, #839, .F. ) ;
#817 = COLOUR_RGB ( '',0.7921568627450980005, 0.8196078431372548767, 0.9333333333333333481 ) ;
#818 = VECTOR ( 'NONE', #653, 1000.000000000000000 ) ;
#819 = DIRECTION ( 'NONE',  ( -0.0000000000000000000, 1.000000000000000000, -0.0000000000000000000 ) ) ;
#820 = ORIENTED_EDGE ( 'NONE', *, *, #288, .F. ) ;
#821 = CARTESIAN_POINT ( 'NONE',  ( -0.7699999999999996847, 0.02999999999999996420, 0.4349999999999999978 ) ) ;
#822 = CARTESIAN_POINT ( 'NONE',  ( -0.7699999999999996847, 0.02999999999999996420, -2.066931371106027093 ) ) ;
#823 = CARTESIAN_POINT ( 'NONE',  ( 0.3499999999999995892, 0.0000000000000000000, -0.4349999999999999978 ) ) ;
#824 = PLANE ( 'NONE',  #15 ) ;
#825 = DIRECTION ( 'NONE',  ( -1.000000000000000000, 0.0000000000000000000, 0.0000000000000000000 ) ) ;
#826 = FILL_AREA_STYLE_COLOUR ( '', #143 ) ;
#827 = PRODUCT_DEFINITION_SHAPE ( 'NONE', 'NONE',  #33 ) ;
#828 = EDGE_CURVE ( 'NONE', #498, #53, #247, .T. ) ;
#829 = CARTESIAN_POINT ( 'NONE',  ( -0.7699999999999996847, 0.02999999999999996420, 0.4349999999999999978 ) ) ;
#830 = CARTESIAN_POINT ( 'NONE',  ( -0.7999999999999996003, -9.797174393178821220E-17, 0.4349999999999999978 ) ) ;
#831 = SURFACE_STYLE_FILL_AREA ( #135 ) ;
#832 = LINE ( 'NONE', #208, #521 ) ;
#833 = EDGE_LOOP ( 'NONE', ( #38, #87, #295, #927, #40, #274, #767, #719 ) ) ;
#834 = LINE ( 'NONE', #774, #335 ) ;
#835 = CARTESIAN_POINT ( 'NONE',  ( -0.7999999999999996003, -9.797174393178821220E-17, 0.4349999999999999978 ) ) ;
#836 = DIRECTION ( 'NONE',  ( 0.0000000000000000000, 1.000000000000000000, 0.0000000000000000000 ) ) ;
#837 = CARTESIAN_POINT ( 'NONE',  ( -0.7999999999999996003, -9.797174393178821220E-17, 0.4349999999999999978 ) ) ;
#838 = PLANE ( 'NONE',  #777 ) ;
#839 = EDGE_CURVE ( 'NONE', #53, #938, #175, .T. ) ;
#840 = CARTESIAN_POINT ( 'NONE',  ( 0.7999999999999996003, -9.797174393178821220E-17, -0.4349999999999999978 ) ) ;
#841 = DIRECTION ( 'NONE',  ( 1.000000000000000000, 2.177149865150849050E-16, -0.0000000000000000000 ) ) ;
#842 = LINE ( 'NONE', #829, #390 ) ;
#843 = ORIENTED_EDGE ( 'NONE', *, *, #292, .F. ) ;
#844 = FACE_OUTER_BOUND ( 'NONE', #477, .T. ) ;
#845 = LINE ( 'NONE', #327, #258 ) ;
#846 = ORIENTED_EDGE ( 'NONE', *, *, #508, .F. ) ;
#847 = CARTESIAN_POINT ( 'NONE',  ( -0.3499999999999997002, 0.02999999999999986011, -0.4349999999999999978 ) ) ;
#848 = STYLED_ITEM ( 'NONE', ( #574 ), #811 ) ;
#849 = CARTESIAN_POINT ( 'NONE',  ( 0.3499999999999995892, 0.0000000000000000000, 0.4349999999999999978 ) ) ;
#850 = FACE_OUTER_BOUND ( 'NONE', #358, .T. ) ;
#851 = EDGE_CURVE ( 'NONE', #743, #57, #887, .T. ) ;
#852 = LINE ( 'NONE', #837, #332 ) ;
#853 = DIRECTION ( 'NONE',  ( -1.000000000000000000, 0.0000000000000000000, 0.0000000000000000000 ) ) ;
#854 = ORIENTED_EDGE ( 'NONE', *, *, #557, .T. ) ;
#855 = FACE_OUTER_BOUND ( 'NONE', #734, .T. ) ;
#856 = AXIS2_PLACEMENT_3D ( 'NONE', #396, #910, #772 ) ;
#857 = CARTESIAN_POINT ( 'NONE',  ( -0.3499999999999995892, 0.03000000000000001277, -0.4349999999999999978 ) ) ;
#858 = DIRECTION ( 'NONE',  ( 0.0000000000000000000, 1.000000000000000000, 0.0000000000000000000 ) ) ;
#859 = EDGE_LOOP ( 'NONE', ( #194, #461, #926, #869 ) ) ;
#860 = VECTOR ( 'NONE', #203, 1000.000000000000000 ) ;
#861 = EDGE_CURVE ( 'NONE', #704, #186, #706, .T. ) ;
#862 = CARTESIAN_POINT ( 'NONE',  ( -0.7999999999999996003, -9.797174393178821220E-17, -0.4349999999999999978 ) ) ;
#863 = ADVANCED_FACE ( 'NONE', ( #683 ), #961, .F. ) ;
#864 = EDGE_CURVE ( 'NONE', #695, #53, #120, .T. ) ;
#865 = CARTESIAN_POINT ( 'NONE',  ( 0.3499999999999994782, 0.02999999999999986011, 0.4349999999999999423 ) ) ;
#866 = EDGE_LOOP ( 'NONE', ( #552, #658, #305, #750 ) ) ;
#867 = LINE ( 'NONE', #84, #476 ) ;
#868 = LINE ( 'NONE', #538, #233 ) ;
#869 = ORIENTED_EDGE ( 'NONE', *, *, #654, .F. ) ;
#870 = VECTOR ( 'NONE', #486, 1000.000000000000000 ) ;
#871 = ADVANCED_FACE ( 'NONE', ( #850 ), #298, .F. ) ;
#872 = AXIS2_PLACEMENT_3D ( 'NONE', #364, #956, #518 ) ;
#873 = ADVANCED_FACE ( 'NONE', ( #488 ), #610, .T. ) ;
#874 = ORIENTED_EDGE ( 'NONE', *, *, #232, .T. ) ;
#875 = ORIENTED_EDGE ( 'NONE', *, *, #879, .F. ) ;
#876 = ORIENTED_EDGE ( 'NONE', *, *, #861, .F. ) ;
#877 = LINE ( 'NONE', #121, #860 ) ;
#878 = SURFACE_STYLE_USAGE ( .BOTH. , #668 ) ;
#879 = EDGE_CURVE ( 'NONE', #444, #403, #372, .T. ) ;
#880 = DIRECTION ( 'NONE',  ( -1.000000000000000000, 0.0000000000000000000, 0.0000000000000000000 ) ) ;
#881 = AXIS2_PLACEMENT_3D ( 'NONE', #690, #88, #388 ) ;
#882 = DIRECTION ( 'NONE',  ( 0.0000000000000000000, 0.0000000000000000000, -1.000000000000000000 ) ) ;
#883 = CARTESIAN_POINT ( 'NONE',  ( 0.7699999999999996847, 0.02999999999999996420, 0.4349999999999999978 ) ) ;
#884 = VERTEX_POINT ( 'NONE', #840 ) ;
#885 = DIRECTION ( 'NONE',  ( 0.0000000000000000000, 0.0000000000000000000, 1.000000000000000000 ) ) ;
#886 = SURFACE_STYLE_FILL_AREA ( #958 ) ;
#887 = LINE ( 'NONE', #214, #720 ) ;
#888 = LINE ( 'NONE', #823, #918 ) ;
#889 = ORIENTED_EDGE ( 'NONE', *, *, #475, .F. ) ;
#890 = ADVANCED_FACE ( 'NONE', ( #427 ), #80, .F. ) ;
#891 = VECTOR ( 'NONE', #423, 1000.000000000000000 ) ;
#892 = CARTESIAN_POINT ( 'NONE',  ( -0.7999999999999996003, -9.797174393178821220E-17, -0.4349999999999999978 ) ) ;
#893 = DIRECTION ( 'NONE',  ( 0.0000000000000000000, -0.0000000000000000000, -1.000000000000000000 ) ) ;
#894 = EDGE_CURVE ( 'NONE', #59, #284, #351, .T. ) ;
#895 = CARTESIAN_POINT ( 'NONE',  ( -0.3499999999999995892, 0.03000000000000001277, 0.4349999999999999978 ) ) ;
#896 = PLANE ( 'NONE',  #190 ) ;
#897 = CARTESIAN_POINT ( 'NONE',  ( -0.3499999999999996447, 0.5999999999999998668, 0.4349999999999999978 ) ) ;
#898 = CARTESIAN_POINT ( 'NONE',  ( 0.0000000000000000000, 0.0000000000000000000, 0.4349999999999999978 ) ) ;
#899 = ORIENTED_EDGE ( 'NONE', *, *, #851, .T. ) ;
#900 = CARTESIAN_POINT ( 'NONE',  ( 0.3499999999999996447, 0.5999999999999998668, -0.4349999999999999978 ) ) ;
#901 =( GEOMETRIC_REPRESENTATION_CONTEXT ( 3 ) GLOBAL_UNCERTAINTY_ASSIGNED_CONTEXT ( ( #381 ) ) GLOBAL_UNIT_ASSIGNED_CONTEXT ( ( #251, #550, #89 ) ) REPRESENTATION_CONTEXT ( 'NONE', 'WORKASPACE' ) );
#902 = ORIENTED_EDGE ( 'NONE', *, *, #812, .F. ) ;
#903 = LINE ( 'NONE', #138, #487 ) ;
#904 = VECTOR ( 'NONE', #319, 1000.000000000000000 ) ;
#905 = ORIENTED_EDGE ( 'NONE', *, *, #493, .F. ) ;
#906 = VECTOR ( 'NONE', #921, 1000.000000000000000 ) ;
#907 = PLANE ( 'NONE',  #240 ) ;
#908 =( NAMED_UNIT ( * ) PLANE_ANGLE_UNIT ( ) SI_UNIT ( $, .RADIAN. ) );
#909 = EDGE_CURVE ( 'NONE', #433, #303, #207, .T. ) ;
#910 = DIRECTION ( 'NONE',  ( 0.0000000000000000000, 0.0000000000000000000, 1.000000000000000000 ) ) ;
#911 = ORIENTED_EDGE ( 'NONE', *, *, #839, .T. ) ;
#912 = EDGE_CURVE ( 'NONE', #145, #12, #419, .T. ) ;
#913 = CARTESIAN_POINT ( 'NONE',  ( 0.7699999999999996847, 0.5699999999999999512, 0.4349999999999999978 ) ) ;
#914 = ORIENTED_EDGE ( 'NONE', *, *, #912, .F. ) ;
#915 = FACE_OUTER_BOUND ( 'NONE', #21, .T. ) ;
#916 = VECTOR ( 'NONE', #380, 1000.000000000000000 ) ;
#917 = DIRECTION ( 'NONE',  ( -1.000000000000000000, -0.0000000000000000000, -0.0000000000000000000 ) ) ;
#918 = VECTOR ( 'NONE', #234, 1000.000000000000000 ) ;
#919 = EDGE_LOOP ( 'NONE', ( #447, #129, #874, #519 ) ) ;
#920 = VECTOR ( 'NONE', #711, 1000.000000000000000 ) ;
#921 = DIRECTION ( 'NONE',  ( 1.000000000000000000, -4.400171154567795880E-18, -7.744301232039330240E-17 ) ) ;
#922 = CARTESIAN_POINT ( 'NONE',  ( -0.7699999999999996847, 0.02999999999999996420, -0.4349999999999999978 ) ) ;
#923 = PLANE ( 'NONE',  #945 ) ;
#924 = APPLICATION_CONTEXT ( 'automotive_design' ) ;
#925 = CARTESIAN_POINT ( 'NONE',  ( -0.7699999999999996847, 0.02999999999999996420, 0.4349999999999999978 ) ) ;
#926 = ORIENTED_EDGE ( 'NONE', *, *, #468, .T. ) ;
#927 = ORIENTED_EDGE ( 'NONE', *, *, #710, .T. ) ;
#928 = COLOUR_RGB ( '',0.7921568627450980005, 0.8196078431372548767, 0.9333333333333333481 ) ;
#929 = AXIS2_PLACEMENT_3D ( 'NONE', #604, #306, #673 ) ;
#930 = ORIENTED_EDGE ( 'NONE', *, *, #784, .T. ) ;
#931 = VECTOR ( 'NONE', #271, 1000.000000000000000 ) ;
#932 = LINE ( 'NONE', #715, #54 ) ;
#933 = CARTESIAN_POINT ( 'NONE',  ( 0.3499999999999995892, 0.03000000000000001277, -0.4349999999999999978 ) ) ;
#934 = EDGE_CURVE ( 'NONE', #444, #884, #554, .T. ) ;
#935 = CARTESIAN_POINT ( 'NONE',  ( -0.3499999999999995892, 0.03000000000000001277, 0.4349999999999999978 ) ) ;
#936 = CARTESIAN_POINT ( 'NONE',  ( 0.3499999999999995892, 0.03000000000000001277, 0.4349999999999999978 ) ) ;
#937 = EDGE_LOOP ( 'NONE', ( #18, #430, #174, #352 ) ) ;
#938 = VERTEX_POINT ( 'NONE', #316 ) ;
#939 = ADVANCED_FACE ( 'NONE', ( #644 ), #896, .T. ) ;
#940 = LINE ( 'NONE', #36, #509 ) ;
#941 = EDGE_LOOP ( 'NONE', ( #437, #771, #670, #573 ) ) ;
#942 = DIRECTION ( 'NONE',  ( 0.0000000000000000000, 1.000000000000000000, 0.0000000000000000000 ) ) ;
#943 = CARTESIAN_POINT ( 'NONE',  ( -0.3499999999999996447, 0.5699999999999999512, -0.4349999999999999978 ) ) ;
#944 = ADVANCED_FACE ( 'NONE', ( #446 ), #472, .T. ) ;
#945 = AXIS2_PLACEMENT_3D ( 'NONE', #898, #161, #11 ) ;
#946 = CARTESIAN_POINT ( 'NONE',  ( 0.3499999999999996447, 0.5999999999999998668, 0.4349999999999999978 ) ) ;
#947 = VERTEX_POINT ( 'NONE', #321 ) ;
#948 = LINE ( 'NONE', #883, #109 ) ;
#949 = DIRECTION ( 'NONE',  ( 0.0000000000000000000, -0.0000000000000000000, -1.000000000000000000 ) ) ;
#950 = ORIENTED_EDGE ( 'NONE', *, *, #76, .F. ) ;
#951 = VECTOR ( 'NONE', #640, 1000.000000000000000 ) ;
#952 = ORIENTED_EDGE ( 'NONE', *, *, #39, .T. ) ;
#953 = AXIS2_PLACEMENT_3D ( 'NONE', #960, #65, #300 ) ;
#954 = FILL_AREA_STYLE_COLOUR ( '', #817 ) ;
#955 = EDGE_CURVE ( 'NONE', #250, #257, #814, .T. ) ;
#956 = DIRECTION ( 'NONE',  ( 0.0000000000000000000, 0.0000000000000000000, -1.000000000000000000 ) ) ;
#957 = VERTEX_POINT ( 'NONE', #892 ) ;
#958 = FILL_AREA_STYLE ('',( #678 ) ) ;
#959 = EDGE_LOOP ( 'NONE', ( #899, #235, #324, #666 ) ) ;
#960 = CARTESIAN_POINT ( 'NONE',  ( 0.7699999999999996847, 0.02999999999999995726, -2.066931371106027093 ) ) ;
#961 = PLANE ( 'NONE',  #96 ) ;
ENDSEC;
END-ISO-10303-21;
