%TF.GenerationSoftware,KiCad,Pcbnew,9.0.7*%
%TF.CreationDate,2026-03-01T16:53:15-06:00*%
%TF.ProjectId,fpga_interconnect,66706761-5f69-46e7-9465-72636f6e6e65,rev?*%
%TF.SameCoordinates,Original*%
%TF.FileFunction,Copper,L2,Bot*%
%TF.FilePolarity,Positive*%
%FSLAX46Y46*%
G04 Gerber Fmt 4.6, Leading zero omitted, Abs format (unit mm)*
G04 Created by KiCad (PCBNEW 9.0.7) date 2026-03-01 16:53:15*
%MOMM*%
%LPD*%
G01*
G04 APERTURE LIST*
%TA.AperFunction,ComponentPad*%
%ADD10C,1.650000*%
%TD*%
%TA.AperFunction,ComponentPad*%
%ADD11R,1.650000X1.650000*%
%TD*%
%TA.AperFunction,ComponentPad*%
%ADD12C,4.800000*%
%TD*%
%TA.AperFunction,ComponentPad*%
%ADD13C,1.500000*%
%TD*%
%TA.AperFunction,ComponentPad*%
%ADD14R,1.500000X1.500000*%
%TD*%
%TA.AperFunction,ViaPad*%
%ADD15C,0.600000*%
%TD*%
G04 APERTURE END LIST*
D10*
%TO.P,J2,12,12*%
%TO.N,/PDATA6*%
X169400000Y-81220000D03*
%TO.P,J2,11,11*%
%TO.N,/PDATA5*%
X171940000Y-81220000D03*
%TO.P,J2,10,10*%
%TO.N,/PDATA1*%
X169400000Y-83760000D03*
%TO.P,J2,9,9*%
%TO.N,/PDATA0*%
X171940000Y-83760000D03*
%TO.P,J2,8,8*%
%TO.N,/PDATA2*%
X169400000Y-86300000D03*
%TO.P,J2,7,7*%
%TO.N,/PDATA7*%
X171940000Y-86300000D03*
%TO.P,J2,6,6*%
%TO.N,/PDATA4*%
X169400000Y-88840000D03*
%TO.P,J2,5,5*%
%TO.N,/PDATA3*%
X171940000Y-88840000D03*
%TO.P,J2,4,4*%
%TO.N,GND*%
X169400000Y-91380000D03*
%TO.P,J2,3,3*%
X171940000Y-91380000D03*
%TO.P,J2,2,2*%
%TO.N,unconnected-(J2-Pad2)*%
X169400000Y-93920000D03*
D11*
%TO.P,J2,1,1*%
%TO.N,unconnected-(J2-Pad1)*%
X171940000Y-93920000D03*
%TD*%
D12*
%TO.P,J1,MH2*%
%TO.N,GND*%
X179000000Y-109580000D03*
%TO.P,J1,MH1*%
X179000000Y-84590000D03*
D13*
%TO.P,J1,15,15*%
X181540000Y-101935000D03*
%TO.P,J1,14,14*%
%TO.N,/IIC1_SDA*%
X181540000Y-99645000D03*
%TO.P,J1,13,13*%
%TO.N,/IIC1_SCL*%
X181540000Y-97355000D03*
%TO.P,J1,12,12*%
%TO.N,/DATAEN_CMD*%
X181540000Y-95065000D03*
%TO.P,J1,11,11*%
%TO.N,/HSYNC*%
X181540000Y-92775000D03*
%TO.P,J1,10,10*%
%TO.N,/VSYNC*%
X179000000Y-100790000D03*
%TO.P,J1,9,9*%
%TO.N,/PCLK*%
X179000000Y-98500000D03*
%TO.P,J1,8,8*%
%TO.N,/PDATA7*%
X179000000Y-96210000D03*
%TO.P,J1,7,7*%
%TO.N,/PDATA6*%
X179000000Y-93920000D03*
%TO.P,J1,6,6*%
%TO.N,/PDATA5*%
X179000000Y-91630000D03*
%TO.P,J1,5,5*%
%TO.N,/PDATA4*%
X176460000Y-101935000D03*
%TO.P,J1,4,4*%
%TO.N,/PDATA3*%
X176460000Y-99645000D03*
%TO.P,J1,3,3*%
%TO.N,/PDATA2*%
X176460000Y-97355000D03*
%TO.P,J1,2,2*%
%TO.N,/PDATA1*%
X176460000Y-95065000D03*
D14*
%TO.P,J1,1,1*%
%TO.N,/PDATA0*%
X176460000Y-92775000D03*
%TD*%
D11*
%TO.P,J3,1,1*%
%TO.N,unconnected-(J3-Pad1)*%
X171940000Y-116780000D03*
D10*
%TO.P,J3,2,2*%
%TO.N,unconnected-(J3-Pad2)*%
X169400000Y-116780000D03*
%TO.P,J3,3,3*%
%TO.N,GND*%
X171940000Y-114240000D03*
%TO.P,J3,4,4*%
X169400000Y-114240000D03*
%TO.P,J3,5,5*%
%TO.N,/DATAEN_CMD*%
X171940000Y-111700000D03*
%TO.P,J3,6,6*%
%TO.N,/HSYNC*%
X169400000Y-111700000D03*
%TO.P,J3,7,7*%
%TO.N,/IIC1_SCL*%
X171940000Y-109160000D03*
%TO.P,J3,8,8*%
%TO.N,GND*%
X169400000Y-109160000D03*
%TO.P,J3,9,9*%
X171940000Y-106620000D03*
%TO.P,J3,10,10*%
%TO.N,/IIC1_SDA*%
X169400000Y-106620000D03*
%TO.P,J3,11,11*%
%TO.N,/VSYNC*%
X171940000Y-104080000D03*
%TO.P,J3,12,12*%
%TO.N,/PCLK*%
X169400000Y-104080000D03*
%TD*%
D15*
%TO.N,GND*%
X173500000Y-122500000D03*
X173500000Y-121000000D03*
X182500000Y-122500000D03*
X184000000Y-122500000D03*
X182500000Y-121000000D03*
X182500000Y-119500000D03*
X182500000Y-116450000D03*
X182500000Y-117950000D03*
X165500000Y-83000000D03*
X165500000Y-87500000D03*
X167000000Y-87500000D03*
X165500000Y-96500000D03*
X165500000Y-93500000D03*
X165500000Y-90500000D03*
X167000000Y-84500000D03*
X167000000Y-92000000D03*
X167000000Y-93500000D03*
X165500000Y-84500000D03*
X165500000Y-98000000D03*
X165500000Y-95000000D03*
X167000000Y-83000000D03*
X167000000Y-96500000D03*
X165500000Y-86000000D03*
X165500000Y-89000000D03*
X167000000Y-81500000D03*
X165500000Y-81500000D03*
X167000000Y-90500000D03*
X167000000Y-89000000D03*
X167000000Y-86000000D03*
X167000000Y-98000000D03*
X165500000Y-92000000D03*
X167000000Y-95000000D03*
X166000000Y-104500000D03*
X166000000Y-109000000D03*
X167500000Y-109000000D03*
X166000000Y-118000000D03*
X166000000Y-115000000D03*
X166000000Y-112000000D03*
X167500000Y-106000000D03*
X167500000Y-113500000D03*
X167500000Y-115000000D03*
X166000000Y-106000000D03*
X166000000Y-119500000D03*
X166000000Y-116500000D03*
X167500000Y-104500000D03*
X167500000Y-118000000D03*
X166000000Y-107500000D03*
X166000000Y-110500000D03*
X167500000Y-103000000D03*
X166000000Y-103000000D03*
X167500000Y-112000000D03*
X167500000Y-110500000D03*
X167500000Y-107500000D03*
X167500000Y-119500000D03*
X166000000Y-113500000D03*
X167500000Y-116500000D03*
X166500000Y-76200000D03*
X169500000Y-76200000D03*
X168000000Y-76200000D03*
X168000000Y-79200000D03*
X168000000Y-77700000D03*
X166500000Y-79200000D03*
X169500000Y-79200000D03*
X169500000Y-77700000D03*
X166500000Y-77700000D03*
X189000000Y-76200000D03*
X187500000Y-76200000D03*
X183000000Y-76200000D03*
X172500000Y-76200000D03*
X181500000Y-76200000D03*
X171000000Y-76200000D03*
X174000000Y-76200000D03*
X186000000Y-76200000D03*
X184500000Y-76200000D03*
X171500000Y-101000000D03*
X170000000Y-101000000D03*
X167000000Y-101000000D03*
X165500000Y-101000000D03*
X168500000Y-101000000D03*
X168500000Y-99500000D03*
X165500000Y-99500000D03*
X167000000Y-99500000D03*
X171500000Y-99500000D03*
X170000000Y-99500000D03*
X169000000Y-122500000D03*
X166000000Y-122500000D03*
X167500000Y-122500000D03*
X172000000Y-122500000D03*
X170500000Y-122500000D03*
X172000000Y-121000000D03*
X170500000Y-121000000D03*
X169000000Y-121000000D03*
X167500000Y-121000000D03*
X166000000Y-121000000D03*
X188500000Y-122750000D03*
X185500000Y-122750000D03*
X187000000Y-122750000D03*
X188500000Y-121250000D03*
X187000000Y-121250000D03*
X185500000Y-119750000D03*
X184000000Y-119750000D03*
X185500000Y-121250000D03*
X184000000Y-121250000D03*
X187000000Y-119750000D03*
X188500000Y-119750000D03*
X188500000Y-116700000D03*
X189000000Y-109200000D03*
X189000000Y-91200000D03*
X187500000Y-83700000D03*
X187500000Y-106200000D03*
X189000000Y-112200000D03*
X189000000Y-100200000D03*
X187500000Y-80700000D03*
X187500000Y-94200000D03*
X187500000Y-92700000D03*
X189000000Y-103200000D03*
X189000000Y-104700000D03*
X189000000Y-77700000D03*
X187500000Y-89700000D03*
X187000000Y-116700000D03*
X186000000Y-77700000D03*
X184500000Y-89700000D03*
X175500000Y-110700000D03*
X175500000Y-106700000D03*
X184000000Y-118200000D03*
X184500000Y-80700000D03*
X183000000Y-86700000D03*
X183000000Y-91200000D03*
X171000000Y-77700000D03*
X185000000Y-115200000D03*
X184500000Y-83700000D03*
X186000000Y-91200000D03*
X181500000Y-80700000D03*
X184500000Y-92700000D03*
X181500000Y-88200000D03*
X174000000Y-77700000D03*
X183000000Y-83700000D03*
X180000000Y-80700000D03*
X184500000Y-94200000D03*
X181500000Y-82200000D03*
X182000000Y-112950000D03*
X184500000Y-79200000D03*
X186000000Y-88200000D03*
X180000000Y-88200000D03*
X186000000Y-86700000D03*
X181500000Y-89700000D03*
X180000000Y-89700000D03*
X178500000Y-79200000D03*
X186000000Y-79200000D03*
X180000000Y-79200000D03*
X183000000Y-82200000D03*
X181500000Y-104200000D03*
X183000000Y-77700000D03*
X185500000Y-118200000D03*
X184500000Y-85200000D03*
X184500000Y-88200000D03*
X186500000Y-113700000D03*
X182700000Y-108050000D03*
X186000000Y-95700000D03*
X183000000Y-89700000D03*
X174000000Y-79200000D03*
X175500000Y-79200000D03*
X174000000Y-106700000D03*
X177000000Y-80700000D03*
X174000000Y-110700000D03*
X184500000Y-91200000D03*
X186000000Y-82200000D03*
X186000000Y-94200000D03*
X183000000Y-88200000D03*
X184250000Y-110700000D03*
X174000000Y-108200000D03*
X183000000Y-80700000D03*
X186500000Y-115200000D03*
X184500000Y-82200000D03*
X171000000Y-79200000D03*
X184000000Y-116700000D03*
X181500000Y-79200000D03*
X172500000Y-77700000D03*
X177000000Y-79200000D03*
X181500000Y-86700000D03*
X172500000Y-79200000D03*
X183000000Y-85200000D03*
X180750000Y-113950000D03*
X184500000Y-77700000D03*
X183000000Y-79200000D03*
X178500000Y-80700000D03*
X186000000Y-89700000D03*
X186000000Y-85200000D03*
X186000000Y-92700000D03*
X178500000Y-88200000D03*
X186000000Y-83700000D03*
X186000000Y-80700000D03*
X181200000Y-105500000D03*
X184500000Y-86700000D03*
X183000000Y-111950000D03*
X181500000Y-77700000D03*
X185500000Y-116700000D03*
X187000000Y-118200000D03*
X188000000Y-115200000D03*
X188500000Y-118200000D03*
X189500000Y-113700000D03*
X188000000Y-113700000D03*
X187500000Y-95700000D03*
X187500000Y-88200000D03*
X187500000Y-91200000D03*
X189000000Y-95700000D03*
X187500000Y-85200000D03*
X189000000Y-88200000D03*
X187500000Y-79200000D03*
X189000000Y-86700000D03*
X189000000Y-79200000D03*
X189000000Y-85200000D03*
X189000000Y-89700000D03*
X187500000Y-86700000D03*
X189000000Y-92700000D03*
X189000000Y-83700000D03*
X189000000Y-80700000D03*
X189000000Y-94200000D03*
X189000000Y-82200000D03*
X187500000Y-82200000D03*
X187500000Y-77700000D03*
X187500000Y-103200000D03*
X187500000Y-100200000D03*
X189000000Y-110700000D03*
X189000000Y-97200000D03*
X187500000Y-109200000D03*
X187500000Y-112200000D03*
X187500000Y-98700000D03*
X189000000Y-107700000D03*
X189000000Y-106200000D03*
X189000000Y-98700000D03*
X187500000Y-104700000D03*
X187500000Y-107700000D03*
X189500000Y-115200000D03*
X187500000Y-110700000D03*
X189000000Y-101700000D03*
X187500000Y-101700000D03*
X187500000Y-97200000D03*
%TD*%
%TA.AperFunction,Conductor*%
%TO.N,GND*%
G36*
X171427482Y-114452292D02*
G01*
X171499890Y-114577708D01*
X171602292Y-114680110D01*
X171727708Y-114752518D01*
X171769765Y-114763787D01*
X171190110Y-115343440D01*
X171180508Y-115389150D01*
X171131456Y-115438906D01*
X171071272Y-115454500D01*
X171067138Y-115454500D01*
X171067123Y-115454501D01*
X171007516Y-115460908D01*
X170872671Y-115511202D01*
X170872664Y-115511206D01*
X170757455Y-115597452D01*
X170757452Y-115597455D01*
X170671206Y-115712664D01*
X170671202Y-115712671D01*
X170620908Y-115847517D01*
X170619126Y-115855062D01*
X170616253Y-115854383D01*
X170594804Y-115906162D01*
X170537411Y-115946008D01*
X170467586Y-115948500D01*
X170410574Y-115916034D01*
X170263506Y-115768966D01*
X170186023Y-115712671D01*
X170094714Y-115646330D01*
X170094710Y-115646328D01*
X170043437Y-115620203D01*
X169992641Y-115572228D01*
X169975846Y-115504407D01*
X169998384Y-115438272D01*
X170043438Y-115399233D01*
X170094448Y-115373242D01*
X170094449Y-115373242D01*
X170143818Y-115337372D01*
X170143818Y-115337371D01*
X169570234Y-114763787D01*
X169612292Y-114752518D01*
X169737708Y-114680110D01*
X169840110Y-114577708D01*
X169912518Y-114452292D01*
X169923787Y-114410234D01*
X170497371Y-114983818D01*
X170497372Y-114983818D01*
X170533240Y-114934451D01*
X170559515Y-114882885D01*
X170607489Y-114832089D01*
X170675310Y-114815294D01*
X170741445Y-114837831D01*
X170780485Y-114882885D01*
X170806759Y-114934451D01*
X170842627Y-114983818D01*
X170842627Y-114983819D01*
X171416212Y-114410233D01*
X171427482Y-114452292D01*
G37*
%TD.AperFunction*%
%TA.AperFunction,Conductor*%
G36*
X170741445Y-112298935D02*
G01*
X170780485Y-112343990D01*
X170806328Y-112394712D01*
X170841798Y-112443531D01*
X170928965Y-112563505D01*
X171076495Y-112711035D01*
X171189022Y-112792791D01*
X171245287Y-112833671D01*
X171296561Y-112859796D01*
X171347358Y-112907770D01*
X171364153Y-112975591D01*
X171341616Y-113041726D01*
X171296563Y-113080765D01*
X171245555Y-113106755D01*
X171196180Y-113142627D01*
X171769766Y-113716212D01*
X171727708Y-113727482D01*
X171602292Y-113799890D01*
X171499890Y-113902292D01*
X171427482Y-114027708D01*
X171416212Y-114069765D01*
X170842627Y-113496180D01*
X170806755Y-113545555D01*
X170780484Y-113597115D01*
X170732510Y-113647910D01*
X170664689Y-113664705D01*
X170598554Y-113642167D01*
X170559516Y-113597115D01*
X170533247Y-113545561D01*
X170533236Y-113545543D01*
X170497372Y-113496180D01*
X170497371Y-113496179D01*
X169923787Y-114069764D01*
X169912518Y-114027708D01*
X169840110Y-113902292D01*
X169737708Y-113799890D01*
X169612292Y-113727482D01*
X169570233Y-113716212D01*
X170143819Y-113142627D01*
X170094451Y-113106759D01*
X170043437Y-113080766D01*
X169992641Y-113032791D01*
X169975846Y-112964970D01*
X169998384Y-112898835D01*
X170043438Y-112859796D01*
X170094712Y-112833671D01*
X170094711Y-112833671D01*
X170094714Y-112833670D01*
X170263505Y-112711035D01*
X170411035Y-112563505D01*
X170533670Y-112394714D01*
X170559515Y-112343990D01*
X170607489Y-112293194D01*
X170675310Y-112276398D01*
X170741445Y-112298935D01*
G37*
%TD.AperFunction*%
%TA.AperFunction,Conductor*%
G36*
X170497371Y-109903818D02*
G01*
X170497372Y-109903818D01*
X170533242Y-109854449D01*
X170533242Y-109854448D01*
X170559233Y-109803438D01*
X170607206Y-109752642D01*
X170675027Y-109735846D01*
X170741162Y-109758383D01*
X170780203Y-109803437D01*
X170806330Y-109854714D01*
X170928965Y-110023505D01*
X171076495Y-110171035D01*
X171245286Y-110293670D01*
X171292271Y-110317610D01*
X171296010Y-110319515D01*
X171346806Y-110367490D01*
X171363601Y-110435310D01*
X171341064Y-110501445D01*
X171296010Y-110540485D01*
X171245285Y-110566330D01*
X171076493Y-110688966D01*
X170928966Y-110836493D01*
X170806330Y-111005285D01*
X170780485Y-111056010D01*
X170732510Y-111106806D01*
X170664690Y-111123601D01*
X170598555Y-111101064D01*
X170559515Y-111056010D01*
X170533669Y-111005285D01*
X170518923Y-110984989D01*
X170411035Y-110836495D01*
X170263505Y-110688965D01*
X170094714Y-110566330D01*
X170043990Y-110540485D01*
X170043437Y-110540203D01*
X169992641Y-110492228D01*
X169975846Y-110424407D01*
X169998384Y-110358272D01*
X170043438Y-110319233D01*
X170094448Y-110293242D01*
X170094449Y-110293242D01*
X170143818Y-110257372D01*
X170143818Y-110257371D01*
X169570234Y-109683787D01*
X169612292Y-109672518D01*
X169737708Y-109600110D01*
X169840110Y-109497708D01*
X169912518Y-109372292D01*
X169923787Y-109330234D01*
X170497371Y-109903818D01*
G37*
%TD.AperFunction*%
%TA.AperFunction,Conductor*%
G36*
X171427482Y-106832292D02*
G01*
X171499890Y-106957708D01*
X171602292Y-107060110D01*
X171727708Y-107132518D01*
X171769765Y-107143787D01*
X171196179Y-107717371D01*
X171196180Y-107717372D01*
X171245543Y-107753236D01*
X171245561Y-107753247D01*
X171296561Y-107779233D01*
X171347358Y-107827207D01*
X171364153Y-107895028D01*
X171341616Y-107961163D01*
X171296563Y-108000202D01*
X171245288Y-108026328D01*
X171076493Y-108148966D01*
X170928966Y-108296493D01*
X170806328Y-108465288D01*
X170780202Y-108516563D01*
X170732227Y-108567358D01*
X170664406Y-108584153D01*
X170598272Y-108561615D01*
X170559233Y-108516561D01*
X170533247Y-108465561D01*
X170533236Y-108465543D01*
X170497372Y-108416180D01*
X170497371Y-108416179D01*
X169923787Y-108989764D01*
X169912518Y-108947708D01*
X169840110Y-108822292D01*
X169737708Y-108719890D01*
X169612292Y-108647482D01*
X169570233Y-108636212D01*
X170143819Y-108062627D01*
X170094451Y-108026759D01*
X170043437Y-108000766D01*
X169992641Y-107952791D01*
X169975846Y-107884970D01*
X169998384Y-107818835D01*
X170043438Y-107779796D01*
X170094712Y-107753671D01*
X170094711Y-107753671D01*
X170094714Y-107753670D01*
X170263505Y-107631035D01*
X170411035Y-107483505D01*
X170533670Y-107314714D01*
X170559796Y-107263437D01*
X170607769Y-107212642D01*
X170675590Y-107195846D01*
X170741725Y-107218383D01*
X170780766Y-107263437D01*
X170806759Y-107314451D01*
X170842627Y-107363818D01*
X170842627Y-107363819D01*
X171416212Y-106790233D01*
X171427482Y-106832292D01*
G37*
%TD.AperFunction*%
%TA.AperFunction,Conductor*%
G36*
X170741445Y-104678935D02*
G01*
X170780485Y-104723990D01*
X170806328Y-104774712D01*
X170888086Y-104887241D01*
X170928965Y-104943505D01*
X171076495Y-105091035D01*
X171189022Y-105172791D01*
X171245287Y-105213671D01*
X171296561Y-105239796D01*
X171347358Y-105287770D01*
X171364153Y-105355591D01*
X171341616Y-105421726D01*
X171296563Y-105460765D01*
X171245555Y-105486755D01*
X171196180Y-105522627D01*
X171769766Y-106096212D01*
X171727708Y-106107482D01*
X171602292Y-106179890D01*
X171499890Y-106282292D01*
X171427482Y-106407708D01*
X171416212Y-106449765D01*
X170842627Y-105876180D01*
X170806755Y-105925555D01*
X170780765Y-105976563D01*
X170732790Y-106027358D01*
X170664969Y-106044153D01*
X170598834Y-106021615D01*
X170559796Y-105976561D01*
X170533671Y-105925287D01*
X170492791Y-105869022D01*
X170411035Y-105756495D01*
X170263505Y-105608965D01*
X170144672Y-105522627D01*
X170094712Y-105486328D01*
X170043990Y-105460485D01*
X169993194Y-105412511D01*
X169976398Y-105344690D01*
X169998935Y-105278555D01*
X170043990Y-105239515D01*
X170094712Y-105213671D01*
X170094711Y-105213671D01*
X170094714Y-105213670D01*
X170263505Y-105091035D01*
X170411035Y-104943505D01*
X170533670Y-104774714D01*
X170559515Y-104723990D01*
X170607489Y-104673194D01*
X170675310Y-104656398D01*
X170741445Y-104678935D01*
G37*
%TD.AperFunction*%
%TA.AperFunction,Conductor*%
G36*
X171427482Y-91592292D02*
G01*
X171499890Y-91717708D01*
X171602292Y-91820110D01*
X171727708Y-91892518D01*
X171769765Y-91903787D01*
X171190110Y-92483440D01*
X171180508Y-92529150D01*
X171131456Y-92578906D01*
X171071272Y-92594500D01*
X171067138Y-92594500D01*
X171067123Y-92594501D01*
X171007516Y-92600908D01*
X170872671Y-92651202D01*
X170872664Y-92651206D01*
X170757455Y-92737452D01*
X170757452Y-92737455D01*
X170671206Y-92852664D01*
X170671202Y-92852671D01*
X170620908Y-92987517D01*
X170619126Y-92995062D01*
X170616253Y-92994383D01*
X170594804Y-93046162D01*
X170537411Y-93086008D01*
X170467586Y-93088500D01*
X170410574Y-93056034D01*
X170263506Y-92908966D01*
X170214584Y-92873422D01*
X170094714Y-92786330D01*
X170094710Y-92786328D01*
X170043437Y-92760203D01*
X169992641Y-92712228D01*
X169975846Y-92644407D01*
X169998384Y-92578272D01*
X170043438Y-92539233D01*
X170094448Y-92513242D01*
X170094449Y-92513242D01*
X170143818Y-92477372D01*
X170143818Y-92477371D01*
X169570234Y-91903787D01*
X169612292Y-91892518D01*
X169737708Y-91820110D01*
X169840110Y-91717708D01*
X169912518Y-91592292D01*
X169923787Y-91550234D01*
X170497371Y-92123818D01*
X170497372Y-92123818D01*
X170533240Y-92074451D01*
X170559515Y-92022885D01*
X170607489Y-91972089D01*
X170675310Y-91955294D01*
X170741445Y-91977831D01*
X170780485Y-92022885D01*
X170806759Y-92074451D01*
X170842627Y-92123818D01*
X170842627Y-92123819D01*
X171416212Y-91550233D01*
X171427482Y-91592292D01*
G37*
%TD.AperFunction*%
%TA.AperFunction,Conductor*%
G36*
X170741445Y-89438935D02*
G01*
X170780485Y-89483990D01*
X170806328Y-89534712D01*
X170888086Y-89647241D01*
X170928965Y-89703505D01*
X171076495Y-89851035D01*
X171189022Y-89932791D01*
X171245287Y-89973671D01*
X171296561Y-89999796D01*
X171347358Y-90047770D01*
X171364153Y-90115591D01*
X171341616Y-90181726D01*
X171296563Y-90220765D01*
X171245555Y-90246755D01*
X171196180Y-90282627D01*
X171769766Y-90856212D01*
X171727708Y-90867482D01*
X171602292Y-90939890D01*
X171499890Y-91042292D01*
X171427482Y-91167708D01*
X171416212Y-91209765D01*
X170842627Y-90636180D01*
X170806755Y-90685555D01*
X170780484Y-90737115D01*
X170732510Y-90787910D01*
X170664689Y-90804705D01*
X170598554Y-90782167D01*
X170559516Y-90737115D01*
X170533247Y-90685561D01*
X170533236Y-90685543D01*
X170497372Y-90636180D01*
X170497371Y-90636179D01*
X169923787Y-91209764D01*
X169912518Y-91167708D01*
X169840110Y-91042292D01*
X169737708Y-90939890D01*
X169612292Y-90867482D01*
X169570233Y-90856212D01*
X170143819Y-90282627D01*
X170094451Y-90246759D01*
X170043437Y-90220766D01*
X169992641Y-90172791D01*
X169975846Y-90104970D01*
X169998384Y-90038835D01*
X170043438Y-89999796D01*
X170094712Y-89973671D01*
X170094711Y-89973671D01*
X170094714Y-89973670D01*
X170263505Y-89851035D01*
X170411035Y-89703505D01*
X170533670Y-89534714D01*
X170559515Y-89483990D01*
X170607489Y-89433194D01*
X170675310Y-89416398D01*
X170741445Y-89438935D01*
G37*
%TD.AperFunction*%
%TA.AperFunction,Conductor*%
G36*
X190442539Y-74520185D02*
G01*
X190488294Y-74572989D01*
X190499500Y-74624500D01*
X190499500Y-123375500D01*
X190479815Y-123442539D01*
X190427011Y-123488294D01*
X190375500Y-123499500D01*
X165024500Y-123499500D01*
X164957461Y-123479815D01*
X164911706Y-123427011D01*
X164900500Y-123375500D01*
X164900500Y-103975675D01*
X168074500Y-103975675D01*
X168074500Y-104184324D01*
X168107137Y-104390389D01*
X168171612Y-104588820D01*
X168240485Y-104723990D01*
X168266330Y-104774714D01*
X168388965Y-104943505D01*
X168536495Y-105091035D01*
X168705286Y-105213670D01*
X168752271Y-105237610D01*
X168756010Y-105239515D01*
X168806806Y-105287490D01*
X168823601Y-105355310D01*
X168801064Y-105421445D01*
X168756010Y-105460485D01*
X168705285Y-105486330D01*
X168536493Y-105608966D01*
X168388966Y-105756493D01*
X168266330Y-105925285D01*
X168171612Y-106111179D01*
X168107137Y-106309610D01*
X168074500Y-106515675D01*
X168074500Y-106724324D01*
X168107137Y-106930389D01*
X168171612Y-107128820D01*
X168266195Y-107314450D01*
X168266330Y-107314714D01*
X168388965Y-107483505D01*
X168536495Y-107631035D01*
X168649022Y-107712791D01*
X168705287Y-107753671D01*
X168756561Y-107779796D01*
X168807358Y-107827770D01*
X168824153Y-107895591D01*
X168801616Y-107961726D01*
X168756563Y-108000765D01*
X168705555Y-108026755D01*
X168656180Y-108062627D01*
X169229766Y-108636212D01*
X169187708Y-108647482D01*
X169062292Y-108719890D01*
X168959890Y-108822292D01*
X168887482Y-108947708D01*
X168876212Y-108989765D01*
X168302627Y-108416180D01*
X168266757Y-108465552D01*
X168172075Y-108651372D01*
X168107626Y-108849727D01*
X168075000Y-109055720D01*
X168075000Y-109264279D01*
X168107626Y-109470272D01*
X168172075Y-109668627D01*
X168266759Y-109854451D01*
X168302627Y-109903818D01*
X168302627Y-109903819D01*
X168876212Y-109330234D01*
X168887482Y-109372292D01*
X168959890Y-109497708D01*
X169062292Y-109600110D01*
X169187708Y-109672518D01*
X169229765Y-109683787D01*
X168656179Y-110257371D01*
X168656180Y-110257372D01*
X168705543Y-110293236D01*
X168705561Y-110293247D01*
X168756561Y-110319233D01*
X168807358Y-110367207D01*
X168824153Y-110435028D01*
X168801616Y-110501163D01*
X168756563Y-110540202D01*
X168705288Y-110566328D01*
X168536493Y-110688966D01*
X168388966Y-110836493D01*
X168266330Y-111005285D01*
X168171612Y-111191179D01*
X168107137Y-111389610D01*
X168074500Y-111595675D01*
X168074500Y-111804324D01*
X168107137Y-112010389D01*
X168171612Y-112208820D01*
X168240485Y-112343990D01*
X168266330Y-112394714D01*
X168388965Y-112563505D01*
X168536495Y-112711035D01*
X168649022Y-112792791D01*
X168705287Y-112833671D01*
X168756561Y-112859796D01*
X168807358Y-112907770D01*
X168824153Y-112975591D01*
X168801616Y-113041726D01*
X168756563Y-113080765D01*
X168705555Y-113106755D01*
X168656180Y-113142627D01*
X169229766Y-113716212D01*
X169187708Y-113727482D01*
X169062292Y-113799890D01*
X168959890Y-113902292D01*
X168887482Y-114027708D01*
X168876212Y-114069765D01*
X168302627Y-113496180D01*
X168266757Y-113545552D01*
X168172075Y-113731372D01*
X168107626Y-113929727D01*
X168075000Y-114135720D01*
X168075000Y-114344279D01*
X168107626Y-114550272D01*
X168172075Y-114748627D01*
X168266759Y-114934451D01*
X168302627Y-114983818D01*
X168302627Y-114983819D01*
X168876212Y-114410234D01*
X168887482Y-114452292D01*
X168959890Y-114577708D01*
X169062292Y-114680110D01*
X169187708Y-114752518D01*
X169229765Y-114763787D01*
X168656179Y-115337371D01*
X168656180Y-115337372D01*
X168705543Y-115373236D01*
X168705561Y-115373247D01*
X168756561Y-115399233D01*
X168807358Y-115447207D01*
X168824153Y-115515028D01*
X168801616Y-115581163D01*
X168756563Y-115620202D01*
X168705288Y-115646328D01*
X168536493Y-115768966D01*
X168388966Y-115916493D01*
X168266330Y-116085285D01*
X168171612Y-116271179D01*
X168107137Y-116469610D01*
X168074500Y-116675675D01*
X168074500Y-116884324D01*
X168107137Y-117090389D01*
X168171612Y-117288820D01*
X168266330Y-117474714D01*
X168388965Y-117643505D01*
X168536495Y-117791035D01*
X168705286Y-117913670D01*
X168793116Y-117958421D01*
X168891179Y-118008387D01*
X168891181Y-118008387D01*
X168891184Y-118008389D01*
X168997545Y-118042948D01*
X169089610Y-118072862D01*
X169295676Y-118105500D01*
X169295681Y-118105500D01*
X169504324Y-118105500D01*
X169710389Y-118072862D01*
X169908816Y-118008389D01*
X170094714Y-117913670D01*
X170263505Y-117791035D01*
X170410576Y-117643963D01*
X170471896Y-117610481D01*
X170541587Y-117615465D01*
X170597521Y-117657336D01*
X170616496Y-117705552D01*
X170619124Y-117704932D01*
X170620907Y-117712479D01*
X170671202Y-117847328D01*
X170671206Y-117847335D01*
X170757452Y-117962544D01*
X170757455Y-117962547D01*
X170872664Y-118048793D01*
X170872671Y-118048797D01*
X171007517Y-118099091D01*
X171007516Y-118099091D01*
X171014444Y-118099835D01*
X171067127Y-118105500D01*
X172812872Y-118105499D01*
X172872483Y-118099091D01*
X173007331Y-118048796D01*
X173122546Y-117962546D01*
X173208796Y-117847331D01*
X173259091Y-117712483D01*
X173265500Y-117652873D01*
X173265499Y-115907128D01*
X173259091Y-115847517D01*
X173229793Y-115768966D01*
X173208797Y-115712671D01*
X173208793Y-115712664D01*
X173122547Y-115597455D01*
X173122544Y-115597452D01*
X173007335Y-115511206D01*
X173007328Y-115511202D01*
X172872482Y-115460908D01*
X172872483Y-115460908D01*
X172812883Y-115454501D01*
X172812881Y-115454500D01*
X172812873Y-115454500D01*
X172812865Y-115454500D01*
X172808743Y-115454500D01*
X172741704Y-115434815D01*
X172695949Y-115382011D01*
X172688969Y-115342522D01*
X172110234Y-114763787D01*
X172152292Y-114752518D01*
X172277708Y-114680110D01*
X172380110Y-114577708D01*
X172452518Y-114452292D01*
X172463787Y-114410234D01*
X173037371Y-114983818D01*
X173037372Y-114983818D01*
X173073240Y-114934451D01*
X173167924Y-114748627D01*
X173232373Y-114550272D01*
X173265000Y-114344279D01*
X173265000Y-114135720D01*
X173232373Y-113929727D01*
X173167924Y-113731372D01*
X173073244Y-113545556D01*
X173073236Y-113545543D01*
X173037372Y-113496180D01*
X173037371Y-113496179D01*
X172463787Y-114069764D01*
X172452518Y-114027708D01*
X172380110Y-113902292D01*
X172277708Y-113799890D01*
X172152292Y-113727482D01*
X172110233Y-113716212D01*
X172683819Y-113142627D01*
X172634451Y-113106759D01*
X172583437Y-113080766D01*
X172532641Y-113032791D01*
X172515846Y-112964970D01*
X172538384Y-112898835D01*
X172583438Y-112859796D01*
X172634712Y-112833671D01*
X172634711Y-112833671D01*
X172634714Y-112833670D01*
X172803505Y-112711035D01*
X172951035Y-112563505D01*
X173073670Y-112394714D01*
X173168389Y-112208816D01*
X173232862Y-112010389D01*
X173242608Y-111948853D01*
X173265500Y-111804324D01*
X173265500Y-111595675D01*
X173232862Y-111389610D01*
X173168387Y-111191179D01*
X173073669Y-111005285D01*
X173058923Y-110984989D01*
X172951035Y-110836495D01*
X172803505Y-110688965D01*
X172711791Y-110622330D01*
X172634712Y-110566328D01*
X172583990Y-110540485D01*
X172533194Y-110492511D01*
X172516398Y-110424690D01*
X172538935Y-110358555D01*
X172583990Y-110319515D01*
X172634712Y-110293671D01*
X172634711Y-110293671D01*
X172634714Y-110293670D01*
X172803505Y-110171035D01*
X172951035Y-110023505D01*
X173073670Y-109854714D01*
X173168389Y-109668816D01*
X173232862Y-109470389D01*
X173241296Y-109417135D01*
X176100000Y-109417135D01*
X176100000Y-109742864D01*
X176136468Y-110066520D01*
X176136470Y-110066536D01*
X176208948Y-110384087D01*
X176208952Y-110384099D01*
X176316525Y-110691523D01*
X176316534Y-110691545D01*
X176457849Y-110984989D01*
X176631146Y-111260789D01*
X176779555Y-111446890D01*
X177705747Y-110520697D01*
X177779588Y-110622330D01*
X177957670Y-110800412D01*
X178059300Y-110874251D01*
X177133108Y-111800443D01*
X177319210Y-111948853D01*
X177595010Y-112122150D01*
X177888454Y-112263465D01*
X177888476Y-112263474D01*
X178195900Y-112371047D01*
X178195912Y-112371051D01*
X178513463Y-112443529D01*
X178513479Y-112443531D01*
X178837135Y-112479999D01*
X178837136Y-112480000D01*
X179162864Y-112480000D01*
X179162864Y-112479999D01*
X179486520Y-112443531D01*
X179486536Y-112443529D01*
X179804087Y-112371051D01*
X179804099Y-112371047D01*
X180111523Y-112263474D01*
X180111545Y-112263465D01*
X180404989Y-112122150D01*
X180680789Y-111948853D01*
X180866890Y-111800443D01*
X179940698Y-110874251D01*
X180042330Y-110800412D01*
X180220412Y-110622330D01*
X180294251Y-110520698D01*
X181220443Y-111446890D01*
X181368853Y-111260789D01*
X181542150Y-110984989D01*
X181683465Y-110691545D01*
X181683474Y-110691523D01*
X181791047Y-110384099D01*
X181791051Y-110384087D01*
X181863529Y-110066536D01*
X181863531Y-110066520D01*
X181899999Y-109742864D01*
X181900000Y-109742864D01*
X181900000Y-109417136D01*
X181899999Y-109417135D01*
X181863531Y-109093479D01*
X181863529Y-109093463D01*
X181791051Y-108775912D01*
X181791047Y-108775900D01*
X181683474Y-108468476D01*
X181683465Y-108468454D01*
X181542150Y-108175010D01*
X181368853Y-107899210D01*
X181220443Y-107713108D01*
X180294250Y-108639300D01*
X180220412Y-108537670D01*
X180042330Y-108359588D01*
X179940697Y-108285747D01*
X180866890Y-107359555D01*
X180680789Y-107211146D01*
X180404989Y-107037849D01*
X180111545Y-106896534D01*
X180111523Y-106896525D01*
X179804099Y-106788952D01*
X179804087Y-106788948D01*
X179486536Y-106716470D01*
X179486520Y-106716468D01*
X179162864Y-106680000D01*
X178837136Y-106680000D01*
X178513479Y-106716468D01*
X178513463Y-106716470D01*
X178195912Y-106788948D01*
X178195900Y-106788952D01*
X177888476Y-106896525D01*
X177888454Y-106896534D01*
X177595010Y-107037849D01*
X177319210Y-107211146D01*
X177133108Y-107359555D01*
X178059301Y-108285748D01*
X177957670Y-108359588D01*
X177779588Y-108537670D01*
X177705748Y-108639301D01*
X176779555Y-107713108D01*
X176631146Y-107899210D01*
X176457849Y-108175010D01*
X176316534Y-108468454D01*
X176316525Y-108468476D01*
X176208952Y-108775900D01*
X176208948Y-108775912D01*
X176136470Y-109093463D01*
X176136468Y-109093479D01*
X176100000Y-109417135D01*
X173241296Y-109417135D01*
X173250370Y-109359846D01*
X173265500Y-109264323D01*
X173265500Y-109055675D01*
X173232862Y-108849610D01*
X173202948Y-108757545D01*
X173168389Y-108651184D01*
X173168387Y-108651181D01*
X173168387Y-108651179D01*
X173073810Y-108465561D01*
X173073670Y-108465286D01*
X172951035Y-108296495D01*
X172803505Y-108148965D01*
X172634714Y-108026330D01*
X172621107Y-108019397D01*
X172583437Y-108000203D01*
X172532641Y-107952228D01*
X172515846Y-107884407D01*
X172538384Y-107818272D01*
X172583438Y-107779233D01*
X172634448Y-107753242D01*
X172634449Y-107753242D01*
X172683818Y-107717372D01*
X172683818Y-107717371D01*
X172110234Y-107143787D01*
X172152292Y-107132518D01*
X172277708Y-107060110D01*
X172380110Y-106957708D01*
X172452518Y-106832292D01*
X172463787Y-106790234D01*
X173037371Y-107363818D01*
X173037372Y-107363818D01*
X173058227Y-107335115D01*
X173073240Y-107314450D01*
X173167924Y-107128627D01*
X173232373Y-106930272D01*
X173265000Y-106724279D01*
X173265000Y-106515720D01*
X173232373Y-106309727D01*
X173167924Y-106111372D01*
X173073244Y-105925556D01*
X173073236Y-105925543D01*
X173037372Y-105876180D01*
X173037371Y-105876179D01*
X172463787Y-106449764D01*
X172452518Y-106407708D01*
X172380110Y-106282292D01*
X172277708Y-106179890D01*
X172152292Y-106107482D01*
X172110233Y-106096212D01*
X172683819Y-105522627D01*
X172634451Y-105486759D01*
X172583437Y-105460766D01*
X172532641Y-105412791D01*
X172515846Y-105344970D01*
X172538384Y-105278835D01*
X172583438Y-105239796D01*
X172634712Y-105213671D01*
X172634711Y-105213671D01*
X172634714Y-105213670D01*
X172803505Y-105091035D01*
X172951035Y-104943505D01*
X173073670Y-104774714D01*
X173168389Y-104588816D01*
X173232862Y-104390389D01*
X173265500Y-104184324D01*
X173265500Y-103975675D01*
X173232862Y-103769610D01*
X173168387Y-103571179D01*
X173073669Y-103385285D01*
X172951035Y-103216495D01*
X172803505Y-103068965D01*
X172634714Y-102946330D01*
X172448820Y-102851612D01*
X172250389Y-102787137D01*
X172044324Y-102754500D01*
X172044319Y-102754500D01*
X171835681Y-102754500D01*
X171835676Y-102754500D01*
X171629610Y-102787137D01*
X171431179Y-102851612D01*
X171245285Y-102946330D01*
X171076493Y-103068966D01*
X170928966Y-103216493D01*
X170806330Y-103385285D01*
X170780485Y-103436010D01*
X170732510Y-103486806D01*
X170664690Y-103503601D01*
X170598555Y-103481064D01*
X170559515Y-103436010D01*
X170533669Y-103385285D01*
X170411035Y-103216495D01*
X170263505Y-103068965D01*
X170094714Y-102946330D01*
X169908820Y-102851612D01*
X169710389Y-102787137D01*
X169504324Y-102754500D01*
X169504319Y-102754500D01*
X169295681Y-102754500D01*
X169295676Y-102754500D01*
X169089610Y-102787137D01*
X168891179Y-102851612D01*
X168705285Y-102946330D01*
X168536493Y-103068966D01*
X168388966Y-103216493D01*
X168266330Y-103385285D01*
X168171612Y-103571179D01*
X168107137Y-103769610D01*
X168074500Y-103975675D01*
X164900500Y-103975675D01*
X164900500Y-81115675D01*
X168074500Y-81115675D01*
X168074500Y-81324324D01*
X168107137Y-81530389D01*
X168171612Y-81728820D01*
X168262162Y-81906534D01*
X168266330Y-81914714D01*
X168388965Y-82083505D01*
X168536495Y-82231035D01*
X168705286Y-82353670D01*
X168752271Y-82377610D01*
X168756010Y-82379515D01*
X168806806Y-82427490D01*
X168823601Y-82495310D01*
X168801064Y-82561445D01*
X168756010Y-82600485D01*
X168705285Y-82626330D01*
X168536493Y-82748966D01*
X168388966Y-82896493D01*
X168266330Y-83065285D01*
X168171612Y-83251179D01*
X168107137Y-83449610D01*
X168074500Y-83655675D01*
X168074500Y-83864324D01*
X168107137Y-84070389D01*
X168171612Y-84268820D01*
X168235821Y-84394836D01*
X168266330Y-84454714D01*
X168388965Y-84623505D01*
X168536495Y-84771035D01*
X168705286Y-84893670D01*
X168752271Y-84917610D01*
X168756010Y-84919515D01*
X168806806Y-84967490D01*
X168823601Y-85035310D01*
X168801064Y-85101445D01*
X168756010Y-85140485D01*
X168705285Y-85166330D01*
X168536493Y-85288966D01*
X168388966Y-85436493D01*
X168266330Y-85605285D01*
X168171612Y-85791179D01*
X168107137Y-85989610D01*
X168074500Y-86195675D01*
X168074500Y-86404324D01*
X168107137Y-86610389D01*
X168171612Y-86808820D01*
X168240485Y-86943990D01*
X168266330Y-86994714D01*
X168388965Y-87163505D01*
X168536495Y-87311035D01*
X168705286Y-87433670D01*
X168744262Y-87453529D01*
X168756010Y-87459515D01*
X168806806Y-87507490D01*
X168823601Y-87575310D01*
X168801064Y-87641445D01*
X168756010Y-87680485D01*
X168705285Y-87706330D01*
X168536493Y-87828966D01*
X168388966Y-87976493D01*
X168266330Y-88145285D01*
X168171612Y-88331179D01*
X168107137Y-88529610D01*
X168074500Y-88735675D01*
X168074500Y-88944324D01*
X168107137Y-89150389D01*
X168171612Y-89348820D01*
X168240485Y-89483990D01*
X168266330Y-89534714D01*
X168388965Y-89703505D01*
X168536495Y-89851035D01*
X168649022Y-89932791D01*
X168705287Y-89973671D01*
X168756561Y-89999796D01*
X168807358Y-90047770D01*
X168824153Y-90115591D01*
X168801616Y-90181726D01*
X168756563Y-90220765D01*
X168705555Y-90246755D01*
X168656180Y-90282627D01*
X169229766Y-90856212D01*
X169187708Y-90867482D01*
X169062292Y-90939890D01*
X168959890Y-91042292D01*
X168887482Y-91167708D01*
X168876212Y-91209765D01*
X168302627Y-90636180D01*
X168266757Y-90685552D01*
X168172075Y-90871372D01*
X168107626Y-91069727D01*
X168075000Y-91275720D01*
X168075000Y-91484279D01*
X168107626Y-91690272D01*
X168172075Y-91888627D01*
X168266759Y-92074451D01*
X168302627Y-92123818D01*
X168302627Y-92123819D01*
X168876212Y-91550234D01*
X168887482Y-91592292D01*
X168959890Y-91717708D01*
X169062292Y-91820110D01*
X169187708Y-91892518D01*
X169229765Y-91903787D01*
X168656179Y-92477371D01*
X168656180Y-92477372D01*
X168705543Y-92513236D01*
X168705561Y-92513247D01*
X168756561Y-92539233D01*
X168807358Y-92587207D01*
X168824153Y-92655028D01*
X168801616Y-92721163D01*
X168756563Y-92760202D01*
X168705288Y-92786328D01*
X168536493Y-92908966D01*
X168388966Y-93056493D01*
X168266330Y-93225285D01*
X168171612Y-93411179D01*
X168107137Y-93609610D01*
X168074500Y-93815675D01*
X168074500Y-94024324D01*
X168107137Y-94230389D01*
X168171612Y-94428820D01*
X168246301Y-94575405D01*
X168266330Y-94614714D01*
X168388965Y-94783505D01*
X168536495Y-94931035D01*
X168705286Y-95053670D01*
X168727523Y-95065000D01*
X168891179Y-95148387D01*
X168891181Y-95148387D01*
X168891184Y-95148389D01*
X168997545Y-95182948D01*
X169089610Y-95212862D01*
X169295676Y-95245500D01*
X169295681Y-95245500D01*
X169504324Y-95245500D01*
X169710389Y-95212862D01*
X169908816Y-95148389D01*
X170094714Y-95053670D01*
X170263505Y-94931035D01*
X170410576Y-94783963D01*
X170471896Y-94750481D01*
X170541587Y-94755465D01*
X170597521Y-94797336D01*
X170616496Y-94845552D01*
X170619124Y-94844932D01*
X170620907Y-94852479D01*
X170671202Y-94987328D01*
X170671206Y-94987335D01*
X170757452Y-95102544D01*
X170757455Y-95102547D01*
X170872664Y-95188793D01*
X170872671Y-95188797D01*
X171007517Y-95239091D01*
X171007516Y-95239091D01*
X171014444Y-95239835D01*
X171067127Y-95245500D01*
X172812872Y-95245499D01*
X172872483Y-95239091D01*
X173007331Y-95188796D01*
X173122546Y-95102546D01*
X173208796Y-94987331D01*
X173259091Y-94852483D01*
X173265500Y-94792873D01*
X173265499Y-93047128D01*
X173259091Y-92987517D01*
X173251130Y-92966173D01*
X173208797Y-92852671D01*
X173208793Y-92852664D01*
X173122547Y-92737455D01*
X173122544Y-92737452D01*
X173007335Y-92651206D01*
X173007328Y-92651202D01*
X172872482Y-92600908D01*
X172872483Y-92600908D01*
X172812883Y-92594501D01*
X172812881Y-92594500D01*
X172812873Y-92594500D01*
X172812865Y-92594500D01*
X172808743Y-92594500D01*
X172741704Y-92574815D01*
X172695949Y-92522011D01*
X172688969Y-92482522D01*
X172110234Y-91903787D01*
X172152292Y-91892518D01*
X172277708Y-91820110D01*
X172380110Y-91717708D01*
X172452518Y-91592292D01*
X172463787Y-91550234D01*
X173037371Y-92123818D01*
X173037372Y-92123818D01*
X173073242Y-92074449D01*
X173073245Y-92074443D01*
X173122827Y-91977135D01*
X175209500Y-91977135D01*
X175209500Y-93572870D01*
X175209501Y-93572876D01*
X175215908Y-93632483D01*
X175266202Y-93767328D01*
X175266206Y-93767335D01*
X175352452Y-93882544D01*
X175352455Y-93882547D01*
X175467664Y-93968793D01*
X175467673Y-93968798D01*
X175519999Y-93988314D01*
X175575933Y-94030184D01*
X175600351Y-94095648D01*
X175585500Y-94163921D01*
X175564349Y-94192177D01*
X175506171Y-94250355D01*
X175390476Y-94409594D01*
X175301117Y-94584970D01*
X175240290Y-94772173D01*
X175209500Y-94966577D01*
X175209500Y-95163422D01*
X175240290Y-95357826D01*
X175301117Y-95545029D01*
X175390476Y-95720405D01*
X175506172Y-95879646D01*
X175645354Y-96018828D01*
X175754477Y-96098111D01*
X175770403Y-96109682D01*
X175813068Y-96165013D01*
X175819047Y-96234626D01*
X175786441Y-96296421D01*
X175770403Y-96310318D01*
X175645352Y-96401173D01*
X175506174Y-96540351D01*
X175506174Y-96540352D01*
X175506172Y-96540354D01*
X175456485Y-96608741D01*
X175390476Y-96699594D01*
X175301117Y-96874970D01*
X175240290Y-97062173D01*
X175209500Y-97256577D01*
X175209500Y-97453422D01*
X175240290Y-97647826D01*
X175301117Y-97835029D01*
X175390476Y-98010405D01*
X175506172Y-98169646D01*
X175645354Y-98308828D01*
X175754477Y-98388111D01*
X175770403Y-98399682D01*
X175813068Y-98455013D01*
X175819047Y-98524626D01*
X175786441Y-98586421D01*
X175770403Y-98600318D01*
X175645352Y-98691173D01*
X175506174Y-98830351D01*
X175506174Y-98830352D01*
X175506172Y-98830354D01*
X175456485Y-98898741D01*
X175390476Y-98989594D01*
X175301117Y-99164970D01*
X175240290Y-99352173D01*
X175209500Y-99546577D01*
X175209500Y-99743422D01*
X175240290Y-99937826D01*
X175301117Y-100125029D01*
X175390476Y-100300405D01*
X175506172Y-100459646D01*
X175645354Y-100598828D01*
X175754477Y-100678111D01*
X175770403Y-100689682D01*
X175813068Y-100745013D01*
X175819047Y-100814626D01*
X175786441Y-100876421D01*
X175770403Y-100890318D01*
X175645352Y-100981173D01*
X175506174Y-101120351D01*
X175506174Y-101120352D01*
X175506172Y-101120354D01*
X175456485Y-101188741D01*
X175390476Y-101279594D01*
X175301117Y-101454970D01*
X175240290Y-101642173D01*
X175209500Y-101836577D01*
X175209500Y-102033422D01*
X175240290Y-102227826D01*
X175301117Y-102415029D01*
X175390343Y-102590143D01*
X175390476Y-102590405D01*
X175506172Y-102749646D01*
X175645354Y-102888828D01*
X175804595Y-103004524D01*
X175887455Y-103046743D01*
X175979970Y-103093882D01*
X175979972Y-103093882D01*
X175979975Y-103093884D01*
X176080317Y-103126487D01*
X176167173Y-103154709D01*
X176361578Y-103185500D01*
X176361583Y-103185500D01*
X176558422Y-103185500D01*
X176752826Y-103154709D01*
X176754328Y-103154221D01*
X176940025Y-103093884D01*
X177115405Y-103004524D01*
X177274646Y-102888828D01*
X177413828Y-102749646D01*
X177529524Y-102590405D01*
X177618884Y-102415025D01*
X177679709Y-102227826D01*
X177695521Y-102127993D01*
X177710500Y-102033422D01*
X177710500Y-101836577D01*
X177679709Y-101642173D01*
X177618882Y-101454970D01*
X177571743Y-101362455D01*
X177529524Y-101279595D01*
X177413828Y-101120354D01*
X177274646Y-100981172D01*
X177149594Y-100890316D01*
X177106931Y-100834988D01*
X177100952Y-100765374D01*
X177133558Y-100703579D01*
X177149591Y-100689686D01*
X177274646Y-100598828D01*
X177413828Y-100459646D01*
X177529524Y-100300405D01*
X177618884Y-100125025D01*
X177679709Y-99937826D01*
X177695809Y-99836173D01*
X177710500Y-99743422D01*
X177710500Y-99546577D01*
X177679709Y-99352173D01*
X177618882Y-99164970D01*
X177529523Y-98989594D01*
X177522571Y-98980025D01*
X177413828Y-98830354D01*
X177274646Y-98691172D01*
X177149594Y-98600316D01*
X177106931Y-98544988D01*
X177100952Y-98475374D01*
X177133558Y-98413579D01*
X177149591Y-98399686D01*
X177274646Y-98308828D01*
X177413828Y-98169646D01*
X177529524Y-98010405D01*
X177618884Y-97835025D01*
X177679709Y-97647826D01*
X177695809Y-97546173D01*
X177710500Y-97453422D01*
X177710500Y-97256577D01*
X177679709Y-97062173D01*
X177618882Y-96874970D01*
X177529523Y-96699594D01*
X177522571Y-96690025D01*
X177413828Y-96540354D01*
X177274646Y-96401172D01*
X177149594Y-96310316D01*
X177106931Y-96254988D01*
X177100952Y-96185374D01*
X177133558Y-96123579D01*
X177149591Y-96109686D01*
X177274646Y-96018828D01*
X177413828Y-95879646D01*
X177529524Y-95720405D01*
X177618884Y-95545025D01*
X177679709Y-95357826D01*
X177695809Y-95256173D01*
X177710500Y-95163422D01*
X177710500Y-94966577D01*
X177679709Y-94772173D01*
X177618882Y-94584970D01*
X177571743Y-94492455D01*
X177529524Y-94409595D01*
X177413828Y-94250354D01*
X177355651Y-94192177D01*
X177322166Y-94130854D01*
X177327150Y-94061162D01*
X177369022Y-94005229D01*
X177379048Y-93998460D01*
X177389041Y-93992401D01*
X177452331Y-93968796D01*
X177556043Y-93891156D01*
X177561216Y-93888021D01*
X177589366Y-93880550D01*
X177616653Y-93870373D01*
X177622734Y-93871695D01*
X177628748Y-93870100D01*
X177656464Y-93879033D01*
X177684926Y-93885224D01*
X177689326Y-93889624D01*
X177695249Y-93891533D01*
X177713736Y-93914034D01*
X177734332Y-93934629D01*
X177735987Y-93941115D01*
X177739605Y-93945518D01*
X177741719Y-93963574D01*
X177749500Y-93994057D01*
X177749500Y-94018422D01*
X177780290Y-94212826D01*
X177841117Y-94400029D01*
X177930476Y-94575405D01*
X178046172Y-94734646D01*
X178185354Y-94873828D01*
X178264092Y-94931035D01*
X178310403Y-94964682D01*
X178353068Y-95020013D01*
X178359047Y-95089626D01*
X178326441Y-95151421D01*
X178310403Y-95165318D01*
X178185352Y-95256173D01*
X178046174Y-95395351D01*
X178046174Y-95395352D01*
X178046172Y-95395354D01*
X177996485Y-95463741D01*
X177930476Y-95554594D01*
X177841117Y-95729970D01*
X177780290Y-95917173D01*
X177749500Y-96111577D01*
X177749500Y-96308422D01*
X177780290Y-96502826D01*
X177841117Y-96690029D01*
X177930476Y-96865405D01*
X178046172Y-97024646D01*
X178185354Y-97163828D01*
X178294477Y-97243111D01*
X178310403Y-97254682D01*
X178353068Y-97310013D01*
X178359047Y-97379626D01*
X178326441Y-97441421D01*
X178310403Y-97455318D01*
X178185352Y-97546173D01*
X178046174Y-97685351D01*
X178046174Y-97685352D01*
X178046172Y-97685354D01*
X177996485Y-97753741D01*
X177930476Y-97844594D01*
X177841117Y-98019970D01*
X177780290Y-98207173D01*
X177749500Y-98401577D01*
X177749500Y-98598422D01*
X177780290Y-98792826D01*
X177841117Y-98980029D01*
X177930476Y-99155405D01*
X178046172Y-99314646D01*
X178185354Y-99453828D01*
X178294477Y-99533111D01*
X178310403Y-99544682D01*
X178353068Y-99600013D01*
X178359047Y-99669626D01*
X178326441Y-99731421D01*
X178310403Y-99745318D01*
X178185352Y-99836173D01*
X178046174Y-99975351D01*
X178046174Y-99975352D01*
X178046172Y-99975354D01*
X177996485Y-100043741D01*
X177930476Y-100134594D01*
X177841117Y-100309970D01*
X177780290Y-100497173D01*
X177749500Y-100691577D01*
X177749500Y-100888422D01*
X177780290Y-101082826D01*
X177841117Y-101270029D01*
X177925174Y-101435000D01*
X177930476Y-101445405D01*
X178046172Y-101604646D01*
X178185354Y-101743828D01*
X178344595Y-101859524D01*
X178427455Y-101901743D01*
X178519970Y-101948882D01*
X178519972Y-101948882D01*
X178519975Y-101948884D01*
X178620317Y-101981487D01*
X178707173Y-102009709D01*
X178901578Y-102040500D01*
X178901583Y-102040500D01*
X179098422Y-102040500D01*
X179292826Y-102009709D01*
X179320165Y-102000826D01*
X179480025Y-101948884D01*
X179655405Y-101859524D01*
X179814646Y-101743828D01*
X179953828Y-101604646D01*
X180069524Y-101445405D01*
X180158884Y-101270025D01*
X180219709Y-101082826D01*
X180235809Y-100981173D01*
X180250500Y-100888422D01*
X180250500Y-100691577D01*
X180219709Y-100497173D01*
X180158882Y-100309970D01*
X180069523Y-100134594D01*
X180062571Y-100125025D01*
X179953828Y-99975354D01*
X179814646Y-99836172D01*
X179689594Y-99745316D01*
X179646931Y-99689988D01*
X179640952Y-99620374D01*
X179673558Y-99558579D01*
X179689591Y-99544686D01*
X179814646Y-99453828D01*
X179953828Y-99314646D01*
X180069524Y-99155405D01*
X180158884Y-98980025D01*
X180219709Y-98792826D01*
X180235809Y-98691173D01*
X180250500Y-98598422D01*
X180250500Y-98401577D01*
X180219709Y-98207173D01*
X180158882Y-98019970D01*
X180069523Y-97844594D01*
X180062571Y-97835025D01*
X179953828Y-97685354D01*
X179814646Y-97546172D01*
X179689594Y-97455316D01*
X179646931Y-97399988D01*
X179640952Y-97330374D01*
X179673558Y-97268579D01*
X179689591Y-97254686D01*
X179814646Y-97163828D01*
X179953828Y-97024646D01*
X180069524Y-96865405D01*
X180158884Y-96690025D01*
X180219709Y-96502826D01*
X180235809Y-96401173D01*
X180250500Y-96308422D01*
X180250500Y-96111577D01*
X180219709Y-95917173D01*
X180158882Y-95729970D01*
X180069523Y-95554594D01*
X180062571Y-95545025D01*
X179953828Y-95395354D01*
X179814646Y-95256172D01*
X179689594Y-95165316D01*
X179646931Y-95109988D01*
X179640952Y-95040374D01*
X179673558Y-94978579D01*
X179689591Y-94964686D01*
X179814646Y-94873828D01*
X179953828Y-94734646D01*
X180069524Y-94575405D01*
X180158884Y-94400025D01*
X180219709Y-94212826D01*
X180250500Y-94018422D01*
X180250500Y-93821577D01*
X180219709Y-93627173D01*
X180158882Y-93439970D01*
X180088218Y-93301285D01*
X180069524Y-93264595D01*
X179953828Y-93105354D01*
X179814646Y-92966172D01*
X179689594Y-92875316D01*
X179672729Y-92853444D01*
X179653310Y-92833801D01*
X179651695Y-92826166D01*
X179646931Y-92819988D01*
X179644567Y-92792469D01*
X179638851Y-92765444D01*
X179641619Y-92758148D01*
X179640952Y-92750374D01*
X179653842Y-92725944D01*
X179663643Y-92700121D01*
X179671565Y-92692355D01*
X179673558Y-92688579D01*
X179687291Y-92676577D01*
X180289500Y-92676577D01*
X180289500Y-92873422D01*
X180320290Y-93067826D01*
X180381117Y-93255029D01*
X180404686Y-93301285D01*
X180470476Y-93430405D01*
X180586172Y-93589646D01*
X180725354Y-93728828D01*
X180778349Y-93767331D01*
X180850403Y-93819682D01*
X180893068Y-93875013D01*
X180899047Y-93944626D01*
X180866441Y-94006421D01*
X180850403Y-94020318D01*
X180725352Y-94111173D01*
X180586174Y-94250351D01*
X180586174Y-94250352D01*
X180586172Y-94250354D01*
X180536485Y-94318741D01*
X180470476Y-94409594D01*
X180381117Y-94584970D01*
X180320290Y-94772173D01*
X180289500Y-94966577D01*
X180289500Y-95163422D01*
X180320290Y-95357826D01*
X180381117Y-95545029D01*
X180470476Y-95720405D01*
X180586172Y-95879646D01*
X180725354Y-96018828D01*
X180834477Y-96098111D01*
X180850403Y-96109682D01*
X180893068Y-96165013D01*
X180899047Y-96234626D01*
X180866441Y-96296421D01*
X180850403Y-96310318D01*
X180725352Y-96401173D01*
X180586174Y-96540351D01*
X180586174Y-96540352D01*
X180586172Y-96540354D01*
X180536485Y-96608741D01*
X180470476Y-96699594D01*
X180381117Y-96874970D01*
X180320290Y-97062173D01*
X180289500Y-97256577D01*
X180289500Y-97453422D01*
X180320290Y-97647826D01*
X180381117Y-97835029D01*
X180470476Y-98010405D01*
X180586172Y-98169646D01*
X180725354Y-98308828D01*
X180834477Y-98388111D01*
X180850403Y-98399682D01*
X180893068Y-98455013D01*
X180899047Y-98524626D01*
X180866441Y-98586421D01*
X180850403Y-98600318D01*
X180725352Y-98691173D01*
X180586174Y-98830351D01*
X180586174Y-98830352D01*
X180586172Y-98830354D01*
X180536485Y-98898741D01*
X180470476Y-98989594D01*
X180381117Y-99164970D01*
X180320290Y-99352173D01*
X180289500Y-99546577D01*
X180289500Y-99743422D01*
X180320290Y-99937826D01*
X180381117Y-100125029D01*
X180470476Y-100300405D01*
X180586172Y-100459646D01*
X180725354Y-100598828D01*
X180845536Y-100686145D01*
X180850827Y-100689990D01*
X180893492Y-100745321D01*
X180899471Y-100814934D01*
X180866865Y-100876729D01*
X180850825Y-100890627D01*
X180849873Y-100891318D01*
X180849872Y-100891320D01*
X181410590Y-101452037D01*
X181347007Y-101469075D01*
X181232993Y-101534901D01*
X181139901Y-101627993D01*
X181074075Y-101742007D01*
X181057037Y-101805590D01*
X180496320Y-101244872D01*
X180496320Y-101244873D01*
X180470902Y-101279859D01*
X180470899Y-101279863D01*
X180381582Y-101455161D01*
X180320778Y-101642294D01*
X180290000Y-101836617D01*
X180290000Y-102033382D01*
X180320778Y-102227705D01*
X180381581Y-102414835D01*
X180470905Y-102590145D01*
X180496319Y-102625125D01*
X180496320Y-102625125D01*
X181057037Y-102064408D01*
X181074075Y-102127993D01*
X181139901Y-102242007D01*
X181232993Y-102335099D01*
X181347007Y-102400925D01*
X181410590Y-102417962D01*
X180849873Y-102978677D01*
X180849873Y-102978678D01*
X180884858Y-103004096D01*
X181060164Y-103093418D01*
X181247294Y-103154221D01*
X181441618Y-103185000D01*
X181638382Y-103185000D01*
X181832705Y-103154221D01*
X182019835Y-103093418D01*
X182195143Y-103004095D01*
X182230125Y-102978678D01*
X182230126Y-102978678D01*
X181669410Y-102417962D01*
X181732993Y-102400925D01*
X181847007Y-102335099D01*
X181940099Y-102242007D01*
X182005925Y-102127993D01*
X182022962Y-102064410D01*
X182583678Y-102625126D01*
X182583678Y-102625125D01*
X182609095Y-102590143D01*
X182698418Y-102414835D01*
X182759221Y-102227705D01*
X182790000Y-102033382D01*
X182790000Y-101836617D01*
X182759221Y-101642294D01*
X182698418Y-101455164D01*
X182609096Y-101279858D01*
X182583678Y-101244873D01*
X182583677Y-101244873D01*
X182022962Y-101805589D01*
X182005925Y-101742007D01*
X181940099Y-101627993D01*
X181847007Y-101534901D01*
X181732993Y-101469075D01*
X181669409Y-101452037D01*
X182230125Y-100891320D01*
X182230125Y-100891319D01*
X182229172Y-100890627D01*
X182186506Y-100835297D01*
X182180527Y-100765684D01*
X182213132Y-100703888D01*
X182229166Y-100689994D01*
X182354646Y-100598828D01*
X182493828Y-100459646D01*
X182609524Y-100300405D01*
X182698884Y-100125025D01*
X182759709Y-99937826D01*
X182775809Y-99836173D01*
X182790500Y-99743422D01*
X182790500Y-99546577D01*
X182759709Y-99352173D01*
X182698882Y-99164970D01*
X182609523Y-98989594D01*
X182602571Y-98980025D01*
X182493828Y-98830354D01*
X182354646Y-98691172D01*
X182229594Y-98600316D01*
X182186931Y-98544988D01*
X182180952Y-98475374D01*
X182213558Y-98413579D01*
X182229591Y-98399686D01*
X182354646Y-98308828D01*
X182493828Y-98169646D01*
X182609524Y-98010405D01*
X182698884Y-97835025D01*
X182759709Y-97647826D01*
X182775809Y-97546173D01*
X182790500Y-97453422D01*
X182790500Y-97256577D01*
X182759709Y-97062173D01*
X182698882Y-96874970D01*
X182609523Y-96699594D01*
X182602571Y-96690025D01*
X182493828Y-96540354D01*
X182354646Y-96401172D01*
X182229594Y-96310316D01*
X182186931Y-96254988D01*
X182180952Y-96185374D01*
X182213558Y-96123579D01*
X182229591Y-96109686D01*
X182354646Y-96018828D01*
X182493828Y-95879646D01*
X182609524Y-95720405D01*
X182698884Y-95545025D01*
X182759709Y-95357826D01*
X182775809Y-95256173D01*
X182790500Y-95163422D01*
X182790500Y-94966577D01*
X182759709Y-94772173D01*
X182698882Y-94584970D01*
X182651743Y-94492455D01*
X182609524Y-94409595D01*
X182493828Y-94250354D01*
X182354646Y-94111172D01*
X182229594Y-94020316D01*
X182186931Y-93964988D01*
X182180952Y-93895374D01*
X182213558Y-93833579D01*
X182229591Y-93819686D01*
X182354646Y-93728828D01*
X182493828Y-93589646D01*
X182609524Y-93430405D01*
X182698884Y-93255025D01*
X182759709Y-93067826D01*
X182775809Y-92966173D01*
X182790500Y-92873422D01*
X182790500Y-92676577D01*
X182759709Y-92482173D01*
X182721398Y-92364266D01*
X182698884Y-92294975D01*
X182698882Y-92294972D01*
X182698882Y-92294970D01*
X182611676Y-92123819D01*
X182609524Y-92119595D01*
X182493828Y-91960354D01*
X182354646Y-91821172D01*
X182195405Y-91705476D01*
X182020029Y-91616117D01*
X181832826Y-91555290D01*
X181638422Y-91524500D01*
X181638417Y-91524500D01*
X181441583Y-91524500D01*
X181441578Y-91524500D01*
X181247173Y-91555290D01*
X181059970Y-91616117D01*
X180884594Y-91705476D01*
X180793741Y-91771485D01*
X180725354Y-91821172D01*
X180725352Y-91821174D01*
X180725351Y-91821174D01*
X180586174Y-91960351D01*
X180586174Y-91960352D01*
X180586172Y-91960354D01*
X180540740Y-92022885D01*
X180470476Y-92119594D01*
X180381117Y-92294970D01*
X180320290Y-92482173D01*
X180289500Y-92676577D01*
X179687291Y-92676577D01*
X179688743Y-92675308D01*
X179689170Y-92674991D01*
X179814646Y-92583828D01*
X179953828Y-92444646D01*
X180069524Y-92285405D01*
X180158884Y-92110025D01*
X180219709Y-91922826D01*
X180235809Y-91821174D01*
X180250500Y-91728422D01*
X180250500Y-91531577D01*
X180219709Y-91337173D01*
X180158882Y-91149970D01*
X180069523Y-90974594D01*
X180044309Y-90939890D01*
X179953828Y-90815354D01*
X179814646Y-90676172D01*
X179655405Y-90560476D01*
X179480029Y-90471117D01*
X179292826Y-90410290D01*
X179098422Y-90379500D01*
X179098417Y-90379500D01*
X178901583Y-90379500D01*
X178901578Y-90379500D01*
X178707173Y-90410290D01*
X178519970Y-90471117D01*
X178344594Y-90560476D01*
X178253741Y-90626485D01*
X178185354Y-90676172D01*
X178185352Y-90676174D01*
X178185351Y-90676174D01*
X178046174Y-90815351D01*
X178046174Y-90815352D01*
X178046172Y-90815354D01*
X178035531Y-90830000D01*
X177930476Y-90974594D01*
X177841117Y-91149970D01*
X177780290Y-91337173D01*
X177749500Y-91531577D01*
X177749500Y-91555942D01*
X177729815Y-91622981D01*
X177677011Y-91668736D01*
X177607853Y-91678680D01*
X177551189Y-91655209D01*
X177535374Y-91643370D01*
X177452331Y-91581204D01*
X177452329Y-91581203D01*
X177452328Y-91581202D01*
X177317482Y-91530908D01*
X177317483Y-91530908D01*
X177257883Y-91524501D01*
X177257881Y-91524500D01*
X177257873Y-91524500D01*
X177257864Y-91524500D01*
X175662129Y-91524500D01*
X175662123Y-91524501D01*
X175602516Y-91530908D01*
X175467671Y-91581202D01*
X175467664Y-91581206D01*
X175352455Y-91667452D01*
X175352452Y-91667455D01*
X175266206Y-91782664D01*
X175266202Y-91782671D01*
X175215908Y-91917517D01*
X175209501Y-91977116D01*
X175209500Y-91977135D01*
X173122827Y-91977135D01*
X173153205Y-91917516D01*
X173153207Y-91917511D01*
X173167923Y-91888627D01*
X173232373Y-91690272D01*
X173265000Y-91484279D01*
X173265000Y-91275720D01*
X173232373Y-91069727D01*
X173167924Y-90871372D01*
X173073244Y-90685556D01*
X173073236Y-90685543D01*
X173037372Y-90636180D01*
X173037371Y-90636179D01*
X172463787Y-91209764D01*
X172452518Y-91167708D01*
X172380110Y-91042292D01*
X172277708Y-90939890D01*
X172152292Y-90867482D01*
X172110233Y-90856212D01*
X172683819Y-90282627D01*
X172634451Y-90246759D01*
X172583437Y-90220766D01*
X172532641Y-90172791D01*
X172515846Y-90104970D01*
X172538384Y-90038835D01*
X172583438Y-89999796D01*
X172634712Y-89973671D01*
X172634711Y-89973671D01*
X172634714Y-89973670D01*
X172803505Y-89851035D01*
X172951035Y-89703505D01*
X173073670Y-89534714D01*
X173168389Y-89348816D01*
X173232862Y-89150389D01*
X173265500Y-88944324D01*
X173265500Y-88735675D01*
X173232862Y-88529610D01*
X173168387Y-88331179D01*
X173073669Y-88145285D01*
X172951035Y-87976495D01*
X172803505Y-87828965D01*
X172747241Y-87788086D01*
X172634712Y-87706328D01*
X172583990Y-87680485D01*
X172533194Y-87632511D01*
X172516398Y-87564690D01*
X172538935Y-87498555D01*
X172583990Y-87459515D01*
X172634712Y-87433671D01*
X172634711Y-87433671D01*
X172634714Y-87433670D01*
X172803505Y-87311035D01*
X172951035Y-87163505D01*
X173073670Y-86994714D01*
X173168389Y-86808816D01*
X173232862Y-86610389D01*
X173257174Y-86456890D01*
X173265500Y-86404324D01*
X173265500Y-86195675D01*
X173232862Y-85989610D01*
X173202948Y-85897545D01*
X173168389Y-85791184D01*
X173168387Y-85791181D01*
X173168387Y-85791179D01*
X173073669Y-85605285D01*
X172951035Y-85436495D01*
X172803505Y-85288965D01*
X172747241Y-85248086D01*
X172634712Y-85166328D01*
X172583990Y-85140485D01*
X172533194Y-85092511D01*
X172516398Y-85024690D01*
X172538935Y-84958555D01*
X172583990Y-84919515D01*
X172634712Y-84893671D01*
X172634711Y-84893671D01*
X172634714Y-84893670D01*
X172803505Y-84771035D01*
X172951035Y-84623505D01*
X173073670Y-84454714D01*
X173087722Y-84427135D01*
X176100000Y-84427135D01*
X176100000Y-84752864D01*
X176136468Y-85076520D01*
X176136470Y-85076536D01*
X176208948Y-85394087D01*
X176208952Y-85394099D01*
X176316525Y-85701523D01*
X176316534Y-85701545D01*
X176457849Y-85994989D01*
X176631146Y-86270789D01*
X176779555Y-86456890D01*
X177705747Y-85530697D01*
X177779588Y-85632330D01*
X177957670Y-85810412D01*
X178059300Y-85884251D01*
X177133108Y-86810443D01*
X177319210Y-86958853D01*
X177595010Y-87132150D01*
X177888454Y-87273465D01*
X177888476Y-87273474D01*
X178195900Y-87381047D01*
X178195912Y-87381051D01*
X178513463Y-87453529D01*
X178513479Y-87453531D01*
X178837135Y-87489999D01*
X178837136Y-87490000D01*
X179162864Y-87490000D01*
X179162864Y-87489999D01*
X179486520Y-87453531D01*
X179486536Y-87453529D01*
X179804087Y-87381051D01*
X179804099Y-87381047D01*
X180111523Y-87273474D01*
X180111545Y-87273465D01*
X180404989Y-87132150D01*
X180680789Y-86958853D01*
X180866890Y-86810443D01*
X179940698Y-85884251D01*
X180042330Y-85810412D01*
X180220412Y-85632330D01*
X180294251Y-85530698D01*
X181220443Y-86456890D01*
X181368853Y-86270789D01*
X181542150Y-85994989D01*
X181683465Y-85701545D01*
X181683474Y-85701523D01*
X181791047Y-85394099D01*
X181791051Y-85394087D01*
X181863529Y-85076536D01*
X181863531Y-85076520D01*
X181899999Y-84752864D01*
X181900000Y-84752864D01*
X181900000Y-84427136D01*
X181899999Y-84427135D01*
X181863531Y-84103479D01*
X181863529Y-84103463D01*
X181791051Y-83785912D01*
X181791047Y-83785900D01*
X181683474Y-83478476D01*
X181683465Y-83478454D01*
X181542150Y-83185010D01*
X181368853Y-82909210D01*
X181220443Y-82723108D01*
X180294250Y-83649300D01*
X180220412Y-83547670D01*
X180042330Y-83369588D01*
X179940697Y-83295747D01*
X180866890Y-82369555D01*
X180680789Y-82221146D01*
X180404989Y-82047849D01*
X180111545Y-81906534D01*
X180111523Y-81906525D01*
X179804099Y-81798952D01*
X179804087Y-81798948D01*
X179486536Y-81726470D01*
X179486520Y-81726468D01*
X179162864Y-81690000D01*
X178837136Y-81690000D01*
X178513479Y-81726468D01*
X178513463Y-81726470D01*
X178195912Y-81798948D01*
X178195900Y-81798952D01*
X177888476Y-81906525D01*
X177888454Y-81906534D01*
X177595010Y-82047849D01*
X177319210Y-82221146D01*
X177133108Y-82369555D01*
X178059301Y-83295748D01*
X177957670Y-83369588D01*
X177779588Y-83547670D01*
X177705748Y-83649301D01*
X176779555Y-82723108D01*
X176631146Y-82909210D01*
X176457849Y-83185010D01*
X176316534Y-83478454D01*
X176316525Y-83478476D01*
X176208952Y-83785900D01*
X176208948Y-83785912D01*
X176136470Y-84103463D01*
X176136468Y-84103479D01*
X176100000Y-84427135D01*
X173087722Y-84427135D01*
X173114213Y-84375143D01*
X173118176Y-84367366D01*
X173118177Y-84367364D01*
X173168386Y-84268823D01*
X173168386Y-84268819D01*
X173168389Y-84268816D01*
X173232862Y-84070389D01*
X173265500Y-83864324D01*
X173265500Y-83655675D01*
X173232862Y-83449610D01*
X173168387Y-83251179D01*
X173073669Y-83065285D01*
X172960273Y-82909210D01*
X172951035Y-82896495D01*
X172803505Y-82748965D01*
X172747241Y-82708086D01*
X172634712Y-82626328D01*
X172583990Y-82600485D01*
X172578492Y-82595292D01*
X172571278Y-82593025D01*
X172553440Y-82571632D01*
X172533194Y-82552511D01*
X172531376Y-82545171D01*
X172526533Y-82539363D01*
X172523092Y-82511722D01*
X172516398Y-82484690D01*
X172518837Y-82477532D01*
X172517903Y-82470028D01*
X172529951Y-82444916D01*
X172538935Y-82418555D01*
X172545611Y-82412278D01*
X172548128Y-82407034D01*
X172564803Y-82394238D01*
X172575235Y-82384432D01*
X172579511Y-82381796D01*
X172634714Y-82353670D01*
X172803505Y-82231035D01*
X172951035Y-82083505D01*
X173073670Y-81914714D01*
X173168389Y-81728816D01*
X173232862Y-81530389D01*
X173265500Y-81324324D01*
X173265500Y-81115675D01*
X173232862Y-80909610D01*
X173168387Y-80711179D01*
X173073669Y-80525285D01*
X172951035Y-80356495D01*
X172803505Y-80208965D01*
X172634714Y-80086330D01*
X172448820Y-79991612D01*
X172250389Y-79927137D01*
X172044324Y-79894500D01*
X172044319Y-79894500D01*
X171835681Y-79894500D01*
X171835676Y-79894500D01*
X171629610Y-79927137D01*
X171431179Y-79991612D01*
X171245285Y-80086330D01*
X171076493Y-80208966D01*
X170928966Y-80356493D01*
X170806330Y-80525285D01*
X170780485Y-80576010D01*
X170732510Y-80626806D01*
X170664690Y-80643601D01*
X170598555Y-80621064D01*
X170559515Y-80576010D01*
X170533669Y-80525285D01*
X170411035Y-80356495D01*
X170263505Y-80208965D01*
X170094714Y-80086330D01*
X169908820Y-79991612D01*
X169710389Y-79927137D01*
X169504324Y-79894500D01*
X169504319Y-79894500D01*
X169295681Y-79894500D01*
X169295676Y-79894500D01*
X169089610Y-79927137D01*
X168891179Y-79991612D01*
X168705285Y-80086330D01*
X168536493Y-80208966D01*
X168388966Y-80356493D01*
X168266330Y-80525285D01*
X168171612Y-80711179D01*
X168107137Y-80909610D01*
X168074500Y-81115675D01*
X164900500Y-81115675D01*
X164900500Y-74624500D01*
X164920185Y-74557461D01*
X164972989Y-74511706D01*
X165024500Y-74500500D01*
X190375500Y-74500500D01*
X190442539Y-74520185D01*
G37*
%TD.AperFunction*%
%TD*%
M02*
