M48
; DRILL file {KiCad 9.0.7} date 2026-03-01T16:53:55-0600
; FORMAT={-:-/ absolute / metric / decimal}
; #@! TF.CreationDate,2026-03-01T16:53:55-06:00
; #@! TF.GenerationSoftware,Kicad,Pcbnew,9.0.7
; #@! TF.FileFunction,Plated,1,2,PTH
FMAT,2
METRIC
; #@! TA.AperFunction,Plated,PTH,ViaDrill
T1C0.300
; #@! TA.AperFunction,Plated,PTH,ComponentDrill
T2C1.000
; #@! TA.AperFunction,Plated,PTH,ComponentDrill
T3C1.100
; #@! TA.AperFunction,Plated,PTH,ComponentDrill
T4C3.200
%
G90
G05
T1
X165.5Y-81.5
X165.5Y-83.0
X165.5Y-84.5
X165.5Y-86.0
X165.5Y-87.5
X165.5Y-89.0
X165.5Y-90.5
X165.5Y-92.0
X165.5Y-93.5
X165.5Y-95.0
X165.5Y-96.5
X165.5Y-98.0
X165.5Y-99.5
X165.5Y-101.0
X166.0Y-103.0
X166.0Y-104.5
X166.0Y-106.0
X166.0Y-107.5
X166.0Y-109.0
X166.0Y-110.5
X166.0Y-112.0
X166.0Y-113.5
X166.0Y-115.0
X166.0Y-116.5
X166.0Y-118.0
X166.0Y-119.5
X166.0Y-121.0
X166.0Y-122.5
X166.5Y-76.2
X166.5Y-77.7
X166.5Y-79.2
X167.0Y-81.5
X167.0Y-83.0
X167.0Y-84.5
X167.0Y-86.0
X167.0Y-87.5
X167.0Y-89.0
X167.0Y-90.5
X167.0Y-92.0
X167.0Y-93.5
X167.0Y-95.0
X167.0Y-96.5
X167.0Y-98.0
X167.0Y-99.5
X167.0Y-101.0
X167.5Y-103.0
X167.5Y-104.5
X167.5Y-106.0
X167.5Y-107.5
X167.5Y-109.0
X167.5Y-110.5
X167.5Y-112.0
X167.5Y-113.5
X167.5Y-115.0
X167.5Y-116.5
X167.5Y-118.0
X167.5Y-119.5
X167.5Y-121.0
X167.5Y-122.5
X168.0Y-76.2
X168.0Y-77.7
X168.0Y-79.2
X168.5Y-99.5
X168.5Y-101.0
X169.0Y-121.0
X169.0Y-122.5
X169.5Y-76.2
X169.5Y-77.7
X169.5Y-79.2
X170.0Y-99.5
X170.0Y-101.0
X170.5Y-121.0
X170.5Y-122.5
X171.0Y-76.2
X171.0Y-77.7
X171.0Y-79.2
X171.5Y-99.5
X171.5Y-101.0
X172.0Y-121.0
X172.0Y-122.5
X172.5Y-76.2
X172.5Y-77.7
X172.5Y-79.2
X173.5Y-121.0
X173.5Y-122.5
X174.0Y-76.2
X174.0Y-77.7
X174.0Y-79.2
X174.0Y-106.7
X174.0Y-108.2
X174.0Y-110.7
X175.5Y-79.2
X175.5Y-106.7
X175.5Y-110.7
X177.0Y-79.2
X177.0Y-80.7
X178.5Y-79.2
X178.5Y-80.7
X178.5Y-88.2
X180.0Y-79.2
X180.0Y-80.7
X180.0Y-88.2
X180.0Y-89.7
X180.75Y-113.95
X181.2Y-105.5
X181.5Y-76.2
X181.5Y-77.7
X181.5Y-79.2
X181.5Y-80.7
X181.5Y-82.2
X181.5Y-86.7
X181.5Y-88.2
X181.5Y-89.7
X181.5Y-104.2
X182.0Y-112.95
X182.5Y-116.45
X182.5Y-117.95
X182.5Y-119.5
X182.5Y-121.0
X182.5Y-122.5
X182.7Y-108.05
X183.0Y-76.2
X183.0Y-77.7
X183.0Y-79.2
X183.0Y-80.7
X183.0Y-82.2
X183.0Y-83.7
X183.0Y-85.2
X183.0Y-86.7
X183.0Y-88.2
X183.0Y-89.7
X183.0Y-91.2
X183.0Y-111.95
X184.0Y-116.7
X184.0Y-118.2
X184.0Y-119.75
X184.0Y-121.25
X184.0Y-122.5
X184.25Y-110.7
X184.5Y-76.2
X184.5Y-77.7
X184.5Y-79.2
X184.5Y-80.7
X184.5Y-82.2
X184.5Y-83.7
X184.5Y-85.2
X184.5Y-86.7
X184.5Y-88.2
X184.5Y-89.7
X184.5Y-91.2
X184.5Y-92.7
X184.5Y-94.2
X185.0Y-115.2
X185.5Y-116.7
X185.5Y-118.2
X185.5Y-119.75
X185.5Y-121.25
X185.5Y-122.75
X186.0Y-76.2
X186.0Y-77.7
X186.0Y-79.2
X186.0Y-80.7
X186.0Y-82.2
X186.0Y-83.7
X186.0Y-85.2
X186.0Y-86.7
X186.0Y-88.2
X186.0Y-89.7
X186.0Y-91.2
X186.0Y-92.7
X186.0Y-94.2
X186.0Y-95.7
X186.5Y-113.7
X186.5Y-115.2
X187.0Y-116.7
X187.0Y-118.2
X187.0Y-119.75
X187.0Y-121.25
X187.0Y-122.75
X187.5Y-76.2
X187.5Y-77.7
X187.5Y-79.2
X187.5Y-80.7
X187.5Y-82.2
X187.5Y-83.7
X187.5Y-85.2
X187.5Y-86.7
X187.5Y-88.2
X187.5Y-89.7
X187.5Y-91.2
X187.5Y-92.7
X187.5Y-94.2
X187.5Y-95.7
X187.5Y-97.2
X187.5Y-98.7
X187.5Y-100.2
X187.5Y-101.7
X187.5Y-103.2
X187.5Y-104.7
X187.5Y-106.2
X187.5Y-107.7
X187.5Y-109.2
X187.5Y-110.7
X187.5Y-112.2
X188.0Y-113.7
X188.0Y-115.2
X188.5Y-116.7
X188.5Y-118.2
X188.5Y-119.75
X188.5Y-121.25
X188.5Y-122.75
X189.0Y-76.2
X189.0Y-77.7
X189.0Y-79.2
X189.0Y-80.7
X189.0Y-82.2
X189.0Y-83.7
X189.0Y-85.2
X189.0Y-86.7
X189.0Y-88.2
X189.0Y-89.7
X189.0Y-91.2
X189.0Y-92.7
X189.0Y-94.2
X189.0Y-95.7
X189.0Y-97.2
X189.0Y-98.7
X189.0Y-100.2
X189.0Y-101.7
X189.0Y-103.2
X189.0Y-104.7
X189.0Y-106.2
X189.0Y-107.7
X189.0Y-109.2
X189.0Y-110.7
X189.0Y-112.2
X189.5Y-113.7
X189.5Y-115.2
T2
X176.46Y-92.775
X176.46Y-95.065
X176.46Y-97.355
X176.46Y-99.645
X176.46Y-101.935
X179.0Y-91.63
X179.0Y-93.92
X179.0Y-96.21
X179.0Y-98.5
X179.0Y-100.79
X181.54Y-92.775
X181.54Y-95.065
X181.54Y-97.355
X181.54Y-99.645
X181.54Y-101.935
T3
X169.4Y-81.22
X169.4Y-83.76
X169.4Y-86.3
X169.4Y-88.84
X169.4Y-91.38
X169.4Y-93.92
X169.4Y-104.08
X169.4Y-106.62
X169.4Y-109.16
X169.4Y-111.7
X169.4Y-114.24
X169.4Y-116.78
X171.94Y-81.22
X171.94Y-83.76
X171.94Y-86.3
X171.94Y-88.84
X171.94Y-91.38
X171.94Y-93.92
X171.94Y-104.08
X171.94Y-106.62
X171.94Y-109.16
X171.94Y-111.7
X171.94Y-114.24
X171.94Y-116.78
T4
X179.0Y-84.59
X179.0Y-109.58
M30
