%TF.GenerationSoftware,KiCad,Pcbnew,9.0.7*%
%TF.CreationDate,2026-03-01T16:53:16-06:00*%
%TF.ProjectId,fpga_interconnect,66706761-5f69-46e7-9465-72636f6e6e65,rev?*%
%TF.SameCoordinates,Original*%
%TF.FileFunction,Soldermask,Bot*%
%TF.FilePolarity,Negative*%
%FSLAX46Y46*%
G04 Gerber Fmt 4.6, Leading zero omitted, Abs format (unit mm)*
G04 Created by KiCad (PCBNEW 9.0.7) date 2026-03-01 16:53:16*
%MOMM*%
%LPD*%
G01*
G04 APERTURE LIST*
%ADD10C,1.650000*%
%ADD11R,1.650000X1.650000*%
%ADD12C,4.800000*%
%ADD13C,1.500000*%
%ADD14R,1.500000X1.500000*%
G04 APERTURE END LIST*
D10*
%TO.C,J2*%
X169400000Y-81220000D03*
X171940000Y-81220000D03*
X169400000Y-83760000D03*
X171940000Y-83760000D03*
X169400000Y-86300000D03*
X171940000Y-86300000D03*
X169400000Y-88840000D03*
X171940000Y-88840000D03*
X169400000Y-91380000D03*
X171940000Y-91380000D03*
X169400000Y-93920000D03*
D11*
X171940000Y-93920000D03*
%TD*%
D12*
%TO.C,J1*%
X179000000Y-109580000D03*
X179000000Y-84590000D03*
D13*
X181540000Y-101935000D03*
X181540000Y-99645000D03*
X181540000Y-97355000D03*
X181540000Y-95065000D03*
X181540000Y-92775000D03*
X179000000Y-100790000D03*
X179000000Y-98500000D03*
X179000000Y-96210000D03*
X179000000Y-93920000D03*
X179000000Y-91630000D03*
X176460000Y-101935000D03*
X176460000Y-99645000D03*
X176460000Y-97355000D03*
X176460000Y-95065000D03*
D14*
X176460000Y-92775000D03*
%TD*%
D11*
%TO.C,J3*%
X171940000Y-116780000D03*
D10*
X169400000Y-116780000D03*
X171940000Y-114240000D03*
X169400000Y-114240000D03*
X171940000Y-111700000D03*
X169400000Y-111700000D03*
X171940000Y-109160000D03*
X169400000Y-109160000D03*
X171940000Y-106620000D03*
X169400000Y-106620000D03*
X171940000Y-104080000D03*
X169400000Y-104080000D03*
%TD*%
M02*
